%TF.GenerationSoftware,KiCad,Pcbnew,9.0.4*%
%TF.CreationDate,2025-09-27T01:25:33+08:00*%
%TF.ProjectId,KiCAD_Proj (MCU datalogger),4b694341-445f-4507-926f-6a20284d4355,rev?*%
%TF.SameCoordinates,Original*%
%TF.FileFunction,Paste,Top*%
%TF.FilePolarity,Positive*%
%FSLAX46Y46*%
G04 Gerber Fmt 4.6, Leading zero omitted, Abs format (unit mm)*
G04 Created by KiCad (PCBNEW 9.0.4) date 2025-09-27 01:25:33*
%MOMM*%
%LPD*%
G01*
G04 APERTURE LIST*
G04 Aperture macros list*
%AMRoundRect*
0 Rectangle with rounded corners*
0 $1 Rounding radius*
0 $2 $3 $4 $5 $6 $7 $8 $9 X,Y pos of 4 corners*
0 Add a 4 corners polygon primitive as box body*
4,1,4,$2,$3,$4,$5,$6,$7,$8,$9,$2,$3,0*
0 Add four circle primitives for the rounded corners*
1,1,$1+$1,$2,$3*
1,1,$1+$1,$4,$5*
1,1,$1+$1,$6,$7*
1,1,$1+$1,$8,$9*
0 Add four rect primitives between the rounded corners*
20,1,$1+$1,$2,$3,$4,$5,0*
20,1,$1+$1,$4,$5,$6,$7,0*
20,1,$1+$1,$6,$7,$8,$9,0*
20,1,$1+$1,$8,$9,$2,$3,0*%
G04 Aperture macros list end*
%ADD10RoundRect,0.076250X-0.768750X-0.228750X0.768750X-0.228750X0.768750X0.228750X-0.768750X0.228750X0*%
%ADD11RoundRect,0.250000X0.262500X0.450000X-0.262500X0.450000X-0.262500X-0.450000X0.262500X-0.450000X0*%
%ADD12RoundRect,0.243750X-0.243750X-0.456250X0.243750X-0.456250X0.243750X0.456250X-0.243750X0.456250X0*%
%ADD13RoundRect,0.250000X-0.262500X-0.450000X0.262500X-0.450000X0.262500X0.450000X-0.262500X0.450000X0*%
%ADD14RoundRect,0.250001X1.499999X0.949999X-1.499999X0.949999X-1.499999X-0.949999X1.499999X-0.949999X0*%
%ADD15RoundRect,0.250001X0.949999X-1.499999X0.949999X1.499999X-0.949999X1.499999X-0.949999X-1.499999X0*%
%ADD16RoundRect,0.073750X-0.911250X-0.221250X0.911250X-0.221250X0.911250X0.221250X-0.911250X0.221250X0*%
%ADD17RoundRect,0.250000X-0.250000X-0.475000X0.250000X-0.475000X0.250000X0.475000X-0.250000X0.475000X0*%
%ADD18RoundRect,0.250000X0.250000X0.475000X-0.250000X0.475000X-0.250000X-0.475000X0.250000X-0.475000X0*%
%ADD19RoundRect,0.068750X-0.666250X-0.206250X0.666250X-0.206250X0.666250X0.206250X-0.666250X0.206250X0*%
%ADD20RoundRect,0.068750X-0.206250X-0.666250X0.206250X-0.666250X0.206250X0.666250X-0.206250X0.666250X0*%
G04 APERTURE END LIST*
D10*
%TO.C,U3*%
X105240000Y-78740000D03*
X105240000Y-80010000D03*
X105240000Y-81280000D03*
X105240000Y-82550000D03*
X97960000Y-82550000D03*
X97960000Y-81280000D03*
X97960000Y-80010000D03*
X97960000Y-78740000D03*
%TD*%
D11*
%TO.C,R5*%
X127357500Y-82550000D03*
X129182500Y-82550000D03*
%TD*%
D12*
%TO.C,D1*%
X127332500Y-78740000D03*
X129207500Y-78740000D03*
%TD*%
D13*
%TO.C,R6*%
X129182500Y-86360000D03*
X127357500Y-86360000D03*
%TD*%
D12*
%TO.C,D2*%
X124762500Y-78740000D03*
X122887500Y-78740000D03*
%TD*%
D14*
%TO.C,Y2*%
X116265000Y-97155000D03*
X111065000Y-97155000D03*
%TD*%
D15*
%TO.C,Y1*%
X93980000Y-98485000D03*
X93980000Y-93285000D03*
%TD*%
D16*
%TO.C,U2*%
X99125000Y-92710000D03*
X99125000Y-93980000D03*
X99125000Y-95250000D03*
X99125000Y-96520000D03*
X104075000Y-96520000D03*
X104075000Y-95250000D03*
X104075000Y-93980000D03*
X104075000Y-92710000D03*
%TD*%
D13*
%TO.C,R7*%
X122912500Y-82550000D03*
X124737500Y-82550000D03*
%TD*%
D11*
%TO.C,R4*%
X124737500Y-86360000D03*
X122912500Y-86360000D03*
%TD*%
%TO.C,R3*%
X124737500Y-90170000D03*
X122912500Y-90170000D03*
%TD*%
%TO.C,R2*%
X104695000Y-99060000D03*
X102870000Y-99060000D03*
%TD*%
D13*
%TO.C,R1*%
X99060000Y-99060000D03*
X100885000Y-99060000D03*
%TD*%
D17*
%TO.C,C5*%
X117795000Y-78740000D03*
X119695000Y-78740000D03*
%TD*%
D18*
%TO.C,C4*%
X124775000Y-97790000D03*
X122875000Y-97790000D03*
%TD*%
D17*
%TO.C,C3*%
X112715000Y-78740000D03*
X114615000Y-78740000D03*
%TD*%
D18*
%TO.C,C2*%
X124775000Y-93980000D03*
X122875000Y-93980000D03*
%TD*%
D17*
%TO.C,C1*%
X108270000Y-78740000D03*
X110170000Y-78740000D03*
%TD*%
D19*
%TO.C,U4*%
X110130000Y-85465000D03*
X110130000Y-86265000D03*
X110130000Y-87065000D03*
X110130000Y-87865000D03*
X110130000Y-88665000D03*
X110130000Y-89465000D03*
X110130000Y-90265000D03*
X110130000Y-91065000D03*
D20*
X111500000Y-92435000D03*
X112300000Y-92435000D03*
X113100000Y-92435000D03*
X113900000Y-92435000D03*
X114700000Y-92435000D03*
X115500000Y-92435000D03*
X116300000Y-92435000D03*
X117100000Y-92435000D03*
D19*
X118470000Y-91065000D03*
X118470000Y-90265000D03*
X118470000Y-89465000D03*
X118470000Y-88665000D03*
X118470000Y-87865000D03*
X118470000Y-87065000D03*
X118470000Y-86265000D03*
X118470000Y-85465000D03*
D20*
X117100000Y-84095000D03*
X116300000Y-84095000D03*
X115500000Y-84095000D03*
X114700000Y-84095000D03*
X113900000Y-84095000D03*
X113100000Y-84095000D03*
X112300000Y-84095000D03*
X111500000Y-84095000D03*
%TD*%
D10*
%TO.C,U1*%
X97960000Y-85725000D03*
X97960000Y-86995000D03*
X97960000Y-88265000D03*
X97960000Y-89535000D03*
X105240000Y-89535000D03*
X105240000Y-88265000D03*
X105240000Y-86995000D03*
X105240000Y-85725000D03*
%TD*%
M02*
