%TF.GenerationSoftware,KiCad,Pcbnew,9.0.4*%
%TF.CreationDate,2025-09-30T16:41:53+08:00*%
%TF.ProjectId,KiCAD_Proj (MCU datalogger),4b694341-445f-4507-926f-6a20284d4355,rev?*%
%TF.SameCoordinates,Original*%
%TF.FileFunction,Paste,Top*%
%TF.FilePolarity,Positive*%
%FSLAX46Y46*%
G04 Gerber Fmt 4.6, Leading zero omitted, Abs format (unit mm)*
G04 Created by KiCad (PCBNEW 9.0.4) date 2025-09-30 16:41:53*
%MOMM*%
%LPD*%
G01*
G04 APERTURE LIST*
G04 Aperture macros list*
%AMRoundRect*
0 Rectangle with rounded corners*
0 $1 Rounding radius*
0 $2 $3 $4 $5 $6 $7 $8 $9 X,Y pos of 4 corners*
0 Add a 4 corners polygon primitive as box body*
4,1,4,$2,$3,$4,$5,$6,$7,$8,$9,$2,$3,0*
0 Add four circle primitives for the rounded corners*
1,1,$1+$1,$2,$3*
1,1,$1+$1,$4,$5*
1,1,$1+$1,$6,$7*
1,1,$1+$1,$8,$9*
0 Add four rect primitives between the rounded corners*
20,1,$1+$1,$2,$3,$4,$5,0*
20,1,$1+$1,$4,$5,$6,$7,0*
20,1,$1+$1,$6,$7,$8,$9,0*
20,1,$1+$1,$8,$9,$2,$3,0*%
G04 Aperture macros list end*
%ADD10RoundRect,0.250000X0.262500X0.450000X-0.262500X0.450000X-0.262500X-0.450000X0.262500X-0.450000X0*%
%ADD11RoundRect,0.243750X-0.243750X-0.456250X0.243750X-0.456250X0.243750X0.456250X-0.243750X0.456250X0*%
%ADD12RoundRect,0.250000X0.250000X0.475000X-0.250000X0.475000X-0.250000X-0.475000X0.250000X-0.475000X0*%
%ADD13RoundRect,0.250000X-0.250000X-0.475000X0.250000X-0.475000X0.250000X0.475000X-0.250000X0.475000X0*%
%ADD14RoundRect,0.076250X-0.768750X-0.228750X0.768750X-0.228750X0.768750X0.228750X-0.768750X0.228750X0*%
%ADD15RoundRect,0.250000X-0.262500X-0.450000X0.262500X-0.450000X0.262500X0.450000X-0.262500X0.450000X0*%
%ADD16RoundRect,0.250001X0.949999X-1.499999X0.949999X1.499999X-0.949999X1.499999X-0.949999X-1.499999X0*%
%ADD17RoundRect,0.068750X-0.666250X-0.206250X0.666250X-0.206250X0.666250X0.206250X-0.666250X0.206250X0*%
%ADD18RoundRect,0.068750X-0.206250X-0.666250X0.206250X-0.666250X0.206250X0.666250X-0.206250X0.666250X0*%
%ADD19RoundRect,0.250001X1.499999X0.949999X-1.499999X0.949999X-1.499999X-0.949999X1.499999X-0.949999X0*%
%ADD20RoundRect,0.073750X-0.911250X-0.221250X0.911250X-0.221250X0.911250X0.221250X-0.911250X0.221250X0*%
G04 APERTURE END LIST*
D10*
%TO.C,R3*%
X121984436Y-101432064D03*
X120159436Y-101432064D03*
%TD*%
D11*
%TO.C,D1*%
X124579436Y-90002064D03*
X126454436Y-90002064D03*
%TD*%
D10*
%TO.C,R2*%
X101941936Y-110322064D03*
X100116936Y-110322064D03*
%TD*%
D12*
%TO.C,C2*%
X122021936Y-105242064D03*
X120121936Y-105242064D03*
%TD*%
%TO.C,C4*%
X122021936Y-109052064D03*
X120121936Y-109052064D03*
%TD*%
D13*
%TO.C,C3*%
X109961936Y-90002064D03*
X111861936Y-90002064D03*
%TD*%
D10*
%TO.C,R5*%
X126429436Y-93812064D03*
X124604436Y-93812064D03*
%TD*%
D14*
%TO.C,U1*%
X95206936Y-96987064D03*
X95206936Y-98257064D03*
X95206936Y-99527064D03*
X95206936Y-100797064D03*
X102486936Y-100797064D03*
X102486936Y-99527064D03*
X102486936Y-98257064D03*
X102486936Y-96987064D03*
%TD*%
D15*
%TO.C,R7*%
X120159436Y-93812064D03*
X121984436Y-93812064D03*
%TD*%
D11*
%TO.C,D2*%
X120134436Y-90002064D03*
X122009436Y-90002064D03*
%TD*%
D16*
%TO.C,Y1*%
X91226936Y-109747064D03*
X91226936Y-104547064D03*
%TD*%
D13*
%TO.C,C5*%
X115041936Y-90002064D03*
X116941936Y-90002064D03*
%TD*%
D17*
%TO.C,U4*%
X107376936Y-96727064D03*
X107376936Y-97527064D03*
X107376936Y-98327064D03*
X107376936Y-99127064D03*
X107376936Y-99927064D03*
X107376936Y-100727064D03*
X107376936Y-101527064D03*
X107376936Y-102327064D03*
D18*
X108746936Y-103697064D03*
X109546936Y-103697064D03*
X110346936Y-103697064D03*
X111146936Y-103697064D03*
X111946936Y-103697064D03*
X112746936Y-103697064D03*
X113546936Y-103697064D03*
X114346936Y-103697064D03*
D17*
X115716936Y-102327064D03*
X115716936Y-101527064D03*
X115716936Y-100727064D03*
X115716936Y-99927064D03*
X115716936Y-99127064D03*
X115716936Y-98327064D03*
X115716936Y-97527064D03*
X115716936Y-96727064D03*
D18*
X114346936Y-95357064D03*
X113546936Y-95357064D03*
X112746936Y-95357064D03*
X111946936Y-95357064D03*
X111146936Y-95357064D03*
X110346936Y-95357064D03*
X109546936Y-95357064D03*
X108746936Y-95357064D03*
%TD*%
D10*
%TO.C,R4*%
X121984436Y-97622064D03*
X120159436Y-97622064D03*
%TD*%
D19*
%TO.C,Y2*%
X113511936Y-108417064D03*
X108311936Y-108417064D03*
%TD*%
D13*
%TO.C,C1*%
X105516936Y-90002064D03*
X107416936Y-90002064D03*
%TD*%
D15*
%TO.C,R1*%
X96306936Y-110322064D03*
X98131936Y-110322064D03*
%TD*%
D14*
%TO.C,U3*%
X95206936Y-90002064D03*
X95206936Y-91272064D03*
X95206936Y-92542064D03*
X95206936Y-93812064D03*
X102486936Y-93812064D03*
X102486936Y-92542064D03*
X102486936Y-91272064D03*
X102486936Y-90002064D03*
%TD*%
D15*
%TO.C,R6*%
X124604436Y-97622064D03*
X126429436Y-97622064D03*
%TD*%
D20*
%TO.C,U2*%
X96371936Y-103972064D03*
X96371936Y-105242064D03*
X96371936Y-106512064D03*
X96371936Y-107782064D03*
X101321936Y-107782064D03*
X101321936Y-106512064D03*
X101321936Y-105242064D03*
X101321936Y-103972064D03*
%TD*%
M02*
