%TF.GenerationSoftware,KiCad,Pcbnew,9.0.4*%
%TF.CreationDate,2025-09-27T01:32:14+08:00*%
%TF.ProjectId,KiCAD_Proj (MCU datalogger),4b694341-445f-4507-926f-6a20284d4355,rev?*%
%TF.SameCoordinates,Original*%
%TF.FileFunction,Copper,L1,Top*%
%TF.FilePolarity,Positive*%
%FSLAX46Y46*%
G04 Gerber Fmt 4.6, Leading zero omitted, Abs format (unit mm)*
G04 Created by KiCad (PCBNEW 9.0.4) date 2025-09-27 01:32:14*
%MOMM*%
%LPD*%
G01*
G04 APERTURE LIST*
G04 Aperture macros list*
%AMRoundRect*
0 Rectangle with rounded corners*
0 $1 Rounding radius*
0 $2 $3 $4 $5 $6 $7 $8 $9 X,Y pos of 4 corners*
0 Add a 4 corners polygon primitive as box body*
4,1,4,$2,$3,$4,$5,$6,$7,$8,$9,$2,$3,0*
0 Add four circle primitives for the rounded corners*
1,1,$1+$1,$2,$3*
1,1,$1+$1,$4,$5*
1,1,$1+$1,$6,$7*
1,1,$1+$1,$8,$9*
0 Add four rect primitives between the rounded corners*
20,1,$1+$1,$2,$3,$4,$5,0*
20,1,$1+$1,$4,$5,$6,$7,0*
20,1,$1+$1,$6,$7,$8,$9,0*
20,1,$1+$1,$8,$9,$2,$3,0*%
G04 Aperture macros list end*
%TA.AperFunction,SMDPad,CuDef*%
%ADD10RoundRect,0.250000X0.262500X0.450000X-0.262500X0.450000X-0.262500X-0.450000X0.262500X-0.450000X0*%
%TD*%
%TA.AperFunction,SMDPad,CuDef*%
%ADD11RoundRect,0.243750X-0.243750X-0.456250X0.243750X-0.456250X0.243750X0.456250X-0.243750X0.456250X0*%
%TD*%
%TA.AperFunction,ComponentPad*%
%ADD12R,1.700000X1.700000*%
%TD*%
%TA.AperFunction,ComponentPad*%
%ADD13C,1.700000*%
%TD*%
%TA.AperFunction,SMDPad,CuDef*%
%ADD14RoundRect,0.250000X0.250000X0.475000X-0.250000X0.475000X-0.250000X-0.475000X0.250000X-0.475000X0*%
%TD*%
%TA.AperFunction,SMDPad,CuDef*%
%ADD15RoundRect,0.250000X-0.250000X-0.475000X0.250000X-0.475000X0.250000X0.475000X-0.250000X0.475000X0*%
%TD*%
%TA.AperFunction,SMDPad,CuDef*%
%ADD16RoundRect,0.076250X-0.768750X-0.228750X0.768750X-0.228750X0.768750X0.228750X-0.768750X0.228750X0*%
%TD*%
%TA.AperFunction,SMDPad,CuDef*%
%ADD17RoundRect,0.250000X-0.262500X-0.450000X0.262500X-0.450000X0.262500X0.450000X-0.262500X0.450000X0*%
%TD*%
%TA.AperFunction,SMDPad,CuDef*%
%ADD18RoundRect,0.250001X0.949999X-1.499999X0.949999X1.499999X-0.949999X1.499999X-0.949999X-1.499999X0*%
%TD*%
%TA.AperFunction,SMDPad,CuDef*%
%ADD19RoundRect,0.068750X-0.666250X-0.206250X0.666250X-0.206250X0.666250X0.206250X-0.666250X0.206250X0*%
%TD*%
%TA.AperFunction,SMDPad,CuDef*%
%ADD20RoundRect,0.068750X-0.206250X-0.666250X0.206250X-0.666250X0.206250X0.666250X-0.206250X0.666250X0*%
%TD*%
%TA.AperFunction,SMDPad,CuDef*%
%ADD21RoundRect,0.250001X1.499999X0.949999X-1.499999X0.949999X-1.499999X-0.949999X1.499999X-0.949999X0*%
%TD*%
%TA.AperFunction,SMDPad,CuDef*%
%ADD22RoundRect,0.073750X-0.911250X-0.221250X0.911250X-0.221250X0.911250X0.221250X-0.911250X0.221250X0*%
%TD*%
%TA.AperFunction,ViaPad*%
%ADD23C,0.600000*%
%TD*%
%TA.AperFunction,Conductor*%
%ADD24C,0.350000*%
%TD*%
%TA.AperFunction,Conductor*%
%ADD25C,0.200000*%
%TD*%
G04 APERTURE END LIST*
D10*
%TO.P,R3,1*%
%TO.N,/Vcc*%
X124737500Y-90170000D03*
%TO.P,R3,2*%
%TO.N,/SCK*%
X122912500Y-90170000D03*
%TD*%
D11*
%TO.P,D1,1,K*%
%TO.N,Net-(D1-K)*%
X127332500Y-78740000D03*
%TO.P,D1,2,A*%
%TO.N,/SCK*%
X129207500Y-78740000D03*
%TD*%
D10*
%TO.P,R2,1*%
%TO.N,/Vcc*%
X104695000Y-99060000D03*
%TO.P,R2,2*%
%TO.N,Net-(U2-SQW{slash}~INT)*%
X102870000Y-99060000D03*
%TD*%
D12*
%TO.P,J4,1,Pin_1*%
%TO.N,/MISO*%
X132715000Y-83185000D03*
D13*
%TO.P,J4,2,Pin_2*%
%TO.N,/Vcc*%
X135255000Y-83185000D03*
%TO.P,J4,3,Pin_3*%
%TO.N,/SCK*%
X132715000Y-85725000D03*
%TO.P,J4,4,Pin_4*%
%TO.N,/MOSI*%
X135255000Y-85725000D03*
%TO.P,J4,5,Pin_5*%
%TO.N,/RESET*%
X132715000Y-88265000D03*
%TO.P,J4,6,Pin_6*%
%TO.N,GND*%
X135255000Y-88265000D03*
%TD*%
D14*
%TO.P,C2,1*%
%TO.N,GND*%
X124775000Y-93980000D03*
%TO.P,C2,2*%
%TO.N,Net-(U4-PB6)*%
X122875000Y-93980000D03*
%TD*%
%TO.P,C4,1*%
%TO.N,GND*%
X124775000Y-97790000D03*
%TO.P,C4,2*%
%TO.N,Net-(U4-AREF)*%
X122875000Y-97790000D03*
%TD*%
D15*
%TO.P,C3,1*%
%TO.N,GND*%
X112715000Y-78740000D03*
%TO.P,C3,2*%
%TO.N,Net-(U4-PB7)*%
X114615000Y-78740000D03*
%TD*%
D10*
%TO.P,R5,1*%
%TO.N,GND*%
X129182500Y-82550000D03*
%TO.P,R5,2*%
%TO.N,Net-(D1-K)*%
X127357500Y-82550000D03*
%TD*%
D16*
%TO.P,U1,1,A0*%
%TO.N,/Vcc*%
X97960000Y-85725000D03*
%TO.P,U1,2,A1*%
X97960000Y-86995000D03*
%TO.P,U1,3,A2*%
X97960000Y-88265000D03*
%TO.P,U1,4,GND*%
%TO.N,GND*%
X97960000Y-89535000D03*
%TO.P,U1,5,SDA*%
%TO.N,/SDA*%
X105240000Y-89535000D03*
%TO.P,U1,6,SCL*%
%TO.N,/SCK*%
X105240000Y-88265000D03*
%TO.P,U1,7,WP*%
%TO.N,GND*%
X105240000Y-86995000D03*
%TO.P,U1,8,VCC*%
%TO.N,/Vcc*%
X105240000Y-85725000D03*
%TD*%
D17*
%TO.P,R7,1*%
%TO.N,Net-(D2-K)*%
X122912500Y-82550000D03*
%TO.P,R7,2*%
%TO.N,GND*%
X124737500Y-82550000D03*
%TD*%
D11*
%TO.P,D2,1,K*%
%TO.N,Net-(D2-K)*%
X122887500Y-78740000D03*
%TO.P,D2,2,A*%
%TO.N,/Vcc*%
X124762500Y-78740000D03*
%TD*%
D18*
%TO.P,Y1,1,1*%
%TO.N,Net-(U2-X2)*%
X93980000Y-98485000D03*
%TO.P,Y1,2,2*%
%TO.N,Net-(U2-X1)*%
X93980000Y-93285000D03*
%TD*%
D12*
%TO.P,J3,1,Pin_1*%
%TO.N,GND*%
X122555000Y-103505000D03*
D13*
%TO.P,J3,2,Pin_2*%
%TO.N,/Vcc*%
X125095000Y-103505000D03*
%TO.P,J3,3,Pin_3*%
%TO.N,/RX*%
X127635000Y-103505000D03*
%TO.P,J3,4,Pin_4*%
%TO.N,/TX*%
X130175000Y-103505000D03*
%TD*%
D15*
%TO.P,C5,1*%
%TO.N,/Vcc*%
X117795000Y-78740000D03*
%TO.P,C5,2*%
%TO.N,GND*%
X119695000Y-78740000D03*
%TD*%
D19*
%TO.P,U4,1,PD3*%
%TO.N,/D3*%
X110130000Y-85465000D03*
%TO.P,U4,2,PD4*%
%TO.N,/D4*%
X110130000Y-86265000D03*
%TO.P,U4,3,GND*%
%TO.N,GND*%
X110130000Y-87065000D03*
%TO.P,U4,4,VCC*%
%TO.N,/Vcc*%
X110130000Y-87865000D03*
%TO.P,U4,5,GND*%
%TO.N,GND*%
X110130000Y-88665000D03*
%TO.P,U4,6,VCC*%
%TO.N,unconnected-(U4-VCC-Pad6)*%
X110130000Y-89465000D03*
%TO.P,U4,7,PB6*%
%TO.N,Net-(U4-PB6)*%
X110130000Y-90265000D03*
%TO.P,U4,8,PB7*%
%TO.N,Net-(U4-PB7)*%
X110130000Y-91065000D03*
D20*
%TO.P,U4,9,PD5*%
%TO.N,/D5*%
X111500000Y-92435000D03*
%TO.P,U4,10,PD6*%
%TO.N,/D6*%
X112300000Y-92435000D03*
%TO.P,U4,11,PD7*%
%TO.N,/D7*%
X113100000Y-92435000D03*
%TO.P,U4,12,PB0*%
%TO.N,/D8*%
X113900000Y-92435000D03*
%TO.P,U4,13,PB1*%
%TO.N,unconnected-(U4-PB1-Pad13)*%
X114700000Y-92435000D03*
%TO.P,U4,14,PB2*%
%TO.N,unconnected-(U4-PB2-Pad14)*%
X115500000Y-92435000D03*
%TO.P,U4,15,PB3*%
%TO.N,/MOSI*%
X116300000Y-92435000D03*
%TO.P,U4,16,PB4*%
%TO.N,/MISO*%
X117100000Y-92435000D03*
D19*
%TO.P,U4,17,PB5*%
%TO.N,/SCK*%
X118470000Y-91065000D03*
%TO.P,U4,18,AVCC*%
%TO.N,/Vcc*%
X118470000Y-90265000D03*
%TO.P,U4,19,ADC6*%
%TO.N,unconnected-(U4-ADC6-Pad19)*%
X118470000Y-89465000D03*
%TO.P,U4,20,AREF*%
%TO.N,Net-(U4-AREF)*%
X118470000Y-88665000D03*
%TO.P,U4,21,GND*%
%TO.N,GND*%
X118470000Y-87865000D03*
%TO.P,U4,22,ADC7*%
%TO.N,unconnected-(U4-ADC7-Pad22)*%
X118470000Y-87065000D03*
%TO.P,U4,23,PC0*%
%TO.N,unconnected-(U4-PC0-Pad23)*%
X118470000Y-86265000D03*
%TO.P,U4,24,PC1*%
%TO.N,unconnected-(U4-PC1-Pad24)*%
X118470000Y-85465000D03*
D20*
%TO.P,U4,25,PC2*%
%TO.N,unconnected-(U4-PC2-Pad25)*%
X117100000Y-84095000D03*
%TO.P,U4,26,PC3*%
%TO.N,unconnected-(U4-PC3-Pad26)*%
X116300000Y-84095000D03*
%TO.P,U4,27,PC4*%
%TO.N,/SDA*%
X115500000Y-84095000D03*
%TO.P,U4,28,PC5*%
%TO.N,/SCK*%
X114700000Y-84095000D03*
%TO.P,U4,29,PC6/~{RESET}*%
%TO.N,/RESET*%
X113900000Y-84095000D03*
%TO.P,U4,30,PD0*%
%TO.N,/RX*%
X113100000Y-84095000D03*
%TO.P,U4,31,PD1*%
%TO.N,/TX*%
X112300000Y-84095000D03*
%TO.P,U4,32,PD2*%
%TO.N,/D2*%
X111500000Y-84095000D03*
%TD*%
D10*
%TO.P,R4,1*%
%TO.N,/Vcc*%
X124737500Y-86360000D03*
%TO.P,R4,2*%
%TO.N,/SDA*%
X122912500Y-86360000D03*
%TD*%
D12*
%TO.P,J1,1,Pin_1*%
%TO.N,GND*%
X135255000Y-92075000D03*
D13*
%TO.P,J1,2,Pin_2*%
%TO.N,/Vcc*%
X135255000Y-94615000D03*
%TO.P,J1,3,Pin_3*%
%TO.N,/SDA*%
X135255000Y-97155000D03*
%TO.P,J1,4,Pin_4*%
%TO.N,/SCK*%
X135255000Y-99695000D03*
%TD*%
D21*
%TO.P,Y2,1,1*%
%TO.N,Net-(U4-PB7)*%
X116265000Y-97155000D03*
%TO.P,Y2,2,2*%
%TO.N,Net-(U4-PB6)*%
X111065000Y-97155000D03*
%TD*%
D15*
%TO.P,C1,1*%
%TO.N,/Vcc*%
X108270000Y-78740000D03*
%TO.P,C1,2*%
%TO.N,GND*%
X110170000Y-78740000D03*
%TD*%
D12*
%TO.P,BT1,1,+*%
%TO.N,/Vcc*%
X93599000Y-85090000D03*
D13*
%TO.P,BT1,2,-*%
%TO.N,GND*%
X93599000Y-87630000D03*
%TD*%
D12*
%TO.P,J2,1,Pin_1*%
%TO.N,/D2*%
X97155000Y-103505000D03*
D13*
%TO.P,J2,2,Pin_2*%
%TO.N,/D3*%
X99695000Y-103505000D03*
%TO.P,J2,3,Pin_3*%
%TO.N,/D4*%
X102235000Y-103505000D03*
%TO.P,J2,4,Pin_4*%
%TO.N,/D5*%
X104775000Y-103505000D03*
%TO.P,J2,5,Pin_5*%
%TO.N,/D6*%
X107315000Y-103505000D03*
%TO.P,J2,6,Pin_6*%
%TO.N,/D7*%
X109855000Y-103505000D03*
%TO.P,J2,7,Pin_7*%
%TO.N,/D8*%
X112395000Y-103505000D03*
%TO.P,J2,8,Pin_8*%
%TO.N,GND*%
X114935000Y-103505000D03*
%TO.P,J2,9,Pin_9*%
%TO.N,/Vcc*%
X117475000Y-103505000D03*
%TD*%
D17*
%TO.P,R1,1*%
%TO.N,/Vcc*%
X99060000Y-99060000D03*
%TO.P,R1,2*%
%TO.N,Net-(U2-~{INTA})*%
X100885000Y-99060000D03*
%TD*%
D16*
%TO.P,U3,1,A0*%
%TO.N,/Vcc*%
X97960000Y-78740000D03*
%TO.P,U3,2,A1*%
%TO.N,GND*%
X97960000Y-80010000D03*
%TO.P,U3,3,A2*%
%TO.N,/Vcc*%
X97960000Y-81280000D03*
%TO.P,U3,4,GND*%
%TO.N,GND*%
X97960000Y-82550000D03*
%TO.P,U3,5,SDA*%
%TO.N,/SDA*%
X105240000Y-82550000D03*
%TO.P,U3,6,SCL*%
%TO.N,/SCK*%
X105240000Y-81280000D03*
%TO.P,U3,7,WP*%
%TO.N,GND*%
X105240000Y-80010000D03*
%TO.P,U3,8,VCC*%
%TO.N,/Vcc*%
X105240000Y-78740000D03*
%TD*%
D17*
%TO.P,R6,1*%
%TO.N,/Vcc*%
X127357500Y-86360000D03*
%TO.P,R6,2*%
%TO.N,/RESET*%
X129182500Y-86360000D03*
%TD*%
D22*
%TO.P,U2,1,X1*%
%TO.N,Net-(U2-X1)*%
X99125000Y-92710000D03*
%TO.P,U2,2,X2*%
%TO.N,Net-(U2-X2)*%
X99125000Y-93980000D03*
%TO.P,U2,3,~{INTA}*%
%TO.N,Net-(U2-~{INTA})*%
X99125000Y-95250000D03*
%TO.P,U2,4,GND*%
%TO.N,GND*%
X99125000Y-96520000D03*
%TO.P,U2,5,SDA*%
%TO.N,/SDA*%
X104075000Y-96520000D03*
%TO.P,U2,6,SCL*%
%TO.N,/SCK*%
X104075000Y-95250000D03*
%TO.P,U2,7,SQW/~INT*%
%TO.N,Net-(U2-SQW{slash}~INT)*%
X104075000Y-93980000D03*
%TO.P,U2,8,VCC*%
%TO.N,/Vcc*%
X104075000Y-92710000D03*
%TD*%
D23*
%TO.N,/Vcc*%
X126365000Y-88900000D03*
X111633000Y-87865000D03*
X116840000Y-78740000D03*
X99695000Y-81153000D03*
X101727000Y-82042000D03*
X125730000Y-80010000D03*
X120650000Y-89535000D03*
X101981000Y-92710000D03*
X105537000Y-97536000D03*
X116840000Y-89535000D03*
%TO.N,GND*%
X119634000Y-95885000D03*
X116459000Y-86868000D03*
X126365000Y-97790000D03*
X124737500Y-81026000D03*
X120650000Y-80010000D03*
X103505000Y-87630000D03*
X100965000Y-95885000D03*
X128905000Y-80645000D03*
X115824000Y-90678000D03*
X118618000Y-99045000D03*
X108822606Y-88037411D03*
X129286000Y-84455000D03*
%TO.N,Net-(U4-PB7)*%
X114300000Y-80645000D03*
X111760000Y-90805000D03*
%TO.N,Net-(U4-AREF)*%
X115570000Y-88265000D03*
X121285000Y-97790000D03*
%TO.N,/SCK*%
X130175000Y-88900000D03*
X107315000Y-88900000D03*
X102870000Y-88900000D03*
%TO.N,/SDA*%
X127635000Y-92964000D03*
X122912500Y-87987500D03*
%TO.N,/D4*%
X108204000Y-86233000D03*
X107950000Y-90805000D03*
%TO.N,/D5*%
X110490000Y-92710000D03*
%TO.N,/D8*%
X114300000Y-94615000D03*
%TO.N,/D3*%
X107061000Y-90551000D03*
X108204000Y-84836000D03*
%TO.N,/D2*%
X111760000Y-86360000D03*
%TO.N,/D7*%
X113100000Y-94545000D03*
%TO.N,/D6*%
X111125000Y-93980000D03*
%TO.N,/RX*%
X114300000Y-88900000D03*
%TO.N,/TX*%
X113030000Y-88900000D03*
%TO.N,/RESET*%
X121539000Y-85852000D03*
X119380000Y-83820000D03*
X123825000Y-85090000D03*
X113900000Y-85490000D03*
%TO.N,/MISO*%
X118745000Y-92075000D03*
%TD*%
D24*
%TO.N,/Vcc*%
X100330000Y-100330000D02*
X103425000Y-100330000D01*
X111633000Y-87865000D02*
X110130000Y-87865000D01*
X117570000Y-90265000D02*
X116840000Y-89535000D01*
X95885000Y-104809000D02*
X117441000Y-104809000D01*
X95885000Y-79375000D02*
X95885000Y-80645000D01*
X95885000Y-80645000D02*
X96520000Y-81280000D01*
X103425000Y-100330000D02*
X104695000Y-99060000D01*
X99060000Y-99060000D02*
X100330000Y-100330000D01*
X97960000Y-78740000D02*
X96520000Y-78740000D01*
X118470000Y-90265000D02*
X117570000Y-90265000D01*
X124737500Y-88265000D02*
X124737500Y-90170000D01*
X108270000Y-78740000D02*
X105240000Y-78740000D01*
X126365000Y-88900000D02*
X125730000Y-88265000D01*
X96520000Y-78740000D02*
X95885000Y-79375000D01*
X118470000Y-90265000D02*
X119920000Y-90265000D01*
D25*
X117441000Y-104809000D02*
X117475000Y-104775000D01*
X95885000Y-104775000D02*
X95885000Y-104809000D01*
D24*
X117475000Y-104775000D02*
X117475000Y-103505000D01*
X97960000Y-88265000D02*
X99695000Y-88265000D01*
X124737500Y-88265000D02*
X124737500Y-86360000D01*
X102235000Y-85725000D02*
X105240000Y-85725000D01*
X99695000Y-88265000D02*
X102235000Y-85725000D01*
X95250000Y-102870000D02*
X95250000Y-104140000D01*
X95250000Y-104140000D02*
X95885000Y-104775000D01*
X125730000Y-88265000D02*
X124737500Y-88265000D01*
X124737500Y-86360000D02*
X127357500Y-86360000D01*
X99060000Y-99060000D02*
X95250000Y-102870000D01*
X119920000Y-90265000D02*
X120650000Y-89535000D01*
X117795000Y-78740000D02*
X116840000Y-78740000D01*
X125730000Y-79707500D02*
X125730000Y-80010000D01*
X124762500Y-78740000D02*
X125730000Y-79707500D01*
X97960000Y-85725000D02*
X97960000Y-86995000D01*
X96520000Y-81280000D02*
X97960000Y-81280000D01*
X97960000Y-86995000D02*
X97960000Y-88265000D01*
%TO.N,GND*%
X109355912Y-88665000D02*
X110130000Y-88665000D01*
X92202000Y-86233000D02*
X92202000Y-83693000D01*
X104140000Y-86995000D02*
X103505000Y-87630000D01*
X120015000Y-80010000D02*
X120650000Y-80010000D01*
X119695000Y-79690000D02*
X120015000Y-80010000D01*
X116459000Y-86868000D02*
X117456000Y-87865000D01*
X100965000Y-80010000D02*
X100965000Y-81280000D01*
X129182500Y-84351500D02*
X129286000Y-84455000D01*
X109277000Y-87065000D02*
X110130000Y-87065000D01*
X124775000Y-93980000D02*
X124775000Y-97790000D01*
X110904088Y-88665000D02*
X110130000Y-88665000D01*
X117456000Y-87865000D02*
X118470000Y-87865000D01*
X105240000Y-86995000D02*
X104140000Y-86995000D01*
X100965000Y-80010000D02*
X105240000Y-80010000D01*
X129182500Y-82550000D02*
X129182500Y-80922500D01*
X92202000Y-83693000D02*
X93345000Y-82550000D01*
X97960000Y-89535000D02*
X95504000Y-89535000D01*
X97960000Y-80010000D02*
X100965000Y-80010000D01*
X119695000Y-78740000D02*
X119695000Y-79690000D01*
X124775000Y-97790000D02*
X126365000Y-97790000D01*
X100965000Y-81280000D02*
X99695000Y-82550000D01*
X93599000Y-87630000D02*
X92202000Y-86233000D01*
D25*
X118618000Y-96901000D02*
X118618000Y-99045000D01*
D24*
X108822606Y-88037411D02*
X108822606Y-88131694D01*
X108822606Y-88037411D02*
X108822606Y-87519394D01*
X110170000Y-78740000D02*
X112715000Y-78740000D01*
X108900000Y-80010000D02*
X110170000Y-78740000D01*
X112917088Y-90678000D02*
X110904088Y-88665000D01*
X115824000Y-90678000D02*
X112917088Y-90678000D01*
X129182500Y-80922500D02*
X128905000Y-80645000D01*
X108822606Y-87519394D02*
X109277000Y-87065000D01*
X108822606Y-88131694D02*
X109355912Y-88665000D01*
X93345000Y-82550000D02*
X97960000Y-82550000D01*
X124737500Y-81026000D02*
X124737500Y-82550000D01*
X135255000Y-92075000D02*
X135255000Y-88265000D01*
X99125000Y-96520000D02*
X100330000Y-96520000D01*
X129182500Y-82550000D02*
X129182500Y-84351500D01*
X100330000Y-96520000D02*
X100965000Y-95885000D01*
D25*
X119634000Y-95885000D02*
X118618000Y-96901000D01*
D24*
X99695000Y-82550000D02*
X97960000Y-82550000D01*
X105240000Y-80010000D02*
X108900000Y-80010000D01*
X95504000Y-89535000D02*
X93599000Y-87630000D01*
D25*
%TO.N,Net-(U4-PB6)*%
X118999000Y-99695000D02*
X120650000Y-98044000D01*
X108585000Y-94675000D02*
X111065000Y-97155000D01*
X109532688Y-90265000D02*
X108585000Y-91212688D01*
X122875000Y-94137500D02*
X122875000Y-93980000D01*
X120650000Y-98044000D02*
X120650000Y-96362500D01*
X108585000Y-91212688D02*
X108585000Y-94675000D01*
X113605000Y-99695000D02*
X118999000Y-99695000D01*
X111065000Y-97155000D02*
X113605000Y-99695000D01*
X120650000Y-96362500D02*
X122875000Y-94137500D01*
X122875000Y-94295000D02*
X122875000Y-93980000D01*
X110130000Y-90265000D02*
X109532688Y-90265000D01*
%TO.N,Net-(U4-PB7)*%
X114615000Y-78740000D02*
X114615000Y-80330000D01*
X109855000Y-91340000D02*
X109855000Y-95250000D01*
X111500000Y-91065000D02*
X111760000Y-90805000D01*
X114360000Y-95250000D02*
X116265000Y-97155000D01*
X110130000Y-91065000D02*
X111500000Y-91065000D01*
X114615000Y-80330000D02*
X114300000Y-80645000D01*
X109855000Y-95250000D02*
X110259000Y-95654000D01*
X113261000Y-95654000D02*
X113665000Y-95250000D01*
X110130000Y-91065000D02*
X109855000Y-91340000D01*
X113665000Y-95250000D02*
X114360000Y-95250000D01*
X110259000Y-95654000D02*
X113261000Y-95654000D01*
%TO.N,Net-(U4-AREF)*%
X122875000Y-97790000D02*
X121285000Y-97790000D01*
X115970000Y-88665000D02*
X115570000Y-88265000D01*
X118470000Y-88665000D02*
X115970000Y-88665000D01*
%TO.N,Net-(D1-K)*%
X127332500Y-82525000D02*
X127357500Y-82550000D01*
X127332500Y-78740000D02*
X127332500Y-82525000D01*
%TO.N,/SCK*%
X107315000Y-82736100D02*
X107735100Y-82316000D01*
X133866000Y-84574000D02*
X135731760Y-84574000D01*
X130810000Y-80342500D02*
X130810000Y-85725000D01*
X122912500Y-90170000D02*
X122017500Y-91065000D01*
X104140000Y-81280000D02*
X105240000Y-81280000D01*
X103505000Y-81915000D02*
X104140000Y-81280000D01*
X105537000Y-94773000D02*
X105060000Y-95250000D01*
X105240000Y-88265000D02*
X104573124Y-88265000D01*
X105240000Y-88265000D02*
X106084999Y-88265000D01*
X127635000Y-91440000D02*
X124182500Y-91440000D01*
X103505000Y-89535000D02*
X105537000Y-91567000D01*
X103938124Y-88900000D02*
X102870000Y-88900000D01*
X113518312Y-82316000D02*
X114700000Y-83497688D01*
X122017500Y-91065000D02*
X118470000Y-91065000D01*
X114700000Y-84095000D02*
X114700000Y-88450057D01*
X135731760Y-84574000D02*
X136456000Y-85298240D01*
X105060000Y-95250000D02*
X104075000Y-95250000D01*
X130175000Y-88900000D02*
X127635000Y-91440000D01*
X136456000Y-85298240D02*
X136456000Y-98494000D01*
X105537000Y-91567000D02*
X105537000Y-94773000D01*
X104573124Y-88265000D02*
X103938124Y-88900000D01*
X107735100Y-82316000D02*
X113518312Y-82316000D01*
X106513000Y-85394164D02*
X103505000Y-82386164D01*
X103505000Y-89333124D02*
X103505000Y-89535000D01*
X103505000Y-82386164D02*
X103505000Y-81915000D01*
X117314943Y-91065000D02*
X118470000Y-91065000D01*
X107315000Y-88900000D02*
X107315000Y-82736100D01*
X114700000Y-83497688D02*
X114700000Y-84095000D01*
X130810000Y-85725000D02*
X132715000Y-85725000D01*
X136456000Y-98494000D02*
X135255000Y-99695000D01*
X106513000Y-87836999D02*
X106513000Y-85394164D01*
X103938124Y-88900000D02*
X103505000Y-89333124D01*
X106084999Y-88265000D02*
X106513000Y-87836999D01*
X124182500Y-91440000D02*
X122912500Y-90170000D01*
X114700000Y-88450057D02*
X117314943Y-91065000D01*
X132715000Y-85725000D02*
X133866000Y-84574000D01*
X129207500Y-78740000D02*
X130810000Y-80342500D01*
%TO.N,Net-(D2-K)*%
X122887500Y-82525000D02*
X122912500Y-82550000D01*
X122887500Y-78740000D02*
X122887500Y-82525000D01*
%TO.N,/SDA*%
X119380000Y-81915000D02*
X122912500Y-85447500D01*
X107569000Y-81915000D02*
X106934000Y-82550000D01*
X105830057Y-89535000D02*
X106914000Y-88451057D01*
X105240000Y-89535000D02*
X105830057Y-89535000D01*
X106045000Y-95535000D02*
X106045000Y-90340000D01*
X122912500Y-86360000D02*
X122912500Y-87987500D01*
X106045000Y-90340000D02*
X105240000Y-89535000D01*
X105060000Y-96520000D02*
X106045000Y-95535000D01*
X115500000Y-84095000D02*
X115500000Y-82620000D01*
X106934000Y-82550000D02*
X105240000Y-82550000D01*
X116205000Y-81915000D02*
X119380000Y-81915000D01*
X130302000Y-92964000D02*
X134493000Y-97155000D01*
X122912500Y-85447500D02*
X122912500Y-86360000D01*
X127635000Y-92964000D02*
X130302000Y-92964000D01*
X115500000Y-82620000D02*
X116205000Y-81915000D01*
X116205000Y-81915000D02*
X107569000Y-81915000D01*
X134493000Y-97155000D02*
X135255000Y-97155000D01*
X104075000Y-96520000D02*
X105060000Y-96520000D01*
X106914000Y-82570000D02*
X106934000Y-82550000D01*
X106914000Y-88451057D02*
X106914000Y-82570000D01*
%TO.N,/D4*%
X108204000Y-86233000D02*
X108236000Y-86265000D01*
X107081000Y-91674000D02*
X107950000Y-90805000D01*
X102235000Y-103505000D02*
X103993000Y-101747000D01*
X108236000Y-86265000D02*
X110130000Y-86265000D01*
X103993000Y-101747000D02*
X104941100Y-101747000D01*
X104941100Y-101747000D02*
X107081000Y-99607100D01*
X107081000Y-99607100D02*
X107081000Y-91674000D01*
X107950000Y-90805000D02*
X108077000Y-90678000D01*
%TO.N,/D5*%
X111225000Y-92710000D02*
X110490000Y-92710000D01*
X111500000Y-92435000D02*
X111225000Y-92710000D01*
%TO.N,/D8*%
X113900000Y-92435000D02*
X113900000Y-94215000D01*
X113900000Y-94215000D02*
X114300000Y-94615000D01*
%TO.N,/D3*%
X110130000Y-85465000D02*
X109501000Y-84836000D01*
X106680000Y-90932000D02*
X107061000Y-90551000D01*
X104775000Y-101346000D02*
X106680000Y-99441000D01*
X101854000Y-101346000D02*
X104775000Y-101346000D01*
X106680000Y-99441000D02*
X106680000Y-90932000D01*
X109501000Y-84836000D02*
X108204000Y-84836000D01*
X99695000Y-103505000D02*
X101854000Y-101346000D01*
%TO.N,/D2*%
X111500000Y-86100000D02*
X111760000Y-86360000D01*
X111500000Y-84095000D02*
X111500000Y-86100000D01*
%TO.N,/D7*%
X113100000Y-92435000D02*
X113100000Y-94545000D01*
%TO.N,/D6*%
X112395000Y-93980000D02*
X111125000Y-93980000D01*
X112300000Y-92435000D02*
X112300000Y-93885000D01*
X112300000Y-93885000D02*
X112395000Y-93980000D01*
%TO.N,/RX*%
X113100000Y-84095000D02*
X113100000Y-87700000D01*
X113100000Y-87700000D02*
X114300000Y-88900000D01*
%TO.N,/TX*%
X112395000Y-87630000D02*
X112522000Y-87757000D01*
X112395000Y-84190000D02*
X112395000Y-87630000D01*
X112522000Y-88392000D02*
X113030000Y-88900000D01*
X112300000Y-84095000D02*
X112395000Y-84190000D01*
X112522000Y-87757000D02*
X112522000Y-88392000D01*
%TO.N,/RESET*%
X127912500Y-85090000D02*
X129182500Y-86360000D01*
X123825000Y-85090000D02*
X127912500Y-85090000D01*
X129182500Y-86360000D02*
X131087500Y-88265000D01*
X131087500Y-88265000D02*
X132715000Y-88265000D01*
X119380000Y-83820000D02*
X121412000Y-85852000D01*
X121412000Y-85852000D02*
X121539000Y-85852000D01*
X113900000Y-84095000D02*
X113900000Y-85490000D01*
%TO.N,/MOSI*%
X127883943Y-92363000D02*
X128083943Y-92563000D01*
X133985000Y-88860760D02*
X133985000Y-86995000D01*
X118364000Y-93726000D02*
X119727000Y-92363000D01*
X116300000Y-93440000D02*
X116586000Y-93726000D01*
X116300000Y-92435000D02*
X116300000Y-93440000D01*
X128083943Y-92563000D02*
X130282760Y-92563000D01*
X119727000Y-92363000D02*
X127883943Y-92363000D01*
X130282760Y-92563000D02*
X133985000Y-88860760D01*
X133985000Y-86995000D02*
X135255000Y-85725000D01*
X116586000Y-93726000D02*
X118364000Y-93726000D01*
%TO.N,/MISO*%
X117460000Y-92075000D02*
X118745000Y-92075000D01*
X117100000Y-92435000D02*
X117460000Y-92075000D01*
%TO.N,Net-(U2-~{INTA})*%
X99615000Y-97790000D02*
X100885000Y-99060000D01*
X97790000Y-95250000D02*
X97155000Y-95885000D01*
X97155000Y-97155000D02*
X97790000Y-97790000D01*
X97155000Y-95885000D02*
X97155000Y-97155000D01*
X97790000Y-97790000D02*
X99615000Y-97790000D01*
X99125000Y-95250000D02*
X97790000Y-95250000D01*
%TO.N,Net-(U2-SQW{slash}~INT)*%
X102870000Y-99060000D02*
X102235000Y-98425000D01*
X104075000Y-93980000D02*
X103505000Y-93980000D01*
X102235000Y-98425000D02*
X102235000Y-95250000D01*
X103505000Y-93980000D02*
X102235000Y-95250000D01*
%TO.N,Net-(U2-X2)*%
X97155000Y-93980000D02*
X96520000Y-94615000D01*
X99125000Y-93980000D02*
X97155000Y-93980000D01*
X96520000Y-94615000D02*
X96520000Y-95945000D01*
X96520000Y-95945000D02*
X93980000Y-98485000D01*
%TO.N,Net-(U2-X1)*%
X99125000Y-92710000D02*
X97785539Y-92710000D01*
X97205458Y-93290081D02*
X97200377Y-93285000D01*
X97785539Y-92710000D02*
X97205458Y-93290081D01*
X97200377Y-93285000D02*
X93980000Y-93285000D01*
%TD*%
%TA.AperFunction,Conductor*%
%TO.N,/Vcc*%
G36*
X103629881Y-80713502D02*
G01*
X103676374Y-80767158D01*
X103686478Y-80837432D01*
X103656984Y-80902012D01*
X103650855Y-80908595D01*
X103018083Y-81541366D01*
X103018075Y-81541376D01*
X102937969Y-81680123D01*
X102937966Y-81680129D01*
X102930634Y-81707498D01*
X102930634Y-81707500D01*
X102911942Y-81777261D01*
X102896500Y-81834890D01*
X102896500Y-82466275D01*
X102902827Y-82489886D01*
X102902828Y-82489890D01*
X102937967Y-82621034D01*
X102937970Y-82621041D01*
X103018075Y-82759787D01*
X103018083Y-82759797D01*
X104955192Y-84696905D01*
X104989217Y-84759217D01*
X104984153Y-84830032D01*
X104941606Y-84886868D01*
X104875086Y-84911679D01*
X104866097Y-84912000D01*
X104432958Y-84912000D01*
X104318729Y-84927039D01*
X104176607Y-84985906D01*
X104054558Y-85079558D01*
X103960906Y-85201607D01*
X103902039Y-85343729D01*
X103887000Y-85457958D01*
X103887000Y-85471000D01*
X105114000Y-85471000D01*
X105182121Y-85491002D01*
X105228614Y-85544658D01*
X105240000Y-85597000D01*
X105240000Y-85853000D01*
X105219998Y-85921121D01*
X105166342Y-85967614D01*
X105114000Y-85979000D01*
X103887000Y-85979000D01*
X103887000Y-85992041D01*
X103902039Y-86106270D01*
X103941318Y-86201100D01*
X103948907Y-86271690D01*
X103917127Y-86335176D01*
X103873129Y-86365725D01*
X103816242Y-86389289D01*
X103816241Y-86389289D01*
X103704294Y-86464090D01*
X103673342Y-86495043D01*
X103609091Y-86559294D01*
X103609089Y-86559296D01*
X103354423Y-86813961D01*
X103292111Y-86847986D01*
X103289912Y-86848443D01*
X103269176Y-86852568D01*
X103269171Y-86852569D01*
X103122032Y-86913517D01*
X102989609Y-87001998D01*
X102989603Y-87002003D01*
X102877003Y-87114603D01*
X102876998Y-87114609D01*
X102808004Y-87217867D01*
X102788517Y-87247032D01*
X102727570Y-87394169D01*
X102719802Y-87433219D01*
X102696500Y-87550367D01*
X102696500Y-87709632D01*
X102704862Y-87751669D01*
X102727380Y-87864877D01*
X102727570Y-87865829D01*
X102727572Y-87865837D01*
X102759956Y-87944019D01*
X102767545Y-88014608D01*
X102735765Y-88078095D01*
X102674707Y-88114322D01*
X102668136Y-88115813D01*
X102652117Y-88119000D01*
X102634168Y-88122570D01*
X102634167Y-88122570D01*
X102562731Y-88152161D01*
X102487032Y-88183517D01*
X102354609Y-88271998D01*
X102354603Y-88272003D01*
X102242003Y-88384603D01*
X102241998Y-88384609D01*
X102229304Y-88403607D01*
X102153517Y-88517032D01*
X102092570Y-88664169D01*
X102091081Y-88671655D01*
X102061500Y-88820367D01*
X102061500Y-88979632D01*
X102071524Y-89030026D01*
X102092570Y-89135831D01*
X102153517Y-89282968D01*
X102241997Y-89415389D01*
X102241998Y-89415390D01*
X102242003Y-89415396D01*
X102354603Y-89527996D01*
X102354609Y-89528001D01*
X102354611Y-89528003D01*
X102487032Y-89616483D01*
X102634169Y-89677430D01*
X102790370Y-89708500D01*
X102829789Y-89708500D01*
X102897910Y-89728502D01*
X102938906Y-89771498D01*
X102956558Y-89802071D01*
X103018075Y-89908623D01*
X103018083Y-89908633D01*
X104801356Y-91691905D01*
X104835381Y-91754217D01*
X104830317Y-91825032D01*
X104787770Y-91881868D01*
X104721250Y-91906679D01*
X104712261Y-91907000D01*
X104329000Y-91907000D01*
X104329000Y-92584000D01*
X104308998Y-92652121D01*
X104255342Y-92698614D01*
X104203000Y-92710000D01*
X104075000Y-92710000D01*
X104075000Y-92838000D01*
X104054998Y-92906121D01*
X104001342Y-92952614D01*
X103949000Y-92964000D01*
X102582000Y-92964000D01*
X102582000Y-92969382D01*
X102596974Y-93083117D01*
X102655589Y-93224631D01*
X102688779Y-93267884D01*
X102714380Y-93334104D01*
X102700116Y-93403653D01*
X102688780Y-93421292D01*
X102655160Y-93465106D01*
X102655155Y-93465114D01*
X102596486Y-93606753D01*
X102581500Y-93720586D01*
X102581500Y-93990759D01*
X102561498Y-94058880D01*
X102544596Y-94079854D01*
X101748080Y-94876370D01*
X101748075Y-94876376D01*
X101667967Y-95015127D01*
X101667967Y-95015128D01*
X101658649Y-95049908D01*
X101630025Y-95156732D01*
X101593073Y-95217354D01*
X101529212Y-95248376D01*
X101458718Y-95239947D01*
X101438317Y-95228886D01*
X101421058Y-95217354D01*
X101347968Y-95168517D01*
X101200831Y-95107570D01*
X101119624Y-95091417D01*
X101044632Y-95076500D01*
X101044630Y-95076500D01*
X100885370Y-95076500D01*
X100885364Y-95076500D01*
X100768274Y-95099791D01*
X100697560Y-95093463D01*
X100641493Y-95049908D01*
X100618771Y-94992657D01*
X100610346Y-94928658D01*
X100603513Y-94876752D01*
X100544844Y-94735113D01*
X100544843Y-94735112D01*
X100544842Y-94735109D01*
X100511536Y-94691706D01*
X100485934Y-94625486D01*
X100500198Y-94555937D01*
X100511536Y-94538294D01*
X100514583Y-94534324D01*
X100544844Y-94494887D01*
X100603513Y-94353248D01*
X100618500Y-94239411D01*
X100618499Y-93720590D01*
X100618499Y-93720589D01*
X100618498Y-93720581D01*
X100612958Y-93678499D01*
X100603513Y-93606752D01*
X100544844Y-93465113D01*
X100544843Y-93465112D01*
X100544842Y-93465109D01*
X100511536Y-93421706D01*
X100485934Y-93355486D01*
X100500198Y-93285937D01*
X100511536Y-93268294D01*
X100544842Y-93224890D01*
X100544842Y-93224889D01*
X100544844Y-93224887D01*
X100603513Y-93083248D01*
X100618500Y-92969411D01*
X100618499Y-92450617D01*
X102582000Y-92450617D01*
X102582000Y-92456000D01*
X103821000Y-92456000D01*
X103821000Y-91907000D01*
X103125617Y-91907000D01*
X103011882Y-91921974D01*
X102870365Y-91980590D01*
X102748840Y-92073840D01*
X102655590Y-92195365D01*
X102596974Y-92336882D01*
X102582000Y-92450617D01*
X100618499Y-92450617D01*
X100618499Y-92450590D01*
X100603513Y-92336752D01*
X100544844Y-92195113D01*
X100544839Y-92195106D01*
X100451515Y-92073484D01*
X100329893Y-91980160D01*
X100329885Y-91980155D01*
X100188246Y-91921486D01*
X100114138Y-91911730D01*
X100074411Y-91906500D01*
X100074408Y-91906500D01*
X98175590Y-91906500D01*
X98175581Y-91906501D01*
X98073135Y-91919988D01*
X98061752Y-91921487D01*
X97920114Y-91980155D01*
X97920106Y-91980160D01*
X97795908Y-92075462D01*
X97729688Y-92101063D01*
X97719204Y-92101500D01*
X97705428Y-92101500D01*
X97622494Y-92123722D01*
X97550669Y-92142967D01*
X97550662Y-92142970D01*
X97460362Y-92195106D01*
X97454466Y-92198510D01*
X97433188Y-92210794D01*
X97411912Y-92223078D01*
X97411908Y-92223081D01*
X97298238Y-92336752D01*
X96995393Y-92639596D01*
X96933083Y-92673620D01*
X96906300Y-92676500D01*
X95814500Y-92676500D01*
X95746379Y-92656498D01*
X95699886Y-92602842D01*
X95688500Y-92550500D01*
X95688500Y-91734447D01*
X95677887Y-91630578D01*
X95677887Y-91630575D01*
X95622115Y-91462262D01*
X95529030Y-91311349D01*
X95529029Y-91311348D01*
X95529024Y-91311342D01*
X95403657Y-91185975D01*
X95403651Y-91185970D01*
X95301487Y-91122954D01*
X95252738Y-91092885D01*
X95084425Y-91037113D01*
X95084423Y-91037112D01*
X95084421Y-91037112D01*
X94980552Y-91026500D01*
X94980544Y-91026500D01*
X92979456Y-91026500D01*
X92979448Y-91026500D01*
X92875578Y-91037112D01*
X92707262Y-91092885D01*
X92707260Y-91092886D01*
X92556348Y-91185970D01*
X92556342Y-91185975D01*
X92430975Y-91311342D01*
X92430970Y-91311348D01*
X92337886Y-91462260D01*
X92337885Y-91462262D01*
X92282112Y-91630578D01*
X92271500Y-91734447D01*
X92271500Y-94835552D01*
X92271499Y-94835552D01*
X92282112Y-94939421D01*
X92282112Y-94939423D01*
X92282113Y-94939425D01*
X92337885Y-95107738D01*
X92405498Y-95217354D01*
X92430970Y-95258651D01*
X92430975Y-95258657D01*
X92556342Y-95384024D01*
X92556348Y-95384029D01*
X92556349Y-95384030D01*
X92707262Y-95477115D01*
X92875575Y-95532887D01*
X92903906Y-95535781D01*
X92979448Y-95543500D01*
X92979456Y-95543500D01*
X94980552Y-95543500D01*
X95049798Y-95536424D01*
X95084425Y-95532887D01*
X95252738Y-95477115D01*
X95403651Y-95384030D01*
X95529030Y-95258651D01*
X95622115Y-95107738D01*
X95665896Y-94975610D01*
X95706309Y-94917241D01*
X95771865Y-94889985D01*
X95841750Y-94902498D01*
X95893776Y-94950807D01*
X95911500Y-95015245D01*
X95911500Y-95640759D01*
X95891498Y-95708880D01*
X95874595Y-95729854D01*
X95351878Y-96252571D01*
X95289566Y-96286597D01*
X95223152Y-96283081D01*
X95084422Y-96237112D01*
X95084423Y-96237112D01*
X94980552Y-96226500D01*
X94980544Y-96226500D01*
X92979456Y-96226500D01*
X92979448Y-96226500D01*
X92875578Y-96237112D01*
X92707262Y-96292885D01*
X92707260Y-96292886D01*
X92556348Y-96385970D01*
X92556342Y-96385975D01*
X92430975Y-96511342D01*
X92430970Y-96511348D01*
X92337886Y-96662260D01*
X92337885Y-96662262D01*
X92282112Y-96830578D01*
X92271500Y-96934447D01*
X92271500Y-100035552D01*
X92271499Y-100035552D01*
X92282112Y-100139421D01*
X92282112Y-100139423D01*
X92282113Y-100139425D01*
X92337885Y-100307738D01*
X92430970Y-100458651D01*
X92430975Y-100458657D01*
X92556342Y-100584024D01*
X92556348Y-100584029D01*
X92556349Y-100584030D01*
X92707262Y-100677115D01*
X92875575Y-100732887D01*
X92903906Y-100735781D01*
X92979448Y-100743500D01*
X92979456Y-100743500D01*
X94980552Y-100743500D01*
X95049798Y-100736424D01*
X95084425Y-100732887D01*
X95252738Y-100677115D01*
X95403651Y-100584030D01*
X95529030Y-100458651D01*
X95622115Y-100307738D01*
X95677887Y-100139425D01*
X95685120Y-100068628D01*
X95688500Y-100035552D01*
X95688500Y-99560516D01*
X98039500Y-99560516D01*
X98050105Y-99664318D01*
X98050106Y-99664321D01*
X98105842Y-99832525D01*
X98198865Y-99983339D01*
X98198870Y-99983345D01*
X98324154Y-100108629D01*
X98324160Y-100108634D01*
X98474974Y-100201657D01*
X98643178Y-100257393D01*
X98643181Y-100257394D01*
X98746983Y-100267999D01*
X98746983Y-100268000D01*
X98806000Y-100268000D01*
X98806000Y-99314000D01*
X98039500Y-99314000D01*
X98039500Y-99560516D01*
X95688500Y-99560516D01*
X95688500Y-97689239D01*
X95708502Y-97621118D01*
X95725405Y-97600144D01*
X96331405Y-96994144D01*
X96393717Y-96960118D01*
X96464532Y-96965183D01*
X96521368Y-97007730D01*
X96546179Y-97074250D01*
X96546500Y-97083239D01*
X96546500Y-97235114D01*
X96554362Y-97264453D01*
X96554362Y-97264455D01*
X96554363Y-97264455D01*
X96587967Y-97389870D01*
X96587970Y-97389877D01*
X96668075Y-97528623D01*
X96668083Y-97528633D01*
X97416366Y-98276916D01*
X97416371Y-98276920D01*
X97416373Y-98276922D01*
X97416374Y-98276923D01*
X97416376Y-98276924D01*
X97490647Y-98319804D01*
X97534097Y-98344890D01*
X97555128Y-98357032D01*
X97709889Y-98398500D01*
X97709890Y-98398500D01*
X97870111Y-98398500D01*
X97916419Y-98398500D01*
X97984540Y-98418502D01*
X98031033Y-98472158D01*
X98041766Y-98537308D01*
X98039500Y-98559484D01*
X98039500Y-98806000D01*
X98934000Y-98806000D01*
X99002121Y-98826002D01*
X99048614Y-98879658D01*
X99060000Y-98932000D01*
X99060000Y-99060000D01*
X99188000Y-99060000D01*
X99256121Y-99080002D01*
X99302614Y-99133658D01*
X99314000Y-99186000D01*
X99314000Y-100268000D01*
X99373017Y-100268000D01*
X99373016Y-100267999D01*
X99476818Y-100257394D01*
X99476821Y-100257393D01*
X99645025Y-100201657D01*
X99795839Y-100108634D01*
X99795845Y-100108629D01*
X99883051Y-100021424D01*
X99945363Y-99987398D01*
X100016178Y-99992463D01*
X100061241Y-100021424D01*
X100148841Y-100109024D01*
X100148847Y-100109029D01*
X100148848Y-100109030D01*
X100299762Y-100202115D01*
X100468074Y-100257887D01*
X100571955Y-100268500D01*
X101198044Y-100268499D01*
X101301926Y-100257887D01*
X101470238Y-100202115D01*
X101621152Y-100109030D01*
X101746530Y-99983652D01*
X101770259Y-99945180D01*
X101823044Y-99897702D01*
X101893119Y-99886299D01*
X101958235Y-99914591D01*
X101984741Y-99945181D01*
X102008468Y-99983649D01*
X102008475Y-99983658D01*
X102133841Y-100109024D01*
X102133847Y-100109029D01*
X102133848Y-100109030D01*
X102284762Y-100202115D01*
X102453074Y-100257887D01*
X102556955Y-100268500D01*
X103183044Y-100268499D01*
X103286926Y-100257887D01*
X103455238Y-100202115D01*
X103606152Y-100109030D01*
X103646555Y-100068627D01*
X103693759Y-100021424D01*
X103756071Y-99987398D01*
X103826886Y-99992463D01*
X103871949Y-100021424D01*
X103959154Y-100108629D01*
X103959160Y-100108634D01*
X104109974Y-100201657D01*
X104278178Y-100257393D01*
X104278181Y-100257394D01*
X104381983Y-100267999D01*
X104381983Y-100268000D01*
X104441000Y-100268000D01*
X104441000Y-98806000D01*
X104949000Y-98806000D01*
X105715500Y-98806000D01*
X105715500Y-98559483D01*
X105704894Y-98455681D01*
X105704893Y-98455678D01*
X105649157Y-98287474D01*
X105556134Y-98136660D01*
X105556129Y-98136654D01*
X105430845Y-98011370D01*
X105430839Y-98011365D01*
X105280025Y-97918342D01*
X105111821Y-97862606D01*
X105111818Y-97862605D01*
X105008016Y-97852000D01*
X104949000Y-97852000D01*
X104949000Y-98806000D01*
X104441000Y-98806000D01*
X104441000Y-97852000D01*
X104381983Y-97852000D01*
X104278181Y-97862605D01*
X104278178Y-97862606D01*
X104109974Y-97918342D01*
X103959160Y-98011365D01*
X103959154Y-98011370D01*
X103871949Y-98098576D01*
X103809637Y-98132602D01*
X103738822Y-98127537D01*
X103693759Y-98098576D01*
X103606158Y-98010975D01*
X103606152Y-98010970D01*
X103455238Y-97917885D01*
X103371082Y-97889999D01*
X103286927Y-97862113D01*
X103286920Y-97862112D01*
X103183053Y-97851500D01*
X103183045Y-97851500D01*
X102969500Y-97851500D01*
X102901379Y-97831498D01*
X102854886Y-97777842D01*
X102843500Y-97725500D01*
X102843500Y-97427392D01*
X102863502Y-97359271D01*
X102917158Y-97312778D01*
X102987432Y-97302674D01*
X103003579Y-97307107D01*
X103003776Y-97306376D01*
X103011749Y-97308512D01*
X103011752Y-97308513D01*
X103125589Y-97323500D01*
X105024410Y-97323499D01*
X105138248Y-97308513D01*
X105279887Y-97249844D01*
X105401515Y-97156515D01*
X105494844Y-97034887D01*
X105548316Y-96905794D01*
X105575626Y-96864921D01*
X105856406Y-96584142D01*
X105918717Y-96550118D01*
X105989533Y-96555183D01*
X106046368Y-96597730D01*
X106071179Y-96664250D01*
X106071500Y-96673239D01*
X106071500Y-99136761D01*
X106051498Y-99204882D01*
X106034595Y-99225856D01*
X105920071Y-99340380D01*
X105857759Y-99374406D01*
X105786944Y-99369341D01*
X105741881Y-99340380D01*
X105715501Y-99314000D01*
X104949000Y-99314000D01*
X104949000Y-100259261D01*
X104928998Y-100327382D01*
X104912095Y-100348356D01*
X104559856Y-100700595D01*
X104497544Y-100734621D01*
X104470761Y-100737500D01*
X101773885Y-100737500D01*
X101751496Y-100743499D01*
X101751497Y-100743500D01*
X101619127Y-100778968D01*
X101619122Y-100778970D01*
X101480375Y-100859076D01*
X101480365Y-100859084D01*
X100178198Y-102161251D01*
X100115886Y-102195277D01*
X100050169Y-102191990D01*
X100013117Y-102179951D01*
X99960316Y-102171588D01*
X99801916Y-102146500D01*
X99588084Y-102146500D01*
X99376884Y-102179951D01*
X99376878Y-102179952D01*
X99173521Y-102246026D01*
X99173515Y-102246029D01*
X98982987Y-102343108D01*
X98809995Y-102468794D01*
X98707018Y-102571771D01*
X98644706Y-102605796D01*
X98573890Y-102600730D01*
X98517054Y-102558184D01*
X98499871Y-102526715D01*
X98455889Y-102408796D01*
X98455886Y-102408792D01*
X98455886Y-102408791D01*
X98368261Y-102291738D01*
X98251207Y-102204112D01*
X98251202Y-102204110D01*
X98114204Y-102153011D01*
X98114196Y-102153009D01*
X98053649Y-102146500D01*
X98053638Y-102146500D01*
X96256362Y-102146500D01*
X96256350Y-102146500D01*
X96195803Y-102153009D01*
X96195795Y-102153011D01*
X96058797Y-102204110D01*
X96058792Y-102204112D01*
X95941738Y-102291738D01*
X95854112Y-102408792D01*
X95854110Y-102408797D01*
X95803011Y-102545795D01*
X95803009Y-102545803D01*
X95796500Y-102606350D01*
X95796500Y-104403649D01*
X95803009Y-104464196D01*
X95803011Y-104464204D01*
X95854110Y-104601202D01*
X95854112Y-104601207D01*
X95941738Y-104718261D01*
X96058792Y-104805887D01*
X96058794Y-104805888D01*
X96058796Y-104805889D01*
X96117875Y-104827924D01*
X96195795Y-104856988D01*
X96195803Y-104856990D01*
X96256350Y-104863499D01*
X96256355Y-104863499D01*
X96256362Y-104863500D01*
X96256368Y-104863500D01*
X98053632Y-104863500D01*
X98053638Y-104863500D01*
X98053645Y-104863499D01*
X98053649Y-104863499D01*
X98114196Y-104856990D01*
X98114199Y-104856989D01*
X98114201Y-104856989D01*
X98251204Y-104805889D01*
X98307199Y-104763972D01*
X98368261Y-104718261D01*
X98455887Y-104601207D01*
X98455887Y-104601206D01*
X98455889Y-104601204D01*
X98499869Y-104483288D01*
X98542414Y-104426456D01*
X98608934Y-104401645D01*
X98678308Y-104416736D01*
X98707018Y-104438229D01*
X98809990Y-104541201D01*
X98809993Y-104541203D01*
X98809996Y-104541206D01*
X98982991Y-104666894D01*
X99173517Y-104763972D01*
X99376878Y-104830047D01*
X99376879Y-104830047D01*
X99376884Y-104830049D01*
X99588084Y-104863500D01*
X99588087Y-104863500D01*
X99801913Y-104863500D01*
X99801916Y-104863500D01*
X100013116Y-104830049D01*
X100216483Y-104763972D01*
X100407009Y-104666894D01*
X100580004Y-104541206D01*
X100731206Y-104390004D01*
X100856894Y-104217009D01*
X100856899Y-104216997D01*
X100857561Y-104215920D01*
X100857924Y-104215591D01*
X100859804Y-104213004D01*
X100860347Y-104213398D01*
X100910204Y-104168283D01*
X100980244Y-104156670D01*
X101045445Y-104184766D01*
X101070021Y-104213130D01*
X101070196Y-104213004D01*
X101071668Y-104215030D01*
X101072439Y-104215920D01*
X101073104Y-104217006D01*
X101073106Y-104217009D01*
X101198794Y-104390004D01*
X101198796Y-104390006D01*
X101198798Y-104390009D01*
X101349990Y-104541201D01*
X101349993Y-104541203D01*
X101349996Y-104541206D01*
X101522991Y-104666894D01*
X101713517Y-104763972D01*
X101916878Y-104830047D01*
X101916879Y-104830047D01*
X101916884Y-104830049D01*
X102128084Y-104863500D01*
X102128087Y-104863500D01*
X102341913Y-104863500D01*
X102341916Y-104863500D01*
X102553116Y-104830049D01*
X102756483Y-104763972D01*
X102947009Y-104666894D01*
X103120004Y-104541206D01*
X103271206Y-104390004D01*
X103396894Y-104217009D01*
X103396899Y-104216997D01*
X103397561Y-104215920D01*
X103397924Y-104215591D01*
X103399804Y-104213004D01*
X103400347Y-104213398D01*
X103450204Y-104168283D01*
X103520244Y-104156670D01*
X103585445Y-104184766D01*
X103610021Y-104213130D01*
X103610196Y-104213004D01*
X103611668Y-104215030D01*
X103612439Y-104215920D01*
X103613104Y-104217006D01*
X103613106Y-104217009D01*
X103738794Y-104390004D01*
X103738796Y-104390006D01*
X103738798Y-104390009D01*
X103889990Y-104541201D01*
X103889993Y-104541203D01*
X103889996Y-104541206D01*
X104062991Y-104666894D01*
X104253517Y-104763972D01*
X104456878Y-104830047D01*
X104456879Y-104830047D01*
X104456884Y-104830049D01*
X104668084Y-104863500D01*
X104668087Y-104863500D01*
X104881913Y-104863500D01*
X104881916Y-104863500D01*
X105093116Y-104830049D01*
X105296483Y-104763972D01*
X105487009Y-104666894D01*
X105660004Y-104541206D01*
X105811206Y-104390004D01*
X105936894Y-104217009D01*
X105936899Y-104216997D01*
X105937561Y-104215920D01*
X105937924Y-104215591D01*
X105939804Y-104213004D01*
X105940347Y-104213398D01*
X105990204Y-104168283D01*
X106060244Y-104156670D01*
X106125445Y-104184766D01*
X106150021Y-104213130D01*
X106150196Y-104213004D01*
X106151668Y-104215030D01*
X106152439Y-104215920D01*
X106153104Y-104217006D01*
X106153106Y-104217009D01*
X106278794Y-104390004D01*
X106278796Y-104390006D01*
X106278798Y-104390009D01*
X106429990Y-104541201D01*
X106429993Y-104541203D01*
X106429996Y-104541206D01*
X106602991Y-104666894D01*
X106793517Y-104763972D01*
X106996878Y-104830047D01*
X106996879Y-104830047D01*
X106996884Y-104830049D01*
X107208084Y-104863500D01*
X107208087Y-104863500D01*
X107421913Y-104863500D01*
X107421916Y-104863500D01*
X107633116Y-104830049D01*
X107836483Y-104763972D01*
X108027009Y-104666894D01*
X108200004Y-104541206D01*
X108351206Y-104390004D01*
X108476894Y-104217009D01*
X108476899Y-104216997D01*
X108477561Y-104215920D01*
X108477924Y-104215591D01*
X108479804Y-104213004D01*
X108480347Y-104213398D01*
X108530204Y-104168283D01*
X108600244Y-104156670D01*
X108665445Y-104184766D01*
X108690021Y-104213130D01*
X108690196Y-104213004D01*
X108691668Y-104215030D01*
X108692439Y-104215920D01*
X108693104Y-104217006D01*
X108693106Y-104217009D01*
X108818794Y-104390004D01*
X108818796Y-104390006D01*
X108818798Y-104390009D01*
X108969990Y-104541201D01*
X108969993Y-104541203D01*
X108969996Y-104541206D01*
X109142991Y-104666894D01*
X109333517Y-104763972D01*
X109536878Y-104830047D01*
X109536879Y-104830047D01*
X109536884Y-104830049D01*
X109748084Y-104863500D01*
X109748087Y-104863500D01*
X109961913Y-104863500D01*
X109961916Y-104863500D01*
X110173116Y-104830049D01*
X110376483Y-104763972D01*
X110567009Y-104666894D01*
X110740004Y-104541206D01*
X110891206Y-104390004D01*
X111016894Y-104217009D01*
X111016899Y-104216997D01*
X111017561Y-104215920D01*
X111017924Y-104215591D01*
X111019804Y-104213004D01*
X111020347Y-104213398D01*
X111070204Y-104168283D01*
X111140244Y-104156670D01*
X111205445Y-104184766D01*
X111230021Y-104213130D01*
X111230196Y-104213004D01*
X111231668Y-104215030D01*
X111232439Y-104215920D01*
X111233104Y-104217006D01*
X111233106Y-104217009D01*
X111358794Y-104390004D01*
X111358796Y-104390006D01*
X111358798Y-104390009D01*
X111509990Y-104541201D01*
X111509993Y-104541203D01*
X111509996Y-104541206D01*
X111682991Y-104666894D01*
X111873517Y-104763972D01*
X112076878Y-104830047D01*
X112076879Y-104830047D01*
X112076884Y-104830049D01*
X112288084Y-104863500D01*
X112288087Y-104863500D01*
X112501913Y-104863500D01*
X112501916Y-104863500D01*
X112713116Y-104830049D01*
X112916483Y-104763972D01*
X113107009Y-104666894D01*
X113280004Y-104541206D01*
X113431206Y-104390004D01*
X113556894Y-104217009D01*
X113556899Y-104216997D01*
X113557561Y-104215920D01*
X113557924Y-104215591D01*
X113559804Y-104213004D01*
X113560347Y-104213398D01*
X113610204Y-104168283D01*
X113680244Y-104156670D01*
X113745445Y-104184766D01*
X113770021Y-104213130D01*
X113770196Y-104213004D01*
X113771668Y-104215030D01*
X113772439Y-104215920D01*
X113773104Y-104217006D01*
X113773106Y-104217009D01*
X113898794Y-104390004D01*
X113898796Y-104390006D01*
X113898798Y-104390009D01*
X114049990Y-104541201D01*
X114049993Y-104541203D01*
X114049996Y-104541206D01*
X114222991Y-104666894D01*
X114413517Y-104763972D01*
X114616878Y-104830047D01*
X114616879Y-104830047D01*
X114616884Y-104830049D01*
X114828084Y-104863500D01*
X114828087Y-104863500D01*
X115041913Y-104863500D01*
X115041916Y-104863500D01*
X115253116Y-104830049D01*
X115456483Y-104763972D01*
X115647009Y-104666894D01*
X115820004Y-104541206D01*
X115971206Y-104390004D01*
X116096894Y-104217009D01*
X116096902Y-104216992D01*
X116097854Y-104215441D01*
X116098377Y-104214967D01*
X116099804Y-104213004D01*
X116100216Y-104213303D01*
X116150497Y-104167804D01*
X116220537Y-104156189D01*
X116285738Y-104184285D01*
X116310485Y-104212842D01*
X116310624Y-104212742D01*
X116311794Y-104214353D01*
X116312726Y-104215428D01*
X116313536Y-104216750D01*
X116351620Y-104269167D01*
X116351621Y-104269168D01*
X116990841Y-103629947D01*
X117009075Y-103697993D01*
X117074901Y-103812007D01*
X117167993Y-103905099D01*
X117282007Y-103970925D01*
X117350051Y-103989157D01*
X116710831Y-104628378D01*
X116763249Y-104666463D01*
X116763251Y-104666464D01*
X116953707Y-104763506D01*
X116953713Y-104763509D01*
X117156996Y-104829559D01*
X117368126Y-104863000D01*
X117581874Y-104863000D01*
X117793003Y-104829559D01*
X117996286Y-104763509D01*
X117996292Y-104763506D01*
X118186750Y-104666463D01*
X118239167Y-104628378D01*
X118239167Y-104628376D01*
X117599948Y-103989157D01*
X117667993Y-103970925D01*
X117782007Y-103905099D01*
X117875099Y-103812007D01*
X117940925Y-103697993D01*
X117959157Y-103629948D01*
X118598376Y-104269167D01*
X118598378Y-104269167D01*
X118636463Y-104216750D01*
X118733506Y-104026292D01*
X118733509Y-104026286D01*
X118799559Y-103823003D01*
X118833000Y-103611873D01*
X118833000Y-103398126D01*
X118799559Y-103186996D01*
X118733509Y-102983713D01*
X118733506Y-102983707D01*
X118636464Y-102793251D01*
X118636463Y-102793249D01*
X118598378Y-102740831D01*
X117959157Y-103380051D01*
X117940925Y-103312007D01*
X117875099Y-103197993D01*
X117782007Y-103104901D01*
X117667993Y-103039075D01*
X117599947Y-103020841D01*
X118014439Y-102606350D01*
X121196500Y-102606350D01*
X121196500Y-104403649D01*
X121203009Y-104464196D01*
X121203011Y-104464204D01*
X121254110Y-104601202D01*
X121254112Y-104601207D01*
X121341738Y-104718261D01*
X121458792Y-104805887D01*
X121458794Y-104805888D01*
X121458796Y-104805889D01*
X121517875Y-104827924D01*
X121595795Y-104856988D01*
X121595803Y-104856990D01*
X121656350Y-104863499D01*
X121656355Y-104863499D01*
X121656362Y-104863500D01*
X121656368Y-104863500D01*
X123453632Y-104863500D01*
X123453638Y-104863500D01*
X123453645Y-104863499D01*
X123453649Y-104863499D01*
X123514196Y-104856990D01*
X123514199Y-104856989D01*
X123514201Y-104856989D01*
X123651204Y-104805889D01*
X123707199Y-104763972D01*
X123768261Y-104718261D01*
X123855887Y-104601207D01*
X123855887Y-104601206D01*
X123855889Y-104601204D01*
X123906989Y-104464201D01*
X123909782Y-104438229D01*
X123913499Y-104403649D01*
X123913500Y-104403632D01*
X123913500Y-104379480D01*
X123933502Y-104311359D01*
X123950405Y-104290384D01*
X124610841Y-103629947D01*
X124629075Y-103697993D01*
X124694901Y-103812007D01*
X124787993Y-103905099D01*
X124902007Y-103970925D01*
X124970051Y-103989157D01*
X124330831Y-104628378D01*
X124383249Y-104666463D01*
X124383251Y-104666464D01*
X124573707Y-104763506D01*
X124573713Y-104763509D01*
X124776996Y-104829559D01*
X124988126Y-104863000D01*
X125201874Y-104863000D01*
X125413003Y-104829559D01*
X125616286Y-104763509D01*
X125616292Y-104763506D01*
X125806750Y-104666463D01*
X125859167Y-104628378D01*
X125859167Y-104628376D01*
X125219948Y-103989157D01*
X125287993Y-103970925D01*
X125402007Y-103905099D01*
X125495099Y-103812007D01*
X125560925Y-103697993D01*
X125579157Y-103629948D01*
X126218376Y-104269167D01*
X126218378Y-104269167D01*
X126256459Y-104216756D01*
X126257259Y-104215451D01*
X126257694Y-104215057D01*
X126259377Y-104212741D01*
X126259863Y-104213094D01*
X126309897Y-104167809D01*
X126379936Y-104156188D01*
X126445140Y-104184278D01*
X126470097Y-104213075D01*
X126470196Y-104213004D01*
X126471025Y-104214145D01*
X126472136Y-104215427D01*
X126473103Y-104217006D01*
X126526416Y-104290384D01*
X126598794Y-104390004D01*
X126598796Y-104390006D01*
X126598798Y-104390009D01*
X126749990Y-104541201D01*
X126749993Y-104541203D01*
X126749996Y-104541206D01*
X126922991Y-104666894D01*
X127113517Y-104763972D01*
X127316878Y-104830047D01*
X127316879Y-104830047D01*
X127316884Y-104830049D01*
X127528084Y-104863500D01*
X127528087Y-104863500D01*
X127741913Y-104863500D01*
X127741916Y-104863500D01*
X127953116Y-104830049D01*
X128156483Y-104763972D01*
X128347009Y-104666894D01*
X128520004Y-104541206D01*
X128671206Y-104390004D01*
X128796894Y-104217009D01*
X128796899Y-104216997D01*
X128797561Y-104215920D01*
X128797924Y-104215591D01*
X128799804Y-104213004D01*
X128800347Y-104213398D01*
X128850204Y-104168283D01*
X128920244Y-104156670D01*
X128985445Y-104184766D01*
X129010021Y-104213130D01*
X129010196Y-104213004D01*
X129011668Y-104215030D01*
X129012439Y-104215920D01*
X129013104Y-104217006D01*
X129013106Y-104217009D01*
X129138794Y-104390004D01*
X129138796Y-104390006D01*
X129138798Y-104390009D01*
X129289990Y-104541201D01*
X129289993Y-104541203D01*
X129289996Y-104541206D01*
X129462991Y-104666894D01*
X129653517Y-104763972D01*
X129856878Y-104830047D01*
X129856879Y-104830047D01*
X129856884Y-104830049D01*
X130068084Y-104863500D01*
X130068087Y-104863500D01*
X130281913Y-104863500D01*
X130281916Y-104863500D01*
X130493116Y-104830049D01*
X130696483Y-104763972D01*
X130887009Y-104666894D01*
X131060004Y-104541206D01*
X131211206Y-104390004D01*
X131336894Y-104217009D01*
X131371292Y-104149500D01*
X132808867Y-104149500D01*
X133757470Y-104149500D01*
X134334867Y-103572103D01*
X134334867Y-103471867D01*
X132808867Y-103471867D01*
X132808867Y-104149500D01*
X131371292Y-104149500D01*
X131433972Y-104026483D01*
X131500049Y-103823116D01*
X131533500Y-103611916D01*
X131533500Y-103398084D01*
X131500049Y-103186884D01*
X131433972Y-102983517D01*
X131336894Y-102792991D01*
X131211206Y-102619996D01*
X131211203Y-102619993D01*
X131211201Y-102619990D01*
X131060009Y-102468798D01*
X131060006Y-102468796D01*
X131060004Y-102468794D01*
X131044964Y-102457867D01*
X132808867Y-102457867D01*
X134334867Y-102457867D01*
X134334867Y-101886391D01*
X134327091Y-101883171D01*
X134322555Y-101881187D01*
X134295369Y-101868654D01*
X134290917Y-101866495D01*
X134064904Y-101751335D01*
X134060544Y-101749004D01*
X134034440Y-101734386D01*
X134030170Y-101731884D01*
X133996210Y-101711074D01*
X133992043Y-101708406D01*
X133967152Y-101691775D01*
X133963091Y-101688945D01*
X133757875Y-101539846D01*
X133753933Y-101536862D01*
X133730439Y-101518342D01*
X133726614Y-101515204D01*
X133696327Y-101489338D01*
X133692628Y-101486050D01*
X133670643Y-101465728D01*
X133667075Y-101462297D01*
X133487703Y-101282925D01*
X133484272Y-101279357D01*
X133463950Y-101257372D01*
X133460662Y-101253673D01*
X133434796Y-101223386D01*
X133431658Y-101219561D01*
X133413138Y-101196067D01*
X133410154Y-101192125D01*
X133261055Y-100986909D01*
X133258225Y-100982848D01*
X133241594Y-100957957D01*
X133238926Y-100953790D01*
X133225492Y-100931867D01*
X132808867Y-100931867D01*
X132808867Y-102457867D01*
X131044964Y-102457867D01*
X130921015Y-102367813D01*
X130887012Y-102343108D01*
X130887011Y-102343107D01*
X130887009Y-102343106D01*
X130696483Y-102246028D01*
X130696480Y-102246027D01*
X130696478Y-102246026D01*
X130493120Y-102179952D01*
X130493123Y-102179952D01*
X130453801Y-102173724D01*
X130281916Y-102146500D01*
X130068084Y-102146500D01*
X129856884Y-102179951D01*
X129856878Y-102179952D01*
X129653521Y-102246026D01*
X129653515Y-102246029D01*
X129462987Y-102343108D01*
X129289993Y-102468796D01*
X129289990Y-102468798D01*
X129138798Y-102619990D01*
X129138796Y-102619993D01*
X129013108Y-102792987D01*
X129012434Y-102794088D01*
X129012068Y-102794418D01*
X129010196Y-102796996D01*
X129009654Y-102796602D01*
X128959787Y-102841721D01*
X128889745Y-102853328D01*
X128824547Y-102825226D01*
X128799976Y-102796870D01*
X128799804Y-102796996D01*
X128798341Y-102794982D01*
X128797566Y-102794088D01*
X128796896Y-102792996D01*
X128796894Y-102792991D01*
X128671206Y-102619996D01*
X128671203Y-102619993D01*
X128671201Y-102619990D01*
X128520009Y-102468798D01*
X128520006Y-102468796D01*
X128520004Y-102468794D01*
X128381015Y-102367813D01*
X128347012Y-102343108D01*
X128347011Y-102343107D01*
X128347009Y-102343106D01*
X128156483Y-102246028D01*
X128156480Y-102246027D01*
X128156478Y-102246026D01*
X127953120Y-102179952D01*
X127953123Y-102179952D01*
X127913801Y-102173724D01*
X127741916Y-102146500D01*
X127528084Y-102146500D01*
X127316884Y-102179951D01*
X127316878Y-102179952D01*
X127113521Y-102246026D01*
X127113515Y-102246029D01*
X126922987Y-102343108D01*
X126749993Y-102468796D01*
X126749990Y-102468798D01*
X126598798Y-102619990D01*
X126598796Y-102619993D01*
X126473100Y-102792998D01*
X126472131Y-102794580D01*
X126471606Y-102795054D01*
X126470196Y-102796996D01*
X126469787Y-102796699D01*
X126419479Y-102842206D01*
X126349437Y-102853807D01*
X126284242Y-102825697D01*
X126259514Y-102797157D01*
X126259376Y-102797258D01*
X126258199Y-102795639D01*
X126257270Y-102794566D01*
X126256461Y-102793247D01*
X126218378Y-102740831D01*
X125579157Y-103380051D01*
X125560925Y-103312007D01*
X125495099Y-103197993D01*
X125402007Y-103104901D01*
X125287993Y-103039075D01*
X125219947Y-103020841D01*
X125859168Y-102381621D01*
X125859167Y-102381620D01*
X125806750Y-102343536D01*
X125806748Y-102343535D01*
X125616292Y-102246493D01*
X125616286Y-102246490D01*
X125413003Y-102180440D01*
X125201874Y-102147000D01*
X124988126Y-102147000D01*
X124776996Y-102180440D01*
X124573713Y-102246490D01*
X124573707Y-102246493D01*
X124383253Y-102343534D01*
X124330831Y-102381621D01*
X124330831Y-102381622D01*
X124970051Y-103020842D01*
X124902007Y-103039075D01*
X124787993Y-103104901D01*
X124694901Y-103197993D01*
X124629075Y-103312007D01*
X124610842Y-103380051D01*
X123950405Y-102719614D01*
X123916379Y-102657302D01*
X123913500Y-102630519D01*
X123913500Y-102606367D01*
X123913499Y-102606350D01*
X123906990Y-102545803D01*
X123906988Y-102545795D01*
X123855889Y-102408797D01*
X123855887Y-102408792D01*
X123768261Y-102291738D01*
X123651207Y-102204112D01*
X123651202Y-102204110D01*
X123514204Y-102153011D01*
X123514196Y-102153009D01*
X123453649Y-102146500D01*
X123453638Y-102146500D01*
X121656362Y-102146500D01*
X121656350Y-102146500D01*
X121595803Y-102153009D01*
X121595795Y-102153011D01*
X121458797Y-102204110D01*
X121458792Y-102204112D01*
X121341738Y-102291738D01*
X121254112Y-102408792D01*
X121254110Y-102408797D01*
X121203011Y-102545795D01*
X121203009Y-102545803D01*
X121196500Y-102606350D01*
X118014439Y-102606350D01*
X118162922Y-102457867D01*
X120108867Y-102457867D01*
X120192621Y-102457867D01*
X120198208Y-102405894D01*
X120199294Y-102398094D01*
X120207335Y-102351139D01*
X120208905Y-102343428D01*
X120223484Y-102281739D01*
X120225533Y-102274138D01*
X120239355Y-102228579D01*
X120241873Y-102221126D01*
X120316704Y-102020501D01*
X120320144Y-102012196D01*
X120342746Y-101962700D01*
X120346772Y-101954656D01*
X120381493Y-101891065D01*
X120386083Y-101883329D01*
X120415518Y-101837525D01*
X120420649Y-101830134D01*
X120551701Y-101655070D01*
X120557344Y-101648067D01*
X120592987Y-101606932D01*
X120599117Y-101600349D01*
X120650349Y-101549117D01*
X120656932Y-101542987D01*
X120698067Y-101507344D01*
X120705070Y-101501701D01*
X120880134Y-101370649D01*
X120887525Y-101365518D01*
X120933329Y-101336083D01*
X120941065Y-101331493D01*
X121004656Y-101296772D01*
X121012700Y-101292746D01*
X121062196Y-101270144D01*
X121070501Y-101266704D01*
X121271126Y-101191873D01*
X121278579Y-101189355D01*
X121324138Y-101175533D01*
X121331739Y-101173484D01*
X121393428Y-101158905D01*
X121401139Y-101157335D01*
X121448094Y-101149294D01*
X121455894Y-101148208D01*
X121561481Y-101136857D01*
X121564844Y-101136541D01*
X121585191Y-101134904D01*
X121588558Y-101134678D01*
X121615670Y-101133226D01*
X121619034Y-101133091D01*
X121622424Y-101133000D01*
X125188867Y-101133000D01*
X125221796Y-101133000D01*
X125226746Y-101133097D01*
X125256659Y-101134273D01*
X125261595Y-101134564D01*
X125301300Y-101137689D01*
X125306225Y-101138174D01*
X125335938Y-101141691D01*
X125340838Y-101142369D01*
X125591291Y-101182038D01*
X125596159Y-101182908D01*
X125625501Y-101188744D01*
X125630334Y-101189804D01*
X125669062Y-101199101D01*
X125673848Y-101200350D01*
X125702660Y-101208475D01*
X125707398Y-101209912D01*
X125948569Y-101288274D01*
X125953240Y-101289894D01*
X125981311Y-101300249D01*
X125985920Y-101302052D01*
X126022717Y-101317293D01*
X126027252Y-101319277D01*
X126054438Y-101331810D01*
X126058890Y-101333969D01*
X126284839Y-101449095D01*
X126289205Y-101451429D01*
X126315320Y-101466055D01*
X126319586Y-101468555D01*
X126353548Y-101489367D01*
X126357715Y-101492035D01*
X126364548Y-101496601D01*
X126372043Y-101491594D01*
X126376210Y-101488926D01*
X126410170Y-101468116D01*
X126414440Y-101465614D01*
X126440544Y-101450996D01*
X126444904Y-101448665D01*
X126670917Y-101333505D01*
X126675369Y-101331346D01*
X126702555Y-101318813D01*
X126707091Y-101316829D01*
X126714867Y-101313608D01*
X126714867Y-101132500D01*
X127728867Y-101132500D01*
X127761835Y-101132500D01*
X127766785Y-101132597D01*
X127796698Y-101133773D01*
X127801634Y-101134064D01*
X127841339Y-101137189D01*
X127846264Y-101137674D01*
X127875977Y-101141191D01*
X127880877Y-101141869D01*
X128131402Y-101181549D01*
X128136269Y-101182418D01*
X128165603Y-101188252D01*
X128170434Y-101189312D01*
X128209162Y-101198608D01*
X128213953Y-101199858D01*
X128242774Y-101207986D01*
X128247510Y-101209423D01*
X128488761Y-101287809D01*
X128493436Y-101289430D01*
X128521507Y-101299786D01*
X128526111Y-101301588D01*
X128562909Y-101316829D01*
X128567445Y-101318813D01*
X128594631Y-101331346D01*
X128599083Y-101333505D01*
X128825096Y-101448665D01*
X128829456Y-101450996D01*
X128855560Y-101465614D01*
X128859830Y-101468116D01*
X128893790Y-101488926D01*
X128897957Y-101491594D01*
X128905000Y-101496299D01*
X128912043Y-101491594D01*
X128916210Y-101488926D01*
X128950170Y-101468116D01*
X128954440Y-101465614D01*
X128980544Y-101450996D01*
X128984904Y-101448665D01*
X129210917Y-101333505D01*
X129215369Y-101331346D01*
X129242555Y-101318813D01*
X129247091Y-101316829D01*
X129254867Y-101313608D01*
X129254867Y-101132500D01*
X130268867Y-101132500D01*
X130301835Y-101132500D01*
X130306785Y-101132597D01*
X130336698Y-101133773D01*
X130341634Y-101134064D01*
X130381339Y-101137189D01*
X130386264Y-101137674D01*
X130415977Y-101141191D01*
X130420877Y-101141869D01*
X130671402Y-101181549D01*
X130676269Y-101182418D01*
X130705603Y-101188252D01*
X130710434Y-101189312D01*
X130749162Y-101198608D01*
X130753953Y-101199858D01*
X130782774Y-101207986D01*
X130787510Y-101209423D01*
X131028761Y-101287809D01*
X131033436Y-101289430D01*
X131061507Y-101299786D01*
X131066111Y-101301588D01*
X131102909Y-101316829D01*
X131107445Y-101318813D01*
X131134631Y-101331346D01*
X131139083Y-101333505D01*
X131365096Y-101448665D01*
X131369456Y-101450996D01*
X131395560Y-101465614D01*
X131399830Y-101468116D01*
X131433790Y-101488926D01*
X131437957Y-101491594D01*
X131462848Y-101508225D01*
X131466909Y-101511055D01*
X131672125Y-101660154D01*
X131676067Y-101663138D01*
X131699561Y-101681658D01*
X131703386Y-101684796D01*
X131733673Y-101710662D01*
X131737372Y-101713950D01*
X131759357Y-101734272D01*
X131762925Y-101737703D01*
X131794867Y-101769645D01*
X131794867Y-100931867D01*
X130268867Y-100931867D01*
X130268867Y-101132500D01*
X129254867Y-101132500D01*
X129254867Y-100931867D01*
X127728867Y-100931867D01*
X127728867Y-101132500D01*
X126714867Y-101132500D01*
X126714867Y-100931867D01*
X125188867Y-100931867D01*
X125188867Y-101133000D01*
X121622424Y-101133000D01*
X121634867Y-101132666D01*
X121634867Y-100931867D01*
X120108867Y-100931867D01*
X120108867Y-102457867D01*
X118162922Y-102457867D01*
X118239168Y-102381621D01*
X118239167Y-102381620D01*
X118186750Y-102343536D01*
X118186748Y-102343535D01*
X117996292Y-102246493D01*
X117996286Y-102246490D01*
X117793003Y-102180440D01*
X117581874Y-102147000D01*
X117368126Y-102147000D01*
X117156996Y-102180440D01*
X116953713Y-102246490D01*
X116953707Y-102246493D01*
X116763253Y-102343534D01*
X116710831Y-102381621D01*
X116710831Y-102381622D01*
X117350051Y-103020842D01*
X117282007Y-103039075D01*
X117167993Y-103104901D01*
X117074901Y-103197993D01*
X117009075Y-103312007D01*
X116990842Y-103380051D01*
X116351622Y-102740831D01*
X116351621Y-102740831D01*
X116313528Y-102793261D01*
X116312724Y-102794574D01*
X116312288Y-102794967D01*
X116310624Y-102797259D01*
X116310142Y-102796909D01*
X116260075Y-102842203D01*
X116190033Y-102853807D01*
X116124836Y-102825702D01*
X116099901Y-102796924D01*
X116099804Y-102796996D01*
X116098975Y-102795855D01*
X116097859Y-102794567D01*
X116096899Y-102793001D01*
X116096894Y-102792991D01*
X115971206Y-102619996D01*
X115971203Y-102619993D01*
X115971201Y-102619990D01*
X115820009Y-102468798D01*
X115820006Y-102468796D01*
X115820004Y-102468794D01*
X115681015Y-102367813D01*
X115647012Y-102343108D01*
X115647011Y-102343107D01*
X115647009Y-102343106D01*
X115456483Y-102246028D01*
X115456480Y-102246027D01*
X115456478Y-102246026D01*
X115253120Y-102179952D01*
X115253123Y-102179952D01*
X115213801Y-102173724D01*
X115041916Y-102146500D01*
X114828084Y-102146500D01*
X114616884Y-102179951D01*
X114616878Y-102179952D01*
X114413521Y-102246026D01*
X114413515Y-102246029D01*
X114222987Y-102343108D01*
X114049993Y-102468796D01*
X114049990Y-102468798D01*
X113898798Y-102619990D01*
X113898796Y-102619993D01*
X113773108Y-102792987D01*
X113772434Y-102794088D01*
X113772068Y-102794418D01*
X113770196Y-102796996D01*
X113769654Y-102796602D01*
X113719787Y-102841721D01*
X113649745Y-102853328D01*
X113584547Y-102825226D01*
X113559976Y-102796870D01*
X113559804Y-102796996D01*
X113558341Y-102794982D01*
X113557566Y-102794088D01*
X113556896Y-102792996D01*
X113556894Y-102792991D01*
X113431206Y-102619996D01*
X113431203Y-102619993D01*
X113431201Y-102619990D01*
X113280009Y-102468798D01*
X113280006Y-102468796D01*
X113280004Y-102468794D01*
X113141015Y-102367813D01*
X113107012Y-102343108D01*
X113107011Y-102343107D01*
X113107009Y-102343106D01*
X112916483Y-102246028D01*
X112916480Y-102246027D01*
X112916478Y-102246026D01*
X112713120Y-102179952D01*
X112713123Y-102179952D01*
X112673801Y-102173724D01*
X112501916Y-102146500D01*
X112288084Y-102146500D01*
X112076884Y-102179951D01*
X112076878Y-102179952D01*
X111873521Y-102246026D01*
X111873515Y-102246029D01*
X111682987Y-102343108D01*
X111509993Y-102468796D01*
X111509990Y-102468798D01*
X111358798Y-102619990D01*
X111358796Y-102619993D01*
X111233108Y-102792987D01*
X111232434Y-102794088D01*
X111232068Y-102794418D01*
X111230196Y-102796996D01*
X111229654Y-102796602D01*
X111179787Y-102841721D01*
X111109745Y-102853328D01*
X111044547Y-102825226D01*
X111019976Y-102796870D01*
X111019804Y-102796996D01*
X111018341Y-102794982D01*
X111017566Y-102794088D01*
X111016896Y-102792996D01*
X111016894Y-102792991D01*
X110891206Y-102619996D01*
X110891203Y-102619993D01*
X110891201Y-102619990D01*
X110740009Y-102468798D01*
X110740006Y-102468796D01*
X110740004Y-102468794D01*
X110601015Y-102367813D01*
X110567012Y-102343108D01*
X110567011Y-102343107D01*
X110567009Y-102343106D01*
X110376483Y-102246028D01*
X110376480Y-102246027D01*
X110376478Y-102246026D01*
X110173120Y-102179952D01*
X110173123Y-102179952D01*
X110133801Y-102173724D01*
X109961916Y-102146500D01*
X109748084Y-102146500D01*
X109536884Y-102179951D01*
X109536878Y-102179952D01*
X109333521Y-102246026D01*
X109333515Y-102246029D01*
X109142987Y-102343108D01*
X108969993Y-102468796D01*
X108969990Y-102468798D01*
X108818798Y-102619990D01*
X108818796Y-102619993D01*
X108693108Y-102792987D01*
X108692434Y-102794088D01*
X108692068Y-102794418D01*
X108690196Y-102796996D01*
X108689654Y-102796602D01*
X108639787Y-102841721D01*
X108569745Y-102853328D01*
X108504547Y-102825226D01*
X108479976Y-102796870D01*
X108479804Y-102796996D01*
X108478341Y-102794982D01*
X108477566Y-102794088D01*
X108476896Y-102792996D01*
X108476894Y-102792991D01*
X108351206Y-102619996D01*
X108351203Y-102619993D01*
X108351201Y-102619990D01*
X108200009Y-102468798D01*
X108200006Y-102468796D01*
X108200004Y-102468794D01*
X108061015Y-102367813D01*
X108027012Y-102343108D01*
X108027011Y-102343107D01*
X108027009Y-102343106D01*
X107836483Y-102246028D01*
X107836480Y-102246027D01*
X107836478Y-102246026D01*
X107633120Y-102179952D01*
X107633123Y-102179952D01*
X107593801Y-102173724D01*
X107421916Y-102146500D01*
X107208084Y-102146500D01*
X106996884Y-102179951D01*
X106996878Y-102179952D01*
X106793521Y-102246026D01*
X106793515Y-102246029D01*
X106602987Y-102343108D01*
X106429993Y-102468796D01*
X106429990Y-102468798D01*
X106278798Y-102619990D01*
X106278796Y-102619993D01*
X106153108Y-102792987D01*
X106152434Y-102794088D01*
X106152068Y-102794418D01*
X106150196Y-102796996D01*
X106149654Y-102796602D01*
X106099787Y-102841721D01*
X106029745Y-102853328D01*
X105964547Y-102825226D01*
X105939976Y-102796870D01*
X105939804Y-102796996D01*
X105938341Y-102794982D01*
X105937566Y-102794088D01*
X105936896Y-102792996D01*
X105936894Y-102792991D01*
X105811206Y-102619996D01*
X105811203Y-102619993D01*
X105811201Y-102619990D01*
X105660009Y-102468798D01*
X105660006Y-102468796D01*
X105660004Y-102468794D01*
X105487009Y-102343106D01*
X105455070Y-102326832D01*
X105403455Y-102278085D01*
X105386389Y-102209171D01*
X105409289Y-102141969D01*
X105423178Y-102125471D01*
X106416149Y-101132500D01*
X109948867Y-101132500D01*
X109981835Y-101132500D01*
X109986785Y-101132597D01*
X110016698Y-101133773D01*
X110021634Y-101134064D01*
X110061339Y-101137189D01*
X110066264Y-101137674D01*
X110095977Y-101141191D01*
X110100877Y-101141869D01*
X110351402Y-101181549D01*
X110356269Y-101182418D01*
X110385603Y-101188252D01*
X110390434Y-101189312D01*
X110429162Y-101198608D01*
X110433953Y-101199858D01*
X110462774Y-101207986D01*
X110467510Y-101209423D01*
X110708761Y-101287809D01*
X110713436Y-101289430D01*
X110741507Y-101299786D01*
X110746111Y-101301588D01*
X110782909Y-101316829D01*
X110787445Y-101318813D01*
X110814631Y-101331346D01*
X110819083Y-101333505D01*
X111045096Y-101448665D01*
X111049456Y-101450996D01*
X111075560Y-101465614D01*
X111079830Y-101468116D01*
X111113790Y-101488926D01*
X111117957Y-101491594D01*
X111125000Y-101496299D01*
X111132043Y-101491594D01*
X111136210Y-101488926D01*
X111170170Y-101468116D01*
X111174440Y-101465614D01*
X111200544Y-101450996D01*
X111204904Y-101448665D01*
X111430917Y-101333505D01*
X111435369Y-101331346D01*
X111462555Y-101318813D01*
X111467091Y-101316829D01*
X111474867Y-101313608D01*
X111474867Y-100931867D01*
X109948867Y-100931867D01*
X109948867Y-101132500D01*
X106416149Y-101132500D01*
X107567916Y-99980733D01*
X107567922Y-99980727D01*
X107648032Y-99841972D01*
X107665947Y-99775111D01*
X107689500Y-99687211D01*
X107689500Y-91978239D01*
X107709502Y-91910118D01*
X107726405Y-91889144D01*
X107761405Y-91854144D01*
X107823717Y-91820118D01*
X107894532Y-91825183D01*
X107951368Y-91867730D01*
X107976179Y-91934250D01*
X107976500Y-91943239D01*
X107976500Y-94755111D01*
X107984107Y-94783499D01*
X108017968Y-94909873D01*
X108017969Y-94909875D01*
X108017970Y-94909877D01*
X108098075Y-95048623D01*
X108098077Y-95048625D01*
X108098078Y-95048627D01*
X108832572Y-95783121D01*
X108866596Y-95845432D01*
X108863081Y-95911846D01*
X108817112Y-96050576D01*
X108806500Y-96154447D01*
X108806500Y-98155552D01*
X108806499Y-98155552D01*
X108817112Y-98259421D01*
X108817112Y-98259423D01*
X108817113Y-98259425D01*
X108872885Y-98427738D01*
X108935722Y-98529611D01*
X108965970Y-98578651D01*
X108965975Y-98578657D01*
X109091342Y-98704024D01*
X109091348Y-98704029D01*
X109091349Y-98704030D01*
X109242262Y-98797115D01*
X109410575Y-98852887D01*
X109438906Y-98855781D01*
X109514448Y-98863500D01*
X109514456Y-98863500D01*
X111860761Y-98863500D01*
X111928882Y-98883502D01*
X111949856Y-98900405D01*
X113118078Y-100068627D01*
X113118079Y-100068628D01*
X113231372Y-100181921D01*
X113231373Y-100181922D01*
X113231375Y-100181923D01*
X113266347Y-100202114D01*
X113370128Y-100262032D01*
X113524889Y-100303500D01*
X113524891Y-100303500D01*
X119079110Y-100303500D01*
X119079111Y-100303500D01*
X119156491Y-100282766D01*
X119233873Y-100262032D01*
X119372627Y-100181922D01*
X120949793Y-98604754D01*
X121012102Y-98570732D01*
X121063462Y-98570273D01*
X121205370Y-98598500D01*
X121205371Y-98598500D01*
X121364629Y-98598500D01*
X121364630Y-98598500D01*
X121520831Y-98567430D01*
X121667968Y-98506483D01*
X121725254Y-98468206D01*
X121793004Y-98446991D01*
X121861471Y-98465773D01*
X121908915Y-98518590D01*
X121914858Y-98533337D01*
X121927098Y-98570273D01*
X121932885Y-98587738D01*
X121985432Y-98672929D01*
X122025970Y-98738652D01*
X122025975Y-98738658D01*
X122151341Y-98864024D01*
X122151347Y-98864029D01*
X122151348Y-98864030D01*
X122302262Y-98957115D01*
X122470574Y-99012887D01*
X122574455Y-99023500D01*
X123175544Y-99023499D01*
X123279426Y-99012887D01*
X123447738Y-98957115D01*
X123598652Y-98864030D01*
X123724030Y-98738652D01*
X123724031Y-98738649D01*
X123726162Y-98735956D01*
X123728098Y-98734584D01*
X123729220Y-98733463D01*
X123729411Y-98733654D01*
X123784101Y-98694925D01*
X123855026Y-98691733D01*
X123916418Y-98727392D01*
X123923838Y-98735956D01*
X123925971Y-98738654D01*
X124051341Y-98864024D01*
X124051347Y-98864029D01*
X124051348Y-98864030D01*
X124202262Y-98957115D01*
X124370574Y-99012887D01*
X124474455Y-99023500D01*
X125075544Y-99023499D01*
X125179426Y-99012887D01*
X125207833Y-99003474D01*
X127728867Y-99003474D01*
X127728867Y-99917867D01*
X129254867Y-99917867D01*
X130268867Y-99917867D01*
X131794867Y-99917867D01*
X131794867Y-98391867D01*
X130268867Y-98391867D01*
X130268867Y-99917867D01*
X129254867Y-99917867D01*
X129254867Y-98391867D01*
X128088358Y-98391867D01*
X128008768Y-98584014D01*
X128006261Y-98589669D01*
X127990263Y-98623493D01*
X127987483Y-98629017D01*
X127964011Y-98672929D01*
X127960961Y-98678312D01*
X127941730Y-98710395D01*
X127938423Y-98715616D01*
X127822288Y-98889426D01*
X127818730Y-98894479D01*
X127796457Y-98924513D01*
X127792654Y-98929387D01*
X127761068Y-98967879D01*
X127757026Y-98972565D01*
X127731888Y-99000302D01*
X127728867Y-99003474D01*
X125207833Y-99003474D01*
X125347738Y-98957115D01*
X125498652Y-98864030D01*
X125624030Y-98738652D01*
X125717115Y-98587738D01*
X125722902Y-98570273D01*
X125726351Y-98559867D01*
X125766765Y-98501495D01*
X125832321Y-98474240D01*
X125845955Y-98473500D01*
X125894448Y-98473500D01*
X125962569Y-98493502D01*
X125964434Y-98494725D01*
X125982032Y-98506483D01*
X126129169Y-98567430D01*
X126285370Y-98598500D01*
X126285371Y-98598500D01*
X126444629Y-98598500D01*
X126444630Y-98598500D01*
X126600831Y-98567430D01*
X126747968Y-98506483D01*
X126880389Y-98418003D01*
X126993003Y-98305389D01*
X127081483Y-98172968D01*
X127142430Y-98025831D01*
X127173500Y-97869630D01*
X127173500Y-97710370D01*
X127142430Y-97554169D01*
X127081483Y-97407032D01*
X126993003Y-97274611D01*
X126993001Y-97274609D01*
X126992996Y-97274603D01*
X126880396Y-97162003D01*
X126880390Y-97161998D01*
X126878259Y-97160574D01*
X126747968Y-97073517D01*
X126600831Y-97012570D01*
X126517457Y-96995986D01*
X126444632Y-96981500D01*
X126444630Y-96981500D01*
X126285370Y-96981500D01*
X126285367Y-96981500D01*
X126168219Y-97004802D01*
X126129169Y-97012570D01*
X126046865Y-97046662D01*
X125982032Y-97073517D01*
X125964450Y-97085265D01*
X125896697Y-97106480D01*
X125894448Y-97106500D01*
X125845955Y-97106500D01*
X125777834Y-97086498D01*
X125731341Y-97032842D01*
X125726351Y-97020133D01*
X125717116Y-96992265D01*
X125717115Y-96992264D01*
X125717115Y-96992262D01*
X125624030Y-96841348D01*
X125624029Y-96841347D01*
X125624024Y-96841341D01*
X125495405Y-96712722D01*
X125461379Y-96650410D01*
X125458500Y-96623627D01*
X125458500Y-96576525D01*
X127728867Y-96576525D01*
X127731888Y-96579698D01*
X127757026Y-96607435D01*
X127761068Y-96612121D01*
X127792654Y-96650613D01*
X127796457Y-96655487D01*
X127818730Y-96685521D01*
X127822288Y-96690574D01*
X127938423Y-96864384D01*
X127941730Y-96869605D01*
X127960961Y-96901688D01*
X127964011Y-96907071D01*
X127987483Y-96950983D01*
X127990263Y-96956507D01*
X128006261Y-96990331D01*
X128008768Y-96995986D01*
X128088770Y-97189128D01*
X128090995Y-97194896D01*
X128103600Y-97230123D01*
X128105541Y-97235998D01*
X128119995Y-97283647D01*
X128121644Y-97289606D01*
X128130734Y-97325895D01*
X128132089Y-97331929D01*
X128141227Y-97377867D01*
X129254867Y-97377867D01*
X130268867Y-97377867D01*
X131794867Y-97377867D01*
X131794867Y-96751426D01*
X130895307Y-95851867D01*
X130268867Y-95851867D01*
X130268867Y-97377867D01*
X129254867Y-97377867D01*
X129254867Y-95851867D01*
X127728867Y-95851867D01*
X127728867Y-96576525D01*
X125458500Y-96576525D01*
X125458500Y-95146373D01*
X125478502Y-95078252D01*
X125495405Y-95057278D01*
X125624024Y-94928658D01*
X125624030Y-94928652D01*
X125717115Y-94777738D01*
X125772887Y-94609426D01*
X125783500Y-94505545D01*
X125783499Y-93454456D01*
X125780153Y-93421706D01*
X125772887Y-93350574D01*
X125752239Y-93288261D01*
X125717115Y-93182262D01*
X125705631Y-93163644D01*
X125686896Y-93095166D01*
X125708156Y-93027427D01*
X125762664Y-92981936D01*
X125812874Y-92971500D01*
X126708747Y-92971500D01*
X126776868Y-92991502D01*
X126823361Y-93045158D01*
X126832325Y-93072918D01*
X126836751Y-93095166D01*
X126854075Y-93182263D01*
X126857570Y-93199831D01*
X126918517Y-93346968D01*
X127006997Y-93479389D01*
X127006998Y-93479390D01*
X127007003Y-93479396D01*
X127119603Y-93591996D01*
X127119609Y-93592001D01*
X127119611Y-93592003D01*
X127252032Y-93680483D01*
X127399169Y-93741430D01*
X127555370Y-93772500D01*
X127555371Y-93772500D01*
X127714629Y-93772500D01*
X127714630Y-93772500D01*
X127870831Y-93741430D01*
X128017968Y-93680483D01*
X128147797Y-93593734D01*
X128215549Y-93572520D01*
X128217798Y-93572500D01*
X129997761Y-93572500D01*
X130065882Y-93592502D01*
X130086856Y-93609405D01*
X133898636Y-97421184D01*
X133929374Y-97471343D01*
X133971224Y-97600144D01*
X133996028Y-97676483D01*
X134093106Y-97867009D01*
X134218794Y-98040004D01*
X134218796Y-98040006D01*
X134218798Y-98040009D01*
X134369990Y-98191201D01*
X134369993Y-98191203D01*
X134369996Y-98191206D01*
X134542991Y-98316894D01*
X134542996Y-98316896D01*
X134544088Y-98317566D01*
X134544418Y-98317931D01*
X134546996Y-98319804D01*
X134546602Y-98320345D01*
X134591721Y-98370213D01*
X134603328Y-98440255D01*
X134575226Y-98505453D01*
X134546870Y-98530023D01*
X134546996Y-98530196D01*
X134544982Y-98531658D01*
X134544088Y-98532434D01*
X134542987Y-98533108D01*
X134369993Y-98658796D01*
X134369990Y-98658798D01*
X134218798Y-98809990D01*
X134218796Y-98809993D01*
X134093108Y-98982987D01*
X133996029Y-99173515D01*
X133996026Y-99173521D01*
X133929952Y-99376878D01*
X133929951Y-99376883D01*
X133929951Y-99376884D01*
X133896500Y-99588084D01*
X133896500Y-99801916D01*
X133925878Y-99987398D01*
X133929952Y-100013121D01*
X133996026Y-100216478D01*
X133996028Y-100216483D01*
X134093106Y-100407009D01*
X134218794Y-100580004D01*
X134218796Y-100580006D01*
X134218798Y-100580009D01*
X134369990Y-100731201D01*
X134369993Y-100731203D01*
X134369996Y-100731206D01*
X134542991Y-100856894D01*
X134733517Y-100953972D01*
X134936878Y-101020047D01*
X134936879Y-101020047D01*
X134936884Y-101020049D01*
X135148084Y-101053500D01*
X135148087Y-101053500D01*
X135361913Y-101053500D01*
X135361916Y-101053500D01*
X135573116Y-101020049D01*
X135776483Y-100953972D01*
X135967009Y-100856894D01*
X136140004Y-100731206D01*
X136291206Y-100580004D01*
X136416894Y-100407009D01*
X136513972Y-100216483D01*
X136580049Y-100013116D01*
X136613500Y-99801916D01*
X136613500Y-99588084D01*
X136580049Y-99376884D01*
X136568010Y-99339831D01*
X136565982Y-99268864D01*
X136598746Y-99211801D01*
X136698405Y-99112142D01*
X136760717Y-99078118D01*
X136831533Y-99083184D01*
X136888369Y-99125731D01*
X136913179Y-99192251D01*
X136913500Y-99201239D01*
X136913500Y-102556309D01*
X136893498Y-102624430D01*
X136876595Y-102645404D01*
X134395404Y-105126595D01*
X134333092Y-105160621D01*
X134306309Y-105163500D01*
X94549107Y-105163500D01*
X94476932Y-105182839D01*
X94405956Y-105181149D01*
X94355227Y-105150227D01*
X91953772Y-102748772D01*
X91919746Y-102686460D01*
X91921161Y-102627065D01*
X91921868Y-102624430D01*
X91940500Y-102554892D01*
X91940500Y-102423108D01*
X91940500Y-90892500D01*
X99868110Y-90892500D01*
X100091015Y-90892500D01*
X100095139Y-90892568D01*
X100120085Y-90893385D01*
X100124211Y-90893587D01*
X100157328Y-90895760D01*
X100161431Y-90896097D01*
X100186229Y-90898540D01*
X100190322Y-90899011D01*
X100353521Y-90920496D01*
X100361656Y-90921839D01*
X100410592Y-90931573D01*
X100418623Y-90933446D01*
X100482768Y-90950634D01*
X100490659Y-90953027D01*
X100537900Y-90969064D01*
X100545615Y-90971968D01*
X100748601Y-91056048D01*
X100756109Y-91059450D01*
X100800847Y-91081511D01*
X100808120Y-91085398D01*
X100865631Y-91118601D01*
X100872631Y-91122954D01*
X100914122Y-91150676D01*
X100920827Y-91155481D01*
X101095143Y-91289239D01*
X101101517Y-91294470D01*
X101139026Y-91327365D01*
X101145043Y-91333001D01*
X101191999Y-91379957D01*
X101197635Y-91385974D01*
X101230530Y-91423483D01*
X101235761Y-91429857D01*
X101314867Y-91532949D01*
X101314867Y-90771867D01*
X99970376Y-90771867D01*
X99930048Y-90824424D01*
X99924817Y-90830797D01*
X99891921Y-90868308D01*
X99886284Y-90874326D01*
X99868110Y-90892500D01*
X91940500Y-90892500D01*
X91940500Y-87242305D01*
X91960502Y-87174184D01*
X92014158Y-87127691D01*
X92084432Y-87117587D01*
X92149012Y-87147081D01*
X92155595Y-87153210D01*
X92234067Y-87231682D01*
X92268093Y-87293994D01*
X92269420Y-87340485D01*
X92240500Y-87523084D01*
X92240500Y-87736916D01*
X92267538Y-87907624D01*
X92273952Y-87948121D01*
X92336994Y-88142146D01*
X92340028Y-88151483D01*
X92437106Y-88342009D01*
X92562794Y-88515004D01*
X92562796Y-88515006D01*
X92562798Y-88515009D01*
X92713990Y-88666201D01*
X92713993Y-88666203D01*
X92713996Y-88666206D01*
X92886991Y-88791894D01*
X93077517Y-88888972D01*
X93280878Y-88955047D01*
X93280879Y-88955047D01*
X93280884Y-88955049D01*
X93492084Y-88988500D01*
X93492087Y-88988500D01*
X93705912Y-88988500D01*
X93705916Y-88988500D01*
X93888516Y-88959578D01*
X93958922Y-88968677D01*
X93997317Y-88994932D01*
X94973091Y-89970706D01*
X95068294Y-90065909D01*
X95180241Y-90140710D01*
X95231765Y-90162051D01*
X95304631Y-90192234D01*
X95436681Y-90218500D01*
X95571319Y-90218500D01*
X96780563Y-90218500D01*
X96848684Y-90238502D01*
X96857266Y-90244537D01*
X96896349Y-90274526D01*
X96896352Y-90274528D01*
X97038600Y-90333449D01*
X97152922Y-90348500D01*
X97152929Y-90348500D01*
X98767071Y-90348500D01*
X98767078Y-90348500D01*
X98881400Y-90333449D01*
X99023648Y-90274528D01*
X99145799Y-90180799D01*
X99239528Y-90058648D01*
X99298449Y-89916400D01*
X99313500Y-89802078D01*
X99313500Y-89267922D01*
X99298449Y-89153600D01*
X99239528Y-89011352D01*
X99212625Y-88976291D01*
X99187026Y-88910072D01*
X99189292Y-88899024D01*
X100280005Y-88899024D01*
X100286490Y-88923224D01*
X100288363Y-88931255D01*
X100298097Y-88980190D01*
X100299440Y-88988326D01*
X100320989Y-89152011D01*
X100321460Y-89156104D01*
X100323903Y-89180902D01*
X100324240Y-89185005D01*
X100326413Y-89218122D01*
X100326615Y-89222247D01*
X100327432Y-89247192D01*
X100327500Y-89251317D01*
X100327500Y-89757867D01*
X101257593Y-89757867D01*
X101247517Y-89739017D01*
X101244737Y-89733493D01*
X101228739Y-89699669D01*
X101226232Y-89694014D01*
X101146230Y-89500872D01*
X101144005Y-89495104D01*
X101131400Y-89459877D01*
X101129459Y-89454002D01*
X101115005Y-89406353D01*
X101113356Y-89400394D01*
X101104266Y-89364105D01*
X101102911Y-89358071D01*
X101062125Y-89153030D01*
X101061067Y-89146934D01*
X101055576Y-89109913D01*
X101054819Y-89103773D01*
X101049940Y-89054220D01*
X101049486Y-89048053D01*
X101047652Y-89010699D01*
X101047500Y-89004520D01*
X101047500Y-88795480D01*
X101047652Y-88789301D01*
X101049486Y-88751947D01*
X101049940Y-88745780D01*
X101054819Y-88696227D01*
X101055576Y-88690087D01*
X101061067Y-88653066D01*
X101062125Y-88646970D01*
X101102911Y-88441929D01*
X101104266Y-88435895D01*
X101113356Y-88399606D01*
X101115005Y-88393647D01*
X101129459Y-88345998D01*
X101131400Y-88340123D01*
X101144005Y-88304896D01*
X101146230Y-88299128D01*
X101174090Y-88231867D01*
X100323597Y-88231867D01*
X100317408Y-88262982D01*
X100316572Y-88265000D01*
X100317408Y-88267018D01*
X100327000Y-88315238D01*
X100327000Y-88548645D01*
X100326932Y-88552770D01*
X100326115Y-88577715D01*
X100325913Y-88581840D01*
X100323740Y-88614958D01*
X100323403Y-88619061D01*
X100320960Y-88643859D01*
X100320489Y-88647952D01*
X100298952Y-88811545D01*
X100297609Y-88819681D01*
X100287875Y-88868615D01*
X100286002Y-88876647D01*
X100280005Y-88899024D01*
X99189292Y-88899024D01*
X99201291Y-88840523D01*
X99212628Y-88822884D01*
X99239088Y-88788401D01*
X99297961Y-88646268D01*
X99312999Y-88532041D01*
X99313000Y-88532033D01*
X99313000Y-88519000D01*
X96607000Y-88519000D01*
X96607000Y-88532041D01*
X96622038Y-88646268D01*
X96634885Y-88677282D01*
X96642474Y-88747872D01*
X96610695Y-88811359D01*
X96549637Y-88847586D01*
X96518476Y-88851500D01*
X95839305Y-88851500D01*
X95771184Y-88831498D01*
X95750210Y-88814595D01*
X94963932Y-88028317D01*
X94929906Y-87966005D01*
X94928578Y-87919519D01*
X94957500Y-87736916D01*
X94957500Y-87523084D01*
X94924049Y-87311884D01*
X94907854Y-87262041D01*
X96607000Y-87262041D01*
X96622039Y-87376270D01*
X96680907Y-87518394D01*
X96707689Y-87553298D01*
X96733288Y-87619519D01*
X96719022Y-87689067D01*
X96707689Y-87706702D01*
X96680907Y-87741605D01*
X96622039Y-87883729D01*
X96607000Y-87997958D01*
X96607000Y-88011000D01*
X97706000Y-88011000D01*
X98214000Y-88011000D01*
X99313000Y-88011000D01*
X99313000Y-87997967D01*
X99312999Y-87997958D01*
X99297960Y-87883729D01*
X99239093Y-87741607D01*
X99212311Y-87706705D01*
X99186710Y-87640485D01*
X99200974Y-87570936D01*
X99212311Y-87553295D01*
X99239093Y-87518392D01*
X99297960Y-87376270D01*
X99312999Y-87262041D01*
X99313000Y-87262033D01*
X99313000Y-87249000D01*
X98214000Y-87249000D01*
X98214000Y-88011000D01*
X97706000Y-88011000D01*
X97706000Y-87249000D01*
X96607000Y-87249000D01*
X96607000Y-87262041D01*
X94907854Y-87262041D01*
X94857972Y-87108517D01*
X94760894Y-86917991D01*
X94635206Y-86744996D01*
X94635203Y-86744993D01*
X94635201Y-86744990D01*
X94531840Y-86641629D01*
X94497814Y-86579317D01*
X94502879Y-86508502D01*
X94545426Y-86451666D01*
X94576903Y-86434478D01*
X94694965Y-86390444D01*
X94811904Y-86302904D01*
X94899444Y-86185965D01*
X94899444Y-86185964D01*
X94950494Y-86049093D01*
X94956629Y-85992041D01*
X96607000Y-85992041D01*
X96622039Y-86106270D01*
X96680907Y-86248394D01*
X96707689Y-86283298D01*
X96733288Y-86349519D01*
X96719022Y-86419067D01*
X96707689Y-86436702D01*
X96680907Y-86471605D01*
X96622039Y-86613729D01*
X96607000Y-86727958D01*
X96607000Y-86741000D01*
X97706000Y-86741000D01*
X98214000Y-86741000D01*
X99313000Y-86741000D01*
X99313000Y-86727967D01*
X99312999Y-86727958D01*
X99297960Y-86613729D01*
X99239093Y-86471607D01*
X99212311Y-86436705D01*
X99186710Y-86370485D01*
X99188860Y-86360000D01*
X100279744Y-86360000D01*
X100286002Y-86383352D01*
X100287875Y-86391385D01*
X100297609Y-86440319D01*
X100298952Y-86448455D01*
X100320489Y-86612048D01*
X100320960Y-86616141D01*
X100323403Y-86640939D01*
X100323740Y-86645042D01*
X100325913Y-86678160D01*
X100326115Y-86682285D01*
X100326932Y-86707230D01*
X100327000Y-86711355D01*
X100327000Y-86944762D01*
X100317408Y-86992982D01*
X100316572Y-86995000D01*
X100317408Y-86997018D01*
X100327000Y-87045238D01*
X100327000Y-87217867D01*
X101314867Y-87217867D01*
X101314867Y-85691867D01*
X100323597Y-85691867D01*
X100317408Y-85722982D01*
X100316572Y-85725000D01*
X100317408Y-85727018D01*
X100327000Y-85775238D01*
X100327000Y-86008645D01*
X100326932Y-86012770D01*
X100326115Y-86037715D01*
X100325913Y-86041840D01*
X100323740Y-86074958D01*
X100323403Y-86079061D01*
X100320960Y-86103859D01*
X100320489Y-86107952D01*
X100298952Y-86271545D01*
X100297609Y-86279681D01*
X100287875Y-86328615D01*
X100286002Y-86336648D01*
X100279744Y-86360000D01*
X99188860Y-86360000D01*
X99200974Y-86300936D01*
X99212311Y-86283295D01*
X99239093Y-86248392D01*
X99297960Y-86106270D01*
X99312999Y-85992041D01*
X99313000Y-85992033D01*
X99313000Y-85979000D01*
X98214000Y-85979000D01*
X98214000Y-86741000D01*
X97706000Y-86741000D01*
X97706000Y-85979000D01*
X96607000Y-85979000D01*
X96607000Y-85992041D01*
X94956629Y-85992041D01*
X94956999Y-85988597D01*
X94957000Y-85988585D01*
X94957000Y-85457958D01*
X96607000Y-85457958D01*
X96607000Y-85471000D01*
X97706000Y-85471000D01*
X98214000Y-85471000D01*
X99313000Y-85471000D01*
X99313000Y-85457967D01*
X99312999Y-85457958D01*
X99297960Y-85343729D01*
X99239093Y-85201607D01*
X99145441Y-85079558D01*
X99023392Y-84985906D01*
X98881270Y-84927039D01*
X98767041Y-84912000D01*
X98214000Y-84912000D01*
X98214000Y-85471000D01*
X97706000Y-85471000D01*
X97706000Y-84912000D01*
X97152958Y-84912000D01*
X97038729Y-84927039D01*
X96896607Y-84985906D01*
X96774558Y-85079558D01*
X96680906Y-85201607D01*
X96622039Y-85343729D01*
X96607000Y-85457958D01*
X94957000Y-85457958D01*
X94957000Y-85344000D01*
X94029703Y-85344000D01*
X94064925Y-85282993D01*
X94099000Y-85155826D01*
X94099000Y-85024174D01*
X94064925Y-84897007D01*
X94029703Y-84836000D01*
X94957000Y-84836000D01*
X94957000Y-84247459D01*
X99788867Y-84247459D01*
X99788867Y-84295155D01*
X99789069Y-84295311D01*
X99795441Y-84300541D01*
X99832951Y-84333436D01*
X99838969Y-84339073D01*
X99885927Y-84386031D01*
X99891564Y-84392049D01*
X99924459Y-84429559D01*
X99929690Y-84435932D01*
X100063762Y-84610658D01*
X100068564Y-84617360D01*
X100096275Y-84658832D01*
X100100627Y-84665830D01*
X100107577Y-84677867D01*
X101314867Y-84677867D01*
X102328867Y-84677867D01*
X103092423Y-84677867D01*
X103099373Y-84665830D01*
X103103725Y-84658832D01*
X103131436Y-84617360D01*
X103136238Y-84610658D01*
X103265923Y-84441648D01*
X102328867Y-83504592D01*
X102328867Y-84677867D01*
X101314867Y-84677867D01*
X101314867Y-83330759D01*
X100942915Y-83702712D01*
X100830112Y-83815516D01*
X100825633Y-83819781D01*
X100797913Y-83844905D01*
X100793231Y-83848943D01*
X100754741Y-83880532D01*
X100749863Y-83884339D01*
X100719812Y-83906626D01*
X100714757Y-83910186D01*
X100561415Y-84012646D01*
X100556191Y-84015954D01*
X100524117Y-84035179D01*
X100518743Y-84038224D01*
X100474828Y-84061701D01*
X100469297Y-84064485D01*
X100435454Y-84080492D01*
X100429797Y-84083000D01*
X100321545Y-84127837D01*
X100321544Y-84127836D01*
X100259425Y-84153569D01*
X100259325Y-84153606D01*
X100141707Y-84202324D01*
X100071117Y-84209913D01*
X100068905Y-84209493D01*
X100061084Y-84207937D01*
X99935719Y-84232875D01*
X99929622Y-84233933D01*
X99892601Y-84239424D01*
X99886462Y-84240181D01*
X99836910Y-84245060D01*
X99830742Y-84245514D01*
X99793388Y-84247348D01*
X99788867Y-84247459D01*
X94957000Y-84247459D01*
X94957000Y-84191414D01*
X94956999Y-84191402D01*
X94950494Y-84130906D01*
X94899444Y-83994035D01*
X94899444Y-83994034D01*
X94811904Y-83877095D01*
X94694965Y-83789555D01*
X94558093Y-83738505D01*
X94497597Y-83732000D01*
X93853000Y-83732000D01*
X93853000Y-84659297D01*
X93791993Y-84624075D01*
X93664826Y-84590000D01*
X93533174Y-84590000D01*
X93406007Y-84624075D01*
X93345000Y-84659297D01*
X93345000Y-83731999D01*
X93326403Y-83713402D01*
X93292377Y-83651090D01*
X93297442Y-83580275D01*
X93326403Y-83535212D01*
X93591210Y-83270405D01*
X93653522Y-83236379D01*
X93680305Y-83233500D01*
X96780563Y-83233500D01*
X96848684Y-83253502D01*
X96857266Y-83259537D01*
X96896352Y-83289528D01*
X97038600Y-83348449D01*
X97152922Y-83363500D01*
X97152929Y-83363500D01*
X98767071Y-83363500D01*
X98767078Y-83363500D01*
X98881400Y-83348449D01*
X99023648Y-83289528D01*
X99062734Y-83259537D01*
X99128954Y-83233937D01*
X99139437Y-83233500D01*
X99762318Y-83233500D01*
X99762319Y-83233500D01*
X99894369Y-83207234D01*
X99967235Y-83177051D01*
X100018759Y-83155710D01*
X100130706Y-83080909D01*
X100225909Y-82985706D01*
X101495909Y-81715706D01*
X101516760Y-81684500D01*
X101570710Y-81603759D01*
X101596551Y-81541373D01*
X101622234Y-81479370D01*
X101648500Y-81347319D01*
X101648500Y-81212681D01*
X101648500Y-80819500D01*
X101668502Y-80751379D01*
X101722158Y-80704886D01*
X101774500Y-80693500D01*
X103561760Y-80693500D01*
X103629881Y-80713502D01*
G37*
%TD.AperFunction*%
%TA.AperFunction,Conductor*%
G36*
X134447360Y-89363112D02*
G01*
X134477388Y-89379231D01*
X134519560Y-89409871D01*
X134562914Y-89466092D01*
X134571500Y-89511807D01*
X134571500Y-90590500D01*
X134551498Y-90658621D01*
X134497842Y-90705114D01*
X134445500Y-90716500D01*
X134356350Y-90716500D01*
X134295803Y-90723009D01*
X134295795Y-90723011D01*
X134158797Y-90774110D01*
X134158792Y-90774112D01*
X134041738Y-90861738D01*
X133954112Y-90978792D01*
X133954110Y-90978797D01*
X133903011Y-91115795D01*
X133903009Y-91115803D01*
X133896500Y-91176350D01*
X133896500Y-92973649D01*
X133903009Y-93034196D01*
X133903011Y-93034204D01*
X133954110Y-93171202D01*
X133954112Y-93171207D01*
X134041738Y-93288261D01*
X134158792Y-93375887D01*
X134158794Y-93375888D01*
X134158796Y-93375889D01*
X134217875Y-93397924D01*
X134295795Y-93426988D01*
X134295803Y-93426990D01*
X134356350Y-93433499D01*
X134356355Y-93433499D01*
X134356362Y-93433500D01*
X134380519Y-93433500D01*
X134448640Y-93453502D01*
X134469614Y-93470404D01*
X135130052Y-94130841D01*
X135062007Y-94149075D01*
X134947993Y-94214901D01*
X134854901Y-94307993D01*
X134789075Y-94422007D01*
X134770842Y-94490051D01*
X134131622Y-93850831D01*
X134131621Y-93850831D01*
X134093534Y-93903253D01*
X133996493Y-94093707D01*
X133996490Y-94093713D01*
X133930440Y-94296996D01*
X133897000Y-94508126D01*
X133897000Y-94721873D01*
X133930440Y-94933003D01*
X133996490Y-95136286D01*
X133996493Y-95136292D01*
X134093535Y-95326748D01*
X134093536Y-95326750D01*
X134131620Y-95379167D01*
X134131621Y-95379168D01*
X134770841Y-94739947D01*
X134789075Y-94807993D01*
X134854901Y-94922007D01*
X134947993Y-95015099D01*
X135062007Y-95080925D01*
X135130050Y-95099157D01*
X134490830Y-95738377D01*
X134490831Y-95738378D01*
X134543247Y-95776461D01*
X134544566Y-95777270D01*
X134544962Y-95777708D01*
X134547258Y-95779376D01*
X134546907Y-95779858D01*
X134592199Y-95829915D01*
X134603809Y-95899956D01*
X134575708Y-95965155D01*
X134546925Y-95990098D01*
X134546996Y-95990196D01*
X134545862Y-95991019D01*
X134544580Y-95992131D01*
X134542998Y-95993100D01*
X134426561Y-96077697D01*
X134359693Y-96101556D01*
X134290542Y-96085475D01*
X134263405Y-96064856D01*
X131041523Y-92842974D01*
X131007497Y-92780662D01*
X131012562Y-92709847D01*
X131041523Y-92664784D01*
X132669195Y-91037112D01*
X134314235Y-89392071D01*
X134376545Y-89358047D01*
X134447360Y-89363112D01*
G37*
%TD.AperFunction*%
%TA.AperFunction,Conductor*%
G36*
X126282040Y-85718502D02*
G01*
X126328533Y-85772158D01*
X126339266Y-85837308D01*
X126337000Y-85859484D01*
X126337000Y-86106000D01*
X127231500Y-86106000D01*
X127299621Y-86126002D01*
X127346114Y-86179658D01*
X127357500Y-86232000D01*
X127357500Y-86360000D01*
X127485500Y-86360000D01*
X127553621Y-86380002D01*
X127600114Y-86433658D01*
X127611500Y-86486000D01*
X127611500Y-87568000D01*
X127670517Y-87568000D01*
X127670516Y-87567999D01*
X127774318Y-87557394D01*
X127774321Y-87557393D01*
X127942525Y-87501657D01*
X128093339Y-87408634D01*
X128093345Y-87408629D01*
X128180551Y-87321424D01*
X128242863Y-87287398D01*
X128313678Y-87292463D01*
X128358741Y-87321424D01*
X128446341Y-87409024D01*
X128446347Y-87409029D01*
X128446348Y-87409030D01*
X128597262Y-87502115D01*
X128765574Y-87557887D01*
X128869455Y-87568500D01*
X129478260Y-87568499D01*
X129546381Y-87588501D01*
X129567355Y-87605404D01*
X129908608Y-87946657D01*
X129942634Y-88008969D01*
X129937569Y-88079784D01*
X129895022Y-88136620D01*
X129867734Y-88152159D01*
X129792032Y-88183517D01*
X129792030Y-88183518D01*
X129659609Y-88271998D01*
X129659603Y-88272003D01*
X129547003Y-88384603D01*
X129546998Y-88384609D01*
X129534304Y-88403607D01*
X129458517Y-88517032D01*
X129397570Y-88664169D01*
X129396081Y-88671655D01*
X129367107Y-88817314D01*
X129334199Y-88880224D01*
X129332623Y-88881827D01*
X127419856Y-90794595D01*
X127357544Y-90828620D01*
X127330761Y-90831500D01*
X125881081Y-90831500D01*
X125812960Y-90811498D01*
X125766467Y-90757842D01*
X125755734Y-90692692D01*
X125758000Y-90670515D01*
X125758000Y-90424000D01*
X124863500Y-90424000D01*
X124795379Y-90403998D01*
X124748886Y-90350342D01*
X124737500Y-90298000D01*
X124737500Y-90170000D01*
X124609500Y-90170000D01*
X124541379Y-90149998D01*
X124494886Y-90096342D01*
X124483500Y-90044000D01*
X124483500Y-89916000D01*
X124991500Y-89916000D01*
X125758000Y-89916000D01*
X125758000Y-89669483D01*
X125747394Y-89565681D01*
X125747393Y-89565678D01*
X125691657Y-89397474D01*
X125598634Y-89246660D01*
X125598629Y-89246654D01*
X125473345Y-89121370D01*
X125473339Y-89121365D01*
X125322525Y-89028342D01*
X125154321Y-88972606D01*
X125154318Y-88972605D01*
X125050516Y-88962000D01*
X124991500Y-88962000D01*
X124991500Y-89916000D01*
X124483500Y-89916000D01*
X124483500Y-88962000D01*
X124424483Y-88962000D01*
X124320681Y-88972605D01*
X124320678Y-88972606D01*
X124152474Y-89028342D01*
X124001660Y-89121365D01*
X124001654Y-89121370D01*
X123914449Y-89208576D01*
X123852137Y-89242602D01*
X123781322Y-89237537D01*
X123736259Y-89208576D01*
X123648658Y-89120975D01*
X123648652Y-89120970D01*
X123613570Y-89099331D01*
X123497738Y-89027885D01*
X123378355Y-88988326D01*
X123329427Y-88972113D01*
X123329420Y-88972112D01*
X123279516Y-88967013D01*
X123213781Y-88940190D01*
X123172983Y-88882086D01*
X123170075Y-88811149D01*
X123205981Y-88749901D01*
X123244103Y-88725259D01*
X123295468Y-88703983D01*
X123427889Y-88615503D01*
X123540503Y-88502889D01*
X123628983Y-88370468D01*
X123689930Y-88223331D01*
X123721000Y-88067130D01*
X123721000Y-87907870D01*
X123689930Y-87751669D01*
X123628983Y-87604532D01*
X123614811Y-87583323D01*
X123593597Y-87515575D01*
X123612379Y-87447107D01*
X123644238Y-87415280D01*
X123642895Y-87413582D01*
X123648647Y-87409032D01*
X123648652Y-87409030D01*
X123681412Y-87376270D01*
X123736259Y-87321424D01*
X123798571Y-87287398D01*
X123869386Y-87292463D01*
X123914449Y-87321424D01*
X124001654Y-87408629D01*
X124001660Y-87408634D01*
X124152474Y-87501657D01*
X124320678Y-87557393D01*
X124320681Y-87557394D01*
X124424483Y-87567999D01*
X124424483Y-87568000D01*
X124483500Y-87568000D01*
X124991500Y-87568000D01*
X125050517Y-87568000D01*
X125050516Y-87567999D01*
X125154318Y-87557394D01*
X125154321Y-87557393D01*
X125322525Y-87501657D01*
X125473339Y-87408634D01*
X125473345Y-87408629D01*
X125598629Y-87283345D01*
X125598634Y-87283339D01*
X125691657Y-87132525D01*
X125747393Y-86964321D01*
X125747394Y-86964318D01*
X125757999Y-86860516D01*
X125758000Y-86860516D01*
X126337000Y-86860516D01*
X126347605Y-86964318D01*
X126347606Y-86964321D01*
X126403342Y-87132525D01*
X126496365Y-87283339D01*
X126496370Y-87283345D01*
X126621654Y-87408629D01*
X126621660Y-87408634D01*
X126772474Y-87501657D01*
X126940678Y-87557393D01*
X126940681Y-87557394D01*
X127044483Y-87567999D01*
X127044483Y-87568000D01*
X127103500Y-87568000D01*
X127103500Y-86614000D01*
X126337000Y-86614000D01*
X126337000Y-86860516D01*
X125758000Y-86860516D01*
X125758000Y-86614000D01*
X124991500Y-86614000D01*
X124991500Y-87568000D01*
X124483500Y-87568000D01*
X124483500Y-86486000D01*
X124503502Y-86417879D01*
X124557158Y-86371386D01*
X124609500Y-86360000D01*
X124737500Y-86360000D01*
X124737500Y-86232000D01*
X124757502Y-86163879D01*
X124811158Y-86117386D01*
X124863500Y-86106000D01*
X125758000Y-86106000D01*
X125758000Y-85859484D01*
X125755734Y-85837308D01*
X125768708Y-85767507D01*
X125817359Y-85715801D01*
X125881081Y-85698500D01*
X126213919Y-85698500D01*
X126282040Y-85718502D01*
G37*
%TD.AperFunction*%
%TA.AperFunction,Conductor*%
G36*
X119922012Y-85223015D02*
G01*
X119928595Y-85229144D01*
X120728158Y-86028707D01*
X120757571Y-86082571D01*
X120759772Y-86081904D01*
X120761569Y-86087828D01*
X120761570Y-86087831D01*
X120822517Y-86234968D01*
X120906060Y-86360000D01*
X120910998Y-86367390D01*
X120911003Y-86367396D01*
X121023603Y-86479996D01*
X121023609Y-86480001D01*
X121023611Y-86480003D01*
X121156032Y-86568483D01*
X121303169Y-86629430D01*
X121459370Y-86660500D01*
X121459371Y-86660500D01*
X121618629Y-86660500D01*
X121618630Y-86660500D01*
X121740920Y-86636175D01*
X121811632Y-86642503D01*
X121867700Y-86686057D01*
X121891319Y-86753009D01*
X121891500Y-86759753D01*
X121891500Y-86860543D01*
X121902112Y-86964425D01*
X121957885Y-87132738D01*
X122050970Y-87283652D01*
X122050975Y-87283658D01*
X122176341Y-87409024D01*
X122176344Y-87409026D01*
X122176348Y-87409030D01*
X122176350Y-87409031D01*
X122182103Y-87413580D01*
X122180331Y-87415821D01*
X122219051Y-87458876D01*
X122230449Y-87528952D01*
X122210190Y-87583320D01*
X122196017Y-87604532D01*
X122196015Y-87604534D01*
X122196015Y-87604536D01*
X122175343Y-87654443D01*
X122135923Y-87749611D01*
X122135071Y-87751667D01*
X122135070Y-87751670D01*
X122104000Y-87907867D01*
X122104000Y-88067132D01*
X122115028Y-88122571D01*
X122135070Y-88223331D01*
X122196017Y-88370468D01*
X122281786Y-88498831D01*
X122284498Y-88502890D01*
X122284503Y-88502896D01*
X122397103Y-88615496D01*
X122397109Y-88615501D01*
X122397111Y-88615503D01*
X122529532Y-88703983D01*
X122580894Y-88725258D01*
X122636174Y-88769805D01*
X122658595Y-88837168D01*
X122641037Y-88905960D01*
X122589075Y-88954338D01*
X122545482Y-88967013D01*
X122495580Y-88972111D01*
X122495577Y-88972112D01*
X122327261Y-89027885D01*
X122176347Y-89120970D01*
X122176341Y-89120975D01*
X122050975Y-89246341D01*
X122050970Y-89246347D01*
X121957885Y-89397262D01*
X121902113Y-89565572D01*
X121902112Y-89565579D01*
X121891500Y-89669446D01*
X121891500Y-90278259D01*
X121871498Y-90346380D01*
X121854596Y-90367354D01*
X121802356Y-90419595D01*
X121740044Y-90453620D01*
X121713260Y-90456500D01*
X119603034Y-90456500D01*
X119534913Y-90436498D01*
X119526342Y-90430471D01*
X119440969Y-90364961D01*
X119399103Y-90307623D01*
X119394882Y-90236752D01*
X119429647Y-90174850D01*
X119440970Y-90165038D01*
X119547949Y-90082949D01*
X119557137Y-90070974D01*
X119565332Y-90060296D01*
X119622670Y-90018429D01*
X119665294Y-90011000D01*
X119711691Y-90011000D01*
X119711690Y-90010999D01*
X119698154Y-89908184D01*
X119696018Y-89900211D01*
X119698959Y-89899422D01*
X119692914Y-89843309D01*
X119696820Y-89830005D01*
X119696504Y-89829921D01*
X119698638Y-89821950D01*
X119698642Y-89821942D01*
X119713500Y-89709084D01*
X119713500Y-89220916D01*
X119698642Y-89108058D01*
X119698639Y-89108052D01*
X119696504Y-89100078D01*
X119699291Y-89099331D01*
X119693184Y-89042659D01*
X119696893Y-89030026D01*
X119696504Y-89029922D01*
X119698639Y-89021948D01*
X119698642Y-89021942D01*
X119713500Y-88909084D01*
X119713500Y-88420916D01*
X119698642Y-88308058D01*
X119698639Y-88308052D01*
X119696504Y-88300078D01*
X119699291Y-88299331D01*
X119693184Y-88242659D01*
X119696893Y-88230026D01*
X119696504Y-88229922D01*
X119698639Y-88221948D01*
X119698642Y-88221942D01*
X119713500Y-88109084D01*
X119713500Y-87620916D01*
X119698642Y-87508058D01*
X119698639Y-87508052D01*
X119696504Y-87500078D01*
X119699291Y-87499331D01*
X119693184Y-87442659D01*
X119696893Y-87430026D01*
X119696504Y-87429922D01*
X119698639Y-87421948D01*
X119698642Y-87421942D01*
X119713500Y-87309084D01*
X119713500Y-86820916D01*
X119698642Y-86708058D01*
X119698639Y-86708052D01*
X119696504Y-86700078D01*
X119699291Y-86699331D01*
X119693184Y-86642659D01*
X119696893Y-86630026D01*
X119696504Y-86629922D01*
X119698639Y-86621948D01*
X119698642Y-86621942D01*
X119713500Y-86509084D01*
X119713500Y-86020916D01*
X119698642Y-85908058D01*
X119698639Y-85908052D01*
X119696504Y-85900078D01*
X119699291Y-85899331D01*
X119693184Y-85842659D01*
X119696893Y-85830026D01*
X119696504Y-85829922D01*
X119698639Y-85821948D01*
X119698642Y-85821942D01*
X119713500Y-85709084D01*
X119713500Y-85318239D01*
X119733502Y-85250118D01*
X119787158Y-85203625D01*
X119857432Y-85193521D01*
X119922012Y-85223015D01*
G37*
%TD.AperFunction*%
%TA.AperFunction,Conductor*%
G36*
X117168621Y-89293502D02*
G01*
X117215114Y-89347158D01*
X117226500Y-89399500D01*
X117226500Y-89709088D01*
X117239745Y-89809696D01*
X117228805Y-89879845D01*
X117181677Y-89932943D01*
X117113322Y-89952132D01*
X117045445Y-89931320D01*
X117025728Y-89915236D01*
X116599087Y-89488595D01*
X116565061Y-89426283D01*
X116570126Y-89355468D01*
X116612673Y-89298632D01*
X116679193Y-89273821D01*
X116688182Y-89273500D01*
X117100500Y-89273500D01*
X117168621Y-89293502D01*
G37*
%TD.AperFunction*%
%TA.AperFunction,Conductor*%
G36*
X111524081Y-87137412D02*
G01*
X111524166Y-87137429D01*
X111524169Y-87137430D01*
X111680370Y-87168500D01*
X111685081Y-87169437D01*
X111747991Y-87202345D01*
X111783123Y-87264040D01*
X111786500Y-87293016D01*
X111786500Y-87710114D01*
X111798128Y-87753508D01*
X111798128Y-87753510D01*
X111798129Y-87753510D01*
X111827967Y-87864870D01*
X111827970Y-87864877D01*
X111846146Y-87896358D01*
X111893597Y-87978546D01*
X111896619Y-87983779D01*
X111913500Y-88046779D01*
X111913500Y-88403607D01*
X111893498Y-88471728D01*
X111839842Y-88518221D01*
X111769568Y-88528325D01*
X111704988Y-88498831D01*
X111698405Y-88492702D01*
X111410161Y-88204458D01*
X111376135Y-88142146D01*
X111375344Y-88123166D01*
X111371691Y-88119000D01*
X111355431Y-88119000D01*
X111287310Y-88098998D01*
X111285429Y-88097765D01*
X111227847Y-88059289D01*
X111223949Y-88057206D01*
X111206641Y-88046046D01*
X111100971Y-87964962D01*
X111059104Y-87907624D01*
X111054882Y-87836753D01*
X111089646Y-87774850D01*
X111100970Y-87765038D01*
X111207949Y-87682949D01*
X111225332Y-87660296D01*
X111282670Y-87618429D01*
X111325294Y-87611000D01*
X111371691Y-87611000D01*
X111371690Y-87610999D01*
X111358154Y-87508184D01*
X111356018Y-87500211D01*
X111358959Y-87499422D01*
X111352914Y-87443309D01*
X111356820Y-87430005D01*
X111356504Y-87429921D01*
X111358638Y-87421950D01*
X111358642Y-87421942D01*
X111373500Y-87309084D01*
X111373500Y-87260991D01*
X111393502Y-87192870D01*
X111447158Y-87146377D01*
X111517432Y-87136273D01*
X111524081Y-87137412D01*
G37*
%TD.AperFunction*%
%TA.AperFunction,Conductor*%
G36*
X134448041Y-77825850D02*
G01*
X134498772Y-77856772D01*
X136900227Y-80258227D01*
X136934253Y-80320539D01*
X136932839Y-80379932D01*
X136913500Y-80452107D01*
X136913500Y-84591000D01*
X136893498Y-84659121D01*
X136839842Y-84705614D01*
X136769568Y-84715718D01*
X136704988Y-84686224D01*
X136698405Y-84680095D01*
X136105393Y-84087083D01*
X136105383Y-84087075D01*
X135966637Y-84006970D01*
X135966635Y-84006969D01*
X135966633Y-84006968D01*
X135883187Y-83984609D01*
X135883186Y-83984608D01*
X135811871Y-83965500D01*
X135728480Y-83965500D01*
X135660359Y-83945498D01*
X135639385Y-83928595D01*
X135379947Y-83669157D01*
X135447993Y-83650925D01*
X135562007Y-83585099D01*
X135655099Y-83492007D01*
X135720925Y-83377993D01*
X135739157Y-83309948D01*
X136378376Y-83949167D01*
X136378378Y-83949167D01*
X136416463Y-83896750D01*
X136513506Y-83706292D01*
X136513509Y-83706286D01*
X136579559Y-83503003D01*
X136613000Y-83291873D01*
X136613000Y-83078126D01*
X136579559Y-82866996D01*
X136513509Y-82663713D01*
X136513506Y-82663707D01*
X136416464Y-82473251D01*
X136416463Y-82473249D01*
X136378378Y-82420831D01*
X135739157Y-83060051D01*
X135720925Y-82992007D01*
X135655099Y-82877993D01*
X135562007Y-82784901D01*
X135447993Y-82719075D01*
X135379947Y-82700841D01*
X136019168Y-82061621D01*
X136019167Y-82061620D01*
X135966750Y-82023536D01*
X135966748Y-82023535D01*
X135776292Y-81926493D01*
X135776286Y-81926490D01*
X135573003Y-81860440D01*
X135361874Y-81827000D01*
X135148126Y-81827000D01*
X134936996Y-81860440D01*
X134733713Y-81926490D01*
X134733707Y-81926493D01*
X134543253Y-82023534D01*
X134490831Y-82061621D01*
X134490831Y-82061622D01*
X135130051Y-82700842D01*
X135062007Y-82719075D01*
X134947993Y-82784901D01*
X134854901Y-82877993D01*
X134789075Y-82992007D01*
X134770841Y-83060052D01*
X134110404Y-82399614D01*
X134076379Y-82337302D01*
X134073500Y-82310519D01*
X134073500Y-82286367D01*
X134073499Y-82286350D01*
X134066990Y-82225803D01*
X134066988Y-82225795D01*
X134015889Y-82088797D01*
X134015887Y-82088792D01*
X133928261Y-81971738D01*
X133811207Y-81884112D01*
X133811202Y-81884110D01*
X133674204Y-81833011D01*
X133674196Y-81833009D01*
X133613649Y-81826500D01*
X133613638Y-81826500D01*
X131816362Y-81826500D01*
X131816350Y-81826500D01*
X131755803Y-81833009D01*
X131755795Y-81833011D01*
X131618797Y-81884110D01*
X131610882Y-81888432D01*
X131610054Y-81886916D01*
X131553485Y-81908013D01*
X131484111Y-81892920D01*
X131433911Y-81842716D01*
X131418500Y-81782334D01*
X131418500Y-80262390D01*
X131414063Y-80245832D01*
X131383967Y-80133510D01*
X131382922Y-80129611D01*
X131377033Y-80107631D01*
X131377032Y-80107628D01*
X131377032Y-80107627D01*
X131308816Y-79989474D01*
X131296923Y-79968875D01*
X131296915Y-79968865D01*
X130925917Y-79597867D01*
X132808867Y-79597867D01*
X134334867Y-79597867D01*
X134334867Y-79307897D01*
X133884470Y-78857500D01*
X132808867Y-78857500D01*
X132808867Y-79597867D01*
X130925917Y-79597867D01*
X130240404Y-78912354D01*
X130206378Y-78850042D01*
X130203499Y-78823259D01*
X130203499Y-78233625D01*
X130192974Y-78130598D01*
X130192974Y-78130596D01*
X130152724Y-78009131D01*
X130150285Y-77938178D01*
X130186594Y-77877168D01*
X130250122Y-77845472D01*
X130272330Y-77843500D01*
X134304891Y-77843500D01*
X134304892Y-77843500D01*
X134377066Y-77824161D01*
X134448041Y-77825850D01*
G37*
%TD.AperFunction*%
%TA.AperFunction,Conductor*%
G36*
X126335791Y-77863502D02*
G01*
X126382284Y-77917158D01*
X126392388Y-77987432D01*
X126387275Y-78009130D01*
X126382146Y-78024610D01*
X126347025Y-78130598D01*
X126336500Y-78233616D01*
X126336500Y-79246374D01*
X126347016Y-79349308D01*
X126347026Y-79349404D01*
X126395986Y-79497158D01*
X126402339Y-79516329D01*
X126494656Y-79665998D01*
X126494661Y-79666004D01*
X126618995Y-79790338D01*
X126618999Y-79790341D01*
X126619002Y-79790344D01*
X126619004Y-79790345D01*
X126664146Y-79818189D01*
X126711625Y-79870974D01*
X126724000Y-79925430D01*
X126724000Y-81367330D01*
X126703998Y-81435451D01*
X126664148Y-81474570D01*
X126621350Y-81500968D01*
X126621341Y-81500975D01*
X126495975Y-81626341D01*
X126495970Y-81626347D01*
X126402885Y-81777262D01*
X126347113Y-81945572D01*
X126347112Y-81945579D01*
X126336500Y-82049446D01*
X126336500Y-83050544D01*
X126347112Y-83154425D01*
X126402885Y-83322738D01*
X126495970Y-83473652D01*
X126495975Y-83473658D01*
X126621341Y-83599024D01*
X126621347Y-83599029D01*
X126621348Y-83599030D01*
X126772262Y-83692115D01*
X126940574Y-83747887D01*
X127044455Y-83758500D01*
X127670544Y-83758499D01*
X127774426Y-83747887D01*
X127942738Y-83692115D01*
X128093652Y-83599030D01*
X128114087Y-83578595D01*
X128180905Y-83511778D01*
X128243217Y-83477752D01*
X128314032Y-83482817D01*
X128359095Y-83511778D01*
X128446339Y-83599022D01*
X128446342Y-83599024D01*
X128446348Y-83599030D01*
X128446353Y-83599033D01*
X128451143Y-83602820D01*
X128492176Y-83660758D01*
X128499000Y-83701662D01*
X128499000Y-84254871D01*
X128496579Y-84279453D01*
X128477500Y-84375366D01*
X128477500Y-84495328D01*
X128457498Y-84563449D01*
X128403842Y-84609942D01*
X128333568Y-84620046D01*
X128288501Y-84604447D01*
X128147381Y-84522972D01*
X128147375Y-84522969D01*
X128147373Y-84522968D01*
X128147371Y-84522967D01*
X128147370Y-84522967D01*
X128038847Y-84493889D01*
X127992611Y-84481500D01*
X127992609Y-84481500D01*
X124407798Y-84481500D01*
X124339677Y-84461498D01*
X124337840Y-84460294D01*
X124207968Y-84373517D01*
X124060831Y-84312570D01*
X123982730Y-84297035D01*
X123904632Y-84281500D01*
X123904630Y-84281500D01*
X123745370Y-84281500D01*
X123745367Y-84281500D01*
X123649643Y-84300541D01*
X123589169Y-84312570D01*
X123501032Y-84349078D01*
X123442032Y-84373517D01*
X123309609Y-84461998D01*
X123309603Y-84462003D01*
X123197003Y-84574603D01*
X123196998Y-84574610D01*
X123196997Y-84574611D01*
X123168433Y-84617360D01*
X123163398Y-84624896D01*
X123108921Y-84670424D01*
X123038478Y-84679272D01*
X122974434Y-84648630D01*
X122969556Y-84644007D01*
X122240154Y-83914605D01*
X122206129Y-83852293D01*
X122211194Y-83781477D01*
X122253741Y-83724642D01*
X122320261Y-83699831D01*
X122368880Y-83705905D01*
X122425424Y-83724642D01*
X122495567Y-83747885D01*
X122495568Y-83747885D01*
X122495574Y-83747887D01*
X122599455Y-83758500D01*
X123225544Y-83758499D01*
X123329426Y-83747887D01*
X123497738Y-83692115D01*
X123648652Y-83599030D01*
X123669087Y-83578595D01*
X123735905Y-83511778D01*
X123798217Y-83477752D01*
X123869032Y-83482817D01*
X123914095Y-83511778D01*
X124001341Y-83599024D01*
X124001347Y-83599029D01*
X124001348Y-83599030D01*
X124152262Y-83692115D01*
X124320574Y-83747887D01*
X124424455Y-83758500D01*
X125050544Y-83758499D01*
X125154426Y-83747887D01*
X125322738Y-83692115D01*
X125473652Y-83599030D01*
X125599030Y-83473652D01*
X125692115Y-83322738D01*
X125747887Y-83154426D01*
X125758500Y-83050545D01*
X125758499Y-82049456D01*
X125755397Y-82019095D01*
X125747887Y-81945574D01*
X125735441Y-81908013D01*
X125692115Y-81777262D01*
X125599030Y-81626348D01*
X125599029Y-81626347D01*
X125599024Y-81626341D01*
X125492329Y-81519646D01*
X125458303Y-81457334D01*
X125463368Y-81386519D01*
X125464993Y-81382387D01*
X125514930Y-81261831D01*
X125546000Y-81105630D01*
X125546000Y-80946370D01*
X125514930Y-80790169D01*
X125453983Y-80643032D01*
X125365503Y-80510611D01*
X125365501Y-80510609D01*
X125365496Y-80510603D01*
X125252896Y-80398003D01*
X125252890Y-80397998D01*
X125245362Y-80392968D01*
X125120468Y-80309517D01*
X124973331Y-80248570D01*
X124895230Y-80233035D01*
X124817132Y-80217500D01*
X124817130Y-80217500D01*
X124657870Y-80217500D01*
X124657867Y-80217500D01*
X124540719Y-80240802D01*
X124501669Y-80248570D01*
X124411630Y-80285866D01*
X124354532Y-80309517D01*
X124222109Y-80397998D01*
X124222103Y-80398003D01*
X124109503Y-80510603D01*
X124109498Y-80510609D01*
X124034559Y-80622765D01*
X124021017Y-80643032D01*
X123960070Y-80790169D01*
X123958686Y-80797128D01*
X123929000Y-80946367D01*
X123929000Y-81105632D01*
X123943445Y-81178251D01*
X123960070Y-81261831D01*
X123960071Y-81261833D01*
X124009984Y-81382333D01*
X124017573Y-81452923D01*
X123985794Y-81516410D01*
X123982671Y-81519646D01*
X123914096Y-81588222D01*
X123851784Y-81622247D01*
X123780968Y-81617183D01*
X123735905Y-81588222D01*
X123648658Y-81500975D01*
X123648649Y-81500968D01*
X123555852Y-81443729D01*
X123508374Y-81390943D01*
X123496000Y-81336489D01*
X123496000Y-79925430D01*
X123516002Y-79857309D01*
X123555854Y-79818189D01*
X123563247Y-79813629D01*
X123600998Y-79790344D01*
X123725344Y-79665998D01*
X123725350Y-79665987D01*
X123726475Y-79664566D01*
X123727510Y-79663832D01*
X123730534Y-79660809D01*
X123731050Y-79661325D01*
X123784412Y-79623531D01*
X123855336Y-79620333D01*
X123916731Y-79655987D01*
X123924153Y-79664551D01*
X123925052Y-79665688D01*
X124049307Y-79789943D01*
X124049313Y-79789948D01*
X124198887Y-79882206D01*
X124365691Y-79937480D01*
X124365703Y-79937482D01*
X124468644Y-79947999D01*
X124508499Y-79947999D01*
X125016500Y-79947999D01*
X125056347Y-79947999D01*
X125159302Y-79937482D01*
X125326112Y-79882206D01*
X125475686Y-79789948D01*
X125475692Y-79789943D01*
X125599943Y-79665692D01*
X125599948Y-79665686D01*
X125692206Y-79516112D01*
X125747480Y-79349308D01*
X125747482Y-79349296D01*
X125757999Y-79246355D01*
X125758000Y-79246355D01*
X125758000Y-78994000D01*
X125016500Y-78994000D01*
X125016500Y-79947999D01*
X124508499Y-79947999D01*
X124508500Y-79947998D01*
X124508500Y-78866000D01*
X124528502Y-78797879D01*
X124582158Y-78751386D01*
X124634500Y-78740000D01*
X124762500Y-78740000D01*
X124762500Y-78612000D01*
X124782502Y-78543879D01*
X124836158Y-78497386D01*
X124888500Y-78486000D01*
X125757999Y-78486000D01*
X125757999Y-78233652D01*
X125747482Y-78130697D01*
X125707199Y-78009133D01*
X125704758Y-77938179D01*
X125741066Y-77877168D01*
X125804594Y-77845473D01*
X125826803Y-77843500D01*
X126267670Y-77843500D01*
X126335791Y-77863502D01*
G37*
%TD.AperFunction*%
%TA.AperFunction,Conductor*%
G36*
X116779771Y-77863502D02*
G01*
X116826264Y-77917158D01*
X116836368Y-77987432D01*
X116831254Y-78009133D01*
X116797607Y-78110669D01*
X116797605Y-78110681D01*
X116787000Y-78214483D01*
X116787000Y-78486000D01*
X117669000Y-78486000D01*
X117737121Y-78506002D01*
X117783614Y-78559658D01*
X117795000Y-78612000D01*
X117795000Y-78740000D01*
X117923000Y-78740000D01*
X117991121Y-78760002D01*
X118037614Y-78813658D01*
X118049000Y-78866000D01*
X118049000Y-79973000D01*
X118095517Y-79973000D01*
X118095516Y-79972999D01*
X118199318Y-79962394D01*
X118199321Y-79962393D01*
X118367525Y-79906657D01*
X118518339Y-79813634D01*
X118518345Y-79813629D01*
X118643624Y-79688350D01*
X118645832Y-79685558D01*
X118647837Y-79684137D01*
X118648825Y-79683150D01*
X118648993Y-79683318D01*
X118703768Y-79644522D01*
X118774693Y-79641323D01*
X118836088Y-79676976D01*
X118843515Y-79685547D01*
X118845974Y-79688657D01*
X118971341Y-79814024D01*
X118971345Y-79814027D01*
X118971348Y-79814030D01*
X118971350Y-79814031D01*
X118984352Y-79822051D01*
X119031831Y-79874836D01*
X119035276Y-79883698D01*
X119035397Y-79883649D01*
X119037765Y-79889367D01*
X119037766Y-79889369D01*
X119057899Y-79937974D01*
X119089290Y-80013759D01*
X119139986Y-80089630D01*
X119152011Y-80107627D01*
X119152011Y-80107628D01*
X119164084Y-80125697D01*
X119164089Y-80125703D01*
X119164091Y-80125706D01*
X119484091Y-80445706D01*
X119579294Y-80540909D01*
X119691241Y-80615710D01*
X119708274Y-80622765D01*
X119708275Y-80622766D01*
X119708276Y-80622766D01*
X119815630Y-80667234D01*
X119947681Y-80693500D01*
X120082318Y-80693500D01*
X120179448Y-80693500D01*
X120247569Y-80713502D01*
X120249434Y-80714725D01*
X120267032Y-80726483D01*
X120414169Y-80787430D01*
X120570370Y-80818500D01*
X120570371Y-80818500D01*
X120729629Y-80818500D01*
X120729630Y-80818500D01*
X120885831Y-80787430D01*
X121032968Y-80726483D01*
X121165389Y-80638003D01*
X121278003Y-80525389D01*
X121366483Y-80392968D01*
X121427430Y-80245831D01*
X121458500Y-80089630D01*
X121458500Y-79930370D01*
X121427430Y-79774169D01*
X121366483Y-79627032D01*
X121278003Y-79494611D01*
X121278001Y-79494609D01*
X121277996Y-79494603D01*
X121165396Y-79382003D01*
X121165390Y-79381998D01*
X121146576Y-79369427D01*
X121032968Y-79293517D01*
X120885831Y-79232570D01*
X120843668Y-79224183D01*
X120804917Y-79216475D01*
X120742007Y-79183567D01*
X120706876Y-79121871D01*
X120703499Y-79092903D01*
X120703499Y-78214456D01*
X120692887Y-78110574D01*
X120659272Y-78009131D01*
X120656833Y-77938178D01*
X120693141Y-77877168D01*
X120756670Y-77845473D01*
X120778878Y-77843500D01*
X121822670Y-77843500D01*
X121890791Y-77863502D01*
X121937284Y-77917158D01*
X121947388Y-77987432D01*
X121942275Y-78009130D01*
X121937146Y-78024610D01*
X121902025Y-78130598D01*
X121891500Y-78233616D01*
X121891500Y-79246374D01*
X121902016Y-79349308D01*
X121902026Y-79349404D01*
X121950986Y-79497158D01*
X121957339Y-79516329D01*
X122049656Y-79665998D01*
X122049661Y-79666004D01*
X122173995Y-79790338D01*
X122173999Y-79790341D01*
X122174002Y-79790344D01*
X122174004Y-79790345D01*
X122219146Y-79818189D01*
X122266625Y-79870974D01*
X122279000Y-79925430D01*
X122279000Y-81367330D01*
X122258998Y-81435451D01*
X122219148Y-81474570D01*
X122176350Y-81500968D01*
X122176341Y-81500975D01*
X122050975Y-81626341D01*
X122050970Y-81626347D01*
X121957885Y-81777262D01*
X121902113Y-81945572D01*
X121902112Y-81945579D01*
X121891500Y-82049446D01*
X121891500Y-83050544D01*
X121902113Y-83154426D01*
X121944093Y-83281117D01*
X121946533Y-83352072D01*
X121910224Y-83413082D01*
X121846695Y-83444777D01*
X121776116Y-83437094D01*
X121735393Y-83409844D01*
X119753633Y-81428083D01*
X119753623Y-81428075D01*
X119614877Y-81347970D01*
X119614874Y-81347969D01*
X119614873Y-81347968D01*
X119614871Y-81347967D01*
X119614870Y-81347967D01*
X119537491Y-81327234D01*
X119460111Y-81306500D01*
X119460109Y-81306500D01*
X115066103Y-81306500D01*
X114997982Y-81286498D01*
X114951489Y-81232842D01*
X114941385Y-81162568D01*
X114961336Y-81110500D01*
X115016483Y-81027968D01*
X115077430Y-80880831D01*
X115108500Y-80724630D01*
X115108500Y-80724621D01*
X115109106Y-80718474D01*
X115110478Y-80718609D01*
X115125381Y-80662993D01*
X115182032Y-80564873D01*
X115211611Y-80454482D01*
X115223500Y-80410111D01*
X115223500Y-79955379D01*
X115243502Y-79887258D01*
X115283354Y-79848138D01*
X115287850Y-79845364D01*
X115338652Y-79814030D01*
X115464030Y-79688652D01*
X115557115Y-79537738D01*
X115612887Y-79369426D01*
X115623500Y-79265545D01*
X115623500Y-79265516D01*
X116787000Y-79265516D01*
X116797605Y-79369318D01*
X116797606Y-79369321D01*
X116853342Y-79537525D01*
X116946365Y-79688339D01*
X116946370Y-79688345D01*
X117071654Y-79813629D01*
X117071660Y-79813634D01*
X117222474Y-79906657D01*
X117390678Y-79962393D01*
X117390681Y-79962394D01*
X117494483Y-79972999D01*
X117494483Y-79973000D01*
X117541000Y-79973000D01*
X117541000Y-78994000D01*
X116787000Y-78994000D01*
X116787000Y-79265516D01*
X115623500Y-79265516D01*
X115623499Y-78214456D01*
X115612887Y-78110574D01*
X115579272Y-78009131D01*
X115576833Y-77938178D01*
X115613141Y-77877168D01*
X115676670Y-77845473D01*
X115698878Y-77843500D01*
X116711650Y-77843500D01*
X116779771Y-77863502D01*
G37*
%TD.AperFunction*%
%TA.AperFunction,Conductor*%
G36*
X94476929Y-77824159D02*
G01*
X94549108Y-77843500D01*
X96730559Y-77843500D01*
X96798680Y-77863502D01*
X96845173Y-77917158D01*
X96855277Y-77987432D01*
X96825783Y-78052012D01*
X96807263Y-78069462D01*
X96774560Y-78094555D01*
X96680906Y-78216607D01*
X96622039Y-78358729D01*
X96607000Y-78472958D01*
X96607000Y-78486000D01*
X99313000Y-78486000D01*
X99313000Y-78472967D01*
X99312999Y-78472958D01*
X99297960Y-78358729D01*
X99239093Y-78216607D01*
X99145439Y-78094555D01*
X99112737Y-78069462D01*
X99070870Y-78012124D01*
X99066648Y-77941253D01*
X99101412Y-77879351D01*
X99164125Y-77846069D01*
X99189441Y-77843500D01*
X104010559Y-77843500D01*
X104078680Y-77863502D01*
X104125173Y-77917158D01*
X104135277Y-77987432D01*
X104105783Y-78052012D01*
X104087263Y-78069462D01*
X104054560Y-78094555D01*
X103960906Y-78216607D01*
X103902039Y-78358729D01*
X103887000Y-78472958D01*
X103887000Y-78486000D01*
X106593000Y-78486000D01*
X106593000Y-78472967D01*
X106592999Y-78472958D01*
X106577960Y-78358729D01*
X106519093Y-78216607D01*
X106425439Y-78094555D01*
X106392737Y-78069462D01*
X106350870Y-78012124D01*
X106346648Y-77941253D01*
X106381412Y-77879351D01*
X106444125Y-77846069D01*
X106469441Y-77843500D01*
X107186650Y-77843500D01*
X107254771Y-77863502D01*
X107301264Y-77917158D01*
X107311368Y-77987432D01*
X107306254Y-78009133D01*
X107272607Y-78110669D01*
X107272605Y-78110681D01*
X107262000Y-78214483D01*
X107262000Y-78486000D01*
X108144000Y-78486000D01*
X108212121Y-78506002D01*
X108258614Y-78559658D01*
X108270000Y-78612000D01*
X108270000Y-78868000D01*
X108249998Y-78936121D01*
X108196342Y-78982614D01*
X108144000Y-78994000D01*
X107262000Y-78994000D01*
X107262000Y-79200500D01*
X107241998Y-79268621D01*
X107188342Y-79315114D01*
X107136000Y-79326500D01*
X106681524Y-79326500D01*
X106613403Y-79306498D01*
X106566910Y-79252842D01*
X106556806Y-79182568D01*
X106565115Y-79152282D01*
X106577961Y-79121268D01*
X106592999Y-79007041D01*
X106593000Y-79007033D01*
X106593000Y-78994000D01*
X103887000Y-78994000D01*
X103887000Y-79007041D01*
X103902038Y-79121268D01*
X103914885Y-79152282D01*
X103922474Y-79222872D01*
X103890695Y-79286359D01*
X103829637Y-79322586D01*
X103798476Y-79326500D01*
X99401524Y-79326500D01*
X99333403Y-79306498D01*
X99286910Y-79252842D01*
X99276806Y-79182568D01*
X99285115Y-79152282D01*
X99297961Y-79121268D01*
X99312999Y-79007041D01*
X99313000Y-79007033D01*
X99313000Y-78994000D01*
X96607000Y-78994000D01*
X96607000Y-79007041D01*
X96622039Y-79121270D01*
X96680907Y-79263395D01*
X96707373Y-79297885D01*
X96732974Y-79364105D01*
X96718709Y-79433654D01*
X96707375Y-79451291D01*
X96680470Y-79486354D01*
X96621550Y-79628601D01*
X96606500Y-79742919D01*
X96606500Y-80277080D01*
X96621550Y-80391398D01*
X96680471Y-80533647D01*
X96707373Y-80568707D01*
X96732973Y-80634927D01*
X96718708Y-80704476D01*
X96707374Y-80722111D01*
X96680909Y-80756602D01*
X96680908Y-80756604D01*
X96622039Y-80898729D01*
X96607000Y-81012958D01*
X96607000Y-81026000D01*
X99313000Y-81026000D01*
X99313000Y-81012967D01*
X99312999Y-81012958D01*
X99297961Y-80898731D01*
X99285115Y-80867718D01*
X99277526Y-80797128D01*
X99309305Y-80733641D01*
X99370363Y-80697414D01*
X99401524Y-80693500D01*
X100155500Y-80693500D01*
X100223621Y-80713502D01*
X100270114Y-80767158D01*
X100281500Y-80819500D01*
X100281500Y-80944695D01*
X100261498Y-81012816D01*
X100244599Y-81033785D01*
X99871076Y-81407309D01*
X99512039Y-81766346D01*
X99449727Y-81800371D01*
X99378911Y-81795306D01*
X99322076Y-81752759D01*
X99297265Y-81686239D01*
X99298022Y-81660803D01*
X99312999Y-81547039D01*
X99313000Y-81547033D01*
X99313000Y-81534000D01*
X96607000Y-81534000D01*
X96607000Y-81547041D01*
X96622038Y-81661268D01*
X96634885Y-81692282D01*
X96642474Y-81762872D01*
X96610695Y-81826359D01*
X96549637Y-81862586D01*
X96518476Y-81866500D01*
X93277678Y-81866500D01*
X93178642Y-81886199D01*
X93145630Y-81892766D01*
X93065883Y-81925799D01*
X93021243Y-81944288D01*
X93021241Y-81944289D01*
X92933424Y-82002967D01*
X92933424Y-82002968D01*
X92909294Y-82019091D01*
X92909292Y-82019092D01*
X92909289Y-82019095D01*
X92909286Y-82019097D01*
X92155595Y-82772789D01*
X92093283Y-82806815D01*
X92022468Y-82801750D01*
X91965632Y-82759203D01*
X91940821Y-82692683D01*
X91940500Y-82683694D01*
X91940500Y-80452109D01*
X91940500Y-80452108D01*
X91921160Y-80379929D01*
X91922850Y-80308956D01*
X91953768Y-80258231D01*
X93093836Y-79118163D01*
X94708867Y-79118163D01*
X94708867Y-79597867D01*
X95602848Y-79597867D01*
X95620560Y-79463326D01*
X95621903Y-79455190D01*
X95631637Y-79406255D01*
X95633509Y-79398226D01*
X95639994Y-79374022D01*
X95633998Y-79351645D01*
X95632125Y-79343615D01*
X95622391Y-79294681D01*
X95621048Y-79286545D01*
X95599511Y-79122952D01*
X95599040Y-79118859D01*
X95596597Y-79094061D01*
X95596260Y-79089958D01*
X95594087Y-79056840D01*
X95593885Y-79052715D01*
X95593068Y-79027770D01*
X95593000Y-79023645D01*
X95593000Y-78857500D01*
X94969530Y-78857500D01*
X94708867Y-79118163D01*
X93093836Y-79118163D01*
X94355230Y-77856769D01*
X94417538Y-77822746D01*
X94476929Y-77824159D01*
G37*
%TD.AperFunction*%
%TD*%
M02*
