%TF.GenerationSoftware,KiCad,Pcbnew,9.0.4*%
%TF.CreationDate,2025-09-30T16:41:53+08:00*%
%TF.ProjectId,KiCAD_Proj (MCU datalogger),4b694341-445f-4507-926f-6a20284d4355,rev?*%
%TF.SameCoordinates,Original*%
%TF.FileFunction,Legend,Top*%
%TF.FilePolarity,Positive*%
%FSLAX46Y46*%
G04 Gerber Fmt 4.6, Leading zero omitted, Abs format (unit mm)*
G04 Created by KiCad (PCBNEW 9.0.4) date 2025-09-30 16:41:53*
%MOMM*%
%LPD*%
G01*
G04 APERTURE LIST*
%ADD10C,0.100000*%
%ADD11C,0.110000*%
%ADD12C,0.120000*%
%ADD13C,0.127000*%
%ADD14C,0.200000*%
G04 APERTURE END LIST*
D10*
X123738936Y-101559064D02*
X129326936Y-101559064D01*
X129326936Y-105115064D01*
X123738936Y-105115064D01*
X123738936Y-101559064D01*
D11*
X129946358Y-103794206D02*
X129917787Y-103851349D01*
X129917787Y-103851349D02*
X129917787Y-103937063D01*
X129917787Y-103937063D02*
X129946358Y-104022777D01*
X129946358Y-104022777D02*
X130003501Y-104079920D01*
X130003501Y-104079920D02*
X130060644Y-104108491D01*
X130060644Y-104108491D02*
X130174930Y-104137063D01*
X130174930Y-104137063D02*
X130260644Y-104137063D01*
X130260644Y-104137063D02*
X130374930Y-104108491D01*
X130374930Y-104108491D02*
X130432073Y-104079920D01*
X130432073Y-104079920D02*
X130489216Y-104022777D01*
X130489216Y-104022777D02*
X130517787Y-103937063D01*
X130517787Y-103937063D02*
X130517787Y-103879920D01*
X130517787Y-103879920D02*
X130489216Y-103794206D01*
X130489216Y-103794206D02*
X130460644Y-103765634D01*
X130460644Y-103765634D02*
X130260644Y-103765634D01*
X130260644Y-103765634D02*
X130260644Y-103879920D01*
X130517787Y-103508491D02*
X129917787Y-103508491D01*
X129917787Y-103508491D02*
X130517787Y-103165634D01*
X130517787Y-103165634D02*
X129917787Y-103165634D01*
X130517787Y-102879920D02*
X129917787Y-102879920D01*
X129917787Y-102879920D02*
X129917787Y-102737063D01*
X129917787Y-102737063D02*
X129946358Y-102651349D01*
X129946358Y-102651349D02*
X130003501Y-102594206D01*
X130003501Y-102594206D02*
X130060644Y-102565635D01*
X130060644Y-102565635D02*
X130174930Y-102537063D01*
X130174930Y-102537063D02*
X130260644Y-102537063D01*
X130260644Y-102537063D02*
X130374930Y-102565635D01*
X130374930Y-102565635D02*
X130432073Y-102594206D01*
X130432073Y-102594206D02*
X130489216Y-102651349D01*
X130489216Y-102651349D02*
X130517787Y-102737063D01*
X130517787Y-102737063D02*
X130517787Y-102879920D01*
X102164793Y-112182915D02*
X101879079Y-112182915D01*
X101879079Y-112182915D02*
X101850507Y-112468629D01*
X101850507Y-112468629D02*
X101879079Y-112440058D01*
X101879079Y-112440058D02*
X101936222Y-112411486D01*
X101936222Y-112411486D02*
X102079079Y-112411486D01*
X102079079Y-112411486D02*
X102136222Y-112440058D01*
X102136222Y-112440058D02*
X102164793Y-112468629D01*
X102164793Y-112468629D02*
X102193364Y-112525772D01*
X102193364Y-112525772D02*
X102193364Y-112668629D01*
X102193364Y-112668629D02*
X102164793Y-112725772D01*
X102164793Y-112725772D02*
X102136222Y-112754344D01*
X102136222Y-112754344D02*
X102079079Y-112782915D01*
X102079079Y-112782915D02*
X101936222Y-112782915D01*
X101936222Y-112782915D02*
X101879079Y-112754344D01*
X101879079Y-112754344D02*
X101850507Y-112725772D01*
X92803787Y-96136064D02*
X93403787Y-95936064D01*
X93403787Y-95936064D02*
X92803787Y-95736064D01*
X93346644Y-95193206D02*
X93375216Y-95221778D01*
X93375216Y-95221778D02*
X93403787Y-95307492D01*
X93403787Y-95307492D02*
X93403787Y-95364635D01*
X93403787Y-95364635D02*
X93375216Y-95450349D01*
X93375216Y-95450349D02*
X93318073Y-95507492D01*
X93318073Y-95507492D02*
X93260930Y-95536063D01*
X93260930Y-95536063D02*
X93146644Y-95564635D01*
X93146644Y-95564635D02*
X93060930Y-95564635D01*
X93060930Y-95564635D02*
X92946644Y-95536063D01*
X92946644Y-95536063D02*
X92889501Y-95507492D01*
X92889501Y-95507492D02*
X92832358Y-95450349D01*
X92832358Y-95450349D02*
X92803787Y-95364635D01*
X92803787Y-95364635D02*
X92803787Y-95307492D01*
X92803787Y-95307492D02*
X92832358Y-95221778D01*
X92832358Y-95221778D02*
X92860930Y-95193206D01*
X93346644Y-94593206D02*
X93375216Y-94621778D01*
X93375216Y-94621778D02*
X93403787Y-94707492D01*
X93403787Y-94707492D02*
X93403787Y-94764635D01*
X93403787Y-94764635D02*
X93375216Y-94850349D01*
X93375216Y-94850349D02*
X93318073Y-94907492D01*
X93318073Y-94907492D02*
X93260930Y-94936063D01*
X93260930Y-94936063D02*
X93146644Y-94964635D01*
X93146644Y-94964635D02*
X93060930Y-94964635D01*
X93060930Y-94964635D02*
X92946644Y-94936063D01*
X92946644Y-94936063D02*
X92889501Y-94907492D01*
X92889501Y-94907492D02*
X92832358Y-94850349D01*
X92832358Y-94850349D02*
X92803787Y-94764635D01*
X92803787Y-94764635D02*
X92803787Y-94707492D01*
X92803787Y-94707492D02*
X92832358Y-94621778D01*
X92832358Y-94621778D02*
X92860930Y-94593206D01*
X126964792Y-112182915D02*
X127307650Y-112182915D01*
X127136221Y-112782915D02*
X127136221Y-112182915D01*
X127450507Y-112182915D02*
X127850507Y-112782915D01*
X127850507Y-112182915D02*
X127450507Y-112782915D01*
X120848221Y-110120915D02*
X120905364Y-110120915D01*
X120905364Y-110120915D02*
X120962507Y-110149486D01*
X120962507Y-110149486D02*
X120991079Y-110178058D01*
X120991079Y-110178058D02*
X121019650Y-110235201D01*
X121019650Y-110235201D02*
X121048221Y-110349486D01*
X121048221Y-110349486D02*
X121048221Y-110492344D01*
X121048221Y-110492344D02*
X121019650Y-110606629D01*
X121019650Y-110606629D02*
X120991079Y-110663772D01*
X120991079Y-110663772D02*
X120962507Y-110692344D01*
X120962507Y-110692344D02*
X120905364Y-110720915D01*
X120905364Y-110720915D02*
X120848221Y-110720915D01*
X120848221Y-110720915D02*
X120791079Y-110692344D01*
X120791079Y-110692344D02*
X120762507Y-110663772D01*
X120762507Y-110663772D02*
X120733936Y-110606629D01*
X120733936Y-110606629D02*
X120705364Y-110492344D01*
X120705364Y-110492344D02*
X120705364Y-110349486D01*
X120705364Y-110349486D02*
X120733936Y-110235201D01*
X120733936Y-110235201D02*
X120762507Y-110178058D01*
X120762507Y-110178058D02*
X120791079Y-110149486D01*
X120791079Y-110149486D02*
X120848221Y-110120915D01*
X121305365Y-110663772D02*
X121333936Y-110692344D01*
X121333936Y-110692344D02*
X121305365Y-110720915D01*
X121305365Y-110720915D02*
X121276793Y-110692344D01*
X121276793Y-110692344D02*
X121305365Y-110663772D01*
X121305365Y-110663772D02*
X121305365Y-110720915D01*
X121905364Y-110720915D02*
X121562507Y-110720915D01*
X121733936Y-110720915D02*
X121733936Y-110120915D01*
X121733936Y-110120915D02*
X121676793Y-110206629D01*
X121676793Y-110206629D02*
X121619650Y-110263772D01*
X121619650Y-110263772D02*
X121562507Y-110292344D01*
X122419651Y-110320915D02*
X122419651Y-110720915D01*
X122162508Y-110320915D02*
X122162508Y-110635201D01*
X122162508Y-110635201D02*
X122191079Y-110692344D01*
X122191079Y-110692344D02*
X122248222Y-110720915D01*
X122248222Y-110720915D02*
X122333936Y-110720915D01*
X122333936Y-110720915D02*
X122391079Y-110692344D01*
X122391079Y-110692344D02*
X122419651Y-110663772D01*
X122905365Y-110406629D02*
X122705365Y-110406629D01*
X122705365Y-110720915D02*
X122705365Y-110120915D01*
X122705365Y-110120915D02*
X122991079Y-110120915D01*
X104676222Y-112182915D02*
X104561936Y-112182915D01*
X104561936Y-112182915D02*
X104504793Y-112211486D01*
X104504793Y-112211486D02*
X104476222Y-112240058D01*
X104476222Y-112240058D02*
X104419079Y-112325772D01*
X104419079Y-112325772D02*
X104390507Y-112440058D01*
X104390507Y-112440058D02*
X104390507Y-112668629D01*
X104390507Y-112668629D02*
X104419079Y-112725772D01*
X104419079Y-112725772D02*
X104447650Y-112754344D01*
X104447650Y-112754344D02*
X104504793Y-112782915D01*
X104504793Y-112782915D02*
X104619079Y-112782915D01*
X104619079Y-112782915D02*
X104676222Y-112754344D01*
X104676222Y-112754344D02*
X104704793Y-112725772D01*
X104704793Y-112725772D02*
X104733364Y-112668629D01*
X104733364Y-112668629D02*
X104733364Y-112525772D01*
X104733364Y-112525772D02*
X104704793Y-112468629D01*
X104704793Y-112468629D02*
X104676222Y-112440058D01*
X104676222Y-112440058D02*
X104619079Y-112411486D01*
X104619079Y-112411486D02*
X104504793Y-112411486D01*
X104504793Y-112411486D02*
X104447650Y-112440058D01*
X104447650Y-112440058D02*
X104419079Y-112468629D01*
X104419079Y-112468629D02*
X104390507Y-112525772D01*
X129917787Y-106677064D02*
X130517787Y-106477064D01*
X130517787Y-106477064D02*
X129917787Y-106277064D01*
X130460644Y-105734206D02*
X130489216Y-105762778D01*
X130489216Y-105762778D02*
X130517787Y-105848492D01*
X130517787Y-105848492D02*
X130517787Y-105905635D01*
X130517787Y-105905635D02*
X130489216Y-105991349D01*
X130489216Y-105991349D02*
X130432073Y-106048492D01*
X130432073Y-106048492D02*
X130374930Y-106077063D01*
X130374930Y-106077063D02*
X130260644Y-106105635D01*
X130260644Y-106105635D02*
X130174930Y-106105635D01*
X130174930Y-106105635D02*
X130060644Y-106077063D01*
X130060644Y-106077063D02*
X130003501Y-106048492D01*
X130003501Y-106048492D02*
X129946358Y-105991349D01*
X129946358Y-105991349D02*
X129917787Y-105905635D01*
X129917787Y-105905635D02*
X129917787Y-105848492D01*
X129917787Y-105848492D02*
X129946358Y-105762778D01*
X129946358Y-105762778D02*
X129974930Y-105734206D01*
X130460644Y-105134206D02*
X130489216Y-105162778D01*
X130489216Y-105162778D02*
X130517787Y-105248492D01*
X130517787Y-105248492D02*
X130517787Y-105305635D01*
X130517787Y-105305635D02*
X130489216Y-105391349D01*
X130489216Y-105391349D02*
X130432073Y-105448492D01*
X130432073Y-105448492D02*
X130374930Y-105477063D01*
X130374930Y-105477063D02*
X130260644Y-105505635D01*
X130260644Y-105505635D02*
X130174930Y-105505635D01*
X130174930Y-105505635D02*
X130060644Y-105477063D01*
X130060644Y-105477063D02*
X130003501Y-105448492D01*
X130003501Y-105448492D02*
X129946358Y-105391349D01*
X129946358Y-105391349D02*
X129917787Y-105305635D01*
X129917787Y-105305635D02*
X129917787Y-105248492D01*
X129917787Y-105248492D02*
X129946358Y-105162778D01*
X129946358Y-105162778D02*
X129974930Y-105134206D01*
X125991649Y-99290915D02*
X125648792Y-99290915D01*
X125820221Y-99290915D02*
X125820221Y-98690915D01*
X125820221Y-98690915D02*
X125763078Y-98776629D01*
X125763078Y-98776629D02*
X125705935Y-98833772D01*
X125705935Y-98833772D02*
X125648792Y-98862344D01*
X126363078Y-98690915D02*
X126420221Y-98690915D01*
X126420221Y-98690915D02*
X126477364Y-98719486D01*
X126477364Y-98719486D02*
X126505936Y-98748058D01*
X126505936Y-98748058D02*
X126534507Y-98805201D01*
X126534507Y-98805201D02*
X126563078Y-98919486D01*
X126563078Y-98919486D02*
X126563078Y-99062344D01*
X126563078Y-99062344D02*
X126534507Y-99176629D01*
X126534507Y-99176629D02*
X126505936Y-99233772D01*
X126505936Y-99233772D02*
X126477364Y-99262344D01*
X126477364Y-99262344D02*
X126420221Y-99290915D01*
X126420221Y-99290915D02*
X126363078Y-99290915D01*
X126363078Y-99290915D02*
X126305936Y-99262344D01*
X126305936Y-99262344D02*
X126277364Y-99233772D01*
X126277364Y-99233772D02*
X126248793Y-99176629D01*
X126248793Y-99176629D02*
X126220221Y-99062344D01*
X126220221Y-99062344D02*
X126220221Y-98919486D01*
X126220221Y-98919486D02*
X126248793Y-98805201D01*
X126248793Y-98805201D02*
X126277364Y-98748058D01*
X126277364Y-98748058D02*
X126305936Y-98719486D01*
X126305936Y-98719486D02*
X126363078Y-98690915D01*
X126820222Y-99290915D02*
X126820222Y-98690915D01*
X127163079Y-99290915D02*
X126905936Y-98948058D01*
X127163079Y-98690915D02*
X126820222Y-99033772D01*
X113921935Y-112182915D02*
X114121935Y-112782915D01*
X114121935Y-112782915D02*
X114321935Y-112182915D01*
X114864793Y-112725772D02*
X114836221Y-112754344D01*
X114836221Y-112754344D02*
X114750507Y-112782915D01*
X114750507Y-112782915D02*
X114693364Y-112782915D01*
X114693364Y-112782915D02*
X114607650Y-112754344D01*
X114607650Y-112754344D02*
X114550507Y-112697201D01*
X114550507Y-112697201D02*
X114521936Y-112640058D01*
X114521936Y-112640058D02*
X114493364Y-112525772D01*
X114493364Y-112525772D02*
X114493364Y-112440058D01*
X114493364Y-112440058D02*
X114521936Y-112325772D01*
X114521936Y-112325772D02*
X114550507Y-112268629D01*
X114550507Y-112268629D02*
X114607650Y-112211486D01*
X114607650Y-112211486D02*
X114693364Y-112182915D01*
X114693364Y-112182915D02*
X114750507Y-112182915D01*
X114750507Y-112182915D02*
X114836221Y-112211486D01*
X114836221Y-112211486D02*
X114864793Y-112240058D01*
X115464793Y-112725772D02*
X115436221Y-112754344D01*
X115436221Y-112754344D02*
X115350507Y-112782915D01*
X115350507Y-112782915D02*
X115293364Y-112782915D01*
X115293364Y-112782915D02*
X115207650Y-112754344D01*
X115207650Y-112754344D02*
X115150507Y-112697201D01*
X115150507Y-112697201D02*
X115121936Y-112640058D01*
X115121936Y-112640058D02*
X115093364Y-112525772D01*
X115093364Y-112525772D02*
X115093364Y-112440058D01*
X115093364Y-112440058D02*
X115121936Y-112325772D01*
X115121936Y-112325772D02*
X115150507Y-112268629D01*
X115150507Y-112268629D02*
X115207650Y-112211486D01*
X115207650Y-112211486D02*
X115293364Y-112182915D01*
X115293364Y-112182915D02*
X115350507Y-112182915D01*
X115350507Y-112182915D02*
X115436221Y-112211486D01*
X115436221Y-112211486D02*
X115464793Y-112240058D01*
X121189507Y-94880915D02*
X121560935Y-94880915D01*
X121560935Y-94880915D02*
X121360935Y-95109486D01*
X121360935Y-95109486D02*
X121446650Y-95109486D01*
X121446650Y-95109486D02*
X121503793Y-95138058D01*
X121503793Y-95138058D02*
X121532364Y-95166629D01*
X121532364Y-95166629D02*
X121560935Y-95223772D01*
X121560935Y-95223772D02*
X121560935Y-95366629D01*
X121560935Y-95366629D02*
X121532364Y-95423772D01*
X121532364Y-95423772D02*
X121503793Y-95452344D01*
X121503793Y-95452344D02*
X121446650Y-95480915D01*
X121446650Y-95480915D02*
X121275221Y-95480915D01*
X121275221Y-95480915D02*
X121218078Y-95452344D01*
X121218078Y-95452344D02*
X121189507Y-95423772D01*
X121760936Y-94880915D02*
X122132364Y-94880915D01*
X122132364Y-94880915D02*
X121932364Y-95109486D01*
X121932364Y-95109486D02*
X122018079Y-95109486D01*
X122018079Y-95109486D02*
X122075222Y-95138058D01*
X122075222Y-95138058D02*
X122103793Y-95166629D01*
X122103793Y-95166629D02*
X122132364Y-95223772D01*
X122132364Y-95223772D02*
X122132364Y-95366629D01*
X122132364Y-95366629D02*
X122103793Y-95423772D01*
X122103793Y-95423772D02*
X122075222Y-95452344D01*
X122075222Y-95452344D02*
X122018079Y-95480915D01*
X122018079Y-95480915D02*
X121846650Y-95480915D01*
X121846650Y-95480915D02*
X121789507Y-95452344D01*
X121789507Y-95452344D02*
X121760936Y-95423772D01*
X122503793Y-94880915D02*
X122560936Y-94880915D01*
X122560936Y-94880915D02*
X122618079Y-94909486D01*
X122618079Y-94909486D02*
X122646651Y-94938058D01*
X122646651Y-94938058D02*
X122675222Y-94995201D01*
X122675222Y-94995201D02*
X122703793Y-95109486D01*
X122703793Y-95109486D02*
X122703793Y-95252344D01*
X122703793Y-95252344D02*
X122675222Y-95366629D01*
X122675222Y-95366629D02*
X122646651Y-95423772D01*
X122646651Y-95423772D02*
X122618079Y-95452344D01*
X122618079Y-95452344D02*
X122560936Y-95480915D01*
X122560936Y-95480915D02*
X122503793Y-95480915D01*
X122503793Y-95480915D02*
X122446651Y-95452344D01*
X122446651Y-95452344D02*
X122418079Y-95423772D01*
X122418079Y-95423772D02*
X122389508Y-95366629D01*
X122389508Y-95366629D02*
X122360936Y-95252344D01*
X122360936Y-95252344D02*
X122360936Y-95109486D01*
X122360936Y-95109486D02*
X122389508Y-94995201D01*
X122389508Y-94995201D02*
X122418079Y-94938058D01*
X122418079Y-94938058D02*
X122446651Y-94909486D01*
X122446651Y-94909486D02*
X122503793Y-94880915D01*
X94230507Y-112240058D02*
X94259079Y-112211486D01*
X94259079Y-112211486D02*
X94316222Y-112182915D01*
X94316222Y-112182915D02*
X94459079Y-112182915D01*
X94459079Y-112182915D02*
X94516222Y-112211486D01*
X94516222Y-112211486D02*
X94544793Y-112240058D01*
X94544793Y-112240058D02*
X94573364Y-112297201D01*
X94573364Y-112297201D02*
X94573364Y-112354344D01*
X94573364Y-112354344D02*
X94544793Y-112440058D01*
X94544793Y-112440058D02*
X94201936Y-112782915D01*
X94201936Y-112782915D02*
X94573364Y-112782915D01*
X132932222Y-113417915D02*
X132932222Y-112817915D01*
X133189364Y-112875058D02*
X133217936Y-112846486D01*
X133217936Y-112846486D02*
X133275079Y-112817915D01*
X133275079Y-112817915D02*
X133417936Y-112817915D01*
X133417936Y-112817915D02*
X133475079Y-112846486D01*
X133475079Y-112846486D02*
X133503650Y-112875058D01*
X133503650Y-112875058D02*
X133532221Y-112932201D01*
X133532221Y-112932201D02*
X133532221Y-112989344D01*
X133532221Y-112989344D02*
X133503650Y-113075058D01*
X133503650Y-113075058D02*
X133160793Y-113417915D01*
X133160793Y-113417915D02*
X133532221Y-113417915D01*
X134132222Y-113360772D02*
X134103650Y-113389344D01*
X134103650Y-113389344D02*
X134017936Y-113417915D01*
X134017936Y-113417915D02*
X133960793Y-113417915D01*
X133960793Y-113417915D02*
X133875079Y-113389344D01*
X133875079Y-113389344D02*
X133817936Y-113332201D01*
X133817936Y-113332201D02*
X133789365Y-113275058D01*
X133789365Y-113275058D02*
X133760793Y-113160772D01*
X133760793Y-113160772D02*
X133760793Y-113075058D01*
X133760793Y-113075058D02*
X133789365Y-112960772D01*
X133789365Y-112960772D02*
X133817936Y-112903629D01*
X133817936Y-112903629D02*
X133875079Y-112846486D01*
X133875079Y-112846486D02*
X133960793Y-112817915D01*
X133960793Y-112817915D02*
X134017936Y-112817915D01*
X134017936Y-112817915D02*
X134103650Y-112846486D01*
X134103650Y-112846486D02*
X134132222Y-112875058D01*
D10*
X123969221Y-103143673D02*
X123969221Y-102643673D01*
X123969221Y-102643673D02*
X124135888Y-103000816D01*
X124135888Y-103000816D02*
X124302554Y-102643673D01*
X124302554Y-102643673D02*
X124302554Y-103143673D01*
X124540650Y-103143673D02*
X124540650Y-102643673D01*
X124754936Y-103119864D02*
X124826364Y-103143673D01*
X124826364Y-103143673D02*
X124945412Y-103143673D01*
X124945412Y-103143673D02*
X124993031Y-103119864D01*
X124993031Y-103119864D02*
X125016840Y-103096054D01*
X125016840Y-103096054D02*
X125040650Y-103048435D01*
X125040650Y-103048435D02*
X125040650Y-103000816D01*
X125040650Y-103000816D02*
X125016840Y-102953197D01*
X125016840Y-102953197D02*
X124993031Y-102929387D01*
X124993031Y-102929387D02*
X124945412Y-102905578D01*
X124945412Y-102905578D02*
X124850174Y-102881768D01*
X124850174Y-102881768D02*
X124802555Y-102857959D01*
X124802555Y-102857959D02*
X124778745Y-102834149D01*
X124778745Y-102834149D02*
X124754936Y-102786530D01*
X124754936Y-102786530D02*
X124754936Y-102738911D01*
X124754936Y-102738911D02*
X124778745Y-102691292D01*
X124778745Y-102691292D02*
X124802555Y-102667483D01*
X124802555Y-102667483D02*
X124850174Y-102643673D01*
X124850174Y-102643673D02*
X124969221Y-102643673D01*
X124969221Y-102643673D02*
X125040650Y-102667483D01*
X125350173Y-102643673D02*
X125445411Y-102643673D01*
X125445411Y-102643673D02*
X125493030Y-102667483D01*
X125493030Y-102667483D02*
X125540649Y-102715102D01*
X125540649Y-102715102D02*
X125564459Y-102810340D01*
X125564459Y-102810340D02*
X125564459Y-102977006D01*
X125564459Y-102977006D02*
X125540649Y-103072244D01*
X125540649Y-103072244D02*
X125493030Y-103119864D01*
X125493030Y-103119864D02*
X125445411Y-103143673D01*
X125445411Y-103143673D02*
X125350173Y-103143673D01*
X125350173Y-103143673D02*
X125302554Y-103119864D01*
X125302554Y-103119864D02*
X125254935Y-103072244D01*
X125254935Y-103072244D02*
X125231126Y-102977006D01*
X125231126Y-102977006D02*
X125231126Y-102810340D01*
X125231126Y-102810340D02*
X125254935Y-102715102D01*
X125254935Y-102715102D02*
X125302554Y-102667483D01*
X125302554Y-102667483D02*
X125350173Y-102643673D01*
D11*
X111724793Y-112211486D02*
X111667651Y-112182915D01*
X111667651Y-112182915D02*
X111581936Y-112182915D01*
X111581936Y-112182915D02*
X111496222Y-112211486D01*
X111496222Y-112211486D02*
X111439079Y-112268629D01*
X111439079Y-112268629D02*
X111410508Y-112325772D01*
X111410508Y-112325772D02*
X111381936Y-112440058D01*
X111381936Y-112440058D02*
X111381936Y-112525772D01*
X111381936Y-112525772D02*
X111410508Y-112640058D01*
X111410508Y-112640058D02*
X111439079Y-112697201D01*
X111439079Y-112697201D02*
X111496222Y-112754344D01*
X111496222Y-112754344D02*
X111581936Y-112782915D01*
X111581936Y-112782915D02*
X111639079Y-112782915D01*
X111639079Y-112782915D02*
X111724793Y-112754344D01*
X111724793Y-112754344D02*
X111753365Y-112725772D01*
X111753365Y-112725772D02*
X111753365Y-112525772D01*
X111753365Y-112525772D02*
X111639079Y-112525772D01*
X112010508Y-112782915D02*
X112010508Y-112182915D01*
X112010508Y-112182915D02*
X112353365Y-112782915D01*
X112353365Y-112782915D02*
X112353365Y-112182915D01*
X112639079Y-112782915D02*
X112639079Y-112182915D01*
X112639079Y-112182915D02*
X112781936Y-112182915D01*
X112781936Y-112182915D02*
X112867650Y-112211486D01*
X112867650Y-112211486D02*
X112924793Y-112268629D01*
X112924793Y-112268629D02*
X112953364Y-112325772D01*
X112953364Y-112325772D02*
X112981936Y-112440058D01*
X112981936Y-112440058D02*
X112981936Y-112525772D01*
X112981936Y-112525772D02*
X112953364Y-112640058D01*
X112953364Y-112640058D02*
X112924793Y-112697201D01*
X112924793Y-112697201D02*
X112867650Y-112754344D01*
X112867650Y-112754344D02*
X112781936Y-112782915D01*
X112781936Y-112782915D02*
X112639079Y-112782915D01*
X98228077Y-102461058D02*
X98256649Y-102432486D01*
X98256649Y-102432486D02*
X98313792Y-102403915D01*
X98313792Y-102403915D02*
X98456649Y-102403915D01*
X98456649Y-102403915D02*
X98513792Y-102432486D01*
X98513792Y-102432486D02*
X98542363Y-102461058D01*
X98542363Y-102461058D02*
X98570934Y-102518201D01*
X98570934Y-102518201D02*
X98570934Y-102575344D01*
X98570934Y-102575344D02*
X98542363Y-102661058D01*
X98542363Y-102661058D02*
X98199506Y-103003915D01*
X98199506Y-103003915D02*
X98570934Y-103003915D01*
X99085221Y-102603915D02*
X99085221Y-103003915D01*
X98942363Y-102375344D02*
X98799506Y-102803915D01*
X98799506Y-102803915D02*
X99170935Y-102803915D01*
X99685221Y-103003915D02*
X99399507Y-103003915D01*
X99399507Y-103003915D02*
X99399507Y-102403915D01*
X100228078Y-102946772D02*
X100199506Y-102975344D01*
X100199506Y-102975344D02*
X100113792Y-103003915D01*
X100113792Y-103003915D02*
X100056649Y-103003915D01*
X100056649Y-103003915D02*
X99970935Y-102975344D01*
X99970935Y-102975344D02*
X99913792Y-102918201D01*
X99913792Y-102918201D02*
X99885221Y-102861058D01*
X99885221Y-102861058D02*
X99856649Y-102746772D01*
X99856649Y-102746772D02*
X99856649Y-102661058D01*
X99856649Y-102661058D02*
X99885221Y-102546772D01*
X99885221Y-102546772D02*
X99913792Y-102489629D01*
X99913792Y-102489629D02*
X99970935Y-102432486D01*
X99970935Y-102432486D02*
X100056649Y-102403915D01*
X100056649Y-102403915D02*
X100113792Y-102403915D01*
X100113792Y-102403915D02*
X100199506Y-102432486D01*
X100199506Y-102432486D02*
X100228078Y-102461058D01*
X100799506Y-103003915D02*
X100456649Y-103003915D01*
X100628078Y-103003915D02*
X100628078Y-102403915D01*
X100628078Y-102403915D02*
X100570935Y-102489629D01*
X100570935Y-102489629D02*
X100513792Y-102546772D01*
X100513792Y-102546772D02*
X100456649Y-102575344D01*
X101170935Y-102403915D02*
X101228078Y-102403915D01*
X101228078Y-102403915D02*
X101285221Y-102432486D01*
X101285221Y-102432486D02*
X101313793Y-102461058D01*
X101313793Y-102461058D02*
X101342364Y-102518201D01*
X101342364Y-102518201D02*
X101370935Y-102632486D01*
X101370935Y-102632486D02*
X101370935Y-102775344D01*
X101370935Y-102775344D02*
X101342364Y-102889629D01*
X101342364Y-102889629D02*
X101313793Y-102946772D01*
X101313793Y-102946772D02*
X101285221Y-102975344D01*
X101285221Y-102975344D02*
X101228078Y-103003915D01*
X101228078Y-103003915D02*
X101170935Y-103003915D01*
X101170935Y-103003915D02*
X101113793Y-102975344D01*
X101113793Y-102975344D02*
X101085221Y-102946772D01*
X101085221Y-102946772D02*
X101056650Y-102889629D01*
X101056650Y-102889629D02*
X101028078Y-102775344D01*
X101028078Y-102775344D02*
X101028078Y-102632486D01*
X101028078Y-102632486D02*
X101056650Y-102518201D01*
X101056650Y-102518201D02*
X101085221Y-102461058D01*
X101085221Y-102461058D02*
X101113793Y-102432486D01*
X101113793Y-102432486D02*
X101170935Y-102403915D01*
X101599507Y-102461058D02*
X101628079Y-102432486D01*
X101628079Y-102432486D02*
X101685222Y-102403915D01*
X101685222Y-102403915D02*
X101828079Y-102403915D01*
X101828079Y-102403915D02*
X101885222Y-102432486D01*
X101885222Y-102432486D02*
X101913793Y-102461058D01*
X101913793Y-102461058D02*
X101942364Y-102518201D01*
X101942364Y-102518201D02*
X101942364Y-102575344D01*
X101942364Y-102575344D02*
X101913793Y-102661058D01*
X101913793Y-102661058D02*
X101570936Y-103003915D01*
X101570936Y-103003915D02*
X101942364Y-103003915D01*
X102485222Y-102403915D02*
X102199508Y-102403915D01*
X102199508Y-102403915D02*
X102170936Y-102689629D01*
X102170936Y-102689629D02*
X102199508Y-102661058D01*
X102199508Y-102661058D02*
X102256651Y-102632486D01*
X102256651Y-102632486D02*
X102399508Y-102632486D01*
X102399508Y-102632486D02*
X102456651Y-102661058D01*
X102456651Y-102661058D02*
X102485222Y-102689629D01*
X102485222Y-102689629D02*
X102513793Y-102746772D01*
X102513793Y-102746772D02*
X102513793Y-102889629D01*
X102513793Y-102889629D02*
X102485222Y-102946772D01*
X102485222Y-102946772D02*
X102456651Y-102975344D01*
X102456651Y-102975344D02*
X102399508Y-103003915D01*
X102399508Y-103003915D02*
X102256651Y-103003915D01*
X102256651Y-103003915D02*
X102199508Y-102975344D01*
X102199508Y-102975344D02*
X102170936Y-102946772D01*
X93468787Y-107813492D02*
X93468787Y-107442064D01*
X93468787Y-107442064D02*
X93697358Y-107642064D01*
X93697358Y-107642064D02*
X93697358Y-107556349D01*
X93697358Y-107556349D02*
X93725930Y-107499207D01*
X93725930Y-107499207D02*
X93754501Y-107470635D01*
X93754501Y-107470635D02*
X93811644Y-107442064D01*
X93811644Y-107442064D02*
X93954501Y-107442064D01*
X93954501Y-107442064D02*
X94011644Y-107470635D01*
X94011644Y-107470635D02*
X94040216Y-107499207D01*
X94040216Y-107499207D02*
X94068787Y-107556349D01*
X94068787Y-107556349D02*
X94068787Y-107727778D01*
X94068787Y-107727778D02*
X94040216Y-107784921D01*
X94040216Y-107784921D02*
X94011644Y-107813492D01*
X93525930Y-107213492D02*
X93497358Y-107184920D01*
X93497358Y-107184920D02*
X93468787Y-107127778D01*
X93468787Y-107127778D02*
X93468787Y-106984920D01*
X93468787Y-106984920D02*
X93497358Y-106927778D01*
X93497358Y-106927778D02*
X93525930Y-106899206D01*
X93525930Y-106899206D02*
X93583073Y-106870635D01*
X93583073Y-106870635D02*
X93640216Y-106870635D01*
X93640216Y-106870635D02*
X93725930Y-106899206D01*
X93725930Y-106899206D02*
X94068787Y-107242063D01*
X94068787Y-107242063D02*
X94068787Y-106870635D01*
X94011644Y-106613491D02*
X94040216Y-106584920D01*
X94040216Y-106584920D02*
X94068787Y-106613491D01*
X94068787Y-106613491D02*
X94040216Y-106642063D01*
X94040216Y-106642063D02*
X94011644Y-106613491D01*
X94011644Y-106613491D02*
X94068787Y-106613491D01*
X93468787Y-106384920D02*
X93468787Y-105984920D01*
X93468787Y-105984920D02*
X94068787Y-106242063D01*
X93468787Y-105499206D02*
X93468787Y-105613491D01*
X93468787Y-105613491D02*
X93497358Y-105670634D01*
X93497358Y-105670634D02*
X93525930Y-105699206D01*
X93525930Y-105699206D02*
X93611644Y-105756348D01*
X93611644Y-105756348D02*
X93725930Y-105784920D01*
X93725930Y-105784920D02*
X93954501Y-105784920D01*
X93954501Y-105784920D02*
X94011644Y-105756348D01*
X94011644Y-105756348D02*
X94040216Y-105727777D01*
X94040216Y-105727777D02*
X94068787Y-105670634D01*
X94068787Y-105670634D02*
X94068787Y-105556348D01*
X94068787Y-105556348D02*
X94040216Y-105499206D01*
X94040216Y-105499206D02*
X94011644Y-105470634D01*
X94011644Y-105470634D02*
X93954501Y-105442063D01*
X93954501Y-105442063D02*
X93811644Y-105442063D01*
X93811644Y-105442063D02*
X93754501Y-105470634D01*
X93754501Y-105470634D02*
X93725930Y-105499206D01*
X93725930Y-105499206D02*
X93697358Y-105556348D01*
X93697358Y-105556348D02*
X93697358Y-105670634D01*
X93697358Y-105670634D02*
X93725930Y-105727777D01*
X93725930Y-105727777D02*
X93754501Y-105756348D01*
X93754501Y-105756348D02*
X93811644Y-105784920D01*
X93725930Y-105099205D02*
X93697358Y-105156348D01*
X93697358Y-105156348D02*
X93668787Y-105184919D01*
X93668787Y-105184919D02*
X93611644Y-105213491D01*
X93611644Y-105213491D02*
X93583073Y-105213491D01*
X93583073Y-105213491D02*
X93525930Y-105184919D01*
X93525930Y-105184919D02*
X93497358Y-105156348D01*
X93497358Y-105156348D02*
X93468787Y-105099205D01*
X93468787Y-105099205D02*
X93468787Y-104984919D01*
X93468787Y-104984919D02*
X93497358Y-104927777D01*
X93497358Y-104927777D02*
X93525930Y-104899205D01*
X93525930Y-104899205D02*
X93583073Y-104870634D01*
X93583073Y-104870634D02*
X93611644Y-104870634D01*
X93611644Y-104870634D02*
X93668787Y-104899205D01*
X93668787Y-104899205D02*
X93697358Y-104927777D01*
X93697358Y-104927777D02*
X93725930Y-104984919D01*
X93725930Y-104984919D02*
X93725930Y-105099205D01*
X93725930Y-105099205D02*
X93754501Y-105156348D01*
X93754501Y-105156348D02*
X93783073Y-105184919D01*
X93783073Y-105184919D02*
X93840216Y-105213491D01*
X93840216Y-105213491D02*
X93954501Y-105213491D01*
X93954501Y-105213491D02*
X94011644Y-105184919D01*
X94011644Y-105184919D02*
X94040216Y-105156348D01*
X94040216Y-105156348D02*
X94068787Y-105099205D01*
X94068787Y-105099205D02*
X94068787Y-104984919D01*
X94068787Y-104984919D02*
X94040216Y-104927777D01*
X94040216Y-104927777D02*
X94011644Y-104899205D01*
X94011644Y-104899205D02*
X93954501Y-104870634D01*
X93954501Y-104870634D02*
X93840216Y-104870634D01*
X93840216Y-104870634D02*
X93783073Y-104899205D01*
X93783073Y-104899205D02*
X93754501Y-104927777D01*
X93754501Y-104927777D02*
X93725930Y-104984919D01*
X94068787Y-104156347D02*
X93468787Y-104156347D01*
X94068787Y-103813490D02*
X93725930Y-104070633D01*
X93468787Y-103813490D02*
X93811644Y-104156347D01*
X94068787Y-103556347D02*
X93468787Y-103556347D01*
X93754501Y-103556347D02*
X93754501Y-103213490D01*
X94068787Y-103213490D02*
X93468787Y-103213490D01*
X93668787Y-102984919D02*
X93668787Y-102670634D01*
X93668787Y-102670634D02*
X94068787Y-102984919D01*
X94068787Y-102984919D02*
X94068787Y-102670634D01*
X130489216Y-109145635D02*
X130517787Y-109059921D01*
X130517787Y-109059921D02*
X130517787Y-108917063D01*
X130517787Y-108917063D02*
X130489216Y-108859921D01*
X130489216Y-108859921D02*
X130460644Y-108831349D01*
X130460644Y-108831349D02*
X130403501Y-108802778D01*
X130403501Y-108802778D02*
X130346358Y-108802778D01*
X130346358Y-108802778D02*
X130289216Y-108831349D01*
X130289216Y-108831349D02*
X130260644Y-108859921D01*
X130260644Y-108859921D02*
X130232073Y-108917063D01*
X130232073Y-108917063D02*
X130203501Y-109031349D01*
X130203501Y-109031349D02*
X130174930Y-109088492D01*
X130174930Y-109088492D02*
X130146358Y-109117063D01*
X130146358Y-109117063D02*
X130089216Y-109145635D01*
X130089216Y-109145635D02*
X130032073Y-109145635D01*
X130032073Y-109145635D02*
X129974930Y-109117063D01*
X129974930Y-109117063D02*
X129946358Y-109088492D01*
X129946358Y-109088492D02*
X129917787Y-109031349D01*
X129917787Y-109031349D02*
X129917787Y-108888492D01*
X129917787Y-108888492D02*
X129946358Y-108802778D01*
X130517787Y-108545634D02*
X129917787Y-108545634D01*
X129917787Y-108545634D02*
X129917787Y-108402777D01*
X129917787Y-108402777D02*
X129946358Y-108317063D01*
X129946358Y-108317063D02*
X130003501Y-108259920D01*
X130003501Y-108259920D02*
X130060644Y-108231349D01*
X130060644Y-108231349D02*
X130174930Y-108202777D01*
X130174930Y-108202777D02*
X130260644Y-108202777D01*
X130260644Y-108202777D02*
X130374930Y-108231349D01*
X130374930Y-108231349D02*
X130432073Y-108259920D01*
X130432073Y-108259920D02*
X130489216Y-108317063D01*
X130489216Y-108317063D02*
X130517787Y-108402777D01*
X130517787Y-108402777D02*
X130517787Y-108545634D01*
X130346358Y-107974206D02*
X130346358Y-107688492D01*
X130517787Y-108031349D02*
X129917787Y-107831349D01*
X129917787Y-107831349D02*
X130517787Y-107631349D01*
X115825363Y-91797915D02*
X115482506Y-91797915D01*
X115653935Y-91797915D02*
X115653935Y-91197915D01*
X115653935Y-91197915D02*
X115596792Y-91283629D01*
X115596792Y-91283629D02*
X115539649Y-91340772D01*
X115539649Y-91340772D02*
X115482506Y-91369344D01*
X116196792Y-91197915D02*
X116253935Y-91197915D01*
X116253935Y-91197915D02*
X116311078Y-91226486D01*
X116311078Y-91226486D02*
X116339650Y-91255058D01*
X116339650Y-91255058D02*
X116368221Y-91312201D01*
X116368221Y-91312201D02*
X116396792Y-91426486D01*
X116396792Y-91426486D02*
X116396792Y-91569344D01*
X116396792Y-91569344D02*
X116368221Y-91683629D01*
X116368221Y-91683629D02*
X116339650Y-91740772D01*
X116339650Y-91740772D02*
X116311078Y-91769344D01*
X116311078Y-91769344D02*
X116253935Y-91797915D01*
X116253935Y-91797915D02*
X116196792Y-91797915D01*
X116196792Y-91797915D02*
X116139650Y-91769344D01*
X116139650Y-91769344D02*
X116111078Y-91740772D01*
X116111078Y-91740772D02*
X116082507Y-91683629D01*
X116082507Y-91683629D02*
X116053935Y-91569344D01*
X116053935Y-91569344D02*
X116053935Y-91426486D01*
X116053935Y-91426486D02*
X116082507Y-91312201D01*
X116082507Y-91312201D02*
X116111078Y-91255058D01*
X116111078Y-91255058D02*
X116139650Y-91226486D01*
X116139650Y-91226486D02*
X116196792Y-91197915D01*
X116768221Y-91197915D02*
X116825364Y-91197915D01*
X116825364Y-91197915D02*
X116882507Y-91226486D01*
X116882507Y-91226486D02*
X116911079Y-91255058D01*
X116911079Y-91255058D02*
X116939650Y-91312201D01*
X116939650Y-91312201D02*
X116968221Y-91426486D01*
X116968221Y-91426486D02*
X116968221Y-91569344D01*
X116968221Y-91569344D02*
X116939650Y-91683629D01*
X116939650Y-91683629D02*
X116911079Y-91740772D01*
X116911079Y-91740772D02*
X116882507Y-91769344D01*
X116882507Y-91769344D02*
X116825364Y-91797915D01*
X116825364Y-91797915D02*
X116768221Y-91797915D01*
X116768221Y-91797915D02*
X116711079Y-91769344D01*
X116711079Y-91769344D02*
X116682507Y-91740772D01*
X116682507Y-91740772D02*
X116653936Y-91683629D01*
X116653936Y-91683629D02*
X116625364Y-91569344D01*
X116625364Y-91569344D02*
X116625364Y-91426486D01*
X116625364Y-91426486D02*
X116653936Y-91312201D01*
X116653936Y-91312201D02*
X116682507Y-91255058D01*
X116682507Y-91255058D02*
X116711079Y-91226486D01*
X116711079Y-91226486D02*
X116768221Y-91197915D01*
X117225365Y-91397915D02*
X117225365Y-91797915D01*
X117225365Y-91455058D02*
X117253936Y-91426486D01*
X117253936Y-91426486D02*
X117311079Y-91397915D01*
X117311079Y-91397915D02*
X117396793Y-91397915D01*
X117396793Y-91397915D02*
X117453936Y-91426486D01*
X117453936Y-91426486D02*
X117482508Y-91483629D01*
X117482508Y-91483629D02*
X117482508Y-91797915D01*
X117968222Y-91483629D02*
X117768222Y-91483629D01*
X117768222Y-91797915D02*
X117768222Y-91197915D01*
X117768222Y-91197915D02*
X118053936Y-91197915D01*
X125634507Y-94880915D02*
X126005935Y-94880915D01*
X126005935Y-94880915D02*
X125805935Y-95109486D01*
X125805935Y-95109486D02*
X125891650Y-95109486D01*
X125891650Y-95109486D02*
X125948793Y-95138058D01*
X125948793Y-95138058D02*
X125977364Y-95166629D01*
X125977364Y-95166629D02*
X126005935Y-95223772D01*
X126005935Y-95223772D02*
X126005935Y-95366629D01*
X126005935Y-95366629D02*
X125977364Y-95423772D01*
X125977364Y-95423772D02*
X125948793Y-95452344D01*
X125948793Y-95452344D02*
X125891650Y-95480915D01*
X125891650Y-95480915D02*
X125720221Y-95480915D01*
X125720221Y-95480915D02*
X125663078Y-95452344D01*
X125663078Y-95452344D02*
X125634507Y-95423772D01*
X126205936Y-94880915D02*
X126577364Y-94880915D01*
X126577364Y-94880915D02*
X126377364Y-95109486D01*
X126377364Y-95109486D02*
X126463079Y-95109486D01*
X126463079Y-95109486D02*
X126520222Y-95138058D01*
X126520222Y-95138058D02*
X126548793Y-95166629D01*
X126548793Y-95166629D02*
X126577364Y-95223772D01*
X126577364Y-95223772D02*
X126577364Y-95366629D01*
X126577364Y-95366629D02*
X126548793Y-95423772D01*
X126548793Y-95423772D02*
X126520222Y-95452344D01*
X126520222Y-95452344D02*
X126463079Y-95480915D01*
X126463079Y-95480915D02*
X126291650Y-95480915D01*
X126291650Y-95480915D02*
X126234507Y-95452344D01*
X126234507Y-95452344D02*
X126205936Y-95423772D01*
X126948793Y-94880915D02*
X127005936Y-94880915D01*
X127005936Y-94880915D02*
X127063079Y-94909486D01*
X127063079Y-94909486D02*
X127091651Y-94938058D01*
X127091651Y-94938058D02*
X127120222Y-94995201D01*
X127120222Y-94995201D02*
X127148793Y-95109486D01*
X127148793Y-95109486D02*
X127148793Y-95252344D01*
X127148793Y-95252344D02*
X127120222Y-95366629D01*
X127120222Y-95366629D02*
X127091651Y-95423772D01*
X127091651Y-95423772D02*
X127063079Y-95452344D01*
X127063079Y-95452344D02*
X127005936Y-95480915D01*
X127005936Y-95480915D02*
X126948793Y-95480915D01*
X126948793Y-95480915D02*
X126891651Y-95452344D01*
X126891651Y-95452344D02*
X126863079Y-95423772D01*
X126863079Y-95423772D02*
X126834508Y-95366629D01*
X126834508Y-95366629D02*
X126805936Y-95252344D01*
X126805936Y-95252344D02*
X126805936Y-95109486D01*
X126805936Y-95109486D02*
X126834508Y-94995201D01*
X126834508Y-94995201D02*
X126863079Y-94938058D01*
X126863079Y-94938058D02*
X126891651Y-94909486D01*
X126891651Y-94909486D02*
X126948793Y-94880915D01*
X99244077Y-95349058D02*
X99272649Y-95320486D01*
X99272649Y-95320486D02*
X99329792Y-95291915D01*
X99329792Y-95291915D02*
X99472649Y-95291915D01*
X99472649Y-95291915D02*
X99529792Y-95320486D01*
X99529792Y-95320486D02*
X99558363Y-95349058D01*
X99558363Y-95349058D02*
X99586934Y-95406201D01*
X99586934Y-95406201D02*
X99586934Y-95463344D01*
X99586934Y-95463344D02*
X99558363Y-95549058D01*
X99558363Y-95549058D02*
X99215506Y-95891915D01*
X99215506Y-95891915D02*
X99586934Y-95891915D01*
X100101221Y-95491915D02*
X100101221Y-95891915D01*
X99958363Y-95263344D02*
X99815506Y-95691915D01*
X99815506Y-95691915D02*
X100186935Y-95691915D01*
X100701221Y-95891915D02*
X100415507Y-95891915D01*
X100415507Y-95891915D02*
X100415507Y-95291915D01*
X101244078Y-95834772D02*
X101215506Y-95863344D01*
X101215506Y-95863344D02*
X101129792Y-95891915D01*
X101129792Y-95891915D02*
X101072649Y-95891915D01*
X101072649Y-95891915D02*
X100986935Y-95863344D01*
X100986935Y-95863344D02*
X100929792Y-95806201D01*
X100929792Y-95806201D02*
X100901221Y-95749058D01*
X100901221Y-95749058D02*
X100872649Y-95634772D01*
X100872649Y-95634772D02*
X100872649Y-95549058D01*
X100872649Y-95549058D02*
X100901221Y-95434772D01*
X100901221Y-95434772D02*
X100929792Y-95377629D01*
X100929792Y-95377629D02*
X100986935Y-95320486D01*
X100986935Y-95320486D02*
X101072649Y-95291915D01*
X101072649Y-95291915D02*
X101129792Y-95291915D01*
X101129792Y-95291915D02*
X101215506Y-95320486D01*
X101215506Y-95320486D02*
X101244078Y-95349058D01*
X101815506Y-95891915D02*
X101472649Y-95891915D01*
X101644078Y-95891915D02*
X101644078Y-95291915D01*
X101644078Y-95291915D02*
X101586935Y-95377629D01*
X101586935Y-95377629D02*
X101529792Y-95434772D01*
X101529792Y-95434772D02*
X101472649Y-95463344D01*
X102186935Y-95291915D02*
X102244078Y-95291915D01*
X102244078Y-95291915D02*
X102301221Y-95320486D01*
X102301221Y-95320486D02*
X102329793Y-95349058D01*
X102329793Y-95349058D02*
X102358364Y-95406201D01*
X102358364Y-95406201D02*
X102386935Y-95520486D01*
X102386935Y-95520486D02*
X102386935Y-95663344D01*
X102386935Y-95663344D02*
X102358364Y-95777629D01*
X102358364Y-95777629D02*
X102329793Y-95834772D01*
X102329793Y-95834772D02*
X102301221Y-95863344D01*
X102301221Y-95863344D02*
X102244078Y-95891915D01*
X102244078Y-95891915D02*
X102186935Y-95891915D01*
X102186935Y-95891915D02*
X102129793Y-95863344D01*
X102129793Y-95863344D02*
X102101221Y-95834772D01*
X102101221Y-95834772D02*
X102072650Y-95777629D01*
X102072650Y-95777629D02*
X102044078Y-95663344D01*
X102044078Y-95663344D02*
X102044078Y-95520486D01*
X102044078Y-95520486D02*
X102072650Y-95406201D01*
X102072650Y-95406201D02*
X102101221Y-95349058D01*
X102101221Y-95349058D02*
X102129793Y-95320486D01*
X102129793Y-95320486D02*
X102186935Y-95291915D01*
X102615507Y-95349058D02*
X102644079Y-95320486D01*
X102644079Y-95320486D02*
X102701222Y-95291915D01*
X102701222Y-95291915D02*
X102844079Y-95291915D01*
X102844079Y-95291915D02*
X102901222Y-95320486D01*
X102901222Y-95320486D02*
X102929793Y-95349058D01*
X102929793Y-95349058D02*
X102958364Y-95406201D01*
X102958364Y-95406201D02*
X102958364Y-95463344D01*
X102958364Y-95463344D02*
X102929793Y-95549058D01*
X102929793Y-95549058D02*
X102586936Y-95891915D01*
X102586936Y-95891915D02*
X102958364Y-95891915D01*
X103501222Y-95291915D02*
X103215508Y-95291915D01*
X103215508Y-95291915D02*
X103186936Y-95577629D01*
X103186936Y-95577629D02*
X103215508Y-95549058D01*
X103215508Y-95549058D02*
X103272651Y-95520486D01*
X103272651Y-95520486D02*
X103415508Y-95520486D01*
X103415508Y-95520486D02*
X103472651Y-95549058D01*
X103472651Y-95549058D02*
X103501222Y-95577629D01*
X103501222Y-95577629D02*
X103529793Y-95634772D01*
X103529793Y-95634772D02*
X103529793Y-95777629D01*
X103529793Y-95777629D02*
X103501222Y-95834772D01*
X103501222Y-95834772D02*
X103472651Y-95863344D01*
X103472651Y-95863344D02*
X103415508Y-95891915D01*
X103415508Y-95891915D02*
X103272651Y-95891915D01*
X103272651Y-95891915D02*
X103215508Y-95863344D01*
X103215508Y-95863344D02*
X103186936Y-95834772D01*
D10*
X123985079Y-103881864D02*
X124056507Y-103905673D01*
X124056507Y-103905673D02*
X124175555Y-103905673D01*
X124175555Y-103905673D02*
X124223174Y-103881864D01*
X124223174Y-103881864D02*
X124246983Y-103858054D01*
X124246983Y-103858054D02*
X124270793Y-103810435D01*
X124270793Y-103810435D02*
X124270793Y-103762816D01*
X124270793Y-103762816D02*
X124246983Y-103715197D01*
X124246983Y-103715197D02*
X124223174Y-103691387D01*
X124223174Y-103691387D02*
X124175555Y-103667578D01*
X124175555Y-103667578D02*
X124080317Y-103643768D01*
X124080317Y-103643768D02*
X124032698Y-103619959D01*
X124032698Y-103619959D02*
X124008888Y-103596149D01*
X124008888Y-103596149D02*
X123985079Y-103548530D01*
X123985079Y-103548530D02*
X123985079Y-103500911D01*
X123985079Y-103500911D02*
X124008888Y-103453292D01*
X124008888Y-103453292D02*
X124032698Y-103429483D01*
X124032698Y-103429483D02*
X124080317Y-103405673D01*
X124080317Y-103405673D02*
X124199364Y-103405673D01*
X124199364Y-103405673D02*
X124270793Y-103429483D01*
X124770792Y-103858054D02*
X124746983Y-103881864D01*
X124746983Y-103881864D02*
X124675554Y-103905673D01*
X124675554Y-103905673D02*
X124627935Y-103905673D01*
X124627935Y-103905673D02*
X124556507Y-103881864D01*
X124556507Y-103881864D02*
X124508888Y-103834244D01*
X124508888Y-103834244D02*
X124485078Y-103786625D01*
X124485078Y-103786625D02*
X124461269Y-103691387D01*
X124461269Y-103691387D02*
X124461269Y-103619959D01*
X124461269Y-103619959D02*
X124485078Y-103524721D01*
X124485078Y-103524721D02*
X124508888Y-103477102D01*
X124508888Y-103477102D02*
X124556507Y-103429483D01*
X124556507Y-103429483D02*
X124627935Y-103405673D01*
X124627935Y-103405673D02*
X124675554Y-103405673D01*
X124675554Y-103405673D02*
X124746983Y-103429483D01*
X124746983Y-103429483D02*
X124770792Y-103453292D01*
X124985078Y-103905673D02*
X124985078Y-103405673D01*
X125270792Y-103905673D02*
X125056507Y-103619959D01*
X125270792Y-103405673D02*
X124985078Y-103691387D01*
D11*
X121219650Y-102700915D02*
X121219650Y-103100915D01*
X121076792Y-102472344D02*
X120933935Y-102900915D01*
X120933935Y-102900915D02*
X121305364Y-102900915D01*
X121533936Y-103043772D02*
X121562507Y-103072344D01*
X121562507Y-103072344D02*
X121533936Y-103100915D01*
X121533936Y-103100915D02*
X121505364Y-103072344D01*
X121505364Y-103072344D02*
X121533936Y-103043772D01*
X121533936Y-103043772D02*
X121533936Y-103100915D01*
X121762507Y-102500915D02*
X122162507Y-102500915D01*
X122162507Y-102500915D02*
X121905364Y-103100915D01*
X122391079Y-103100915D02*
X122391079Y-102500915D01*
X122733936Y-103100915D02*
X122476793Y-102758058D01*
X122733936Y-102500915D02*
X122391079Y-102843772D01*
D10*
X124282745Y-104667673D02*
X124116079Y-104429578D01*
X123997031Y-104667673D02*
X123997031Y-104167673D01*
X123997031Y-104167673D02*
X124187507Y-104167673D01*
X124187507Y-104167673D02*
X124235126Y-104191483D01*
X124235126Y-104191483D02*
X124258936Y-104215292D01*
X124258936Y-104215292D02*
X124282745Y-104262911D01*
X124282745Y-104262911D02*
X124282745Y-104334340D01*
X124282745Y-104334340D02*
X124258936Y-104381959D01*
X124258936Y-104381959D02*
X124235126Y-104405768D01*
X124235126Y-104405768D02*
X124187507Y-104429578D01*
X124187507Y-104429578D02*
X123997031Y-104429578D01*
X124497031Y-104405768D02*
X124663698Y-104405768D01*
X124735126Y-104667673D02*
X124497031Y-104667673D01*
X124497031Y-104667673D02*
X124497031Y-104167673D01*
X124497031Y-104167673D02*
X124735126Y-104167673D01*
X124925603Y-104643864D02*
X124997031Y-104667673D01*
X124997031Y-104667673D02*
X125116079Y-104667673D01*
X125116079Y-104667673D02*
X125163698Y-104643864D01*
X125163698Y-104643864D02*
X125187507Y-104620054D01*
X125187507Y-104620054D02*
X125211317Y-104572435D01*
X125211317Y-104572435D02*
X125211317Y-104524816D01*
X125211317Y-104524816D02*
X125187507Y-104477197D01*
X125187507Y-104477197D02*
X125163698Y-104453387D01*
X125163698Y-104453387D02*
X125116079Y-104429578D01*
X125116079Y-104429578D02*
X125020841Y-104405768D01*
X125020841Y-104405768D02*
X124973222Y-104381959D01*
X124973222Y-104381959D02*
X124949412Y-104358149D01*
X124949412Y-104358149D02*
X124925603Y-104310530D01*
X124925603Y-104310530D02*
X124925603Y-104262911D01*
X124925603Y-104262911D02*
X124949412Y-104215292D01*
X124949412Y-104215292D02*
X124973222Y-104191483D01*
X124973222Y-104191483D02*
X125020841Y-104167673D01*
X125020841Y-104167673D02*
X125139888Y-104167673D01*
X125139888Y-104167673D02*
X125211317Y-104191483D01*
X125425602Y-104405768D02*
X125592269Y-104405768D01*
X125663697Y-104667673D02*
X125425602Y-104667673D01*
X125425602Y-104667673D02*
X125425602Y-104167673D01*
X125425602Y-104167673D02*
X125663697Y-104167673D01*
X125806555Y-104167673D02*
X126092269Y-104167673D01*
X125949412Y-104667673D02*
X125949412Y-104167673D01*
D11*
X89349079Y-94053629D02*
X89434793Y-94082201D01*
X89434793Y-94082201D02*
X89463364Y-94110772D01*
X89463364Y-94110772D02*
X89491936Y-94167915D01*
X89491936Y-94167915D02*
X89491936Y-94253629D01*
X89491936Y-94253629D02*
X89463364Y-94310772D01*
X89463364Y-94310772D02*
X89434793Y-94339344D01*
X89434793Y-94339344D02*
X89377650Y-94367915D01*
X89377650Y-94367915D02*
X89149079Y-94367915D01*
X89149079Y-94367915D02*
X89149079Y-93767915D01*
X89149079Y-93767915D02*
X89349079Y-93767915D01*
X89349079Y-93767915D02*
X89406222Y-93796486D01*
X89406222Y-93796486D02*
X89434793Y-93825058D01*
X89434793Y-93825058D02*
X89463364Y-93882201D01*
X89463364Y-93882201D02*
X89463364Y-93939344D01*
X89463364Y-93939344D02*
X89434793Y-93996486D01*
X89434793Y-93996486D02*
X89406222Y-94025058D01*
X89406222Y-94025058D02*
X89349079Y-94053629D01*
X89349079Y-94053629D02*
X89149079Y-94053629D01*
X90006222Y-94367915D02*
X90006222Y-94053629D01*
X90006222Y-94053629D02*
X89977650Y-93996486D01*
X89977650Y-93996486D02*
X89920507Y-93967915D01*
X89920507Y-93967915D02*
X89806222Y-93967915D01*
X89806222Y-93967915D02*
X89749079Y-93996486D01*
X90006222Y-94339344D02*
X89949079Y-94367915D01*
X89949079Y-94367915D02*
X89806222Y-94367915D01*
X89806222Y-94367915D02*
X89749079Y-94339344D01*
X89749079Y-94339344D02*
X89720507Y-94282201D01*
X89720507Y-94282201D02*
X89720507Y-94225058D01*
X89720507Y-94225058D02*
X89749079Y-94167915D01*
X89749079Y-94167915D02*
X89806222Y-94139344D01*
X89806222Y-94139344D02*
X89949079Y-94139344D01*
X89949079Y-94139344D02*
X90006222Y-94110772D01*
X90206221Y-93967915D02*
X90434793Y-93967915D01*
X90291936Y-93767915D02*
X90291936Y-94282201D01*
X90291936Y-94282201D02*
X90320507Y-94339344D01*
X90320507Y-94339344D02*
X90377650Y-94367915D01*
X90377650Y-94367915D02*
X90434793Y-94367915D01*
X90549078Y-93967915D02*
X90777650Y-93967915D01*
X90634793Y-93767915D02*
X90634793Y-94282201D01*
X90634793Y-94282201D02*
X90663364Y-94339344D01*
X90663364Y-94339344D02*
X90720507Y-94367915D01*
X90720507Y-94367915D02*
X90777650Y-94367915D01*
X91206221Y-94339344D02*
X91149078Y-94367915D01*
X91149078Y-94367915D02*
X91034793Y-94367915D01*
X91034793Y-94367915D02*
X90977650Y-94339344D01*
X90977650Y-94339344D02*
X90949078Y-94282201D01*
X90949078Y-94282201D02*
X90949078Y-94053629D01*
X90949078Y-94053629D02*
X90977650Y-93996486D01*
X90977650Y-93996486D02*
X91034793Y-93967915D01*
X91034793Y-93967915D02*
X91149078Y-93967915D01*
X91149078Y-93967915D02*
X91206221Y-93996486D01*
X91206221Y-93996486D02*
X91234793Y-94053629D01*
X91234793Y-94053629D02*
X91234793Y-94110772D01*
X91234793Y-94110772D02*
X90949078Y-94167915D01*
X91491936Y-94367915D02*
X91491936Y-93967915D01*
X91491936Y-94082201D02*
X91520507Y-94025058D01*
X91520507Y-94025058D02*
X91549079Y-93996486D01*
X91549079Y-93996486D02*
X91606221Y-93967915D01*
X91606221Y-93967915D02*
X91663364Y-93967915D01*
X91806222Y-93967915D02*
X91949079Y-94367915D01*
X92091936Y-93967915D02*
X91949079Y-94367915D01*
X91949079Y-94367915D02*
X91891936Y-94510772D01*
X91891936Y-94510772D02*
X91863365Y-94539344D01*
X91863365Y-94539344D02*
X91806222Y-94567915D01*
X110942221Y-91255058D02*
X110970793Y-91226486D01*
X110970793Y-91226486D02*
X111027936Y-91197915D01*
X111027936Y-91197915D02*
X111170793Y-91197915D01*
X111170793Y-91197915D02*
X111227936Y-91226486D01*
X111227936Y-91226486D02*
X111256507Y-91255058D01*
X111256507Y-91255058D02*
X111285078Y-91312201D01*
X111285078Y-91312201D02*
X111285078Y-91369344D01*
X111285078Y-91369344D02*
X111256507Y-91455058D01*
X111256507Y-91455058D02*
X110913650Y-91797915D01*
X110913650Y-91797915D02*
X111285078Y-91797915D01*
X111513650Y-91255058D02*
X111542222Y-91226486D01*
X111542222Y-91226486D02*
X111599365Y-91197915D01*
X111599365Y-91197915D02*
X111742222Y-91197915D01*
X111742222Y-91197915D02*
X111799365Y-91226486D01*
X111799365Y-91226486D02*
X111827936Y-91255058D01*
X111827936Y-91255058D02*
X111856507Y-91312201D01*
X111856507Y-91312201D02*
X111856507Y-91369344D01*
X111856507Y-91369344D02*
X111827936Y-91455058D01*
X111827936Y-91455058D02*
X111485079Y-91797915D01*
X111485079Y-91797915D02*
X111856507Y-91797915D01*
X112113651Y-91397915D02*
X112113651Y-91997915D01*
X112113651Y-91426486D02*
X112170794Y-91397915D01*
X112170794Y-91397915D02*
X112285079Y-91397915D01*
X112285079Y-91397915D02*
X112342222Y-91426486D01*
X112342222Y-91426486D02*
X112370794Y-91455058D01*
X112370794Y-91455058D02*
X112399365Y-91512201D01*
X112399365Y-91512201D02*
X112399365Y-91683629D01*
X112399365Y-91683629D02*
X112370794Y-91740772D01*
X112370794Y-91740772D02*
X112342222Y-91769344D01*
X112342222Y-91769344D02*
X112285079Y-91797915D01*
X112285079Y-91797915D02*
X112170794Y-91797915D01*
X112170794Y-91797915D02*
X112113651Y-91769344D01*
X112856508Y-91483629D02*
X112656508Y-91483629D01*
X112656508Y-91797915D02*
X112656508Y-91197915D01*
X112656508Y-91197915D02*
X112942222Y-91197915D01*
X107904078Y-105245486D02*
X108189793Y-105245486D01*
X107846935Y-105416915D02*
X108046935Y-104816915D01*
X108046935Y-104816915D02*
X108246935Y-105416915D01*
X108361221Y-104816915D02*
X108704079Y-104816915D01*
X108532650Y-105416915D02*
X108532650Y-104816915D01*
X108904079Y-105416915D02*
X108904079Y-104816915D01*
X108904079Y-104816915D02*
X109104079Y-105245486D01*
X109104079Y-105245486D02*
X109304079Y-104816915D01*
X109304079Y-104816915D02*
X109304079Y-105416915D01*
X109589793Y-105102629D02*
X109789793Y-105102629D01*
X109875507Y-105416915D02*
X109589793Y-105416915D01*
X109589793Y-105416915D02*
X109589793Y-104816915D01*
X109589793Y-104816915D02*
X109875507Y-104816915D01*
X110446935Y-104845486D02*
X110389793Y-104816915D01*
X110389793Y-104816915D02*
X110304078Y-104816915D01*
X110304078Y-104816915D02*
X110218364Y-104845486D01*
X110218364Y-104845486D02*
X110161221Y-104902629D01*
X110161221Y-104902629D02*
X110132650Y-104959772D01*
X110132650Y-104959772D02*
X110104078Y-105074058D01*
X110104078Y-105074058D02*
X110104078Y-105159772D01*
X110104078Y-105159772D02*
X110132650Y-105274058D01*
X110132650Y-105274058D02*
X110161221Y-105331201D01*
X110161221Y-105331201D02*
X110218364Y-105388344D01*
X110218364Y-105388344D02*
X110304078Y-105416915D01*
X110304078Y-105416915D02*
X110361221Y-105416915D01*
X110361221Y-105416915D02*
X110446935Y-105388344D01*
X110446935Y-105388344D02*
X110475507Y-105359772D01*
X110475507Y-105359772D02*
X110475507Y-105159772D01*
X110475507Y-105159772D02*
X110361221Y-105159772D01*
X110704078Y-105245486D02*
X110989793Y-105245486D01*
X110646935Y-105416915D02*
X110846935Y-104816915D01*
X110846935Y-104816915D02*
X111046935Y-105416915D01*
X111189793Y-104816915D02*
X111561221Y-104816915D01*
X111561221Y-104816915D02*
X111361221Y-105045486D01*
X111361221Y-105045486D02*
X111446936Y-105045486D01*
X111446936Y-105045486D02*
X111504079Y-105074058D01*
X111504079Y-105074058D02*
X111532650Y-105102629D01*
X111532650Y-105102629D02*
X111561221Y-105159772D01*
X111561221Y-105159772D02*
X111561221Y-105302629D01*
X111561221Y-105302629D02*
X111532650Y-105359772D01*
X111532650Y-105359772D02*
X111504079Y-105388344D01*
X111504079Y-105388344D02*
X111446936Y-105416915D01*
X111446936Y-105416915D02*
X111275507Y-105416915D01*
X111275507Y-105416915D02*
X111218364Y-105388344D01*
X111218364Y-105388344D02*
X111189793Y-105359772D01*
X111789793Y-104874058D02*
X111818365Y-104845486D01*
X111818365Y-104845486D02*
X111875508Y-104816915D01*
X111875508Y-104816915D02*
X112018365Y-104816915D01*
X112018365Y-104816915D02*
X112075508Y-104845486D01*
X112075508Y-104845486D02*
X112104079Y-104874058D01*
X112104079Y-104874058D02*
X112132650Y-104931201D01*
X112132650Y-104931201D02*
X112132650Y-104988344D01*
X112132650Y-104988344D02*
X112104079Y-105074058D01*
X112104079Y-105074058D02*
X111761222Y-105416915D01*
X111761222Y-105416915D02*
X112132650Y-105416915D01*
X112475508Y-105074058D02*
X112418365Y-105045486D01*
X112418365Y-105045486D02*
X112389794Y-105016915D01*
X112389794Y-105016915D02*
X112361222Y-104959772D01*
X112361222Y-104959772D02*
X112361222Y-104931201D01*
X112361222Y-104931201D02*
X112389794Y-104874058D01*
X112389794Y-104874058D02*
X112418365Y-104845486D01*
X112418365Y-104845486D02*
X112475508Y-104816915D01*
X112475508Y-104816915D02*
X112589794Y-104816915D01*
X112589794Y-104816915D02*
X112646937Y-104845486D01*
X112646937Y-104845486D02*
X112675508Y-104874058D01*
X112675508Y-104874058D02*
X112704079Y-104931201D01*
X112704079Y-104931201D02*
X112704079Y-104959772D01*
X112704079Y-104959772D02*
X112675508Y-105016915D01*
X112675508Y-105016915D02*
X112646937Y-105045486D01*
X112646937Y-105045486D02*
X112589794Y-105074058D01*
X112589794Y-105074058D02*
X112475508Y-105074058D01*
X112475508Y-105074058D02*
X112418365Y-105102629D01*
X112418365Y-105102629D02*
X112389794Y-105131201D01*
X112389794Y-105131201D02*
X112361222Y-105188344D01*
X112361222Y-105188344D02*
X112361222Y-105302629D01*
X112361222Y-105302629D02*
X112389794Y-105359772D01*
X112389794Y-105359772D02*
X112418365Y-105388344D01*
X112418365Y-105388344D02*
X112475508Y-105416915D01*
X112475508Y-105416915D02*
X112589794Y-105416915D01*
X112589794Y-105416915D02*
X112646937Y-105388344D01*
X112646937Y-105388344D02*
X112675508Y-105359772D01*
X112675508Y-105359772D02*
X112704079Y-105302629D01*
X112704079Y-105302629D02*
X112704079Y-105188344D01*
X112704079Y-105188344D02*
X112675508Y-105131201D01*
X112675508Y-105131201D02*
X112646937Y-105102629D01*
X112646937Y-105102629D02*
X112589794Y-105074058D01*
X112961223Y-105416915D02*
X112961223Y-104816915D01*
X112961223Y-104816915D02*
X113189794Y-104816915D01*
X113189794Y-104816915D02*
X113246937Y-104845486D01*
X113246937Y-104845486D02*
X113275508Y-104874058D01*
X113275508Y-104874058D02*
X113304080Y-104931201D01*
X113304080Y-104931201D02*
X113304080Y-105016915D01*
X113304080Y-105016915D02*
X113275508Y-105074058D01*
X113275508Y-105074058D02*
X113246937Y-105102629D01*
X113246937Y-105102629D02*
X113189794Y-105131201D01*
X113189794Y-105131201D02*
X112961223Y-105131201D01*
X113561223Y-105188344D02*
X114018366Y-105188344D01*
X114275508Y-105245486D02*
X114561223Y-105245486D01*
X114218365Y-105416915D02*
X114418365Y-104816915D01*
X114418365Y-104816915D02*
X114618365Y-105416915D01*
X114818366Y-104816915D02*
X114818366Y-105302629D01*
X114818366Y-105302629D02*
X114846937Y-105359772D01*
X114846937Y-105359772D02*
X114875509Y-105388344D01*
X114875509Y-105388344D02*
X114932651Y-105416915D01*
X114932651Y-105416915D02*
X115046937Y-105416915D01*
X115046937Y-105416915D02*
X115104080Y-105388344D01*
X115104080Y-105388344D02*
X115132651Y-105359772D01*
X115132651Y-105359772D02*
X115161223Y-105302629D01*
X115161223Y-105302629D02*
X115161223Y-104816915D01*
X120975221Y-106368058D02*
X121003793Y-106339486D01*
X121003793Y-106339486D02*
X121060936Y-106310915D01*
X121060936Y-106310915D02*
X121203793Y-106310915D01*
X121203793Y-106310915D02*
X121260936Y-106339486D01*
X121260936Y-106339486D02*
X121289507Y-106368058D01*
X121289507Y-106368058D02*
X121318078Y-106425201D01*
X121318078Y-106425201D02*
X121318078Y-106482344D01*
X121318078Y-106482344D02*
X121289507Y-106568058D01*
X121289507Y-106568058D02*
X120946650Y-106910915D01*
X120946650Y-106910915D02*
X121318078Y-106910915D01*
X121546650Y-106368058D02*
X121575222Y-106339486D01*
X121575222Y-106339486D02*
X121632365Y-106310915D01*
X121632365Y-106310915D02*
X121775222Y-106310915D01*
X121775222Y-106310915D02*
X121832365Y-106339486D01*
X121832365Y-106339486D02*
X121860936Y-106368058D01*
X121860936Y-106368058D02*
X121889507Y-106425201D01*
X121889507Y-106425201D02*
X121889507Y-106482344D01*
X121889507Y-106482344D02*
X121860936Y-106568058D01*
X121860936Y-106568058D02*
X121518079Y-106910915D01*
X121518079Y-106910915D02*
X121889507Y-106910915D01*
X122146651Y-106510915D02*
X122146651Y-107110915D01*
X122146651Y-106539486D02*
X122203794Y-106510915D01*
X122203794Y-106510915D02*
X122318079Y-106510915D01*
X122318079Y-106510915D02*
X122375222Y-106539486D01*
X122375222Y-106539486D02*
X122403794Y-106568058D01*
X122403794Y-106568058D02*
X122432365Y-106625201D01*
X122432365Y-106625201D02*
X122432365Y-106796629D01*
X122432365Y-106796629D02*
X122403794Y-106853772D01*
X122403794Y-106853772D02*
X122375222Y-106882344D01*
X122375222Y-106882344D02*
X122318079Y-106910915D01*
X122318079Y-106910915D02*
X122203794Y-106910915D01*
X122203794Y-106910915D02*
X122146651Y-106882344D01*
X122889508Y-106596629D02*
X122689508Y-106596629D01*
X122689508Y-106910915D02*
X122689508Y-106310915D01*
X122689508Y-106310915D02*
X122975222Y-106310915D01*
X96741936Y-112182915D02*
X97113364Y-112182915D01*
X97113364Y-112182915D02*
X96913364Y-112411486D01*
X96913364Y-112411486D02*
X96999079Y-112411486D01*
X96999079Y-112411486D02*
X97056222Y-112440058D01*
X97056222Y-112440058D02*
X97084793Y-112468629D01*
X97084793Y-112468629D02*
X97113364Y-112525772D01*
X97113364Y-112525772D02*
X97113364Y-112668629D01*
X97113364Y-112668629D02*
X97084793Y-112725772D01*
X97084793Y-112725772D02*
X97056222Y-112754344D01*
X97056222Y-112754344D02*
X96999079Y-112782915D01*
X96999079Y-112782915D02*
X96827650Y-112782915D01*
X96827650Y-112782915D02*
X96770507Y-112754344D01*
X96770507Y-112754344D02*
X96741936Y-112725772D01*
X101480649Y-112020915D02*
X101137792Y-112020915D01*
X101309221Y-112020915D02*
X101309221Y-111420915D01*
X101309221Y-111420915D02*
X101252078Y-111506629D01*
X101252078Y-111506629D02*
X101194935Y-111563772D01*
X101194935Y-111563772D02*
X101137792Y-111592344D01*
X101852078Y-111420915D02*
X101909221Y-111420915D01*
X101909221Y-111420915D02*
X101966364Y-111449486D01*
X101966364Y-111449486D02*
X101994936Y-111478058D01*
X101994936Y-111478058D02*
X102023507Y-111535201D01*
X102023507Y-111535201D02*
X102052078Y-111649486D01*
X102052078Y-111649486D02*
X102052078Y-111792344D01*
X102052078Y-111792344D02*
X102023507Y-111906629D01*
X102023507Y-111906629D02*
X101994936Y-111963772D01*
X101994936Y-111963772D02*
X101966364Y-111992344D01*
X101966364Y-111992344D02*
X101909221Y-112020915D01*
X101909221Y-112020915D02*
X101852078Y-112020915D01*
X101852078Y-112020915D02*
X101794936Y-111992344D01*
X101794936Y-111992344D02*
X101766364Y-111963772D01*
X101766364Y-111963772D02*
X101737793Y-111906629D01*
X101737793Y-111906629D02*
X101709221Y-111792344D01*
X101709221Y-111792344D02*
X101709221Y-111649486D01*
X101709221Y-111649486D02*
X101737793Y-111535201D01*
X101737793Y-111535201D02*
X101766364Y-111478058D01*
X101766364Y-111478058D02*
X101794936Y-111449486D01*
X101794936Y-111449486D02*
X101852078Y-111420915D01*
X102309222Y-112020915D02*
X102309222Y-111420915D01*
X102652079Y-112020915D02*
X102394936Y-111678058D01*
X102652079Y-111420915D02*
X102309222Y-111763772D01*
X132378222Y-92589915D02*
X132378222Y-91989915D01*
X132635364Y-92561344D02*
X132721079Y-92589915D01*
X132721079Y-92589915D02*
X132863936Y-92589915D01*
X132863936Y-92589915D02*
X132921079Y-92561344D01*
X132921079Y-92561344D02*
X132949650Y-92532772D01*
X132949650Y-92532772D02*
X132978221Y-92475629D01*
X132978221Y-92475629D02*
X132978221Y-92418486D01*
X132978221Y-92418486D02*
X132949650Y-92361344D01*
X132949650Y-92361344D02*
X132921079Y-92332772D01*
X132921079Y-92332772D02*
X132863936Y-92304201D01*
X132863936Y-92304201D02*
X132749650Y-92275629D01*
X132749650Y-92275629D02*
X132692507Y-92247058D01*
X132692507Y-92247058D02*
X132663936Y-92218486D01*
X132663936Y-92218486D02*
X132635364Y-92161344D01*
X132635364Y-92161344D02*
X132635364Y-92104201D01*
X132635364Y-92104201D02*
X132663936Y-92047058D01*
X132663936Y-92047058D02*
X132692507Y-92018486D01*
X132692507Y-92018486D02*
X132749650Y-91989915D01*
X132749650Y-91989915D02*
X132892507Y-91989915D01*
X132892507Y-91989915D02*
X132978221Y-92018486D01*
X133578222Y-92532772D02*
X133549650Y-92561344D01*
X133549650Y-92561344D02*
X133463936Y-92589915D01*
X133463936Y-92589915D02*
X133406793Y-92589915D01*
X133406793Y-92589915D02*
X133321079Y-92561344D01*
X133321079Y-92561344D02*
X133263936Y-92504201D01*
X133263936Y-92504201D02*
X133235365Y-92447058D01*
X133235365Y-92447058D02*
X133206793Y-92332772D01*
X133206793Y-92332772D02*
X133206793Y-92247058D01*
X133206793Y-92247058D02*
X133235365Y-92132772D01*
X133235365Y-92132772D02*
X133263936Y-92075629D01*
X133263936Y-92075629D02*
X133321079Y-92018486D01*
X133321079Y-92018486D02*
X133406793Y-91989915D01*
X133406793Y-91989915D02*
X133463936Y-91989915D01*
X133463936Y-91989915D02*
X133549650Y-92018486D01*
X133549650Y-92018486D02*
X133578222Y-92047058D01*
X133835365Y-92589915D02*
X133835365Y-91989915D01*
X133835365Y-91989915D02*
X134063936Y-91989915D01*
X134063936Y-91989915D02*
X134121079Y-92018486D01*
X134121079Y-92018486D02*
X134149650Y-92047058D01*
X134149650Y-92047058D02*
X134178222Y-92104201D01*
X134178222Y-92104201D02*
X134178222Y-92189915D01*
X134178222Y-92189915D02*
X134149650Y-92247058D01*
X134149650Y-92247058D02*
X134121079Y-92275629D01*
X134121079Y-92275629D02*
X134063936Y-92304201D01*
X134063936Y-92304201D02*
X133835365Y-92304201D01*
X119344793Y-112211486D02*
X119287651Y-112182915D01*
X119287651Y-112182915D02*
X119201936Y-112182915D01*
X119201936Y-112182915D02*
X119116222Y-112211486D01*
X119116222Y-112211486D02*
X119059079Y-112268629D01*
X119059079Y-112268629D02*
X119030508Y-112325772D01*
X119030508Y-112325772D02*
X119001936Y-112440058D01*
X119001936Y-112440058D02*
X119001936Y-112525772D01*
X119001936Y-112525772D02*
X119030508Y-112640058D01*
X119030508Y-112640058D02*
X119059079Y-112697201D01*
X119059079Y-112697201D02*
X119116222Y-112754344D01*
X119116222Y-112754344D02*
X119201936Y-112782915D01*
X119201936Y-112782915D02*
X119259079Y-112782915D01*
X119259079Y-112782915D02*
X119344793Y-112754344D01*
X119344793Y-112754344D02*
X119373365Y-112725772D01*
X119373365Y-112725772D02*
X119373365Y-112525772D01*
X119373365Y-112525772D02*
X119259079Y-112525772D01*
X119630508Y-112782915D02*
X119630508Y-112182915D01*
X119630508Y-112182915D02*
X119973365Y-112782915D01*
X119973365Y-112782915D02*
X119973365Y-112182915D01*
X120259079Y-112782915D02*
X120259079Y-112182915D01*
X120259079Y-112182915D02*
X120401936Y-112182915D01*
X120401936Y-112182915D02*
X120487650Y-112211486D01*
X120487650Y-112211486D02*
X120544793Y-112268629D01*
X120544793Y-112268629D02*
X120573364Y-112325772D01*
X120573364Y-112325772D02*
X120601936Y-112440058D01*
X120601936Y-112440058D02*
X120601936Y-112525772D01*
X120601936Y-112525772D02*
X120573364Y-112640058D01*
X120573364Y-112640058D02*
X120544793Y-112697201D01*
X120544793Y-112697201D02*
X120487650Y-112754344D01*
X120487650Y-112754344D02*
X120401936Y-112782915D01*
X120401936Y-112782915D02*
X120259079Y-112782915D01*
X97670649Y-112020915D02*
X97327792Y-112020915D01*
X97499221Y-112020915D02*
X97499221Y-111420915D01*
X97499221Y-111420915D02*
X97442078Y-111506629D01*
X97442078Y-111506629D02*
X97384935Y-111563772D01*
X97384935Y-111563772D02*
X97327792Y-111592344D01*
X98042078Y-111420915D02*
X98099221Y-111420915D01*
X98099221Y-111420915D02*
X98156364Y-111449486D01*
X98156364Y-111449486D02*
X98184936Y-111478058D01*
X98184936Y-111478058D02*
X98213507Y-111535201D01*
X98213507Y-111535201D02*
X98242078Y-111649486D01*
X98242078Y-111649486D02*
X98242078Y-111792344D01*
X98242078Y-111792344D02*
X98213507Y-111906629D01*
X98213507Y-111906629D02*
X98184936Y-111963772D01*
X98184936Y-111963772D02*
X98156364Y-111992344D01*
X98156364Y-111992344D02*
X98099221Y-112020915D01*
X98099221Y-112020915D02*
X98042078Y-112020915D01*
X98042078Y-112020915D02*
X97984936Y-111992344D01*
X97984936Y-111992344D02*
X97956364Y-111963772D01*
X97956364Y-111963772D02*
X97927793Y-111906629D01*
X97927793Y-111906629D02*
X97899221Y-111792344D01*
X97899221Y-111792344D02*
X97899221Y-111649486D01*
X97899221Y-111649486D02*
X97927793Y-111535201D01*
X97927793Y-111535201D02*
X97956364Y-111478058D01*
X97956364Y-111478058D02*
X97984936Y-111449486D01*
X97984936Y-111449486D02*
X98042078Y-111420915D01*
X98499222Y-112020915D02*
X98499222Y-111420915D01*
X98842079Y-112020915D02*
X98584936Y-111678058D01*
X98842079Y-111420915D02*
X98499222Y-111763772D01*
D10*
X127525221Y-103905673D02*
X127525221Y-103405673D01*
X127525221Y-103405673D02*
X127691888Y-103762816D01*
X127691888Y-103762816D02*
X127858554Y-103405673D01*
X127858554Y-103405673D02*
X127858554Y-103905673D01*
X128191888Y-103405673D02*
X128287126Y-103405673D01*
X128287126Y-103405673D02*
X128334745Y-103429483D01*
X128334745Y-103429483D02*
X128382364Y-103477102D01*
X128382364Y-103477102D02*
X128406174Y-103572340D01*
X128406174Y-103572340D02*
X128406174Y-103739006D01*
X128406174Y-103739006D02*
X128382364Y-103834244D01*
X128382364Y-103834244D02*
X128334745Y-103881864D01*
X128334745Y-103881864D02*
X128287126Y-103905673D01*
X128287126Y-103905673D02*
X128191888Y-103905673D01*
X128191888Y-103905673D02*
X128144269Y-103881864D01*
X128144269Y-103881864D02*
X128096650Y-103834244D01*
X128096650Y-103834244D02*
X128072841Y-103739006D01*
X128072841Y-103739006D02*
X128072841Y-103572340D01*
X128072841Y-103572340D02*
X128096650Y-103477102D01*
X128096650Y-103477102D02*
X128144269Y-103429483D01*
X128144269Y-103429483D02*
X128191888Y-103405673D01*
X128596651Y-103881864D02*
X128668079Y-103905673D01*
X128668079Y-103905673D02*
X128787127Y-103905673D01*
X128787127Y-103905673D02*
X128834746Y-103881864D01*
X128834746Y-103881864D02*
X128858555Y-103858054D01*
X128858555Y-103858054D02*
X128882365Y-103810435D01*
X128882365Y-103810435D02*
X128882365Y-103762816D01*
X128882365Y-103762816D02*
X128858555Y-103715197D01*
X128858555Y-103715197D02*
X128834746Y-103691387D01*
X128834746Y-103691387D02*
X128787127Y-103667578D01*
X128787127Y-103667578D02*
X128691889Y-103643768D01*
X128691889Y-103643768D02*
X128644270Y-103619959D01*
X128644270Y-103619959D02*
X128620460Y-103596149D01*
X128620460Y-103596149D02*
X128596651Y-103548530D01*
X128596651Y-103548530D02*
X128596651Y-103500911D01*
X128596651Y-103500911D02*
X128620460Y-103453292D01*
X128620460Y-103453292D02*
X128644270Y-103429483D01*
X128644270Y-103429483D02*
X128691889Y-103405673D01*
X128691889Y-103405673D02*
X128810936Y-103405673D01*
X128810936Y-103405673D02*
X128882365Y-103429483D01*
X129096650Y-103905673D02*
X129096650Y-103405673D01*
D11*
X106901936Y-112182915D02*
X107301936Y-112182915D01*
X107301936Y-112182915D02*
X107044793Y-112782915D01*
X117789216Y-116533778D02*
X117817787Y-116448064D01*
X117817787Y-116448064D02*
X117817787Y-116305206D01*
X117817787Y-116305206D02*
X117789216Y-116248064D01*
X117789216Y-116248064D02*
X117760644Y-116219492D01*
X117760644Y-116219492D02*
X117703501Y-116190921D01*
X117703501Y-116190921D02*
X117646358Y-116190921D01*
X117646358Y-116190921D02*
X117589216Y-116219492D01*
X117589216Y-116219492D02*
X117560644Y-116248064D01*
X117560644Y-116248064D02*
X117532073Y-116305206D01*
X117532073Y-116305206D02*
X117503501Y-116419492D01*
X117503501Y-116419492D02*
X117474930Y-116476635D01*
X117474930Y-116476635D02*
X117446358Y-116505206D01*
X117446358Y-116505206D02*
X117389216Y-116533778D01*
X117389216Y-116533778D02*
X117332073Y-116533778D01*
X117332073Y-116533778D02*
X117274930Y-116505206D01*
X117274930Y-116505206D02*
X117246358Y-116476635D01*
X117246358Y-116476635D02*
X117217787Y-116419492D01*
X117217787Y-116419492D02*
X117217787Y-116276635D01*
X117217787Y-116276635D02*
X117246358Y-116190921D01*
X117503501Y-115933777D02*
X117503501Y-115733777D01*
X117817787Y-115648063D02*
X117817787Y-115933777D01*
X117817787Y-115933777D02*
X117217787Y-115933777D01*
X117217787Y-115933777D02*
X117217787Y-115648063D01*
X117817787Y-115048063D02*
X117532073Y-115248063D01*
X117817787Y-115390920D02*
X117217787Y-115390920D01*
X117217787Y-115390920D02*
X117217787Y-115162349D01*
X117217787Y-115162349D02*
X117246358Y-115105206D01*
X117246358Y-115105206D02*
X117274930Y-115076635D01*
X117274930Y-115076635D02*
X117332073Y-115048063D01*
X117332073Y-115048063D02*
X117417787Y-115048063D01*
X117417787Y-115048063D02*
X117474930Y-115076635D01*
X117474930Y-115076635D02*
X117503501Y-115105206D01*
X117503501Y-115105206D02*
X117532073Y-115162349D01*
X117532073Y-115162349D02*
X117532073Y-115390920D01*
X117817787Y-114790920D02*
X117217787Y-114790920D01*
X117646358Y-114533778D02*
X117646358Y-114248064D01*
X117817787Y-114590921D02*
X117217787Y-114390921D01*
X117217787Y-114390921D02*
X117817787Y-114190921D01*
X117817787Y-113705206D02*
X117817787Y-113990920D01*
X117817787Y-113990920D02*
X117217787Y-113990920D01*
X106370221Y-91197915D02*
X106427364Y-91197915D01*
X106427364Y-91197915D02*
X106484507Y-91226486D01*
X106484507Y-91226486D02*
X106513079Y-91255058D01*
X106513079Y-91255058D02*
X106541650Y-91312201D01*
X106541650Y-91312201D02*
X106570221Y-91426486D01*
X106570221Y-91426486D02*
X106570221Y-91569344D01*
X106570221Y-91569344D02*
X106541650Y-91683629D01*
X106541650Y-91683629D02*
X106513079Y-91740772D01*
X106513079Y-91740772D02*
X106484507Y-91769344D01*
X106484507Y-91769344D02*
X106427364Y-91797915D01*
X106427364Y-91797915D02*
X106370221Y-91797915D01*
X106370221Y-91797915D02*
X106313079Y-91769344D01*
X106313079Y-91769344D02*
X106284507Y-91740772D01*
X106284507Y-91740772D02*
X106255936Y-91683629D01*
X106255936Y-91683629D02*
X106227364Y-91569344D01*
X106227364Y-91569344D02*
X106227364Y-91426486D01*
X106227364Y-91426486D02*
X106255936Y-91312201D01*
X106255936Y-91312201D02*
X106284507Y-91255058D01*
X106284507Y-91255058D02*
X106313079Y-91226486D01*
X106313079Y-91226486D02*
X106370221Y-91197915D01*
X106827365Y-91740772D02*
X106855936Y-91769344D01*
X106855936Y-91769344D02*
X106827365Y-91797915D01*
X106827365Y-91797915D02*
X106798793Y-91769344D01*
X106798793Y-91769344D02*
X106827365Y-91740772D01*
X106827365Y-91740772D02*
X106827365Y-91797915D01*
X107427364Y-91797915D02*
X107084507Y-91797915D01*
X107255936Y-91797915D02*
X107255936Y-91197915D01*
X107255936Y-91197915D02*
X107198793Y-91283629D01*
X107198793Y-91283629D02*
X107141650Y-91340772D01*
X107141650Y-91340772D02*
X107084507Y-91369344D01*
X107941651Y-91397915D02*
X107941651Y-91797915D01*
X107684508Y-91397915D02*
X107684508Y-91712201D01*
X107684508Y-91712201D02*
X107713079Y-91769344D01*
X107713079Y-91769344D02*
X107770222Y-91797915D01*
X107770222Y-91797915D02*
X107855936Y-91797915D01*
X107855936Y-91797915D02*
X107913079Y-91769344D01*
X107913079Y-91769344D02*
X107941651Y-91740772D01*
X108427365Y-91483629D02*
X108227365Y-91483629D01*
X108227365Y-91797915D02*
X108227365Y-91197915D01*
X108227365Y-91197915D02*
X108513079Y-91197915D01*
X121219650Y-98890915D02*
X121219650Y-99290915D01*
X121076792Y-98662344D02*
X120933935Y-99090915D01*
X120933935Y-99090915D02*
X121305364Y-99090915D01*
X121533936Y-99233772D02*
X121562507Y-99262344D01*
X121562507Y-99262344D02*
X121533936Y-99290915D01*
X121533936Y-99290915D02*
X121505364Y-99262344D01*
X121505364Y-99262344D02*
X121533936Y-99233772D01*
X121533936Y-99233772D02*
X121533936Y-99290915D01*
X121762507Y-98690915D02*
X122162507Y-98690915D01*
X122162507Y-98690915D02*
X121905364Y-99290915D01*
X122391079Y-99290915D02*
X122391079Y-98690915D01*
X122733936Y-99290915D02*
X122476793Y-98948058D01*
X122733936Y-98690915D02*
X122391079Y-99033772D01*
D10*
X125794841Y-102254673D02*
X125794841Y-101754673D01*
X126318650Y-102207054D02*
X126294841Y-102230864D01*
X126294841Y-102230864D02*
X126223412Y-102254673D01*
X126223412Y-102254673D02*
X126175793Y-102254673D01*
X126175793Y-102254673D02*
X126104365Y-102230864D01*
X126104365Y-102230864D02*
X126056746Y-102183244D01*
X126056746Y-102183244D02*
X126032936Y-102135625D01*
X126032936Y-102135625D02*
X126009127Y-102040387D01*
X126009127Y-102040387D02*
X126009127Y-101968959D01*
X126009127Y-101968959D02*
X126032936Y-101873721D01*
X126032936Y-101873721D02*
X126056746Y-101826102D01*
X126056746Y-101826102D02*
X126104365Y-101778483D01*
X126104365Y-101778483D02*
X126175793Y-101754673D01*
X126175793Y-101754673D02*
X126223412Y-101754673D01*
X126223412Y-101754673D02*
X126294841Y-101778483D01*
X126294841Y-101778483D02*
X126318650Y-101802292D01*
X126509127Y-102230864D02*
X126580555Y-102254673D01*
X126580555Y-102254673D02*
X126699603Y-102254673D01*
X126699603Y-102254673D02*
X126747222Y-102230864D01*
X126747222Y-102230864D02*
X126771031Y-102207054D01*
X126771031Y-102207054D02*
X126794841Y-102159435D01*
X126794841Y-102159435D02*
X126794841Y-102111816D01*
X126794841Y-102111816D02*
X126771031Y-102064197D01*
X126771031Y-102064197D02*
X126747222Y-102040387D01*
X126747222Y-102040387D02*
X126699603Y-102016578D01*
X126699603Y-102016578D02*
X126604365Y-101992768D01*
X126604365Y-101992768D02*
X126556746Y-101968959D01*
X126556746Y-101968959D02*
X126532936Y-101945149D01*
X126532936Y-101945149D02*
X126509127Y-101897530D01*
X126509127Y-101897530D02*
X126509127Y-101849911D01*
X126509127Y-101849911D02*
X126532936Y-101802292D01*
X126532936Y-101802292D02*
X126556746Y-101778483D01*
X126556746Y-101778483D02*
X126604365Y-101754673D01*
X126604365Y-101754673D02*
X126723412Y-101754673D01*
X126723412Y-101754673D02*
X126794841Y-101778483D01*
X127009126Y-102254673D02*
X127009126Y-101754673D01*
X127009126Y-101754673D02*
X127199602Y-101754673D01*
X127199602Y-101754673D02*
X127247221Y-101778483D01*
X127247221Y-101778483D02*
X127271031Y-101802292D01*
X127271031Y-101802292D02*
X127294840Y-101849911D01*
X127294840Y-101849911D02*
X127294840Y-101921340D01*
X127294840Y-101921340D02*
X127271031Y-101968959D01*
X127271031Y-101968959D02*
X127247221Y-101992768D01*
X127247221Y-101992768D02*
X127199602Y-102016578D01*
X127199602Y-102016578D02*
X127009126Y-102016578D01*
D11*
X121541935Y-112182915D02*
X121741935Y-112782915D01*
X121741935Y-112782915D02*
X121941935Y-112182915D01*
X122484793Y-112725772D02*
X122456221Y-112754344D01*
X122456221Y-112754344D02*
X122370507Y-112782915D01*
X122370507Y-112782915D02*
X122313364Y-112782915D01*
X122313364Y-112782915D02*
X122227650Y-112754344D01*
X122227650Y-112754344D02*
X122170507Y-112697201D01*
X122170507Y-112697201D02*
X122141936Y-112640058D01*
X122141936Y-112640058D02*
X122113364Y-112525772D01*
X122113364Y-112525772D02*
X122113364Y-112440058D01*
X122113364Y-112440058D02*
X122141936Y-112325772D01*
X122141936Y-112325772D02*
X122170507Y-112268629D01*
X122170507Y-112268629D02*
X122227650Y-112211486D01*
X122227650Y-112211486D02*
X122313364Y-112182915D01*
X122313364Y-112182915D02*
X122370507Y-112182915D01*
X122370507Y-112182915D02*
X122456221Y-112211486D01*
X122456221Y-112211486D02*
X122484793Y-112240058D01*
X123084793Y-112725772D02*
X123056221Y-112754344D01*
X123056221Y-112754344D02*
X122970507Y-112782915D01*
X122970507Y-112782915D02*
X122913364Y-112782915D01*
X122913364Y-112782915D02*
X122827650Y-112754344D01*
X122827650Y-112754344D02*
X122770507Y-112697201D01*
X122770507Y-112697201D02*
X122741936Y-112640058D01*
X122741936Y-112640058D02*
X122713364Y-112525772D01*
X122713364Y-112525772D02*
X122713364Y-112440058D01*
X122713364Y-112440058D02*
X122741936Y-112325772D01*
X122741936Y-112325772D02*
X122770507Y-112268629D01*
X122770507Y-112268629D02*
X122827650Y-112211486D01*
X122827650Y-112211486D02*
X122913364Y-112182915D01*
X122913364Y-112182915D02*
X122970507Y-112182915D01*
X122970507Y-112182915D02*
X123056221Y-112211486D01*
X123056221Y-112211486D02*
X123084793Y-112240058D01*
D10*
X127802983Y-104191483D02*
X127755364Y-104167673D01*
X127755364Y-104167673D02*
X127683935Y-104167673D01*
X127683935Y-104167673D02*
X127612507Y-104191483D01*
X127612507Y-104191483D02*
X127564888Y-104239102D01*
X127564888Y-104239102D02*
X127541078Y-104286721D01*
X127541078Y-104286721D02*
X127517269Y-104381959D01*
X127517269Y-104381959D02*
X127517269Y-104453387D01*
X127517269Y-104453387D02*
X127541078Y-104548625D01*
X127541078Y-104548625D02*
X127564888Y-104596244D01*
X127564888Y-104596244D02*
X127612507Y-104643864D01*
X127612507Y-104643864D02*
X127683935Y-104667673D01*
X127683935Y-104667673D02*
X127731554Y-104667673D01*
X127731554Y-104667673D02*
X127802983Y-104643864D01*
X127802983Y-104643864D02*
X127826792Y-104620054D01*
X127826792Y-104620054D02*
X127826792Y-104453387D01*
X127826792Y-104453387D02*
X127731554Y-104453387D01*
X128041078Y-104667673D02*
X128041078Y-104167673D01*
X128041078Y-104167673D02*
X128326792Y-104667673D01*
X128326792Y-104667673D02*
X128326792Y-104167673D01*
X128564888Y-104667673D02*
X128564888Y-104167673D01*
X128564888Y-104167673D02*
X128683936Y-104167673D01*
X128683936Y-104167673D02*
X128755364Y-104191483D01*
X128755364Y-104191483D02*
X128802983Y-104239102D01*
X128802983Y-104239102D02*
X128826793Y-104286721D01*
X128826793Y-104286721D02*
X128850602Y-104381959D01*
X128850602Y-104381959D02*
X128850602Y-104453387D01*
X128850602Y-104453387D02*
X128826793Y-104548625D01*
X128826793Y-104548625D02*
X128802983Y-104596244D01*
X128802983Y-104596244D02*
X128755364Y-104643864D01*
X128755364Y-104643864D02*
X128683936Y-104667673D01*
X128683936Y-104667673D02*
X128564888Y-104667673D01*
D11*
X112590078Y-111258915D02*
X112247221Y-111258915D01*
X112418650Y-111258915D02*
X112418650Y-110658915D01*
X112418650Y-110658915D02*
X112361507Y-110744629D01*
X112361507Y-110744629D02*
X112304364Y-110801772D01*
X112304364Y-110801772D02*
X112247221Y-110830344D01*
X113104365Y-110658915D02*
X112990079Y-110658915D01*
X112990079Y-110658915D02*
X112932936Y-110687486D01*
X112932936Y-110687486D02*
X112904365Y-110716058D01*
X112904365Y-110716058D02*
X112847222Y-110801772D01*
X112847222Y-110801772D02*
X112818650Y-110916058D01*
X112818650Y-110916058D02*
X112818650Y-111144629D01*
X112818650Y-111144629D02*
X112847222Y-111201772D01*
X112847222Y-111201772D02*
X112875793Y-111230344D01*
X112875793Y-111230344D02*
X112932936Y-111258915D01*
X112932936Y-111258915D02*
X113047222Y-111258915D01*
X113047222Y-111258915D02*
X113104365Y-111230344D01*
X113104365Y-111230344D02*
X113132936Y-111201772D01*
X113132936Y-111201772D02*
X113161507Y-111144629D01*
X113161507Y-111144629D02*
X113161507Y-111001772D01*
X113161507Y-111001772D02*
X113132936Y-110944629D01*
X113132936Y-110944629D02*
X113104365Y-110916058D01*
X113104365Y-110916058D02*
X113047222Y-110887486D01*
X113047222Y-110887486D02*
X112932936Y-110887486D01*
X112932936Y-110887486D02*
X112875793Y-110916058D01*
X112875793Y-110916058D02*
X112847222Y-110944629D01*
X112847222Y-110944629D02*
X112818650Y-111001772D01*
X113875794Y-111258915D02*
X113875794Y-110658915D01*
X113875794Y-110658915D02*
X114075794Y-111087486D01*
X114075794Y-111087486D02*
X114275794Y-110658915D01*
X114275794Y-110658915D02*
X114275794Y-111258915D01*
X114561508Y-111258915D02*
X114561508Y-110658915D01*
X114561508Y-110944629D02*
X114904365Y-110944629D01*
X114904365Y-111258915D02*
X114904365Y-110658915D01*
X115132936Y-110858915D02*
X115447222Y-110858915D01*
X115447222Y-110858915D02*
X115132936Y-111258915D01*
X115132936Y-111258915D02*
X115447222Y-111258915D01*
X99596222Y-112382915D02*
X99596222Y-112782915D01*
X99453364Y-112154344D02*
X99310507Y-112582915D01*
X99310507Y-112582915D02*
X99681936Y-112582915D01*
X124781936Y-112782915D02*
X124581936Y-112497201D01*
X124439079Y-112782915D02*
X124439079Y-112182915D01*
X124439079Y-112182915D02*
X124667650Y-112182915D01*
X124667650Y-112182915D02*
X124724793Y-112211486D01*
X124724793Y-112211486D02*
X124753364Y-112240058D01*
X124753364Y-112240058D02*
X124781936Y-112297201D01*
X124781936Y-112297201D02*
X124781936Y-112382915D01*
X124781936Y-112382915D02*
X124753364Y-112440058D01*
X124753364Y-112440058D02*
X124724793Y-112468629D01*
X124724793Y-112468629D02*
X124667650Y-112497201D01*
X124667650Y-112497201D02*
X124439079Y-112497201D01*
X124981936Y-112182915D02*
X125381936Y-112782915D01*
X125381936Y-112182915D02*
X124981936Y-112782915D01*
D10*
X127517270Y-102643673D02*
X127683936Y-103143673D01*
X127683936Y-103143673D02*
X127850603Y-102643673D01*
X128302983Y-103096054D02*
X128279174Y-103119864D01*
X128279174Y-103119864D02*
X128207745Y-103143673D01*
X128207745Y-103143673D02*
X128160126Y-103143673D01*
X128160126Y-103143673D02*
X128088698Y-103119864D01*
X128088698Y-103119864D02*
X128041079Y-103072244D01*
X128041079Y-103072244D02*
X128017269Y-103024625D01*
X128017269Y-103024625D02*
X127993460Y-102929387D01*
X127993460Y-102929387D02*
X127993460Y-102857959D01*
X127993460Y-102857959D02*
X128017269Y-102762721D01*
X128017269Y-102762721D02*
X128041079Y-102715102D01*
X128041079Y-102715102D02*
X128088698Y-102667483D01*
X128088698Y-102667483D02*
X128160126Y-102643673D01*
X128160126Y-102643673D02*
X128207745Y-102643673D01*
X128207745Y-102643673D02*
X128279174Y-102667483D01*
X128279174Y-102667483D02*
X128302983Y-102691292D01*
X128802983Y-103096054D02*
X128779174Y-103119864D01*
X128779174Y-103119864D02*
X128707745Y-103143673D01*
X128707745Y-103143673D02*
X128660126Y-103143673D01*
X128660126Y-103143673D02*
X128588698Y-103119864D01*
X128588698Y-103119864D02*
X128541079Y-103072244D01*
X128541079Y-103072244D02*
X128517269Y-103024625D01*
X128517269Y-103024625D02*
X128493460Y-102929387D01*
X128493460Y-102929387D02*
X128493460Y-102857959D01*
X128493460Y-102857959D02*
X128517269Y-102762721D01*
X128517269Y-102762721D02*
X128541079Y-102715102D01*
X128541079Y-102715102D02*
X128588698Y-102667483D01*
X128588698Y-102667483D02*
X128660126Y-102643673D01*
X128660126Y-102643673D02*
X128707745Y-102643673D01*
X128707745Y-102643673D02*
X128779174Y-102667483D01*
X128779174Y-102667483D02*
X128802983Y-102691292D01*
D11*
X109584793Y-112440058D02*
X109527650Y-112411486D01*
X109527650Y-112411486D02*
X109499079Y-112382915D01*
X109499079Y-112382915D02*
X109470507Y-112325772D01*
X109470507Y-112325772D02*
X109470507Y-112297201D01*
X109470507Y-112297201D02*
X109499079Y-112240058D01*
X109499079Y-112240058D02*
X109527650Y-112211486D01*
X109527650Y-112211486D02*
X109584793Y-112182915D01*
X109584793Y-112182915D02*
X109699079Y-112182915D01*
X109699079Y-112182915D02*
X109756222Y-112211486D01*
X109756222Y-112211486D02*
X109784793Y-112240058D01*
X109784793Y-112240058D02*
X109813364Y-112297201D01*
X109813364Y-112297201D02*
X109813364Y-112325772D01*
X109813364Y-112325772D02*
X109784793Y-112382915D01*
X109784793Y-112382915D02*
X109756222Y-112411486D01*
X109756222Y-112411486D02*
X109699079Y-112440058D01*
X109699079Y-112440058D02*
X109584793Y-112440058D01*
X109584793Y-112440058D02*
X109527650Y-112468629D01*
X109527650Y-112468629D02*
X109499079Y-112497201D01*
X109499079Y-112497201D02*
X109470507Y-112554344D01*
X109470507Y-112554344D02*
X109470507Y-112668629D01*
X109470507Y-112668629D02*
X109499079Y-112725772D01*
X109499079Y-112725772D02*
X109527650Y-112754344D01*
X109527650Y-112754344D02*
X109584793Y-112782915D01*
X109584793Y-112782915D02*
X109699079Y-112782915D01*
X109699079Y-112782915D02*
X109756222Y-112754344D01*
X109756222Y-112754344D02*
X109784793Y-112725772D01*
X109784793Y-112725772D02*
X109813364Y-112668629D01*
X109813364Y-112668629D02*
X109813364Y-112554344D01*
X109813364Y-112554344D02*
X109784793Y-112497201D01*
X109784793Y-112497201D02*
X109756222Y-112468629D01*
X109756222Y-112468629D02*
X109699079Y-112440058D01*
X130489216Y-111728492D02*
X130517787Y-111642778D01*
X130517787Y-111642778D02*
X130517787Y-111499920D01*
X130517787Y-111499920D02*
X130489216Y-111442778D01*
X130489216Y-111442778D02*
X130460644Y-111414206D01*
X130460644Y-111414206D02*
X130403501Y-111385635D01*
X130403501Y-111385635D02*
X130346358Y-111385635D01*
X130346358Y-111385635D02*
X130289216Y-111414206D01*
X130289216Y-111414206D02*
X130260644Y-111442778D01*
X130260644Y-111442778D02*
X130232073Y-111499920D01*
X130232073Y-111499920D02*
X130203501Y-111614206D01*
X130203501Y-111614206D02*
X130174930Y-111671349D01*
X130174930Y-111671349D02*
X130146358Y-111699920D01*
X130146358Y-111699920D02*
X130089216Y-111728492D01*
X130089216Y-111728492D02*
X130032073Y-111728492D01*
X130032073Y-111728492D02*
X129974930Y-111699920D01*
X129974930Y-111699920D02*
X129946358Y-111671349D01*
X129946358Y-111671349D02*
X129917787Y-111614206D01*
X129917787Y-111614206D02*
X129917787Y-111471349D01*
X129917787Y-111471349D02*
X129946358Y-111385635D01*
X130460644Y-110785634D02*
X130489216Y-110814206D01*
X130489216Y-110814206D02*
X130517787Y-110899920D01*
X130517787Y-110899920D02*
X130517787Y-110957063D01*
X130517787Y-110957063D02*
X130489216Y-111042777D01*
X130489216Y-111042777D02*
X130432073Y-111099920D01*
X130432073Y-111099920D02*
X130374930Y-111128491D01*
X130374930Y-111128491D02*
X130260644Y-111157063D01*
X130260644Y-111157063D02*
X130174930Y-111157063D01*
X130174930Y-111157063D02*
X130060644Y-111128491D01*
X130060644Y-111128491D02*
X130003501Y-111099920D01*
X130003501Y-111099920D02*
X129946358Y-111042777D01*
X129946358Y-111042777D02*
X129917787Y-110957063D01*
X129917787Y-110957063D02*
X129917787Y-110899920D01*
X129917787Y-110899920D02*
X129946358Y-110814206D01*
X129946358Y-110814206D02*
X129974930Y-110785634D01*
X130517787Y-110528491D02*
X129917787Y-110528491D01*
X130517787Y-110185634D02*
X130174930Y-110442777D01*
X129917787Y-110185634D02*
X130260644Y-110528491D01*
X121575222Y-91797915D02*
X121289508Y-91797915D01*
X121289508Y-91797915D02*
X121289508Y-91197915D01*
X121775222Y-91483629D02*
X121975222Y-91483629D01*
X122060936Y-91797915D02*
X121775222Y-91797915D01*
X121775222Y-91797915D02*
X121775222Y-91197915D01*
X121775222Y-91197915D02*
X122060936Y-91197915D01*
X122318079Y-91797915D02*
X122318079Y-91197915D01*
X122318079Y-91197915D02*
X122460936Y-91197915D01*
X122460936Y-91197915D02*
X122546650Y-91226486D01*
X122546650Y-91226486D02*
X122603793Y-91283629D01*
X122603793Y-91283629D02*
X122632364Y-91340772D01*
X122632364Y-91340772D02*
X122660936Y-91455058D01*
X122660936Y-91455058D02*
X122660936Y-91540772D01*
X122660936Y-91540772D02*
X122632364Y-91655058D01*
X122632364Y-91655058D02*
X122603793Y-91712201D01*
X122603793Y-91712201D02*
X122546650Y-91769344D01*
X122546650Y-91769344D02*
X122460936Y-91797915D01*
X122460936Y-91797915D02*
X122318079Y-91797915D01*
X126020222Y-91797915D02*
X125734508Y-91797915D01*
X125734508Y-91797915D02*
X125734508Y-91197915D01*
X126220222Y-91483629D02*
X126420222Y-91483629D01*
X126505936Y-91797915D02*
X126220222Y-91797915D01*
X126220222Y-91797915D02*
X126220222Y-91197915D01*
X126220222Y-91197915D02*
X126505936Y-91197915D01*
X126763079Y-91797915D02*
X126763079Y-91197915D01*
X126763079Y-91197915D02*
X126905936Y-91197915D01*
X126905936Y-91197915D02*
X126991650Y-91226486D01*
X126991650Y-91226486D02*
X127048793Y-91283629D01*
X127048793Y-91283629D02*
X127077364Y-91340772D01*
X127077364Y-91340772D02*
X127105936Y-91455058D01*
X127105936Y-91455058D02*
X127105936Y-91540772D01*
X127105936Y-91540772D02*
X127077364Y-91655058D01*
X127077364Y-91655058D02*
X127048793Y-91712201D01*
X127048793Y-91712201D02*
X126991650Y-91769344D01*
X126991650Y-91769344D02*
X126905936Y-91797915D01*
X126905936Y-91797915D02*
X126763079Y-91797915D01*
X92832358Y-100238206D02*
X92803787Y-100295349D01*
X92803787Y-100295349D02*
X92803787Y-100381063D01*
X92803787Y-100381063D02*
X92832358Y-100466777D01*
X92832358Y-100466777D02*
X92889501Y-100523920D01*
X92889501Y-100523920D02*
X92946644Y-100552491D01*
X92946644Y-100552491D02*
X93060930Y-100581063D01*
X93060930Y-100581063D02*
X93146644Y-100581063D01*
X93146644Y-100581063D02*
X93260930Y-100552491D01*
X93260930Y-100552491D02*
X93318073Y-100523920D01*
X93318073Y-100523920D02*
X93375216Y-100466777D01*
X93375216Y-100466777D02*
X93403787Y-100381063D01*
X93403787Y-100381063D02*
X93403787Y-100323920D01*
X93403787Y-100323920D02*
X93375216Y-100238206D01*
X93375216Y-100238206D02*
X93346644Y-100209634D01*
X93346644Y-100209634D02*
X93146644Y-100209634D01*
X93146644Y-100209634D02*
X93146644Y-100323920D01*
X93403787Y-99952491D02*
X92803787Y-99952491D01*
X92803787Y-99952491D02*
X93403787Y-99609634D01*
X93403787Y-99609634D02*
X92803787Y-99609634D01*
X93403787Y-99323920D02*
X92803787Y-99323920D01*
X92803787Y-99323920D02*
X92803787Y-99181063D01*
X92803787Y-99181063D02*
X92832358Y-99095349D01*
X92832358Y-99095349D02*
X92889501Y-99038206D01*
X92889501Y-99038206D02*
X92946644Y-99009635D01*
X92946644Y-99009635D02*
X93060930Y-98981063D01*
X93060930Y-98981063D02*
X93146644Y-98981063D01*
X93146644Y-98981063D02*
X93260930Y-99009635D01*
X93260930Y-99009635D02*
X93318073Y-99038206D01*
X93318073Y-99038206D02*
X93375216Y-99095349D01*
X93375216Y-99095349D02*
X93403787Y-99181063D01*
X93403787Y-99181063D02*
X93403787Y-99323920D01*
D10*
X126455820Y-103224396D02*
X126455820Y-102510110D01*
X126455820Y-104029368D02*
X126455820Y-103315082D01*
X126455820Y-104834340D02*
X126455820Y-104120054D01*
D11*
X91846358Y-116129063D02*
X91817787Y-116186206D01*
X91817787Y-116186206D02*
X91817787Y-116271920D01*
X91817787Y-116271920D02*
X91846358Y-116357634D01*
X91846358Y-116357634D02*
X91903501Y-116414777D01*
X91903501Y-116414777D02*
X91960644Y-116443348D01*
X91960644Y-116443348D02*
X92074930Y-116471920D01*
X92074930Y-116471920D02*
X92160644Y-116471920D01*
X92160644Y-116471920D02*
X92274930Y-116443348D01*
X92274930Y-116443348D02*
X92332073Y-116414777D01*
X92332073Y-116414777D02*
X92389216Y-116357634D01*
X92389216Y-116357634D02*
X92417787Y-116271920D01*
X92417787Y-116271920D02*
X92417787Y-116214777D01*
X92417787Y-116214777D02*
X92389216Y-116129063D01*
X92389216Y-116129063D02*
X92360644Y-116100491D01*
X92360644Y-116100491D02*
X92160644Y-116100491D01*
X92160644Y-116100491D02*
X92160644Y-116214777D01*
X92417787Y-115843348D02*
X91817787Y-115843348D01*
X91817787Y-115843348D02*
X91817787Y-115614777D01*
X91817787Y-115614777D02*
X91846358Y-115557634D01*
X91846358Y-115557634D02*
X91874930Y-115529063D01*
X91874930Y-115529063D02*
X91932073Y-115500491D01*
X91932073Y-115500491D02*
X92017787Y-115500491D01*
X92017787Y-115500491D02*
X92074930Y-115529063D01*
X92074930Y-115529063D02*
X92103501Y-115557634D01*
X92103501Y-115557634D02*
X92132073Y-115614777D01*
X92132073Y-115614777D02*
X92132073Y-115843348D01*
X92417787Y-115243348D02*
X91817787Y-115243348D01*
X91817787Y-114843349D02*
X91817787Y-114729063D01*
X91817787Y-114729063D02*
X91846358Y-114671920D01*
X91846358Y-114671920D02*
X91903501Y-114614777D01*
X91903501Y-114614777D02*
X92017787Y-114586206D01*
X92017787Y-114586206D02*
X92217787Y-114586206D01*
X92217787Y-114586206D02*
X92332073Y-114614777D01*
X92332073Y-114614777D02*
X92389216Y-114671920D01*
X92389216Y-114671920D02*
X92417787Y-114729063D01*
X92417787Y-114729063D02*
X92417787Y-114843349D01*
X92417787Y-114843349D02*
X92389216Y-114900492D01*
X92389216Y-114900492D02*
X92332073Y-114957634D01*
X92332073Y-114957634D02*
X92217787Y-114986206D01*
X92217787Y-114986206D02*
X92017787Y-114986206D01*
X92017787Y-114986206D02*
X91903501Y-114957634D01*
X91903501Y-114957634D02*
X91846358Y-114900492D01*
X91846358Y-114900492D02*
X91817787Y-114843349D01*
X119828936Y-103100915D02*
X119628936Y-102815201D01*
X119486079Y-103100915D02*
X119486079Y-102500915D01*
X119486079Y-102500915D02*
X119714650Y-102500915D01*
X119714650Y-102500915D02*
X119771793Y-102529486D01*
X119771793Y-102529486D02*
X119800364Y-102558058D01*
X119800364Y-102558058D02*
X119828936Y-102615201D01*
X119828936Y-102615201D02*
X119828936Y-102700915D01*
X119828936Y-102700915D02*
X119800364Y-102758058D01*
X119800364Y-102758058D02*
X119771793Y-102786629D01*
X119771793Y-102786629D02*
X119714650Y-102815201D01*
X119714650Y-102815201D02*
X119486079Y-102815201D01*
X120028936Y-102500915D02*
X120400364Y-102500915D01*
X120400364Y-102500915D02*
X120200364Y-102729486D01*
X120200364Y-102729486D02*
X120286079Y-102729486D01*
X120286079Y-102729486D02*
X120343222Y-102758058D01*
X120343222Y-102758058D02*
X120371793Y-102786629D01*
X120371793Y-102786629D02*
X120400364Y-102843772D01*
X120400364Y-102843772D02*
X120400364Y-102986629D01*
X120400364Y-102986629D02*
X120371793Y-103043772D01*
X120371793Y-103043772D02*
X120343222Y-103072344D01*
X120343222Y-103072344D02*
X120286079Y-103100915D01*
X120286079Y-103100915D02*
X120114650Y-103100915D01*
X120114650Y-103100915D02*
X120057507Y-103072344D01*
X120057507Y-103072344D02*
X120028936Y-103043772D01*
X123931079Y-91797915D02*
X123931079Y-91197915D01*
X123931079Y-91197915D02*
X124073936Y-91197915D01*
X124073936Y-91197915D02*
X124159650Y-91226486D01*
X124159650Y-91226486D02*
X124216793Y-91283629D01*
X124216793Y-91283629D02*
X124245364Y-91340772D01*
X124245364Y-91340772D02*
X124273936Y-91455058D01*
X124273936Y-91455058D02*
X124273936Y-91540772D01*
X124273936Y-91540772D02*
X124245364Y-91655058D01*
X124245364Y-91655058D02*
X124216793Y-91712201D01*
X124216793Y-91712201D02*
X124159650Y-91769344D01*
X124159650Y-91769344D02*
X124073936Y-91797915D01*
X124073936Y-91797915D02*
X123931079Y-91797915D01*
X124845364Y-91797915D02*
X124502507Y-91797915D01*
X124673936Y-91797915D02*
X124673936Y-91197915D01*
X124673936Y-91197915D02*
X124616793Y-91283629D01*
X124616793Y-91283629D02*
X124559650Y-91340772D01*
X124559650Y-91340772D02*
X124502507Y-91369344D01*
X99762936Y-111990915D02*
X99562936Y-111705201D01*
X99420079Y-111990915D02*
X99420079Y-111390915D01*
X99420079Y-111390915D02*
X99648650Y-111390915D01*
X99648650Y-111390915D02*
X99705793Y-111419486D01*
X99705793Y-111419486D02*
X99734364Y-111448058D01*
X99734364Y-111448058D02*
X99762936Y-111505201D01*
X99762936Y-111505201D02*
X99762936Y-111590915D01*
X99762936Y-111590915D02*
X99734364Y-111648058D01*
X99734364Y-111648058D02*
X99705793Y-111676629D01*
X99705793Y-111676629D02*
X99648650Y-111705201D01*
X99648650Y-111705201D02*
X99420079Y-111705201D01*
X99991507Y-111448058D02*
X100020079Y-111419486D01*
X100020079Y-111419486D02*
X100077222Y-111390915D01*
X100077222Y-111390915D02*
X100220079Y-111390915D01*
X100220079Y-111390915D02*
X100277222Y-111419486D01*
X100277222Y-111419486D02*
X100305793Y-111448058D01*
X100305793Y-111448058D02*
X100334364Y-111505201D01*
X100334364Y-111505201D02*
X100334364Y-111562344D01*
X100334364Y-111562344D02*
X100305793Y-111648058D01*
X100305793Y-111648058D02*
X99962936Y-111990915D01*
X99962936Y-111990915D02*
X100334364Y-111990915D01*
X127397281Y-91959915D02*
X127397281Y-92388486D01*
X127397281Y-92388486D02*
X127368710Y-92474201D01*
X127368710Y-92474201D02*
X127311567Y-92531344D01*
X127311567Y-92531344D02*
X127225853Y-92559915D01*
X127225853Y-92559915D02*
X127168710Y-92559915D01*
X127940139Y-92159915D02*
X127940139Y-92559915D01*
X127797281Y-91931344D02*
X127654424Y-92359915D01*
X127654424Y-92359915D02*
X128025853Y-92359915D01*
X119828936Y-106853772D02*
X119800364Y-106882344D01*
X119800364Y-106882344D02*
X119714650Y-106910915D01*
X119714650Y-106910915D02*
X119657507Y-106910915D01*
X119657507Y-106910915D02*
X119571793Y-106882344D01*
X119571793Y-106882344D02*
X119514650Y-106825201D01*
X119514650Y-106825201D02*
X119486079Y-106768058D01*
X119486079Y-106768058D02*
X119457507Y-106653772D01*
X119457507Y-106653772D02*
X119457507Y-106568058D01*
X119457507Y-106568058D02*
X119486079Y-106453772D01*
X119486079Y-106453772D02*
X119514650Y-106396629D01*
X119514650Y-106396629D02*
X119571793Y-106339486D01*
X119571793Y-106339486D02*
X119657507Y-106310915D01*
X119657507Y-106310915D02*
X119714650Y-106310915D01*
X119714650Y-106310915D02*
X119800364Y-106339486D01*
X119800364Y-106339486D02*
X119828936Y-106368058D01*
X120057507Y-106368058D02*
X120086079Y-106339486D01*
X120086079Y-106339486D02*
X120143222Y-106310915D01*
X120143222Y-106310915D02*
X120286079Y-106310915D01*
X120286079Y-106310915D02*
X120343222Y-106339486D01*
X120343222Y-106339486D02*
X120371793Y-106368058D01*
X120371793Y-106368058D02*
X120400364Y-106425201D01*
X120400364Y-106425201D02*
X120400364Y-106482344D01*
X120400364Y-106482344D02*
X120371793Y-106568058D01*
X120371793Y-106568058D02*
X120028936Y-106910915D01*
X120028936Y-106910915D02*
X120400364Y-106910915D01*
X119828936Y-110663772D02*
X119800364Y-110692344D01*
X119800364Y-110692344D02*
X119714650Y-110720915D01*
X119714650Y-110720915D02*
X119657507Y-110720915D01*
X119657507Y-110720915D02*
X119571793Y-110692344D01*
X119571793Y-110692344D02*
X119514650Y-110635201D01*
X119514650Y-110635201D02*
X119486079Y-110578058D01*
X119486079Y-110578058D02*
X119457507Y-110463772D01*
X119457507Y-110463772D02*
X119457507Y-110378058D01*
X119457507Y-110378058D02*
X119486079Y-110263772D01*
X119486079Y-110263772D02*
X119514650Y-110206629D01*
X119514650Y-110206629D02*
X119571793Y-110149486D01*
X119571793Y-110149486D02*
X119657507Y-110120915D01*
X119657507Y-110120915D02*
X119714650Y-110120915D01*
X119714650Y-110120915D02*
X119800364Y-110149486D01*
X119800364Y-110149486D02*
X119828936Y-110178058D01*
X120343222Y-110320915D02*
X120343222Y-110720915D01*
X120200364Y-110092344D02*
X120057507Y-110520915D01*
X120057507Y-110520915D02*
X120428936Y-110520915D01*
X109541936Y-91740772D02*
X109513364Y-91769344D01*
X109513364Y-91769344D02*
X109427650Y-91797915D01*
X109427650Y-91797915D02*
X109370507Y-91797915D01*
X109370507Y-91797915D02*
X109284793Y-91769344D01*
X109284793Y-91769344D02*
X109227650Y-91712201D01*
X109227650Y-91712201D02*
X109199079Y-91655058D01*
X109199079Y-91655058D02*
X109170507Y-91540772D01*
X109170507Y-91540772D02*
X109170507Y-91455058D01*
X109170507Y-91455058D02*
X109199079Y-91340772D01*
X109199079Y-91340772D02*
X109227650Y-91283629D01*
X109227650Y-91283629D02*
X109284793Y-91226486D01*
X109284793Y-91226486D02*
X109370507Y-91197915D01*
X109370507Y-91197915D02*
X109427650Y-91197915D01*
X109427650Y-91197915D02*
X109513364Y-91226486D01*
X109513364Y-91226486D02*
X109541936Y-91255058D01*
X109741936Y-91197915D02*
X110113364Y-91197915D01*
X110113364Y-91197915D02*
X109913364Y-91426486D01*
X109913364Y-91426486D02*
X109999079Y-91426486D01*
X109999079Y-91426486D02*
X110056222Y-91455058D01*
X110056222Y-91455058D02*
X110084793Y-91483629D01*
X110084793Y-91483629D02*
X110113364Y-91540772D01*
X110113364Y-91540772D02*
X110113364Y-91683629D01*
X110113364Y-91683629D02*
X110084793Y-91740772D01*
X110084793Y-91740772D02*
X110056222Y-91769344D01*
X110056222Y-91769344D02*
X109999079Y-91797915D01*
X109999079Y-91797915D02*
X109827650Y-91797915D01*
X109827650Y-91797915D02*
X109770507Y-91769344D01*
X109770507Y-91769344D02*
X109741936Y-91740772D01*
X124273936Y-95480915D02*
X124073936Y-95195201D01*
X123931079Y-95480915D02*
X123931079Y-94880915D01*
X123931079Y-94880915D02*
X124159650Y-94880915D01*
X124159650Y-94880915D02*
X124216793Y-94909486D01*
X124216793Y-94909486D02*
X124245364Y-94938058D01*
X124245364Y-94938058D02*
X124273936Y-94995201D01*
X124273936Y-94995201D02*
X124273936Y-95080915D01*
X124273936Y-95080915D02*
X124245364Y-95138058D01*
X124245364Y-95138058D02*
X124216793Y-95166629D01*
X124216793Y-95166629D02*
X124159650Y-95195201D01*
X124159650Y-95195201D02*
X123931079Y-95195201D01*
X124816793Y-94880915D02*
X124531079Y-94880915D01*
X124531079Y-94880915D02*
X124502507Y-95166629D01*
X124502507Y-95166629D02*
X124531079Y-95138058D01*
X124531079Y-95138058D02*
X124588222Y-95109486D01*
X124588222Y-95109486D02*
X124731079Y-95109486D01*
X124731079Y-95109486D02*
X124788222Y-95138058D01*
X124788222Y-95138058D02*
X124816793Y-95166629D01*
X124816793Y-95166629D02*
X124845364Y-95223772D01*
X124845364Y-95223772D02*
X124845364Y-95366629D01*
X124845364Y-95366629D02*
X124816793Y-95423772D01*
X124816793Y-95423772D02*
X124788222Y-95452344D01*
X124788222Y-95452344D02*
X124731079Y-95480915D01*
X124731079Y-95480915D02*
X124588222Y-95480915D01*
X124588222Y-95480915D02*
X124531079Y-95452344D01*
X124531079Y-95452344D02*
X124502507Y-95423772D01*
X94198793Y-95261915D02*
X94198793Y-95747629D01*
X94198793Y-95747629D02*
X94227364Y-95804772D01*
X94227364Y-95804772D02*
X94255936Y-95833344D01*
X94255936Y-95833344D02*
X94313078Y-95861915D01*
X94313078Y-95861915D02*
X94427364Y-95861915D01*
X94427364Y-95861915D02*
X94484507Y-95833344D01*
X94484507Y-95833344D02*
X94513078Y-95804772D01*
X94513078Y-95804772D02*
X94541650Y-95747629D01*
X94541650Y-95747629D02*
X94541650Y-95261915D01*
X95141649Y-95861915D02*
X94798792Y-95861915D01*
X94970221Y-95861915D02*
X94970221Y-95261915D01*
X94970221Y-95261915D02*
X94913078Y-95347629D01*
X94913078Y-95347629D02*
X94855935Y-95404772D01*
X94855935Y-95404772D02*
X94798792Y-95433344D01*
X119828936Y-95480915D02*
X119628936Y-95195201D01*
X119486079Y-95480915D02*
X119486079Y-94880915D01*
X119486079Y-94880915D02*
X119714650Y-94880915D01*
X119714650Y-94880915D02*
X119771793Y-94909486D01*
X119771793Y-94909486D02*
X119800364Y-94938058D01*
X119800364Y-94938058D02*
X119828936Y-94995201D01*
X119828936Y-94995201D02*
X119828936Y-95080915D01*
X119828936Y-95080915D02*
X119800364Y-95138058D01*
X119800364Y-95138058D02*
X119771793Y-95166629D01*
X119771793Y-95166629D02*
X119714650Y-95195201D01*
X119714650Y-95195201D02*
X119486079Y-95195201D01*
X120028936Y-94880915D02*
X120428936Y-94880915D01*
X120428936Y-94880915D02*
X120171793Y-95480915D01*
X119486079Y-91797915D02*
X119486079Y-91197915D01*
X119486079Y-91197915D02*
X119628936Y-91197915D01*
X119628936Y-91197915D02*
X119714650Y-91226486D01*
X119714650Y-91226486D02*
X119771793Y-91283629D01*
X119771793Y-91283629D02*
X119800364Y-91340772D01*
X119800364Y-91340772D02*
X119828936Y-91455058D01*
X119828936Y-91455058D02*
X119828936Y-91540772D01*
X119828936Y-91540772D02*
X119800364Y-91655058D01*
X119800364Y-91655058D02*
X119771793Y-91712201D01*
X119771793Y-91712201D02*
X119714650Y-91769344D01*
X119714650Y-91769344D02*
X119628936Y-91797915D01*
X119628936Y-91797915D02*
X119486079Y-91797915D01*
X120057507Y-91255058D02*
X120086079Y-91226486D01*
X120086079Y-91226486D02*
X120143222Y-91197915D01*
X120143222Y-91197915D02*
X120286079Y-91197915D01*
X120286079Y-91197915D02*
X120343222Y-91226486D01*
X120343222Y-91226486D02*
X120371793Y-91255058D01*
X120371793Y-91255058D02*
X120400364Y-91312201D01*
X120400364Y-91312201D02*
X120400364Y-91369344D01*
X120400364Y-91369344D02*
X120371793Y-91455058D01*
X120371793Y-91455058D02*
X120028936Y-91797915D01*
X120028936Y-91797915D02*
X120400364Y-91797915D01*
X93753073Y-111496778D02*
X94038787Y-111496778D01*
X93438787Y-111696778D02*
X93753073Y-111496778D01*
X93753073Y-111496778D02*
X93438787Y-111296778D01*
X94038787Y-110782492D02*
X94038787Y-111125349D01*
X94038787Y-110953920D02*
X93438787Y-110953920D01*
X93438787Y-110953920D02*
X93524501Y-111011063D01*
X93524501Y-111011063D02*
X93581644Y-111068206D01*
X93581644Y-111068206D02*
X93610216Y-111125349D01*
X117237281Y-112152915D02*
X117237281Y-112581486D01*
X117237281Y-112581486D02*
X117208710Y-112667201D01*
X117208710Y-112667201D02*
X117151567Y-112724344D01*
X117151567Y-112724344D02*
X117065853Y-112752915D01*
X117065853Y-112752915D02*
X117008710Y-112752915D01*
X117465853Y-112152915D02*
X117837281Y-112152915D01*
X117837281Y-112152915D02*
X117637281Y-112381486D01*
X117637281Y-112381486D02*
X117722996Y-112381486D01*
X117722996Y-112381486D02*
X117780139Y-112410058D01*
X117780139Y-112410058D02*
X117808710Y-112438629D01*
X117808710Y-112438629D02*
X117837281Y-112495772D01*
X117837281Y-112495772D02*
X117837281Y-112638629D01*
X117837281Y-112638629D02*
X117808710Y-112695772D01*
X117808710Y-112695772D02*
X117780139Y-112724344D01*
X117780139Y-112724344D02*
X117722996Y-112752915D01*
X117722996Y-112752915D02*
X117551567Y-112752915D01*
X117551567Y-112752915D02*
X117494424Y-112724344D01*
X117494424Y-112724344D02*
X117465853Y-112695772D01*
X114621936Y-91740772D02*
X114593364Y-91769344D01*
X114593364Y-91769344D02*
X114507650Y-91797915D01*
X114507650Y-91797915D02*
X114450507Y-91797915D01*
X114450507Y-91797915D02*
X114364793Y-91769344D01*
X114364793Y-91769344D02*
X114307650Y-91712201D01*
X114307650Y-91712201D02*
X114279079Y-91655058D01*
X114279079Y-91655058D02*
X114250507Y-91540772D01*
X114250507Y-91540772D02*
X114250507Y-91455058D01*
X114250507Y-91455058D02*
X114279079Y-91340772D01*
X114279079Y-91340772D02*
X114307650Y-91283629D01*
X114307650Y-91283629D02*
X114364793Y-91226486D01*
X114364793Y-91226486D02*
X114450507Y-91197915D01*
X114450507Y-91197915D02*
X114507650Y-91197915D01*
X114507650Y-91197915D02*
X114593364Y-91226486D01*
X114593364Y-91226486D02*
X114621936Y-91255058D01*
X115164793Y-91197915D02*
X114879079Y-91197915D01*
X114879079Y-91197915D02*
X114850507Y-91483629D01*
X114850507Y-91483629D02*
X114879079Y-91455058D01*
X114879079Y-91455058D02*
X114936222Y-91426486D01*
X114936222Y-91426486D02*
X115079079Y-91426486D01*
X115079079Y-91426486D02*
X115136222Y-91455058D01*
X115136222Y-91455058D02*
X115164793Y-91483629D01*
X115164793Y-91483629D02*
X115193364Y-91540772D01*
X115193364Y-91540772D02*
X115193364Y-91683629D01*
X115193364Y-91683629D02*
X115164793Y-91740772D01*
X115164793Y-91740772D02*
X115136222Y-91769344D01*
X115136222Y-91769344D02*
X115079079Y-91797915D01*
X115079079Y-91797915D02*
X114936222Y-91797915D01*
X114936222Y-91797915D02*
X114879079Y-91769344D01*
X114879079Y-91769344D02*
X114850507Y-91740772D01*
X106517793Y-93610915D02*
X106517793Y-94096629D01*
X106517793Y-94096629D02*
X106546364Y-94153772D01*
X106546364Y-94153772D02*
X106574936Y-94182344D01*
X106574936Y-94182344D02*
X106632078Y-94210915D01*
X106632078Y-94210915D02*
X106746364Y-94210915D01*
X106746364Y-94210915D02*
X106803507Y-94182344D01*
X106803507Y-94182344D02*
X106832078Y-94153772D01*
X106832078Y-94153772D02*
X106860650Y-94096629D01*
X106860650Y-94096629D02*
X106860650Y-93610915D01*
X107403507Y-93810915D02*
X107403507Y-94210915D01*
X107260649Y-93582344D02*
X107117792Y-94010915D01*
X107117792Y-94010915D02*
X107489221Y-94010915D01*
X119828936Y-99290915D02*
X119628936Y-99005201D01*
X119486079Y-99290915D02*
X119486079Y-98690915D01*
X119486079Y-98690915D02*
X119714650Y-98690915D01*
X119714650Y-98690915D02*
X119771793Y-98719486D01*
X119771793Y-98719486D02*
X119800364Y-98748058D01*
X119800364Y-98748058D02*
X119828936Y-98805201D01*
X119828936Y-98805201D02*
X119828936Y-98890915D01*
X119828936Y-98890915D02*
X119800364Y-98948058D01*
X119800364Y-98948058D02*
X119771793Y-98976629D01*
X119771793Y-98976629D02*
X119714650Y-99005201D01*
X119714650Y-99005201D02*
X119486079Y-99005201D01*
X120343222Y-98890915D02*
X120343222Y-99290915D01*
X120200364Y-98662344D02*
X120057507Y-99090915D01*
X120057507Y-99090915D02*
X120428936Y-99090915D01*
X129887787Y-113521718D02*
X130316358Y-113521718D01*
X130316358Y-113521718D02*
X130402073Y-113550289D01*
X130402073Y-113550289D02*
X130459216Y-113607432D01*
X130459216Y-113607432D02*
X130487787Y-113693146D01*
X130487787Y-113693146D02*
X130487787Y-113750289D01*
X130487787Y-112921718D02*
X130487787Y-113264575D01*
X130487787Y-113093146D02*
X129887787Y-113093146D01*
X129887787Y-113093146D02*
X129973501Y-113150289D01*
X129973501Y-113150289D02*
X130030644Y-113207432D01*
X130030644Y-113207432D02*
X130059216Y-113264575D01*
X106689221Y-110943201D02*
X106689221Y-111228915D01*
X106489221Y-110628915D02*
X106689221Y-110943201D01*
X106689221Y-110943201D02*
X106889221Y-110628915D01*
X107060650Y-110686058D02*
X107089222Y-110657486D01*
X107089222Y-110657486D02*
X107146365Y-110628915D01*
X107146365Y-110628915D02*
X107289222Y-110628915D01*
X107289222Y-110628915D02*
X107346365Y-110657486D01*
X107346365Y-110657486D02*
X107374936Y-110686058D01*
X107374936Y-110686058D02*
X107403507Y-110743201D01*
X107403507Y-110743201D02*
X107403507Y-110800344D01*
X107403507Y-110800344D02*
X107374936Y-110886058D01*
X107374936Y-110886058D02*
X107032079Y-111228915D01*
X107032079Y-111228915D02*
X107403507Y-111228915D01*
X105096936Y-91740772D02*
X105068364Y-91769344D01*
X105068364Y-91769344D02*
X104982650Y-91797915D01*
X104982650Y-91797915D02*
X104925507Y-91797915D01*
X104925507Y-91797915D02*
X104839793Y-91769344D01*
X104839793Y-91769344D02*
X104782650Y-91712201D01*
X104782650Y-91712201D02*
X104754079Y-91655058D01*
X104754079Y-91655058D02*
X104725507Y-91540772D01*
X104725507Y-91540772D02*
X104725507Y-91455058D01*
X104725507Y-91455058D02*
X104754079Y-91340772D01*
X104754079Y-91340772D02*
X104782650Y-91283629D01*
X104782650Y-91283629D02*
X104839793Y-91226486D01*
X104839793Y-91226486D02*
X104925507Y-91197915D01*
X104925507Y-91197915D02*
X104982650Y-91197915D01*
X104982650Y-91197915D02*
X105068364Y-91226486D01*
X105068364Y-91226486D02*
X105096936Y-91255058D01*
X105668364Y-91797915D02*
X105325507Y-91797915D01*
X105496936Y-91797915D02*
X105496936Y-91197915D01*
X105496936Y-91197915D02*
X105439793Y-91283629D01*
X105439793Y-91283629D02*
X105382650Y-91340772D01*
X105382650Y-91340772D02*
X105325507Y-91369344D01*
X91837281Y-112152915D02*
X91837281Y-112581486D01*
X91837281Y-112581486D02*
X91808710Y-112667201D01*
X91808710Y-112667201D02*
X91751567Y-112724344D01*
X91751567Y-112724344D02*
X91665853Y-112752915D01*
X91665853Y-112752915D02*
X91608710Y-112752915D01*
X92094424Y-112210058D02*
X92122996Y-112181486D01*
X92122996Y-112181486D02*
X92180139Y-112152915D01*
X92180139Y-112152915D02*
X92322996Y-112152915D01*
X92322996Y-112152915D02*
X92380139Y-112181486D01*
X92380139Y-112181486D02*
X92408710Y-112210058D01*
X92408710Y-112210058D02*
X92437281Y-112267201D01*
X92437281Y-112267201D02*
X92437281Y-112324344D01*
X92437281Y-112324344D02*
X92408710Y-112410058D01*
X92408710Y-112410058D02*
X92065853Y-112752915D01*
X92065853Y-112752915D02*
X92437281Y-112752915D01*
X95952936Y-111990915D02*
X95752936Y-111705201D01*
X95610079Y-111990915D02*
X95610079Y-111390915D01*
X95610079Y-111390915D02*
X95838650Y-111390915D01*
X95838650Y-111390915D02*
X95895793Y-111419486D01*
X95895793Y-111419486D02*
X95924364Y-111448058D01*
X95924364Y-111448058D02*
X95952936Y-111505201D01*
X95952936Y-111505201D02*
X95952936Y-111590915D01*
X95952936Y-111590915D02*
X95924364Y-111648058D01*
X95924364Y-111648058D02*
X95895793Y-111676629D01*
X95895793Y-111676629D02*
X95838650Y-111705201D01*
X95838650Y-111705201D02*
X95610079Y-111705201D01*
X96524364Y-111990915D02*
X96181507Y-111990915D01*
X96352936Y-111990915D02*
X96352936Y-111390915D01*
X96352936Y-111390915D02*
X96295793Y-111476629D01*
X96295793Y-111476629D02*
X96238650Y-111533772D01*
X96238650Y-111533772D02*
X96181507Y-111562344D01*
X92801793Y-89927915D02*
X92801793Y-90413629D01*
X92801793Y-90413629D02*
X92830364Y-90470772D01*
X92830364Y-90470772D02*
X92858936Y-90499344D01*
X92858936Y-90499344D02*
X92916078Y-90527915D01*
X92916078Y-90527915D02*
X93030364Y-90527915D01*
X93030364Y-90527915D02*
X93087507Y-90499344D01*
X93087507Y-90499344D02*
X93116078Y-90470772D01*
X93116078Y-90470772D02*
X93144650Y-90413629D01*
X93144650Y-90413629D02*
X93144650Y-89927915D01*
X93373221Y-89927915D02*
X93744649Y-89927915D01*
X93744649Y-89927915D02*
X93544649Y-90156486D01*
X93544649Y-90156486D02*
X93630364Y-90156486D01*
X93630364Y-90156486D02*
X93687507Y-90185058D01*
X93687507Y-90185058D02*
X93716078Y-90213629D01*
X93716078Y-90213629D02*
X93744649Y-90270772D01*
X93744649Y-90270772D02*
X93744649Y-90413629D01*
X93744649Y-90413629D02*
X93716078Y-90470772D01*
X93716078Y-90470772D02*
X93687507Y-90499344D01*
X93687507Y-90499344D02*
X93630364Y-90527915D01*
X93630364Y-90527915D02*
X93458935Y-90527915D01*
X93458935Y-90527915D02*
X93401792Y-90499344D01*
X93401792Y-90499344D02*
X93373221Y-90470772D01*
X124273936Y-99290915D02*
X124073936Y-99005201D01*
X123931079Y-99290915D02*
X123931079Y-98690915D01*
X123931079Y-98690915D02*
X124159650Y-98690915D01*
X124159650Y-98690915D02*
X124216793Y-98719486D01*
X124216793Y-98719486D02*
X124245364Y-98748058D01*
X124245364Y-98748058D02*
X124273936Y-98805201D01*
X124273936Y-98805201D02*
X124273936Y-98890915D01*
X124273936Y-98890915D02*
X124245364Y-98948058D01*
X124245364Y-98948058D02*
X124216793Y-98976629D01*
X124216793Y-98976629D02*
X124159650Y-99005201D01*
X124159650Y-99005201D02*
X123931079Y-99005201D01*
X124788222Y-98690915D02*
X124673936Y-98690915D01*
X124673936Y-98690915D02*
X124616793Y-98719486D01*
X124616793Y-98719486D02*
X124588222Y-98748058D01*
X124588222Y-98748058D02*
X124531079Y-98833772D01*
X124531079Y-98833772D02*
X124502507Y-98948058D01*
X124502507Y-98948058D02*
X124502507Y-99176629D01*
X124502507Y-99176629D02*
X124531079Y-99233772D01*
X124531079Y-99233772D02*
X124559650Y-99262344D01*
X124559650Y-99262344D02*
X124616793Y-99290915D01*
X124616793Y-99290915D02*
X124731079Y-99290915D01*
X124731079Y-99290915D02*
X124788222Y-99262344D01*
X124788222Y-99262344D02*
X124816793Y-99233772D01*
X124816793Y-99233772D02*
X124845364Y-99176629D01*
X124845364Y-99176629D02*
X124845364Y-99033772D01*
X124845364Y-99033772D02*
X124816793Y-98976629D01*
X124816793Y-98976629D02*
X124788222Y-98948058D01*
X124788222Y-98948058D02*
X124731079Y-98919486D01*
X124731079Y-98919486D02*
X124616793Y-98919486D01*
X124616793Y-98919486D02*
X124559650Y-98948058D01*
X124559650Y-98948058D02*
X124531079Y-98976629D01*
X124531079Y-98976629D02*
X124502507Y-99033772D01*
X95214793Y-102373915D02*
X95214793Y-102859629D01*
X95214793Y-102859629D02*
X95243364Y-102916772D01*
X95243364Y-102916772D02*
X95271936Y-102945344D01*
X95271936Y-102945344D02*
X95329078Y-102973915D01*
X95329078Y-102973915D02*
X95443364Y-102973915D01*
X95443364Y-102973915D02*
X95500507Y-102945344D01*
X95500507Y-102945344D02*
X95529078Y-102916772D01*
X95529078Y-102916772D02*
X95557650Y-102859629D01*
X95557650Y-102859629D02*
X95557650Y-102373915D01*
X95814792Y-102431058D02*
X95843364Y-102402486D01*
X95843364Y-102402486D02*
X95900507Y-102373915D01*
X95900507Y-102373915D02*
X96043364Y-102373915D01*
X96043364Y-102373915D02*
X96100507Y-102402486D01*
X96100507Y-102402486D02*
X96129078Y-102431058D01*
X96129078Y-102431058D02*
X96157649Y-102488201D01*
X96157649Y-102488201D02*
X96157649Y-102545344D01*
X96157649Y-102545344D02*
X96129078Y-102631058D01*
X96129078Y-102631058D02*
X95786221Y-102973915D01*
X95786221Y-102973915D02*
X96157649Y-102973915D01*
D12*
%TO.C,R3*%
X121299000Y-100697064D02*
X120844872Y-100697064D01*
X121299000Y-102167064D02*
X120844872Y-102167064D01*
%TO.C,D1*%
X123831936Y-89042064D02*
X123831936Y-90962064D01*
X123831936Y-90962064D02*
X126516936Y-90962064D01*
X126516936Y-89042064D02*
X123831936Y-89042064D01*
%TO.C,R2*%
X101256500Y-109587064D02*
X100802372Y-109587064D01*
X101256500Y-111057064D02*
X100802372Y-111057064D01*
%TO.C,J4*%
X128581936Y-93067064D02*
X129961936Y-93067064D01*
X128581936Y-94447064D02*
X128581936Y-93067064D01*
X128581936Y-95717064D02*
X128581936Y-100907064D01*
X128581936Y-95717064D02*
X131231936Y-95717064D01*
X128581936Y-100907064D02*
X133881936Y-100907064D01*
X131231936Y-93067064D02*
X133881936Y-93067064D01*
X131231936Y-95717064D02*
X131231936Y-93067064D01*
X133881936Y-93067064D02*
X133881936Y-100907064D01*
%TO.C,C2*%
X121333188Y-104507064D02*
X120810684Y-104507064D01*
X121333188Y-105977064D02*
X120810684Y-105977064D01*
%TO.C,C4*%
X121333188Y-108317064D02*
X120810684Y-108317064D01*
X121333188Y-109787064D02*
X120810684Y-109787064D01*
%TO.C,C3*%
X110650684Y-89267064D02*
X111173188Y-89267064D01*
X110650684Y-90737064D02*
X111173188Y-90737064D01*
%TO.C,R5*%
X125744000Y-93077064D02*
X125289872Y-93077064D01*
X125744000Y-94547064D02*
X125289872Y-94547064D01*
D13*
%TO.C,U1*%
X96156936Y-96227064D02*
X101536936Y-96227064D01*
X96156936Y-101557064D02*
X101536936Y-101557064D01*
D14*
X93616936Y-96377064D02*
G75*
G02*
X93416936Y-96377064I-100000J0D01*
G01*
X93416936Y-96377064D02*
G75*
G02*
X93616936Y-96377064I100000J0D01*
G01*
D12*
%TO.C,R7*%
X120844872Y-93077064D02*
X121299000Y-93077064D01*
X120844872Y-94547064D02*
X121299000Y-94547064D01*
%TO.C,D2*%
X119386936Y-89042064D02*
X119386936Y-90962064D01*
X119386936Y-90962064D02*
X122071936Y-90962064D01*
X122071936Y-89042064D02*
X119386936Y-89042064D01*
%TO.C,Y1*%
X89366936Y-104387064D02*
X89366936Y-111757064D01*
X89366936Y-111757064D02*
X93086936Y-111757064D01*
X93086936Y-111757064D02*
X93086936Y-104387064D01*
%TO.C,J3*%
X118421936Y-116147064D02*
X118421936Y-114767064D01*
X119801936Y-116147064D02*
X118421936Y-116147064D01*
X121071936Y-113387064D02*
X128801936Y-113387064D01*
X121071936Y-116147064D02*
X121071936Y-113387064D01*
X121071936Y-116147064D02*
X128801936Y-116147064D01*
X128801936Y-116147064D02*
X128801936Y-113387064D01*
%TO.C,C5*%
X115730684Y-89267064D02*
X116253188Y-89267064D01*
X115730684Y-90737064D02*
X116253188Y-90737064D01*
D13*
%TO.C,U4*%
X108046936Y-96027064D02*
X108046936Y-96132064D01*
X108046936Y-96027064D02*
X108151936Y-96027064D01*
X108046936Y-103027064D02*
X108046936Y-102922064D01*
X108046936Y-103027064D02*
X108151936Y-103027064D01*
X115046936Y-96027064D02*
X114941936Y-96027064D01*
X115046936Y-96027064D02*
X115046936Y-96132064D01*
X115046936Y-103027064D02*
X114941936Y-103027064D01*
X115046936Y-103027064D02*
X115046936Y-102922064D01*
D14*
X105806936Y-96727064D02*
G75*
G02*
X105606936Y-96727064I-100000J0D01*
G01*
X105606936Y-96727064D02*
G75*
G02*
X105806936Y-96727064I100000J0D01*
G01*
D12*
%TO.C,R4*%
X121299000Y-96887064D02*
X120844872Y-96887064D01*
X121299000Y-98357064D02*
X120844872Y-98357064D01*
%TO.C,J1*%
X131121936Y-101957064D02*
X132501936Y-101957064D01*
X131121936Y-103337064D02*
X131121936Y-101957064D01*
X131121936Y-104607064D02*
X131121936Y-112337064D01*
X131121936Y-104607064D02*
X133881936Y-104607064D01*
X131121936Y-112337064D02*
X133881936Y-112337064D01*
X133881936Y-104607064D02*
X133881936Y-112337064D01*
%TO.C,Y2*%
X108151936Y-110277064D02*
X115521936Y-110277064D01*
X115521936Y-106557064D02*
X108151936Y-106557064D01*
X115521936Y-110277064D02*
X115521936Y-106557064D01*
%TO.C,C1*%
X106205684Y-89267064D02*
X106728188Y-89267064D01*
X106205684Y-90737064D02*
X106728188Y-90737064D01*
%TO.C,BT1*%
X89465936Y-94972064D02*
X90845936Y-94972064D01*
X89465936Y-96352064D02*
X89465936Y-94972064D01*
X89465936Y-97622064D02*
X89465936Y-100272064D01*
X89465936Y-97622064D02*
X92225936Y-97622064D01*
X89465936Y-100272064D02*
X92225936Y-100272064D01*
X92225936Y-97622064D02*
X92225936Y-100272064D01*
%TO.C,J2*%
X93021936Y-116147064D02*
X93021936Y-114767064D01*
X94401936Y-116147064D02*
X93021936Y-116147064D01*
X95671936Y-113387064D02*
X116101936Y-113387064D01*
X95671936Y-116147064D02*
X95671936Y-113387064D01*
X95671936Y-116147064D02*
X116101936Y-116147064D01*
X116101936Y-116147064D02*
X116101936Y-113387064D01*
%TO.C,R1*%
X96992372Y-109587064D02*
X97446500Y-109587064D01*
X96992372Y-111057064D02*
X97446500Y-111057064D01*
D13*
%TO.C,U3*%
X96156936Y-89242064D02*
X101536936Y-89242064D01*
X96156936Y-94572064D02*
X101536936Y-94572064D01*
D14*
X93616936Y-89392064D02*
G75*
G02*
X93416936Y-89392064I-100000J0D01*
G01*
X93416936Y-89392064D02*
G75*
G02*
X93616936Y-89392064I100000J0D01*
G01*
D12*
%TO.C,R6*%
X125289872Y-96887064D02*
X125744000Y-96887064D01*
X125289872Y-98357064D02*
X125744000Y-98357064D01*
D13*
%TO.C,U2*%
X96846936Y-103357064D02*
X100846936Y-103357064D01*
X96846936Y-108397064D02*
X100846936Y-108397064D01*
D14*
X94501936Y-103382064D02*
G75*
G02*
X94301936Y-103382064I-100000J0D01*
G01*
X94301936Y-103382064D02*
G75*
G02*
X94501936Y-103382064I100000J0D01*
G01*
%TD*%
M02*
