%TF.GenerationSoftware,KiCad,Pcbnew,9.0.4*%
%TF.CreationDate,2025-09-30T16:41:53+08:00*%
%TF.ProjectId,KiCAD_Proj (MCU datalogger),4b694341-445f-4507-926f-6a20284d4355,rev?*%
%TF.SameCoordinates,Original*%
%TF.FileFunction,Legend,Bot*%
%TF.FilePolarity,Positive*%
%FSLAX46Y46*%
G04 Gerber Fmt 4.6, Leading zero omitted, Abs format (unit mm)*
G04 Created by KiCad (PCBNEW 9.0.4) date 2025-09-30 16:41:53*
%MOMM*%
%LPD*%
G01*
G04 APERTURE LIST*
%ADD10C,0.300000*%
%ADD11C,0.010000*%
%ADD12C,0.000000*%
G04 APERTURE END LIST*
D10*
X127248425Y-93730312D02*
X127248425Y-92230312D01*
X127248425Y-92230312D02*
X126891282Y-92230312D01*
X126891282Y-92230312D02*
X126676996Y-92301741D01*
X126676996Y-92301741D02*
X126534139Y-92444598D01*
X126534139Y-92444598D02*
X126462710Y-92587455D01*
X126462710Y-92587455D02*
X126391282Y-92873169D01*
X126391282Y-92873169D02*
X126391282Y-93087455D01*
X126391282Y-93087455D02*
X126462710Y-93373169D01*
X126462710Y-93373169D02*
X126534139Y-93516026D01*
X126534139Y-93516026D02*
X126676996Y-93658884D01*
X126676996Y-93658884D02*
X126891282Y-93730312D01*
X126891282Y-93730312D02*
X127248425Y-93730312D01*
X125105568Y-93730312D02*
X125105568Y-92944598D01*
X125105568Y-92944598D02*
X125176996Y-92801741D01*
X125176996Y-92801741D02*
X125319853Y-92730312D01*
X125319853Y-92730312D02*
X125605568Y-92730312D01*
X125605568Y-92730312D02*
X125748425Y-92801741D01*
X125105568Y-93658884D02*
X125248425Y-93730312D01*
X125248425Y-93730312D02*
X125605568Y-93730312D01*
X125605568Y-93730312D02*
X125748425Y-93658884D01*
X125748425Y-93658884D02*
X125819853Y-93516026D01*
X125819853Y-93516026D02*
X125819853Y-93373169D01*
X125819853Y-93373169D02*
X125748425Y-93230312D01*
X125748425Y-93230312D02*
X125605568Y-93158884D01*
X125605568Y-93158884D02*
X125248425Y-93158884D01*
X125248425Y-93158884D02*
X125105568Y-93087455D01*
X124605567Y-92730312D02*
X124034139Y-92730312D01*
X124391282Y-92230312D02*
X124391282Y-93516026D01*
X124391282Y-93516026D02*
X124319853Y-93658884D01*
X124319853Y-93658884D02*
X124176996Y-93730312D01*
X124176996Y-93730312D02*
X124034139Y-93730312D01*
X122891282Y-93730312D02*
X122891282Y-92944598D01*
X122891282Y-92944598D02*
X122962710Y-92801741D01*
X122962710Y-92801741D02*
X123105567Y-92730312D01*
X123105567Y-92730312D02*
X123391282Y-92730312D01*
X123391282Y-92730312D02*
X123534139Y-92801741D01*
X122891282Y-93658884D02*
X123034139Y-93730312D01*
X123034139Y-93730312D02*
X123391282Y-93730312D01*
X123391282Y-93730312D02*
X123534139Y-93658884D01*
X123534139Y-93658884D02*
X123605567Y-93516026D01*
X123605567Y-93516026D02*
X123605567Y-93373169D01*
X123605567Y-93373169D02*
X123534139Y-93230312D01*
X123534139Y-93230312D02*
X123391282Y-93158884D01*
X123391282Y-93158884D02*
X123034139Y-93158884D01*
X123034139Y-93158884D02*
X122891282Y-93087455D01*
X120819853Y-93730312D02*
X120962710Y-93658884D01*
X120962710Y-93658884D02*
X121034139Y-93516026D01*
X121034139Y-93516026D02*
X121034139Y-92230312D01*
X120034139Y-93730312D02*
X120176996Y-93658884D01*
X120176996Y-93658884D02*
X120248425Y-93587455D01*
X120248425Y-93587455D02*
X120319853Y-93444598D01*
X120319853Y-93444598D02*
X120319853Y-93016026D01*
X120319853Y-93016026D02*
X120248425Y-92873169D01*
X120248425Y-92873169D02*
X120176996Y-92801741D01*
X120176996Y-92801741D02*
X120034139Y-92730312D01*
X120034139Y-92730312D02*
X119819853Y-92730312D01*
X119819853Y-92730312D02*
X119676996Y-92801741D01*
X119676996Y-92801741D02*
X119605568Y-92873169D01*
X119605568Y-92873169D02*
X119534139Y-93016026D01*
X119534139Y-93016026D02*
X119534139Y-93444598D01*
X119534139Y-93444598D02*
X119605568Y-93587455D01*
X119605568Y-93587455D02*
X119676996Y-93658884D01*
X119676996Y-93658884D02*
X119819853Y-93730312D01*
X119819853Y-93730312D02*
X120034139Y-93730312D01*
X118248425Y-92730312D02*
X118248425Y-93944598D01*
X118248425Y-93944598D02*
X118319853Y-94087455D01*
X118319853Y-94087455D02*
X118391282Y-94158884D01*
X118391282Y-94158884D02*
X118534139Y-94230312D01*
X118534139Y-94230312D02*
X118748425Y-94230312D01*
X118748425Y-94230312D02*
X118891282Y-94158884D01*
X118248425Y-93658884D02*
X118391282Y-93730312D01*
X118391282Y-93730312D02*
X118676996Y-93730312D01*
X118676996Y-93730312D02*
X118819853Y-93658884D01*
X118819853Y-93658884D02*
X118891282Y-93587455D01*
X118891282Y-93587455D02*
X118962710Y-93444598D01*
X118962710Y-93444598D02*
X118962710Y-93016026D01*
X118962710Y-93016026D02*
X118891282Y-92873169D01*
X118891282Y-92873169D02*
X118819853Y-92801741D01*
X118819853Y-92801741D02*
X118676996Y-92730312D01*
X118676996Y-92730312D02*
X118391282Y-92730312D01*
X118391282Y-92730312D02*
X118248425Y-92801741D01*
X116891282Y-92730312D02*
X116891282Y-93944598D01*
X116891282Y-93944598D02*
X116962710Y-94087455D01*
X116962710Y-94087455D02*
X117034139Y-94158884D01*
X117034139Y-94158884D02*
X117176996Y-94230312D01*
X117176996Y-94230312D02*
X117391282Y-94230312D01*
X117391282Y-94230312D02*
X117534139Y-94158884D01*
X116891282Y-93658884D02*
X117034139Y-93730312D01*
X117034139Y-93730312D02*
X117319853Y-93730312D01*
X117319853Y-93730312D02*
X117462710Y-93658884D01*
X117462710Y-93658884D02*
X117534139Y-93587455D01*
X117534139Y-93587455D02*
X117605567Y-93444598D01*
X117605567Y-93444598D02*
X117605567Y-93016026D01*
X117605567Y-93016026D02*
X117534139Y-92873169D01*
X117534139Y-92873169D02*
X117462710Y-92801741D01*
X117462710Y-92801741D02*
X117319853Y-92730312D01*
X117319853Y-92730312D02*
X117034139Y-92730312D01*
X117034139Y-92730312D02*
X116891282Y-92801741D01*
X115605567Y-93658884D02*
X115748424Y-93730312D01*
X115748424Y-93730312D02*
X116034139Y-93730312D01*
X116034139Y-93730312D02*
X116176996Y-93658884D01*
X116176996Y-93658884D02*
X116248424Y-93516026D01*
X116248424Y-93516026D02*
X116248424Y-92944598D01*
X116248424Y-92944598D02*
X116176996Y-92801741D01*
X116176996Y-92801741D02*
X116034139Y-92730312D01*
X116034139Y-92730312D02*
X115748424Y-92730312D01*
X115748424Y-92730312D02*
X115605567Y-92801741D01*
X115605567Y-92801741D02*
X115534139Y-92944598D01*
X115534139Y-92944598D02*
X115534139Y-93087455D01*
X115534139Y-93087455D02*
X116248424Y-93230312D01*
X114891282Y-93730312D02*
X114891282Y-92730312D01*
X114891282Y-93016026D02*
X114819853Y-92873169D01*
X114819853Y-92873169D02*
X114748425Y-92801741D01*
X114748425Y-92801741D02*
X114605567Y-92730312D01*
X114605567Y-92730312D02*
X114462710Y-92730312D01*
X112962711Y-92730312D02*
X112676997Y-93730312D01*
X112676997Y-93730312D02*
X112391282Y-93016026D01*
X112391282Y-93016026D02*
X112105568Y-93730312D01*
X112105568Y-93730312D02*
X111819854Y-92730312D01*
X111248425Y-93730312D02*
X111248425Y-92730312D01*
X111248425Y-92230312D02*
X111319853Y-92301741D01*
X111319853Y-92301741D02*
X111248425Y-92373169D01*
X111248425Y-92373169D02*
X111176996Y-92301741D01*
X111176996Y-92301741D02*
X111248425Y-92230312D01*
X111248425Y-92230312D02*
X111248425Y-92373169D01*
X110748424Y-92730312D02*
X110176996Y-92730312D01*
X110534139Y-92230312D02*
X110534139Y-93516026D01*
X110534139Y-93516026D02*
X110462710Y-93658884D01*
X110462710Y-93658884D02*
X110319853Y-93730312D01*
X110319853Y-93730312D02*
X110176996Y-93730312D01*
X109676996Y-93730312D02*
X109676996Y-92230312D01*
X109034139Y-93730312D02*
X109034139Y-92944598D01*
X109034139Y-92944598D02*
X109105567Y-92801741D01*
X109105567Y-92801741D02*
X109248424Y-92730312D01*
X109248424Y-92730312D02*
X109462710Y-92730312D01*
X109462710Y-92730312D02*
X109605567Y-92801741D01*
X109605567Y-92801741D02*
X109676996Y-92873169D01*
X127462710Y-95145228D02*
X126891282Y-95145228D01*
X127248425Y-94645228D02*
X127248425Y-95930942D01*
X127248425Y-95930942D02*
X127176996Y-96073800D01*
X127176996Y-96073800D02*
X127034139Y-96145228D01*
X127034139Y-96145228D02*
X126891282Y-96145228D01*
X126391282Y-96145228D02*
X126391282Y-94645228D01*
X125748425Y-96145228D02*
X125748425Y-95359514D01*
X125748425Y-95359514D02*
X125819853Y-95216657D01*
X125819853Y-95216657D02*
X125962710Y-95145228D01*
X125962710Y-95145228D02*
X126176996Y-95145228D01*
X126176996Y-95145228D02*
X126319853Y-95216657D01*
X126319853Y-95216657D02*
X126391282Y-95288085D01*
X124462710Y-96073800D02*
X124605567Y-96145228D01*
X124605567Y-96145228D02*
X124891282Y-96145228D01*
X124891282Y-96145228D02*
X125034139Y-96073800D01*
X125034139Y-96073800D02*
X125105567Y-95930942D01*
X125105567Y-95930942D02*
X125105567Y-95359514D01*
X125105567Y-95359514D02*
X125034139Y-95216657D01*
X125034139Y-95216657D02*
X124891282Y-95145228D01*
X124891282Y-95145228D02*
X124605567Y-95145228D01*
X124605567Y-95145228D02*
X124462710Y-95216657D01*
X124462710Y-95216657D02*
X124391282Y-95359514D01*
X124391282Y-95359514D02*
X124391282Y-95502371D01*
X124391282Y-95502371D02*
X125105567Y-95645228D01*
X122676996Y-95716657D02*
X121962711Y-95716657D01*
X122819853Y-96145228D02*
X122319853Y-94645228D01*
X122319853Y-94645228D02*
X121819853Y-96145228D01*
X121534139Y-94645228D02*
X120676997Y-94645228D01*
X121105568Y-96145228D02*
X121105568Y-94645228D01*
X120176997Y-96145228D02*
X120176997Y-94645228D01*
X120176997Y-94645228D02*
X119676997Y-95716657D01*
X119676997Y-95716657D02*
X119176997Y-94645228D01*
X119176997Y-94645228D02*
X119176997Y-96145228D01*
X117891282Y-96073800D02*
X118034139Y-96145228D01*
X118034139Y-96145228D02*
X118319854Y-96145228D01*
X118319854Y-96145228D02*
X118462711Y-96073800D01*
X118462711Y-96073800D02*
X118534139Y-95930942D01*
X118534139Y-95930942D02*
X118534139Y-95359514D01*
X118534139Y-95359514D02*
X118462711Y-95216657D01*
X118462711Y-95216657D02*
X118319854Y-95145228D01*
X118319854Y-95145228D02*
X118034139Y-95145228D01*
X118034139Y-95145228D02*
X117891282Y-95216657D01*
X117891282Y-95216657D02*
X117819854Y-95359514D01*
X117819854Y-95359514D02*
X117819854Y-95502371D01*
X117819854Y-95502371D02*
X118534139Y-95645228D01*
X116534140Y-95145228D02*
X116534140Y-96359514D01*
X116534140Y-96359514D02*
X116605568Y-96502371D01*
X116605568Y-96502371D02*
X116676997Y-96573800D01*
X116676997Y-96573800D02*
X116819854Y-96645228D01*
X116819854Y-96645228D02*
X117034140Y-96645228D01*
X117034140Y-96645228D02*
X117176997Y-96573800D01*
X116534140Y-96073800D02*
X116676997Y-96145228D01*
X116676997Y-96145228D02*
X116962711Y-96145228D01*
X116962711Y-96145228D02*
X117105568Y-96073800D01*
X117105568Y-96073800D02*
X117176997Y-96002371D01*
X117176997Y-96002371D02*
X117248425Y-95859514D01*
X117248425Y-95859514D02*
X117248425Y-95430942D01*
X117248425Y-95430942D02*
X117176997Y-95288085D01*
X117176997Y-95288085D02*
X117105568Y-95216657D01*
X117105568Y-95216657D02*
X116962711Y-95145228D01*
X116962711Y-95145228D02*
X116676997Y-95145228D01*
X116676997Y-95145228D02*
X116534140Y-95216657D01*
X115176997Y-96145228D02*
X115176997Y-95359514D01*
X115176997Y-95359514D02*
X115248425Y-95216657D01*
X115248425Y-95216657D02*
X115391282Y-95145228D01*
X115391282Y-95145228D02*
X115676997Y-95145228D01*
X115676997Y-95145228D02*
X115819854Y-95216657D01*
X115176997Y-96073800D02*
X115319854Y-96145228D01*
X115319854Y-96145228D02*
X115676997Y-96145228D01*
X115676997Y-96145228D02*
X115819854Y-96073800D01*
X115819854Y-96073800D02*
X115891282Y-95930942D01*
X115891282Y-95930942D02*
X115891282Y-95788085D01*
X115891282Y-95788085D02*
X115819854Y-95645228D01*
X115819854Y-95645228D02*
X115676997Y-95573800D01*
X115676997Y-95573800D02*
X115319854Y-95573800D01*
X115319854Y-95573800D02*
X115176997Y-95502371D01*
X114605568Y-94645228D02*
X113676996Y-94645228D01*
X113676996Y-94645228D02*
X114176996Y-95216657D01*
X114176996Y-95216657D02*
X113962711Y-95216657D01*
X113962711Y-95216657D02*
X113819854Y-95288085D01*
X113819854Y-95288085D02*
X113748425Y-95359514D01*
X113748425Y-95359514D02*
X113676996Y-95502371D01*
X113676996Y-95502371D02*
X113676996Y-95859514D01*
X113676996Y-95859514D02*
X113748425Y-96002371D01*
X113748425Y-96002371D02*
X113819854Y-96073800D01*
X113819854Y-96073800D02*
X113962711Y-96145228D01*
X113962711Y-96145228D02*
X114391282Y-96145228D01*
X114391282Y-96145228D02*
X114534139Y-96073800D01*
X114534139Y-96073800D02*
X114605568Y-96002371D01*
X113105568Y-94788085D02*
X113034140Y-94716657D01*
X113034140Y-94716657D02*
X112891283Y-94645228D01*
X112891283Y-94645228D02*
X112534140Y-94645228D01*
X112534140Y-94645228D02*
X112391283Y-94716657D01*
X112391283Y-94716657D02*
X112319854Y-94788085D01*
X112319854Y-94788085D02*
X112248425Y-94930942D01*
X112248425Y-94930942D02*
X112248425Y-95073800D01*
X112248425Y-95073800D02*
X112319854Y-95288085D01*
X112319854Y-95288085D02*
X113176997Y-96145228D01*
X113176997Y-96145228D02*
X112248425Y-96145228D01*
X111391283Y-95288085D02*
X111534140Y-95216657D01*
X111534140Y-95216657D02*
X111605569Y-95145228D01*
X111605569Y-95145228D02*
X111676997Y-95002371D01*
X111676997Y-95002371D02*
X111676997Y-94930942D01*
X111676997Y-94930942D02*
X111605569Y-94788085D01*
X111605569Y-94788085D02*
X111534140Y-94716657D01*
X111534140Y-94716657D02*
X111391283Y-94645228D01*
X111391283Y-94645228D02*
X111105569Y-94645228D01*
X111105569Y-94645228D02*
X110962712Y-94716657D01*
X110962712Y-94716657D02*
X110891283Y-94788085D01*
X110891283Y-94788085D02*
X110819854Y-94930942D01*
X110819854Y-94930942D02*
X110819854Y-95002371D01*
X110819854Y-95002371D02*
X110891283Y-95145228D01*
X110891283Y-95145228D02*
X110962712Y-95216657D01*
X110962712Y-95216657D02*
X111105569Y-95288085D01*
X111105569Y-95288085D02*
X111391283Y-95288085D01*
X111391283Y-95288085D02*
X111534140Y-95359514D01*
X111534140Y-95359514D02*
X111605569Y-95430942D01*
X111605569Y-95430942D02*
X111676997Y-95573800D01*
X111676997Y-95573800D02*
X111676997Y-95859514D01*
X111676997Y-95859514D02*
X111605569Y-96002371D01*
X111605569Y-96002371D02*
X111534140Y-96073800D01*
X111534140Y-96073800D02*
X111391283Y-96145228D01*
X111391283Y-96145228D02*
X111105569Y-96145228D01*
X111105569Y-96145228D02*
X110962712Y-96073800D01*
X110962712Y-96073800D02*
X110891283Y-96002371D01*
X110891283Y-96002371D02*
X110819854Y-95859514D01*
X110819854Y-95859514D02*
X110819854Y-95573800D01*
X110819854Y-95573800D02*
X110891283Y-95430942D01*
X110891283Y-95430942D02*
X110962712Y-95359514D01*
X110962712Y-95359514D02*
X111105569Y-95288085D01*
X110176998Y-96145228D02*
X110176998Y-94645228D01*
X110176998Y-94645228D02*
X109605569Y-94645228D01*
X109605569Y-94645228D02*
X109462712Y-94716657D01*
X109462712Y-94716657D02*
X109391283Y-94788085D01*
X109391283Y-94788085D02*
X109319855Y-94930942D01*
X109319855Y-94930942D02*
X109319855Y-95145228D01*
X109319855Y-95145228D02*
X109391283Y-95288085D01*
X109391283Y-95288085D02*
X109462712Y-95359514D01*
X109462712Y-95359514D02*
X109605569Y-95430942D01*
X109605569Y-95430942D02*
X110176998Y-95430942D01*
X108676998Y-96002371D02*
X108605569Y-96073800D01*
X108605569Y-96073800D02*
X108676998Y-96145228D01*
X108676998Y-96145228D02*
X108748426Y-96073800D01*
X108748426Y-96073800D02*
X108676998Y-96002371D01*
X108676998Y-96002371D02*
X108676998Y-96145228D01*
X127248425Y-100403632D02*
X126105568Y-100403632D01*
X124319853Y-99617917D02*
X124248425Y-99546489D01*
X124248425Y-99546489D02*
X124105568Y-99475060D01*
X124105568Y-99475060D02*
X123748425Y-99475060D01*
X123748425Y-99475060D02*
X123605568Y-99546489D01*
X123605568Y-99546489D02*
X123534139Y-99617917D01*
X123534139Y-99617917D02*
X123462710Y-99760774D01*
X123462710Y-99760774D02*
X123462710Y-99903632D01*
X123462710Y-99903632D02*
X123534139Y-100117917D01*
X123534139Y-100117917D02*
X124391282Y-100975060D01*
X124391282Y-100975060D02*
X123462710Y-100975060D01*
X122819854Y-100975060D02*
X122819854Y-99475060D01*
X122819854Y-99475060D02*
X122319854Y-100546489D01*
X122319854Y-100546489D02*
X121819854Y-99475060D01*
X121819854Y-99475060D02*
X121819854Y-100975060D01*
X121105568Y-100975060D02*
X121105568Y-99475060D01*
X121105568Y-100046489D02*
X120962711Y-99975060D01*
X120962711Y-99975060D02*
X120676996Y-99975060D01*
X120676996Y-99975060D02*
X120534139Y-100046489D01*
X120534139Y-100046489D02*
X120462711Y-100117917D01*
X120462711Y-100117917D02*
X120391282Y-100260774D01*
X120391282Y-100260774D02*
X120391282Y-100689346D01*
X120391282Y-100689346D02*
X120462711Y-100832203D01*
X120462711Y-100832203D02*
X120534139Y-100903632D01*
X120534139Y-100903632D02*
X120676996Y-100975060D01*
X120676996Y-100975060D02*
X120962711Y-100975060D01*
X120962711Y-100975060D02*
X121105568Y-100903632D01*
X119748425Y-100975060D02*
X119748425Y-99975060D01*
X119748425Y-99475060D02*
X119819853Y-99546489D01*
X119819853Y-99546489D02*
X119748425Y-99617917D01*
X119748425Y-99617917D02*
X119676996Y-99546489D01*
X119676996Y-99546489D02*
X119748425Y-99475060D01*
X119748425Y-99475060D02*
X119748425Y-99617917D01*
X119248424Y-99975060D02*
X118676996Y-99975060D01*
X119034139Y-99475060D02*
X119034139Y-100760774D01*
X119034139Y-100760774D02*
X118962710Y-100903632D01*
X118962710Y-100903632D02*
X118819853Y-100975060D01*
X118819853Y-100975060D02*
X118676996Y-100975060D01*
X117034139Y-100189346D02*
X116534139Y-100189346D01*
X116319853Y-100975060D02*
X117034139Y-100975060D01*
X117034139Y-100975060D02*
X117034139Y-99475060D01*
X117034139Y-99475060D02*
X116319853Y-99475060D01*
X115676996Y-100189346D02*
X115176996Y-100189346D01*
X114962710Y-100975060D02*
X115676996Y-100975060D01*
X115676996Y-100975060D02*
X115676996Y-99475060D01*
X115676996Y-99475060D02*
X114962710Y-99475060D01*
X114319853Y-100975060D02*
X114319853Y-99475060D01*
X114319853Y-99475060D02*
X113748424Y-99475060D01*
X113748424Y-99475060D02*
X113605567Y-99546489D01*
X113605567Y-99546489D02*
X113534138Y-99617917D01*
X113534138Y-99617917D02*
X113462710Y-99760774D01*
X113462710Y-99760774D02*
X113462710Y-99975060D01*
X113462710Y-99975060D02*
X113534138Y-100117917D01*
X113534138Y-100117917D02*
X113605567Y-100189346D01*
X113605567Y-100189346D02*
X113748424Y-100260774D01*
X113748424Y-100260774D02*
X114319853Y-100260774D01*
X111962710Y-100975060D02*
X112462710Y-100260774D01*
X112819853Y-100975060D02*
X112819853Y-99475060D01*
X112819853Y-99475060D02*
X112248424Y-99475060D01*
X112248424Y-99475060D02*
X112105567Y-99546489D01*
X112105567Y-99546489D02*
X112034138Y-99617917D01*
X112034138Y-99617917D02*
X111962710Y-99760774D01*
X111962710Y-99760774D02*
X111962710Y-99975060D01*
X111962710Y-99975060D02*
X112034138Y-100117917D01*
X112034138Y-100117917D02*
X112105567Y-100189346D01*
X112105567Y-100189346D02*
X112248424Y-100260774D01*
X112248424Y-100260774D02*
X112819853Y-100260774D01*
X111034138Y-99475060D02*
X110748424Y-99475060D01*
X110748424Y-99475060D02*
X110605567Y-99546489D01*
X110605567Y-99546489D02*
X110462710Y-99689346D01*
X110462710Y-99689346D02*
X110391281Y-99975060D01*
X110391281Y-99975060D02*
X110391281Y-100475060D01*
X110391281Y-100475060D02*
X110462710Y-100760774D01*
X110462710Y-100760774D02*
X110605567Y-100903632D01*
X110605567Y-100903632D02*
X110748424Y-100975060D01*
X110748424Y-100975060D02*
X111034138Y-100975060D01*
X111034138Y-100975060D02*
X111176996Y-100903632D01*
X111176996Y-100903632D02*
X111319853Y-100760774D01*
X111319853Y-100760774D02*
X111391281Y-100475060D01*
X111391281Y-100475060D02*
X111391281Y-99975060D01*
X111391281Y-99975060D02*
X111319853Y-99689346D01*
X111319853Y-99689346D02*
X111176996Y-99546489D01*
X111176996Y-99546489D02*
X111034138Y-99475060D01*
X109748424Y-100975060D02*
X109748424Y-99475060D01*
X109748424Y-99475060D02*
X109248424Y-100546489D01*
X109248424Y-100546489D02*
X108748424Y-99475060D01*
X108748424Y-99475060D02*
X108748424Y-100975060D01*
X127248425Y-102818548D02*
X126105568Y-102818548D01*
X123391282Y-103389976D02*
X123891282Y-102675690D01*
X124248425Y-103389976D02*
X124248425Y-101889976D01*
X124248425Y-101889976D02*
X123676996Y-101889976D01*
X123676996Y-101889976D02*
X123534139Y-101961405D01*
X123534139Y-101961405D02*
X123462710Y-102032833D01*
X123462710Y-102032833D02*
X123391282Y-102175690D01*
X123391282Y-102175690D02*
X123391282Y-102389976D01*
X123391282Y-102389976D02*
X123462710Y-102532833D01*
X123462710Y-102532833D02*
X123534139Y-102604262D01*
X123534139Y-102604262D02*
X123676996Y-102675690D01*
X123676996Y-102675690D02*
X124248425Y-102675690D01*
X122962710Y-101889976D02*
X122105568Y-101889976D01*
X122534139Y-103389976D02*
X122534139Y-101889976D01*
X120748425Y-103247119D02*
X120819853Y-103318548D01*
X120819853Y-103318548D02*
X121034139Y-103389976D01*
X121034139Y-103389976D02*
X121176996Y-103389976D01*
X121176996Y-103389976D02*
X121391282Y-103318548D01*
X121391282Y-103318548D02*
X121534139Y-103175690D01*
X121534139Y-103175690D02*
X121605568Y-103032833D01*
X121605568Y-103032833D02*
X121676996Y-102747119D01*
X121676996Y-102747119D02*
X121676996Y-102532833D01*
X121676996Y-102532833D02*
X121605568Y-102247119D01*
X121605568Y-102247119D02*
X121534139Y-102104262D01*
X121534139Y-102104262D02*
X121391282Y-101961405D01*
X121391282Y-101961405D02*
X121176996Y-101889976D01*
X121176996Y-101889976D02*
X121034139Y-101889976D01*
X121034139Y-101889976D02*
X120819853Y-101961405D01*
X120819853Y-101961405D02*
X120748425Y-102032833D01*
X127248425Y-105233464D02*
X126105568Y-105233464D01*
X124248425Y-105804892D02*
X124248425Y-104304892D01*
X123605567Y-104447749D02*
X123534139Y-104376321D01*
X123534139Y-104376321D02*
X123391282Y-104304892D01*
X123391282Y-104304892D02*
X123034139Y-104304892D01*
X123034139Y-104304892D02*
X122891282Y-104376321D01*
X122891282Y-104376321D02*
X122819853Y-104447749D01*
X122819853Y-104447749D02*
X122748424Y-104590606D01*
X122748424Y-104590606D02*
X122748424Y-104733464D01*
X122748424Y-104733464D02*
X122819853Y-104947749D01*
X122819853Y-104947749D02*
X123676996Y-105804892D01*
X123676996Y-105804892D02*
X122748424Y-105804892D01*
X121248425Y-105662035D02*
X121319853Y-105733464D01*
X121319853Y-105733464D02*
X121534139Y-105804892D01*
X121534139Y-105804892D02*
X121676996Y-105804892D01*
X121676996Y-105804892D02*
X121891282Y-105733464D01*
X121891282Y-105733464D02*
X122034139Y-105590606D01*
X122034139Y-105590606D02*
X122105568Y-105447749D01*
X122105568Y-105447749D02*
X122176996Y-105162035D01*
X122176996Y-105162035D02*
X122176996Y-104947749D01*
X122176996Y-104947749D02*
X122105568Y-104662035D01*
X122105568Y-104662035D02*
X122034139Y-104519178D01*
X122034139Y-104519178D02*
X121891282Y-104376321D01*
X121891282Y-104376321D02*
X121676996Y-104304892D01*
X121676996Y-104304892D02*
X121534139Y-104304892D01*
X121534139Y-104304892D02*
X121319853Y-104376321D01*
X121319853Y-104376321D02*
X121248425Y-104447749D01*
X120534139Y-105733464D02*
X120534139Y-105804892D01*
X120534139Y-105804892D02*
X120605568Y-105947749D01*
X120605568Y-105947749D02*
X120676996Y-106019178D01*
X118819853Y-105733464D02*
X118605568Y-105804892D01*
X118605568Y-105804892D02*
X118248425Y-105804892D01*
X118248425Y-105804892D02*
X118105568Y-105733464D01*
X118105568Y-105733464D02*
X118034139Y-105662035D01*
X118034139Y-105662035D02*
X117962710Y-105519178D01*
X117962710Y-105519178D02*
X117962710Y-105376321D01*
X117962710Y-105376321D02*
X118034139Y-105233464D01*
X118034139Y-105233464D02*
X118105568Y-105162035D01*
X118105568Y-105162035D02*
X118248425Y-105090606D01*
X118248425Y-105090606D02*
X118534139Y-105019178D01*
X118534139Y-105019178D02*
X118676996Y-104947749D01*
X118676996Y-104947749D02*
X118748425Y-104876321D01*
X118748425Y-104876321D02*
X118819853Y-104733464D01*
X118819853Y-104733464D02*
X118819853Y-104590606D01*
X118819853Y-104590606D02*
X118748425Y-104447749D01*
X118748425Y-104447749D02*
X118676996Y-104376321D01*
X118676996Y-104376321D02*
X118534139Y-104304892D01*
X118534139Y-104304892D02*
X118176996Y-104304892D01*
X118176996Y-104304892D02*
X117962710Y-104376321D01*
X117319854Y-105804892D02*
X117319854Y-104304892D01*
X117319854Y-104304892D02*
X116748425Y-104304892D01*
X116748425Y-104304892D02*
X116605568Y-104376321D01*
X116605568Y-104376321D02*
X116534139Y-104447749D01*
X116534139Y-104447749D02*
X116462711Y-104590606D01*
X116462711Y-104590606D02*
X116462711Y-104804892D01*
X116462711Y-104804892D02*
X116534139Y-104947749D01*
X116534139Y-104947749D02*
X116605568Y-105019178D01*
X116605568Y-105019178D02*
X116748425Y-105090606D01*
X116748425Y-105090606D02*
X117319854Y-105090606D01*
X115819854Y-105804892D02*
X115819854Y-104304892D01*
X115034139Y-105733464D02*
X115034139Y-105804892D01*
X115034139Y-105804892D02*
X115105568Y-105947749D01*
X115105568Y-105947749D02*
X115176996Y-106019178D01*
X112462710Y-104376321D02*
X112605568Y-104304892D01*
X112605568Y-104304892D02*
X112819853Y-104304892D01*
X112819853Y-104304892D02*
X113034139Y-104376321D01*
X113034139Y-104376321D02*
X113176996Y-104519178D01*
X113176996Y-104519178D02*
X113248425Y-104662035D01*
X113248425Y-104662035D02*
X113319853Y-104947749D01*
X113319853Y-104947749D02*
X113319853Y-105162035D01*
X113319853Y-105162035D02*
X113248425Y-105447749D01*
X113248425Y-105447749D02*
X113176996Y-105590606D01*
X113176996Y-105590606D02*
X113034139Y-105733464D01*
X113034139Y-105733464D02*
X112819853Y-105804892D01*
X112819853Y-105804892D02*
X112676996Y-105804892D01*
X112676996Y-105804892D02*
X112462710Y-105733464D01*
X112462710Y-105733464D02*
X112391282Y-105662035D01*
X112391282Y-105662035D02*
X112391282Y-105162035D01*
X112391282Y-105162035D02*
X112676996Y-105162035D01*
X111748425Y-105804892D02*
X111748425Y-104304892D01*
X111748425Y-104304892D02*
X111176996Y-104304892D01*
X111176996Y-104304892D02*
X111034139Y-104376321D01*
X111034139Y-104376321D02*
X110962710Y-104447749D01*
X110962710Y-104447749D02*
X110891282Y-104590606D01*
X110891282Y-104590606D02*
X110891282Y-104804892D01*
X110891282Y-104804892D02*
X110962710Y-104947749D01*
X110962710Y-104947749D02*
X111034139Y-105019178D01*
X111034139Y-105019178D02*
X111176996Y-105090606D01*
X111176996Y-105090606D02*
X111748425Y-105090606D01*
X110248425Y-105804892D02*
X110248425Y-104304892D01*
X109248424Y-104304892D02*
X108962710Y-104304892D01*
X108962710Y-104304892D02*
X108819853Y-104376321D01*
X108819853Y-104376321D02*
X108676996Y-104519178D01*
X108676996Y-104519178D02*
X108605567Y-104804892D01*
X108605567Y-104804892D02*
X108605567Y-105304892D01*
X108605567Y-105304892D02*
X108676996Y-105590606D01*
X108676996Y-105590606D02*
X108819853Y-105733464D01*
X108819853Y-105733464D02*
X108962710Y-105804892D01*
X108962710Y-105804892D02*
X109248424Y-105804892D01*
X109248424Y-105804892D02*
X109391282Y-105733464D01*
X109391282Y-105733464D02*
X109534139Y-105590606D01*
X109534139Y-105590606D02*
X109605567Y-105304892D01*
X109605567Y-105304892D02*
X109605567Y-104804892D01*
X109605567Y-104804892D02*
X109534139Y-104519178D01*
X109534139Y-104519178D02*
X109391282Y-104376321D01*
X109391282Y-104376321D02*
X109248424Y-104304892D01*
X108034138Y-105733464D02*
X107891281Y-105804892D01*
X107891281Y-105804892D02*
X107605567Y-105804892D01*
X107605567Y-105804892D02*
X107462710Y-105733464D01*
X107462710Y-105733464D02*
X107391281Y-105590606D01*
X107391281Y-105590606D02*
X107391281Y-105519178D01*
X107391281Y-105519178D02*
X107462710Y-105376321D01*
X107462710Y-105376321D02*
X107605567Y-105304892D01*
X107605567Y-105304892D02*
X107819853Y-105304892D01*
X107819853Y-105304892D02*
X107962710Y-105233464D01*
X107962710Y-105233464D02*
X108034138Y-105090606D01*
X108034138Y-105090606D02*
X108034138Y-105019178D01*
X108034138Y-105019178D02*
X107962710Y-104876321D01*
X107962710Y-104876321D02*
X107819853Y-104804892D01*
X107819853Y-104804892D02*
X107605567Y-104804892D01*
X107605567Y-104804892D02*
X107462710Y-104876321D01*
D11*
%TO.C,REF\u002A\u002A*%
X94702342Y-95111949D02*
X94728063Y-95127647D01*
X94754714Y-95149227D01*
X94754714Y-95796684D01*
X94728063Y-95818264D01*
X94696703Y-95835739D01*
X94660902Y-95836575D01*
X94629464Y-95816082D01*
X94625588Y-95811416D01*
X94620122Y-95801949D01*
X94615915Y-95788267D01*
X94612803Y-95767748D01*
X94610623Y-95737768D01*
X94609212Y-95695704D01*
X94608407Y-95638932D01*
X94608043Y-95564830D01*
X94607958Y-95470773D01*
X94607958Y-95149227D01*
X94634609Y-95127647D01*
X94658322Y-95112877D01*
X94681336Y-95106067D01*
X94702342Y-95111949D01*
G36*
X94702342Y-95111949D02*
G01*
X94728063Y-95127647D01*
X94754714Y-95149227D01*
X94754714Y-95796684D01*
X94728063Y-95818264D01*
X94696703Y-95835739D01*
X94660902Y-95836575D01*
X94629464Y-95816082D01*
X94625588Y-95811416D01*
X94620122Y-95801949D01*
X94615915Y-95788267D01*
X94612803Y-95767748D01*
X94610623Y-95737768D01*
X94609212Y-95695704D01*
X94608407Y-95638932D01*
X94608043Y-95564830D01*
X94607958Y-95470773D01*
X94607958Y-95149227D01*
X94634609Y-95127647D01*
X94658322Y-95112877D01*
X94681336Y-95106067D01*
X94702342Y-95111949D01*
G37*
X101833073Y-95110463D02*
X101867227Y-95133776D01*
X101894936Y-95161485D01*
X101894936Y-95474537D01*
X101894895Y-95558567D01*
X101894637Y-95632789D01*
X101893966Y-95689541D01*
X101892688Y-95731512D01*
X101890609Y-95761389D01*
X101887535Y-95781861D01*
X101883270Y-95795614D01*
X101877620Y-95805337D01*
X101870391Y-95813717D01*
X101838927Y-95835181D01*
X101803762Y-95836947D01*
X101770758Y-95817267D01*
X101765452Y-95811398D01*
X101760002Y-95802314D01*
X101755836Y-95788973D01*
X101752782Y-95768757D01*
X101750668Y-95739049D01*
X101749322Y-95697232D01*
X101748574Y-95640689D01*
X101748250Y-95566802D01*
X101748181Y-95472956D01*
X101748220Y-95397294D01*
X101748475Y-95319385D01*
X101749119Y-95259375D01*
X101750323Y-95214648D01*
X101752260Y-95182585D01*
X101755100Y-95160571D01*
X101759015Y-95145987D01*
X101764178Y-95136218D01*
X101770758Y-95128645D01*
X101799942Y-95109623D01*
X101833073Y-95110463D01*
G36*
X101833073Y-95110463D02*
G01*
X101867227Y-95133776D01*
X101894936Y-95161485D01*
X101894936Y-95474537D01*
X101894895Y-95558567D01*
X101894637Y-95632789D01*
X101893966Y-95689541D01*
X101892688Y-95731512D01*
X101890609Y-95761389D01*
X101887535Y-95781861D01*
X101883270Y-95795614D01*
X101877620Y-95805337D01*
X101870391Y-95813717D01*
X101838927Y-95835181D01*
X101803762Y-95836947D01*
X101770758Y-95817267D01*
X101765452Y-95811398D01*
X101760002Y-95802314D01*
X101755836Y-95788973D01*
X101752782Y-95768757D01*
X101750668Y-95739049D01*
X101749322Y-95697232D01*
X101748574Y-95640689D01*
X101748250Y-95566802D01*
X101748181Y-95472956D01*
X101748220Y-95397294D01*
X101748475Y-95319385D01*
X101749119Y-95259375D01*
X101750323Y-95214648D01*
X101752260Y-95182585D01*
X101755100Y-95160571D01*
X101759015Y-95145987D01*
X101764178Y-95136218D01*
X101770758Y-95128645D01*
X101799942Y-95109623D01*
X101833073Y-95110463D01*
G37*
X101301498Y-89869850D02*
X101384249Y-89897053D01*
X101459342Y-89942484D01*
X101531234Y-90008302D01*
X101569782Y-90052567D01*
X101609192Y-90110961D01*
X101634382Y-90171586D01*
X101647797Y-90240865D01*
X101651884Y-90325222D01*
X101651605Y-90371307D01*
X101649396Y-90412450D01*
X101643830Y-90444582D01*
X101633522Y-90475122D01*
X101617084Y-90511489D01*
X101603136Y-90538728D01*
X101544601Y-90624429D01*
X101472555Y-90693617D01*
X101388883Y-90744741D01*
X101295467Y-90776250D01*
X101262370Y-90783225D01*
X101221896Y-90790094D01*
X101188935Y-90791919D01*
X101154634Y-90788947D01*
X101110136Y-90781426D01*
X101058870Y-90769002D01*
X100968370Y-90731112D01*
X100889281Y-90676836D01*
X100823464Y-90608770D01*
X100772776Y-90529511D01*
X100739076Y-90441654D01*
X100724222Y-90347795D01*
X100730072Y-90250530D01*
X100756335Y-90154220D01*
X100801354Y-90065494D01*
X100862309Y-89990419D01*
X100937120Y-89930641D01*
X101023704Y-89887809D01*
X101119979Y-89863571D01*
X101223864Y-89859576D01*
X101301498Y-89869850D01*
G36*
X101301498Y-89869850D02*
G01*
X101384249Y-89897053D01*
X101459342Y-89942484D01*
X101531234Y-90008302D01*
X101569782Y-90052567D01*
X101609192Y-90110961D01*
X101634382Y-90171586D01*
X101647797Y-90240865D01*
X101651884Y-90325222D01*
X101651605Y-90371307D01*
X101649396Y-90412450D01*
X101643830Y-90444582D01*
X101633522Y-90475122D01*
X101617084Y-90511489D01*
X101603136Y-90538728D01*
X101544601Y-90624429D01*
X101472555Y-90693617D01*
X101388883Y-90744741D01*
X101295467Y-90776250D01*
X101262370Y-90783225D01*
X101221896Y-90790094D01*
X101188935Y-90791919D01*
X101154634Y-90788947D01*
X101110136Y-90781426D01*
X101058870Y-90769002D01*
X100968370Y-90731112D01*
X100889281Y-90676836D01*
X100823464Y-90608770D01*
X100772776Y-90529511D01*
X100739076Y-90441654D01*
X100724222Y-90347795D01*
X100730072Y-90250530D01*
X100756335Y-90154220D01*
X100801354Y-90065494D01*
X100862309Y-89990419D01*
X100937120Y-89930641D01*
X101023704Y-89887809D01*
X101119979Y-89863571D01*
X101223864Y-89859576D01*
X101301498Y-89869850D01*
G37*
X94002703Y-95106068D02*
X94096826Y-95106158D01*
X94171341Y-95106498D01*
X94228747Y-95107239D01*
X94271547Y-95108535D01*
X94302240Y-95110537D01*
X94323327Y-95113396D01*
X94337309Y-95117266D01*
X94346686Y-95122298D01*
X94353958Y-95128645D01*
X94372764Y-95161362D01*
X94374211Y-95198939D01*
X94357853Y-95232178D01*
X94356493Y-95233631D01*
X94345290Y-95241992D01*
X94328188Y-95247547D01*
X94301018Y-95250840D01*
X94259614Y-95252418D01*
X94199809Y-95252822D01*
X94060447Y-95252822D01*
X94060447Y-95516589D01*
X94060372Y-95592417D01*
X94059964Y-95659083D01*
X94058982Y-95708867D01*
X94057186Y-95744784D01*
X94054335Y-95769850D01*
X94050189Y-95787081D01*
X94044507Y-95799492D01*
X94037050Y-95810100D01*
X94034760Y-95812906D01*
X94003582Y-95835548D01*
X93969202Y-95837112D01*
X93936270Y-95817267D01*
X93929291Y-95809191D01*
X93923819Y-95798593D01*
X93919799Y-95782749D01*
X93917008Y-95758773D01*
X93915224Y-95723774D01*
X93914225Y-95674864D01*
X93913788Y-95609154D01*
X93913692Y-95523756D01*
X93913692Y-95252822D01*
X93767756Y-95252822D01*
X93756656Y-95252821D01*
X93700138Y-95252596D01*
X93661294Y-95251457D01*
X93635901Y-95248657D01*
X93619740Y-95243450D01*
X93608588Y-95235089D01*
X93598225Y-95222826D01*
X93582377Y-95192138D01*
X93585479Y-95158358D01*
X93611123Y-95125822D01*
X93616065Y-95122105D01*
X93626274Y-95117269D01*
X93641700Y-95113506D01*
X93664822Y-95110683D01*
X93698119Y-95108670D01*
X93744073Y-95107333D01*
X93805164Y-95106542D01*
X93883871Y-95106163D01*
X93982676Y-95106067D01*
X94002703Y-95106068D01*
G36*
X94002703Y-95106068D02*
G01*
X94096826Y-95106158D01*
X94171341Y-95106498D01*
X94228747Y-95107239D01*
X94271547Y-95108535D01*
X94302240Y-95110537D01*
X94323327Y-95113396D01*
X94337309Y-95117266D01*
X94346686Y-95122298D01*
X94353958Y-95128645D01*
X94372764Y-95161362D01*
X94374211Y-95198939D01*
X94357853Y-95232178D01*
X94356493Y-95233631D01*
X94345290Y-95241992D01*
X94328188Y-95247547D01*
X94301018Y-95250840D01*
X94259614Y-95252418D01*
X94199809Y-95252822D01*
X94060447Y-95252822D01*
X94060447Y-95516589D01*
X94060372Y-95592417D01*
X94059964Y-95659083D01*
X94058982Y-95708867D01*
X94057186Y-95744784D01*
X94054335Y-95769850D01*
X94050189Y-95787081D01*
X94044507Y-95799492D01*
X94037050Y-95810100D01*
X94034760Y-95812906D01*
X94003582Y-95835548D01*
X93969202Y-95837112D01*
X93936270Y-95817267D01*
X93929291Y-95809191D01*
X93923819Y-95798593D01*
X93919799Y-95782749D01*
X93917008Y-95758773D01*
X93915224Y-95723774D01*
X93914225Y-95674864D01*
X93913788Y-95609154D01*
X93913692Y-95523756D01*
X93913692Y-95252822D01*
X93767756Y-95252822D01*
X93756656Y-95252821D01*
X93700138Y-95252596D01*
X93661294Y-95251457D01*
X93635901Y-95248657D01*
X93619740Y-95243450D01*
X93608588Y-95235089D01*
X93598225Y-95222826D01*
X93582377Y-95192138D01*
X93585479Y-95158358D01*
X93611123Y-95125822D01*
X93616065Y-95122105D01*
X93626274Y-95117269D01*
X93641700Y-95113506D01*
X93664822Y-95110683D01*
X93698119Y-95108670D01*
X93744073Y-95107333D01*
X93805164Y-95106542D01*
X93883871Y-95106163D01*
X93982676Y-95106067D01*
X94002703Y-95106068D01*
G37*
X93326670Y-95128645D02*
X93332302Y-95134835D01*
X93337392Y-95143041D01*
X93341479Y-95154817D01*
X93344657Y-95172276D01*
X93347023Y-95197530D01*
X93348674Y-95232690D01*
X93349705Y-95279869D01*
X93350213Y-95341177D01*
X93350295Y-95418727D01*
X93350045Y-95514631D01*
X93349561Y-95631000D01*
X93349493Y-95645175D01*
X93348907Y-95706937D01*
X93347584Y-95750620D01*
X93345039Y-95780001D01*
X93340784Y-95798855D01*
X93334332Y-95810959D01*
X93325198Y-95820089D01*
X93291740Y-95837506D01*
X93256792Y-95834604D01*
X93225889Y-95810100D01*
X93216880Y-95796897D01*
X93209428Y-95778361D01*
X93205060Y-95752333D01*
X93203005Y-95713787D01*
X93202492Y-95657700D01*
X93202492Y-95535045D01*
X92705781Y-95535045D01*
X92705781Y-95669871D01*
X92705708Y-95705662D01*
X92704945Y-95751992D01*
X92702769Y-95782526D01*
X92698472Y-95801557D01*
X92691348Y-95813374D01*
X92680691Y-95822271D01*
X92648440Y-95837341D01*
X92613153Y-95834673D01*
X92582422Y-95810100D01*
X92577767Y-95803845D01*
X92571831Y-95793321D01*
X92567300Y-95779391D01*
X92563984Y-95759317D01*
X92561695Y-95730360D01*
X92560244Y-95689780D01*
X92559441Y-95634840D01*
X92559098Y-95562799D01*
X92559025Y-95470920D01*
X92559025Y-95161485D01*
X92586734Y-95133776D01*
X92618113Y-95111533D01*
X92651342Y-95108844D01*
X92683203Y-95128645D01*
X92691489Y-95138415D01*
X92698901Y-95154307D01*
X92703238Y-95178275D01*
X92705274Y-95215148D01*
X92705781Y-95269756D01*
X92705781Y-95388289D01*
X93202492Y-95388289D01*
X93202492Y-95272776D01*
X93202930Y-95221078D01*
X93204894Y-95186554D01*
X93209410Y-95163978D01*
X93217503Y-95148126D01*
X93230201Y-95133776D01*
X93261579Y-95111533D01*
X93294808Y-95108844D01*
X93326670Y-95128645D01*
G36*
X93326670Y-95128645D02*
G01*
X93332302Y-95134835D01*
X93337392Y-95143041D01*
X93341479Y-95154817D01*
X93344657Y-95172276D01*
X93347023Y-95197530D01*
X93348674Y-95232690D01*
X93349705Y-95279869D01*
X93350213Y-95341177D01*
X93350295Y-95418727D01*
X93350045Y-95514631D01*
X93349561Y-95631000D01*
X93349493Y-95645175D01*
X93348907Y-95706937D01*
X93347584Y-95750620D01*
X93345039Y-95780001D01*
X93340784Y-95798855D01*
X93334332Y-95810959D01*
X93325198Y-95820089D01*
X93291740Y-95837506D01*
X93256792Y-95834604D01*
X93225889Y-95810100D01*
X93216880Y-95796897D01*
X93209428Y-95778361D01*
X93205060Y-95752333D01*
X93203005Y-95713787D01*
X93202492Y-95657700D01*
X93202492Y-95535045D01*
X92705781Y-95535045D01*
X92705781Y-95669871D01*
X92705708Y-95705662D01*
X92704945Y-95751992D01*
X92702769Y-95782526D01*
X92698472Y-95801557D01*
X92691348Y-95813374D01*
X92680691Y-95822271D01*
X92648440Y-95837341D01*
X92613153Y-95834673D01*
X92582422Y-95810100D01*
X92577767Y-95803845D01*
X92571831Y-95793321D01*
X92567300Y-95779391D01*
X92563984Y-95759317D01*
X92561695Y-95730360D01*
X92560244Y-95689780D01*
X92559441Y-95634840D01*
X92559098Y-95562799D01*
X92559025Y-95470920D01*
X92559025Y-95161485D01*
X92586734Y-95133776D01*
X92618113Y-95111533D01*
X92651342Y-95108844D01*
X92683203Y-95128645D01*
X92691489Y-95138415D01*
X92698901Y-95154307D01*
X92703238Y-95178275D01*
X92705274Y-95215148D01*
X92705781Y-95269756D01*
X92705781Y-95388289D01*
X93202492Y-95388289D01*
X93202492Y-95272776D01*
X93202930Y-95221078D01*
X93204894Y-95186554D01*
X93209410Y-95163978D01*
X93217503Y-95148126D01*
X93230201Y-95133776D01*
X93261579Y-95111533D01*
X93294808Y-95108844D01*
X93326670Y-95128645D01*
G37*
X98032069Y-95717396D02*
X98030099Y-95750175D01*
X98027171Y-95773095D01*
X98023094Y-95788897D01*
X98017679Y-95800319D01*
X98010739Y-95810100D01*
X97987342Y-95839845D01*
X97821650Y-95839251D01*
X97786854Y-95838953D01*
X97688371Y-95835522D01*
X97607409Y-95827839D01*
X97540315Y-95815282D01*
X97483432Y-95797227D01*
X97433105Y-95773052D01*
X97429746Y-95771135D01*
X97371934Y-95734417D01*
X97329580Y-95697451D01*
X97296764Y-95653966D01*
X97267564Y-95597689D01*
X97263282Y-95588073D01*
X97240705Y-95524887D01*
X97234970Y-95479333D01*
X97384215Y-95479333D01*
X97389828Y-95504061D01*
X97395554Y-95519939D01*
X97428484Y-95579847D01*
X97475822Y-95625600D01*
X97539588Y-95658736D01*
X97621797Y-95680790D01*
X97624591Y-95681292D01*
X97670876Y-95687255D01*
X97727272Y-95691483D01*
X97782210Y-95693089D01*
X97876092Y-95693089D01*
X97876092Y-95252822D01*
X97788603Y-95253270D01*
X97721683Y-95255746D01*
X97629285Y-95266998D01*
X97549970Y-95286537D01*
X97487996Y-95313511D01*
X97457056Y-95334240D01*
X97428936Y-95364006D01*
X97405596Y-95406434D01*
X97398469Y-95422400D01*
X97386645Y-95454902D01*
X97384215Y-95479333D01*
X97234970Y-95479333D01*
X97233733Y-95469509D01*
X97242335Y-95414483D01*
X97266477Y-95352351D01*
X97267273Y-95350658D01*
X97307724Y-95281236D01*
X97358409Y-95224638D01*
X97421134Y-95180070D01*
X97497710Y-95146741D01*
X97589945Y-95123861D01*
X97699648Y-95110636D01*
X97828627Y-95106275D01*
X97832199Y-95106270D01*
X97892219Y-95106410D01*
X97934150Y-95107446D01*
X97962264Y-95110040D01*
X97980833Y-95114853D01*
X97994130Y-95122544D01*
X98006427Y-95133776D01*
X98034136Y-95161485D01*
X98034136Y-95470920D01*
X98034111Y-95532526D01*
X98033886Y-95611311D01*
X98033268Y-95672021D01*
X98032711Y-95693089D01*
X98032069Y-95717396D01*
G36*
X98032069Y-95717396D02*
G01*
X98030099Y-95750175D01*
X98027171Y-95773095D01*
X98023094Y-95788897D01*
X98017679Y-95800319D01*
X98010739Y-95810100D01*
X97987342Y-95839845D01*
X97821650Y-95839251D01*
X97786854Y-95838953D01*
X97688371Y-95835522D01*
X97607409Y-95827839D01*
X97540315Y-95815282D01*
X97483432Y-95797227D01*
X97433105Y-95773052D01*
X97429746Y-95771135D01*
X97371934Y-95734417D01*
X97329580Y-95697451D01*
X97296764Y-95653966D01*
X97267564Y-95597689D01*
X97263282Y-95588073D01*
X97240705Y-95524887D01*
X97234970Y-95479333D01*
X97384215Y-95479333D01*
X97389828Y-95504061D01*
X97395554Y-95519939D01*
X97428484Y-95579847D01*
X97475822Y-95625600D01*
X97539588Y-95658736D01*
X97621797Y-95680790D01*
X97624591Y-95681292D01*
X97670876Y-95687255D01*
X97727272Y-95691483D01*
X97782210Y-95693089D01*
X97876092Y-95693089D01*
X97876092Y-95252822D01*
X97788603Y-95253270D01*
X97721683Y-95255746D01*
X97629285Y-95266998D01*
X97549970Y-95286537D01*
X97487996Y-95313511D01*
X97457056Y-95334240D01*
X97428936Y-95364006D01*
X97405596Y-95406434D01*
X97398469Y-95422400D01*
X97386645Y-95454902D01*
X97384215Y-95479333D01*
X97234970Y-95479333D01*
X97233733Y-95469509D01*
X97242335Y-95414483D01*
X97266477Y-95352351D01*
X97267273Y-95350658D01*
X97307724Y-95281236D01*
X97358409Y-95224638D01*
X97421134Y-95180070D01*
X97497710Y-95146741D01*
X97589945Y-95123861D01*
X97699648Y-95110636D01*
X97828627Y-95106275D01*
X97832199Y-95106270D01*
X97892219Y-95106410D01*
X97934150Y-95107446D01*
X97962264Y-95110040D01*
X97980833Y-95114853D01*
X97994130Y-95122544D01*
X98006427Y-95133776D01*
X98034136Y-95161485D01*
X98034136Y-95470920D01*
X98034111Y-95532526D01*
X98033886Y-95611311D01*
X98033268Y-95672021D01*
X98032711Y-95693089D01*
X98032069Y-95717396D01*
G37*
X105123753Y-95291427D02*
X105123806Y-95372041D01*
X105123558Y-95472956D01*
X105123519Y-95548617D01*
X105123264Y-95626526D01*
X105122620Y-95686536D01*
X105121416Y-95731264D01*
X105119479Y-95763326D01*
X105116639Y-95785340D01*
X105112724Y-95799924D01*
X105107562Y-95809694D01*
X105100981Y-95817267D01*
X105094013Y-95823501D01*
X105081015Y-95830801D01*
X105061867Y-95835554D01*
X105032464Y-95838292D01*
X104988698Y-95839545D01*
X104926464Y-95839845D01*
X104877518Y-95839469D01*
X104770658Y-95835041D01*
X104681430Y-95824953D01*
X104606632Y-95808365D01*
X104543061Y-95784435D01*
X104487515Y-95752321D01*
X104436790Y-95711182D01*
X104430802Y-95705330D01*
X104393935Y-95656821D01*
X104362835Y-95596013D01*
X104341353Y-95531769D01*
X104336072Y-95493026D01*
X104483289Y-95493026D01*
X104501571Y-95543961D01*
X104531241Y-95589878D01*
X104577938Y-95632287D01*
X104639328Y-95662090D01*
X104718474Y-95681226D01*
X104719964Y-95681464D01*
X104768935Y-95687256D01*
X104827629Y-95691396D01*
X104883670Y-95693004D01*
X104976803Y-95693089D01*
X104976803Y-95252822D01*
X104900603Y-95252808D01*
X104897575Y-95252817D01*
X104846455Y-95254782D01*
X104786352Y-95259507D01*
X104729644Y-95266035D01*
X104679686Y-95275331D01*
X104604934Y-95301600D01*
X104547425Y-95340899D01*
X104505924Y-95393933D01*
X104484707Y-95445200D01*
X104483289Y-95493026D01*
X104336072Y-95493026D01*
X104333336Y-95472956D01*
X104334615Y-95451739D01*
X104346927Y-95394323D01*
X104369456Y-95334413D01*
X104398686Y-95280363D01*
X104431103Y-95240532D01*
X104450644Y-95223510D01*
X104505356Y-95184322D01*
X104565659Y-95154193D01*
X104634855Y-95132232D01*
X104716247Y-95117550D01*
X104813136Y-95109259D01*
X104928825Y-95106467D01*
X104968307Y-95106066D01*
X105014018Y-95105653D01*
X105049819Y-95107457D01*
X105076910Y-95113739D01*
X105096492Y-95126759D01*
X105109766Y-95148778D01*
X105117934Y-95182055D01*
X105122196Y-95228851D01*
X105122793Y-95252822D01*
X105123753Y-95291427D01*
G36*
X105123753Y-95291427D02*
G01*
X105123806Y-95372041D01*
X105123558Y-95472956D01*
X105123519Y-95548617D01*
X105123264Y-95626526D01*
X105122620Y-95686536D01*
X105121416Y-95731264D01*
X105119479Y-95763326D01*
X105116639Y-95785340D01*
X105112724Y-95799924D01*
X105107562Y-95809694D01*
X105100981Y-95817267D01*
X105094013Y-95823501D01*
X105081015Y-95830801D01*
X105061867Y-95835554D01*
X105032464Y-95838292D01*
X104988698Y-95839545D01*
X104926464Y-95839845D01*
X104877518Y-95839469D01*
X104770658Y-95835041D01*
X104681430Y-95824953D01*
X104606632Y-95808365D01*
X104543061Y-95784435D01*
X104487515Y-95752321D01*
X104436790Y-95711182D01*
X104430802Y-95705330D01*
X104393935Y-95656821D01*
X104362835Y-95596013D01*
X104341353Y-95531769D01*
X104336072Y-95493026D01*
X104483289Y-95493026D01*
X104501571Y-95543961D01*
X104531241Y-95589878D01*
X104577938Y-95632287D01*
X104639328Y-95662090D01*
X104718474Y-95681226D01*
X104719964Y-95681464D01*
X104768935Y-95687256D01*
X104827629Y-95691396D01*
X104883670Y-95693004D01*
X104976803Y-95693089D01*
X104976803Y-95252822D01*
X104900603Y-95252808D01*
X104897575Y-95252817D01*
X104846455Y-95254782D01*
X104786352Y-95259507D01*
X104729644Y-95266035D01*
X104679686Y-95275331D01*
X104604934Y-95301600D01*
X104547425Y-95340899D01*
X104505924Y-95393933D01*
X104484707Y-95445200D01*
X104483289Y-95493026D01*
X104336072Y-95493026D01*
X104333336Y-95472956D01*
X104334615Y-95451739D01*
X104346927Y-95394323D01*
X104369456Y-95334413D01*
X104398686Y-95280363D01*
X104431103Y-95240532D01*
X104450644Y-95223510D01*
X104505356Y-95184322D01*
X104565659Y-95154193D01*
X104634855Y-95132232D01*
X104716247Y-95117550D01*
X104813136Y-95109259D01*
X104928825Y-95106467D01*
X104968307Y-95106066D01*
X105014018Y-95105653D01*
X105049819Y-95107457D01*
X105076910Y-95113739D01*
X105096492Y-95126759D01*
X105109766Y-95148778D01*
X105117934Y-95182055D01*
X105122196Y-95228851D01*
X105122793Y-95252822D01*
X105123753Y-95291427D01*
G37*
X100178829Y-95104892D02*
X100190237Y-95111029D01*
X100200786Y-95121691D01*
X100212072Y-95135811D01*
X100216525Y-95141772D01*
X100222524Y-95152268D01*
X100227103Y-95166093D01*
X100230455Y-95185998D01*
X100232769Y-95214732D01*
X100234237Y-95255045D01*
X100235049Y-95309687D01*
X100235396Y-95381407D01*
X100235470Y-95472956D01*
X100235447Y-95531486D01*
X100235228Y-95610573D01*
X100234619Y-95671516D01*
X100233428Y-95717062D01*
X100231465Y-95749963D01*
X100228539Y-95772968D01*
X100224459Y-95788826D01*
X100219033Y-95800286D01*
X100212072Y-95810100D01*
X100181644Y-95834493D01*
X100146701Y-95837372D01*
X100109720Y-95818282D01*
X100105536Y-95814807D01*
X100097360Y-95806279D01*
X100091300Y-95794728D01*
X100086917Y-95776896D01*
X100083775Y-95749524D01*
X100081438Y-95709354D01*
X100079467Y-95653128D01*
X100077425Y-95577589D01*
X100071781Y-95358458D01*
X99806492Y-95599099D01*
X99732658Y-95665875D01*
X99667478Y-95723991D01*
X99615284Y-95768949D01*
X99574209Y-95801871D01*
X99542391Y-95823879D01*
X99517962Y-95836094D01*
X99499060Y-95839639D01*
X99483819Y-95835636D01*
X99470375Y-95825207D01*
X99456863Y-95809474D01*
X99450618Y-95800991D01*
X99444986Y-95790413D01*
X99440775Y-95776255D01*
X99437823Y-95755803D01*
X99435968Y-95726342D01*
X99435049Y-95685161D01*
X99434904Y-95629544D01*
X99435371Y-95556779D01*
X99436288Y-95464151D01*
X99439603Y-95149199D01*
X99466254Y-95127633D01*
X99492319Y-95111441D01*
X99525177Y-95108670D01*
X99559708Y-95127623D01*
X99564020Y-95131208D01*
X99572152Y-95139737D01*
X99578181Y-95151329D01*
X99582542Y-95169235D01*
X99585670Y-95196706D01*
X99587999Y-95236994D01*
X99589965Y-95293351D01*
X99592003Y-95369029D01*
X99597647Y-95588878D01*
X99778270Y-95425084D01*
X99865008Y-95346451D01*
X99940779Y-95278058D01*
X100002916Y-95222708D01*
X100053014Y-95179338D01*
X100092671Y-95146881D01*
X100123484Y-95124273D01*
X100147050Y-95110448D01*
X100164966Y-95104343D01*
X100178829Y-95104892D01*
G36*
X100178829Y-95104892D02*
G01*
X100190237Y-95111029D01*
X100200786Y-95121691D01*
X100212072Y-95135811D01*
X100216525Y-95141772D01*
X100222524Y-95152268D01*
X100227103Y-95166093D01*
X100230455Y-95185998D01*
X100232769Y-95214732D01*
X100234237Y-95255045D01*
X100235049Y-95309687D01*
X100235396Y-95381407D01*
X100235470Y-95472956D01*
X100235447Y-95531486D01*
X100235228Y-95610573D01*
X100234619Y-95671516D01*
X100233428Y-95717062D01*
X100231465Y-95749963D01*
X100228539Y-95772968D01*
X100224459Y-95788826D01*
X100219033Y-95800286D01*
X100212072Y-95810100D01*
X100181644Y-95834493D01*
X100146701Y-95837372D01*
X100109720Y-95818282D01*
X100105536Y-95814807D01*
X100097360Y-95806279D01*
X100091300Y-95794728D01*
X100086917Y-95776896D01*
X100083775Y-95749524D01*
X100081438Y-95709354D01*
X100079467Y-95653128D01*
X100077425Y-95577589D01*
X100071781Y-95358458D01*
X99806492Y-95599099D01*
X99732658Y-95665875D01*
X99667478Y-95723991D01*
X99615284Y-95768949D01*
X99574209Y-95801871D01*
X99542391Y-95823879D01*
X99517962Y-95836094D01*
X99499060Y-95839639D01*
X99483819Y-95835636D01*
X99470375Y-95825207D01*
X99456863Y-95809474D01*
X99450618Y-95800991D01*
X99444986Y-95790413D01*
X99440775Y-95776255D01*
X99437823Y-95755803D01*
X99435968Y-95726342D01*
X99435049Y-95685161D01*
X99434904Y-95629544D01*
X99435371Y-95556779D01*
X99436288Y-95464151D01*
X99439603Y-95149199D01*
X99466254Y-95127633D01*
X99492319Y-95111441D01*
X99525177Y-95108670D01*
X99559708Y-95127623D01*
X99564020Y-95131208D01*
X99572152Y-95139737D01*
X99578181Y-95151329D01*
X99582542Y-95169235D01*
X99585670Y-95196706D01*
X99587999Y-95236994D01*
X99589965Y-95293351D01*
X99592003Y-95369029D01*
X99597647Y-95588878D01*
X99778270Y-95425084D01*
X99865008Y-95346451D01*
X99940779Y-95278058D01*
X100002916Y-95222708D01*
X100053014Y-95179338D01*
X100092671Y-95146881D01*
X100123484Y-95124273D01*
X100147050Y-95110448D01*
X100164966Y-95104343D01*
X100178829Y-95104892D01*
G37*
X100976086Y-95111179D02*
X101082093Y-95127494D01*
X101175905Y-95155545D01*
X101254701Y-95194452D01*
X101315655Y-95243334D01*
X101341725Y-95276195D01*
X101371233Y-95325394D01*
X101396504Y-95379252D01*
X101414154Y-95430419D01*
X101420794Y-95471544D01*
X101419234Y-95491259D01*
X101406293Y-95542592D01*
X101383130Y-95599118D01*
X101353238Y-95653035D01*
X101320109Y-95696539D01*
X101309913Y-95706887D01*
X101242828Y-95758662D01*
X101162702Y-95798554D01*
X101076492Y-95822956D01*
X101021528Y-95831068D01*
X100928075Y-95837673D01*
X100838294Y-95835586D01*
X100755805Y-95825340D01*
X100684222Y-95807470D01*
X100627164Y-95782508D01*
X100588247Y-95750988D01*
X100586872Y-95749012D01*
X100579784Y-95723786D01*
X100575545Y-95676535D01*
X100574136Y-95607071D01*
X100574996Y-95544838D01*
X100579716Y-95497456D01*
X100591406Y-95465353D01*
X100613175Y-95445800D01*
X100648134Y-95436070D01*
X100699392Y-95433433D01*
X100770059Y-95435161D01*
X100818679Y-95438173D01*
X100868875Y-95446366D01*
X100901369Y-95460419D01*
X100918828Y-95481654D01*
X100923919Y-95511394D01*
X100923813Y-95515936D01*
X100915111Y-95550730D01*
X100891101Y-95574147D01*
X100849836Y-95587347D01*
X100789367Y-95591489D01*
X100720892Y-95591489D01*
X100720892Y-95629841D01*
X100720942Y-95638976D01*
X100723163Y-95656227D01*
X100732430Y-95666521D01*
X100753811Y-95673459D01*
X100792372Y-95680641D01*
X100797846Y-95681575D01*
X100894796Y-95691478D01*
X100984788Y-95688559D01*
X101065696Y-95673829D01*
X101135395Y-95648299D01*
X101191760Y-95612978D01*
X101232665Y-95568879D01*
X101255987Y-95517012D01*
X101259599Y-95458388D01*
X101254081Y-95429494D01*
X101227397Y-95373604D01*
X101181209Y-95327945D01*
X101116227Y-95293108D01*
X101033165Y-95269690D01*
X101008491Y-95265241D01*
X100919162Y-95254742D01*
X100839355Y-95255971D01*
X100761262Y-95268906D01*
X100726119Y-95275696D01*
X100680681Y-95276713D01*
X100649366Y-95264182D01*
X100629213Y-95237395D01*
X100622829Y-95209148D01*
X100632315Y-95177924D01*
X100641644Y-95164499D01*
X100675879Y-95140967D01*
X100728501Y-95123095D01*
X100797017Y-95111599D01*
X100878936Y-95107192D01*
X100976086Y-95111179D01*
G36*
X100976086Y-95111179D02*
G01*
X101082093Y-95127494D01*
X101175905Y-95155545D01*
X101254701Y-95194452D01*
X101315655Y-95243334D01*
X101341725Y-95276195D01*
X101371233Y-95325394D01*
X101396504Y-95379252D01*
X101414154Y-95430419D01*
X101420794Y-95471544D01*
X101419234Y-95491259D01*
X101406293Y-95542592D01*
X101383130Y-95599118D01*
X101353238Y-95653035D01*
X101320109Y-95696539D01*
X101309913Y-95706887D01*
X101242828Y-95758662D01*
X101162702Y-95798554D01*
X101076492Y-95822956D01*
X101021528Y-95831068D01*
X100928075Y-95837673D01*
X100838294Y-95835586D01*
X100755805Y-95825340D01*
X100684222Y-95807470D01*
X100627164Y-95782508D01*
X100588247Y-95750988D01*
X100586872Y-95749012D01*
X100579784Y-95723786D01*
X100575545Y-95676535D01*
X100574136Y-95607071D01*
X100574996Y-95544838D01*
X100579716Y-95497456D01*
X100591406Y-95465353D01*
X100613175Y-95445800D01*
X100648134Y-95436070D01*
X100699392Y-95433433D01*
X100770059Y-95435161D01*
X100818679Y-95438173D01*
X100868875Y-95446366D01*
X100901369Y-95460419D01*
X100918828Y-95481654D01*
X100923919Y-95511394D01*
X100923813Y-95515936D01*
X100915111Y-95550730D01*
X100891101Y-95574147D01*
X100849836Y-95587347D01*
X100789367Y-95591489D01*
X100720892Y-95591489D01*
X100720892Y-95629841D01*
X100720942Y-95638976D01*
X100723163Y-95656227D01*
X100732430Y-95666521D01*
X100753811Y-95673459D01*
X100792372Y-95680641D01*
X100797846Y-95681575D01*
X100894796Y-95691478D01*
X100984788Y-95688559D01*
X101065696Y-95673829D01*
X101135395Y-95648299D01*
X101191760Y-95612978D01*
X101232665Y-95568879D01*
X101255987Y-95517012D01*
X101259599Y-95458388D01*
X101254081Y-95429494D01*
X101227397Y-95373604D01*
X101181209Y-95327945D01*
X101116227Y-95293108D01*
X101033165Y-95269690D01*
X101008491Y-95265241D01*
X100919162Y-95254742D01*
X100839355Y-95255971D01*
X100761262Y-95268906D01*
X100726119Y-95275696D01*
X100680681Y-95276713D01*
X100649366Y-95264182D01*
X100629213Y-95237395D01*
X100622829Y-95209148D01*
X100632315Y-95177924D01*
X100641644Y-95164499D01*
X100675879Y-95140967D01*
X100728501Y-95123095D01*
X100797017Y-95111599D01*
X100878936Y-95107192D01*
X100976086Y-95111179D01*
G37*
X99026739Y-95135811D02*
X99031688Y-95142495D01*
X99037532Y-95153066D01*
X99041993Y-95167153D01*
X99045257Y-95187478D01*
X99047510Y-95216765D01*
X99048938Y-95257737D01*
X99049728Y-95313117D01*
X99050065Y-95385628D01*
X99050136Y-95477994D01*
X99050107Y-95543911D01*
X99049875Y-95622228D01*
X99049255Y-95682496D01*
X99048062Y-95727393D01*
X99046115Y-95759602D01*
X99043230Y-95781800D01*
X99039224Y-95796669D01*
X99033915Y-95806889D01*
X99027119Y-95815138D01*
X99022604Y-95819795D01*
X99014374Y-95826282D01*
X99003014Y-95831194D01*
X98985746Y-95834749D01*
X98959791Y-95837167D01*
X98922372Y-95838667D01*
X98870709Y-95839467D01*
X98802025Y-95839787D01*
X98713542Y-95839845D01*
X98693867Y-95839838D01*
X98606842Y-95839572D01*
X98539190Y-95838806D01*
X98488235Y-95837392D01*
X98451303Y-95835180D01*
X98425719Y-95832022D01*
X98408807Y-95827769D01*
X98397893Y-95822271D01*
X98387400Y-95812285D01*
X98374139Y-95781168D01*
X98375322Y-95745280D01*
X98391486Y-95713733D01*
X98393675Y-95711457D01*
X98402363Y-95705189D01*
X98415705Y-95700523D01*
X98436688Y-95697227D01*
X98468299Y-95695068D01*
X98513526Y-95693814D01*
X98575356Y-95693231D01*
X98656775Y-95693089D01*
X98903381Y-95693089D01*
X98903381Y-95535045D01*
X98740942Y-95535045D01*
X98705274Y-95534964D01*
X98649504Y-95534167D01*
X98610366Y-95532162D01*
X98583912Y-95528521D01*
X98566195Y-95522812D01*
X98553265Y-95514607D01*
X98549622Y-95511423D01*
X98531214Y-95480448D01*
X98530580Y-95444112D01*
X98548119Y-95410493D01*
X98548181Y-95410424D01*
X98557852Y-95401798D01*
X98571145Y-95395742D01*
X98591853Y-95391811D01*
X98623764Y-95389556D01*
X98670670Y-95388531D01*
X98736360Y-95388289D01*
X98904507Y-95388289D01*
X98901122Y-95323378D01*
X98897736Y-95258467D01*
X98655659Y-95255414D01*
X98630643Y-95255086D01*
X98549023Y-95253606D01*
X98486704Y-95251222D01*
X98441090Y-95247227D01*
X98409588Y-95240913D01*
X98389603Y-95231574D01*
X98378540Y-95218503D01*
X98373805Y-95200992D01*
X98372803Y-95178335D01*
X98372809Y-95175970D01*
X98373963Y-95155939D01*
X98378760Y-95140146D01*
X98389568Y-95128090D01*
X98408753Y-95119267D01*
X98438681Y-95113175D01*
X98481719Y-95109311D01*
X98540235Y-95107174D01*
X98616593Y-95106260D01*
X98713162Y-95106067D01*
X99003342Y-95106067D01*
X99026739Y-95135811D01*
G36*
X99026739Y-95135811D02*
G01*
X99031688Y-95142495D01*
X99037532Y-95153066D01*
X99041993Y-95167153D01*
X99045257Y-95187478D01*
X99047510Y-95216765D01*
X99048938Y-95257737D01*
X99049728Y-95313117D01*
X99050065Y-95385628D01*
X99050136Y-95477994D01*
X99050107Y-95543911D01*
X99049875Y-95622228D01*
X99049255Y-95682496D01*
X99048062Y-95727393D01*
X99046115Y-95759602D01*
X99043230Y-95781800D01*
X99039224Y-95796669D01*
X99033915Y-95806889D01*
X99027119Y-95815138D01*
X99022604Y-95819795D01*
X99014374Y-95826282D01*
X99003014Y-95831194D01*
X98985746Y-95834749D01*
X98959791Y-95837167D01*
X98922372Y-95838667D01*
X98870709Y-95839467D01*
X98802025Y-95839787D01*
X98713542Y-95839845D01*
X98693867Y-95839838D01*
X98606842Y-95839572D01*
X98539190Y-95838806D01*
X98488235Y-95837392D01*
X98451303Y-95835180D01*
X98425719Y-95832022D01*
X98408807Y-95827769D01*
X98397893Y-95822271D01*
X98387400Y-95812285D01*
X98374139Y-95781168D01*
X98375322Y-95745280D01*
X98391486Y-95713733D01*
X98393675Y-95711457D01*
X98402363Y-95705189D01*
X98415705Y-95700523D01*
X98436688Y-95697227D01*
X98468299Y-95695068D01*
X98513526Y-95693814D01*
X98575356Y-95693231D01*
X98656775Y-95693089D01*
X98903381Y-95693089D01*
X98903381Y-95535045D01*
X98740942Y-95535045D01*
X98705274Y-95534964D01*
X98649504Y-95534167D01*
X98610366Y-95532162D01*
X98583912Y-95528521D01*
X98566195Y-95522812D01*
X98553265Y-95514607D01*
X98549622Y-95511423D01*
X98531214Y-95480448D01*
X98530580Y-95444112D01*
X98548119Y-95410493D01*
X98548181Y-95410424D01*
X98557852Y-95401798D01*
X98571145Y-95395742D01*
X98591853Y-95391811D01*
X98623764Y-95389556D01*
X98670670Y-95388531D01*
X98736360Y-95388289D01*
X98904507Y-95388289D01*
X98901122Y-95323378D01*
X98897736Y-95258467D01*
X98655659Y-95255414D01*
X98630643Y-95255086D01*
X98549023Y-95253606D01*
X98486704Y-95251222D01*
X98441090Y-95247227D01*
X98409588Y-95240913D01*
X98389603Y-95231574D01*
X98378540Y-95218503D01*
X98373805Y-95200992D01*
X98372803Y-95178335D01*
X98372809Y-95175970D01*
X98373963Y-95155939D01*
X98378760Y-95140146D01*
X98389568Y-95128090D01*
X98408753Y-95119267D01*
X98438681Y-95113175D01*
X98481719Y-95109311D01*
X98540235Y-95107174D01*
X98616593Y-95106260D01*
X98713162Y-95106067D01*
X99003342Y-95106067D01*
X99026739Y-95135811D01*
G37*
X103703670Y-95106083D02*
X103780767Y-95106275D01*
X103839713Y-95106860D01*
X103883300Y-95108051D01*
X103914319Y-95110064D01*
X103935561Y-95113112D01*
X103949818Y-95117409D01*
X103959881Y-95123172D01*
X103968542Y-95130612D01*
X103970327Y-95132293D01*
X103977571Y-95139832D01*
X103983213Y-95148850D01*
X103987453Y-95161984D01*
X103990492Y-95181872D01*
X103992530Y-95211151D01*
X103993766Y-95252458D01*
X103994401Y-95308431D01*
X103994636Y-95381707D01*
X103994670Y-95474923D01*
X103994633Y-95547713D01*
X103994384Y-95625889D01*
X103993748Y-95686103D01*
X103992551Y-95730982D01*
X103990620Y-95763152D01*
X103987782Y-95785239D01*
X103983863Y-95799870D01*
X103978691Y-95809670D01*
X103972092Y-95817267D01*
X103968758Y-95820444D01*
X103960236Y-95826554D01*
X103948234Y-95831229D01*
X103930023Y-95834659D01*
X103902876Y-95837036D01*
X103864065Y-95838552D01*
X103810860Y-95839398D01*
X103740534Y-95839765D01*
X103650358Y-95839845D01*
X103608250Y-95839833D01*
X103527103Y-95839651D01*
X103464611Y-95839098D01*
X103418045Y-95837982D01*
X103384677Y-95836113D01*
X103361780Y-95833298D01*
X103346624Y-95829346D01*
X103336482Y-95824066D01*
X103328625Y-95817267D01*
X103313899Y-95795667D01*
X103306047Y-95766467D01*
X103311546Y-95742560D01*
X103328625Y-95715667D01*
X103333604Y-95711059D01*
X103343379Y-95704772D01*
X103357495Y-95700146D01*
X103378990Y-95696930D01*
X103410904Y-95694870D01*
X103456278Y-95693712D01*
X103518149Y-95693202D01*
X103599558Y-95693089D01*
X103847914Y-95693089D01*
X103847914Y-95535045D01*
X103686737Y-95535045D01*
X103650919Y-95534899D01*
X103585295Y-95533176D01*
X103538054Y-95528741D01*
X103506319Y-95520637D01*
X103487213Y-95507906D01*
X103477859Y-95489592D01*
X103475381Y-95464738D01*
X103476178Y-95444482D01*
X103481430Y-95422656D01*
X103494224Y-95407304D01*
X103517564Y-95397309D01*
X103554453Y-95391553D01*
X103607895Y-95388919D01*
X103680894Y-95388289D01*
X103849041Y-95388289D01*
X103845655Y-95323378D01*
X103842270Y-95258467D01*
X103594553Y-95255418D01*
X103531962Y-95254539D01*
X103463501Y-95253095D01*
X103412597Y-95251164D01*
X103376344Y-95248514D01*
X103351837Y-95244910D01*
X103336171Y-95240121D01*
X103326442Y-95233913D01*
X103320427Y-95227510D01*
X103307418Y-95195828D01*
X103310979Y-95160142D01*
X103330754Y-95129084D01*
X103334005Y-95126161D01*
X103342985Y-95119810D01*
X103355089Y-95114957D01*
X103373095Y-95111403D01*
X103399783Y-95108946D01*
X103437933Y-95107385D01*
X103490322Y-95106518D01*
X103559730Y-95106146D01*
X103648937Y-95106067D01*
X103703670Y-95106083D01*
G36*
X103703670Y-95106083D02*
G01*
X103780767Y-95106275D01*
X103839713Y-95106860D01*
X103883300Y-95108051D01*
X103914319Y-95110064D01*
X103935561Y-95113112D01*
X103949818Y-95117409D01*
X103959881Y-95123172D01*
X103968542Y-95130612D01*
X103970327Y-95132293D01*
X103977571Y-95139832D01*
X103983213Y-95148850D01*
X103987453Y-95161984D01*
X103990492Y-95181872D01*
X103992530Y-95211151D01*
X103993766Y-95252458D01*
X103994401Y-95308431D01*
X103994636Y-95381707D01*
X103994670Y-95474923D01*
X103994633Y-95547713D01*
X103994384Y-95625889D01*
X103993748Y-95686103D01*
X103992551Y-95730982D01*
X103990620Y-95763152D01*
X103987782Y-95785239D01*
X103983863Y-95799870D01*
X103978691Y-95809670D01*
X103972092Y-95817267D01*
X103968758Y-95820444D01*
X103960236Y-95826554D01*
X103948234Y-95831229D01*
X103930023Y-95834659D01*
X103902876Y-95837036D01*
X103864065Y-95838552D01*
X103810860Y-95839398D01*
X103740534Y-95839765D01*
X103650358Y-95839845D01*
X103608250Y-95839833D01*
X103527103Y-95839651D01*
X103464611Y-95839098D01*
X103418045Y-95837982D01*
X103384677Y-95836113D01*
X103361780Y-95833298D01*
X103346624Y-95829346D01*
X103336482Y-95824066D01*
X103328625Y-95817267D01*
X103313899Y-95795667D01*
X103306047Y-95766467D01*
X103311546Y-95742560D01*
X103328625Y-95715667D01*
X103333604Y-95711059D01*
X103343379Y-95704772D01*
X103357495Y-95700146D01*
X103378990Y-95696930D01*
X103410904Y-95694870D01*
X103456278Y-95693712D01*
X103518149Y-95693202D01*
X103599558Y-95693089D01*
X103847914Y-95693089D01*
X103847914Y-95535045D01*
X103686737Y-95535045D01*
X103650919Y-95534899D01*
X103585295Y-95533176D01*
X103538054Y-95528741D01*
X103506319Y-95520637D01*
X103487213Y-95507906D01*
X103477859Y-95489592D01*
X103475381Y-95464738D01*
X103476178Y-95444482D01*
X103481430Y-95422656D01*
X103494224Y-95407304D01*
X103517564Y-95397309D01*
X103554453Y-95391553D01*
X103607895Y-95388919D01*
X103680894Y-95388289D01*
X103849041Y-95388289D01*
X103845655Y-95323378D01*
X103842270Y-95258467D01*
X103594553Y-95255418D01*
X103531962Y-95254539D01*
X103463501Y-95253095D01*
X103412597Y-95251164D01*
X103376344Y-95248514D01*
X103351837Y-95244910D01*
X103336171Y-95240121D01*
X103326442Y-95233913D01*
X103320427Y-95227510D01*
X103307418Y-95195828D01*
X103310979Y-95160142D01*
X103330754Y-95129084D01*
X103334005Y-95126161D01*
X103342985Y-95119810D01*
X103355089Y-95114957D01*
X103373095Y-95111403D01*
X103399783Y-95108946D01*
X103437933Y-95107385D01*
X103490322Y-95106518D01*
X103559730Y-95106146D01*
X103648937Y-95106067D01*
X103703670Y-95106083D01*
G37*
X95136638Y-95115478D02*
X95154599Y-95133989D01*
X95175199Y-95165071D01*
X95200031Y-95210756D01*
X95230686Y-95273078D01*
X95268756Y-95354071D01*
X95283390Y-95385454D01*
X95313139Y-95448638D01*
X95339233Y-95503244D01*
X95360228Y-95546290D01*
X95374675Y-95574793D01*
X95381127Y-95585770D01*
X95382486Y-95585189D01*
X95392478Y-95571242D01*
X95409769Y-95541704D01*
X95432366Y-95500087D01*
X95458274Y-95449903D01*
X95474247Y-95418414D01*
X95503197Y-95363061D01*
X95525685Y-95324044D01*
X95543901Y-95298566D01*
X95560032Y-95283831D01*
X95576266Y-95277042D01*
X95594793Y-95275400D01*
X95605296Y-95275875D01*
X95621412Y-95280082D01*
X95636726Y-95290946D01*
X95653324Y-95311219D01*
X95673293Y-95343654D01*
X95698719Y-95391004D01*
X95731688Y-95456022D01*
X95741421Y-95475277D01*
X95765879Y-95521946D01*
X95786114Y-95558109D01*
X95800247Y-95580497D01*
X95806396Y-95585845D01*
X95807763Y-95582573D01*
X95817138Y-95561664D01*
X95833998Y-95524725D01*
X95856915Y-95474874D01*
X95884456Y-95415226D01*
X95915191Y-95348898D01*
X95941906Y-95291677D01*
X95971529Y-95229688D01*
X95994600Y-95183949D01*
X96012579Y-95151908D01*
X96026926Y-95131014D01*
X96039102Y-95118718D01*
X96050568Y-95112466D01*
X96059978Y-95109574D01*
X96085083Y-95109425D01*
X96112226Y-95124768D01*
X96113526Y-95125753D01*
X96135610Y-95148388D01*
X96146659Y-95170613D01*
X96146705Y-95171253D01*
X96142164Y-95188915D01*
X96129300Y-95223481D01*
X96109541Y-95271826D01*
X96084317Y-95330825D01*
X96055055Y-95397355D01*
X96023186Y-95468291D01*
X95990137Y-95540507D01*
X95957337Y-95610880D01*
X95926216Y-95676285D01*
X95898201Y-95733597D01*
X95874722Y-95779692D01*
X95857208Y-95811446D01*
X95847087Y-95825733D01*
X95812679Y-95839102D01*
X95770982Y-95832741D01*
X95765617Y-95828044D01*
X95749788Y-95805893D01*
X95727586Y-95769132D01*
X95701169Y-95721415D01*
X95672696Y-95666393D01*
X95592922Y-95507150D01*
X95519735Y-95653742D01*
X95510039Y-95673032D01*
X95483061Y-95725380D01*
X95459032Y-95770170D01*
X95440268Y-95803154D01*
X95429082Y-95820089D01*
X95427936Y-95821332D01*
X95399815Y-95836619D01*
X95364753Y-95838302D01*
X95333712Y-95825733D01*
X95331286Y-95822884D01*
X95319026Y-95802259D01*
X95299288Y-95764708D01*
X95273384Y-95712880D01*
X95242621Y-95649423D01*
X95208311Y-95576985D01*
X95171761Y-95498216D01*
X95151521Y-95454093D01*
X95114748Y-95373365D01*
X95086291Y-95309687D01*
X95065267Y-95260752D01*
X95050790Y-95224257D01*
X95041975Y-95197895D01*
X95037940Y-95179361D01*
X95037798Y-95166352D01*
X95040666Y-95156561D01*
X95055323Y-95135678D01*
X95081926Y-95115377D01*
X95082681Y-95115035D01*
X95102271Y-95108034D01*
X95119726Y-95107504D01*
X95136638Y-95115478D01*
G36*
X95136638Y-95115478D02*
G01*
X95154599Y-95133989D01*
X95175199Y-95165071D01*
X95200031Y-95210756D01*
X95230686Y-95273078D01*
X95268756Y-95354071D01*
X95283390Y-95385454D01*
X95313139Y-95448638D01*
X95339233Y-95503244D01*
X95360228Y-95546290D01*
X95374675Y-95574793D01*
X95381127Y-95585770D01*
X95382486Y-95585189D01*
X95392478Y-95571242D01*
X95409769Y-95541704D01*
X95432366Y-95500087D01*
X95458274Y-95449903D01*
X95474247Y-95418414D01*
X95503197Y-95363061D01*
X95525685Y-95324044D01*
X95543901Y-95298566D01*
X95560032Y-95283831D01*
X95576266Y-95277042D01*
X95594793Y-95275400D01*
X95605296Y-95275875D01*
X95621412Y-95280082D01*
X95636726Y-95290946D01*
X95653324Y-95311219D01*
X95673293Y-95343654D01*
X95698719Y-95391004D01*
X95731688Y-95456022D01*
X95741421Y-95475277D01*
X95765879Y-95521946D01*
X95786114Y-95558109D01*
X95800247Y-95580497D01*
X95806396Y-95585845D01*
X95807763Y-95582573D01*
X95817138Y-95561664D01*
X95833998Y-95524725D01*
X95856915Y-95474874D01*
X95884456Y-95415226D01*
X95915191Y-95348898D01*
X95941906Y-95291677D01*
X95971529Y-95229688D01*
X95994600Y-95183949D01*
X96012579Y-95151908D01*
X96026926Y-95131014D01*
X96039102Y-95118718D01*
X96050568Y-95112466D01*
X96059978Y-95109574D01*
X96085083Y-95109425D01*
X96112226Y-95124768D01*
X96113526Y-95125753D01*
X96135610Y-95148388D01*
X96146659Y-95170613D01*
X96146705Y-95171253D01*
X96142164Y-95188915D01*
X96129300Y-95223481D01*
X96109541Y-95271826D01*
X96084317Y-95330825D01*
X96055055Y-95397355D01*
X96023186Y-95468291D01*
X95990137Y-95540507D01*
X95957337Y-95610880D01*
X95926216Y-95676285D01*
X95898201Y-95733597D01*
X95874722Y-95779692D01*
X95857208Y-95811446D01*
X95847087Y-95825733D01*
X95812679Y-95839102D01*
X95770982Y-95832741D01*
X95765617Y-95828044D01*
X95749788Y-95805893D01*
X95727586Y-95769132D01*
X95701169Y-95721415D01*
X95672696Y-95666393D01*
X95592922Y-95507150D01*
X95519735Y-95653742D01*
X95510039Y-95673032D01*
X95483061Y-95725380D01*
X95459032Y-95770170D01*
X95440268Y-95803154D01*
X95429082Y-95820089D01*
X95427936Y-95821332D01*
X95399815Y-95836619D01*
X95364753Y-95838302D01*
X95333712Y-95825733D01*
X95331286Y-95822884D01*
X95319026Y-95802259D01*
X95299288Y-95764708D01*
X95273384Y-95712880D01*
X95242621Y-95649423D01*
X95208311Y-95576985D01*
X95171761Y-95498216D01*
X95151521Y-95454093D01*
X95114748Y-95373365D01*
X95086291Y-95309687D01*
X95065267Y-95260752D01*
X95050790Y-95224257D01*
X95041975Y-95197895D01*
X95037940Y-95179361D01*
X95037798Y-95166352D01*
X95040666Y-95156561D01*
X95055323Y-95135678D01*
X95081926Y-95115377D01*
X95082681Y-95115035D01*
X95102271Y-95108034D01*
X95119726Y-95107504D01*
X95136638Y-95115478D01*
G37*
X102687789Y-95106936D02*
X102754036Y-95112366D01*
X102809336Y-95121964D01*
X102860219Y-95136825D01*
X102931531Y-95169958D01*
X102982688Y-95212640D01*
X103013511Y-95264705D01*
X103023825Y-95325983D01*
X103022888Y-95357232D01*
X103017096Y-95382029D01*
X103002289Y-95403699D01*
X102974316Y-95431049D01*
X102966338Y-95438378D01*
X102942628Y-95459281D01*
X102920234Y-95476251D01*
X102896201Y-95490205D01*
X102867573Y-95502056D01*
X102831396Y-95512720D01*
X102784716Y-95523111D01*
X102724577Y-95534146D01*
X102648026Y-95546738D01*
X102552107Y-95561804D01*
X102533744Y-95564838D01*
X102471414Y-95578458D01*
X102426196Y-95594192D01*
X102399912Y-95611263D01*
X102394383Y-95628897D01*
X102397004Y-95633168D01*
X102414936Y-95648233D01*
X102443062Y-95664867D01*
X102455862Y-95670857D01*
X102477160Y-95678050D01*
X102503546Y-95682827D01*
X102539390Y-95685646D01*
X102589064Y-95686964D01*
X102656936Y-95687237D01*
X102674721Y-95687164D01*
X102742342Y-95686053D01*
X102807281Y-95683828D01*
X102862906Y-95680762D01*
X102902587Y-95677127D01*
X102938098Y-95673059D01*
X102967351Y-95672276D01*
X102986251Y-95676876D01*
X103001365Y-95687551D01*
X103005021Y-95691144D01*
X103021363Y-95722918D01*
X103020043Y-95758572D01*
X103001086Y-95789190D01*
X102980716Y-95800796D01*
X102944732Y-95813491D01*
X102902308Y-95823541D01*
X102898858Y-95824140D01*
X102856188Y-95829356D01*
X102798802Y-95833730D01*
X102733785Y-95836818D01*
X102668225Y-95838177D01*
X102651993Y-95838218D01*
X102553680Y-95835741D01*
X102473628Y-95827735D01*
X102408449Y-95813203D01*
X102354753Y-95791149D01*
X102309152Y-95760576D01*
X102268259Y-95720486D01*
X102248138Y-95694259D01*
X102236512Y-95664712D01*
X102233603Y-95624995D01*
X102233744Y-95613026D01*
X102237617Y-95580345D01*
X102250001Y-95553819D01*
X102275166Y-95522971D01*
X102296378Y-95500831D01*
X102322774Y-95478285D01*
X102352491Y-95459917D01*
X102388721Y-95444661D01*
X102434653Y-95431449D01*
X102493480Y-95419214D01*
X102568392Y-95406889D01*
X102662581Y-95393406D01*
X102707893Y-95386396D01*
X102775847Y-95371837D01*
X102824983Y-95355337D01*
X102854550Y-95337439D01*
X102863800Y-95318685D01*
X102851984Y-95299615D01*
X102818352Y-95280771D01*
X102815306Y-95279557D01*
X102768947Y-95267479D01*
X102706297Y-95259279D01*
X102632863Y-95255119D01*
X102554153Y-95255161D01*
X102475675Y-95259569D01*
X102402936Y-95268505D01*
X102399009Y-95269154D01*
X102350193Y-95276861D01*
X102317941Y-95280473D01*
X102296944Y-95279876D01*
X102281890Y-95274954D01*
X102267470Y-95265596D01*
X102266300Y-95264725D01*
X102241783Y-95234351D01*
X102236990Y-95198850D01*
X102252796Y-95164269D01*
X102257342Y-95159813D01*
X102286956Y-95144673D01*
X102333938Y-95131550D01*
X102394242Y-95120750D01*
X102463824Y-95112581D01*
X102538639Y-95107351D01*
X102614642Y-95105367D01*
X102687789Y-95106936D01*
G36*
X102687789Y-95106936D02*
G01*
X102754036Y-95112366D01*
X102809336Y-95121964D01*
X102860219Y-95136825D01*
X102931531Y-95169958D01*
X102982688Y-95212640D01*
X103013511Y-95264705D01*
X103023825Y-95325983D01*
X103022888Y-95357232D01*
X103017096Y-95382029D01*
X103002289Y-95403699D01*
X102974316Y-95431049D01*
X102966338Y-95438378D01*
X102942628Y-95459281D01*
X102920234Y-95476251D01*
X102896201Y-95490205D01*
X102867573Y-95502056D01*
X102831396Y-95512720D01*
X102784716Y-95523111D01*
X102724577Y-95534146D01*
X102648026Y-95546738D01*
X102552107Y-95561804D01*
X102533744Y-95564838D01*
X102471414Y-95578458D01*
X102426196Y-95594192D01*
X102399912Y-95611263D01*
X102394383Y-95628897D01*
X102397004Y-95633168D01*
X102414936Y-95648233D01*
X102443062Y-95664867D01*
X102455862Y-95670857D01*
X102477160Y-95678050D01*
X102503546Y-95682827D01*
X102539390Y-95685646D01*
X102589064Y-95686964D01*
X102656936Y-95687237D01*
X102674721Y-95687164D01*
X102742342Y-95686053D01*
X102807281Y-95683828D01*
X102862906Y-95680762D01*
X102902587Y-95677127D01*
X102938098Y-95673059D01*
X102967351Y-95672276D01*
X102986251Y-95676876D01*
X103001365Y-95687551D01*
X103005021Y-95691144D01*
X103021363Y-95722918D01*
X103020043Y-95758572D01*
X103001086Y-95789190D01*
X102980716Y-95800796D01*
X102944732Y-95813491D01*
X102902308Y-95823541D01*
X102898858Y-95824140D01*
X102856188Y-95829356D01*
X102798802Y-95833730D01*
X102733785Y-95836818D01*
X102668225Y-95838177D01*
X102651993Y-95838218D01*
X102553680Y-95835741D01*
X102473628Y-95827735D01*
X102408449Y-95813203D01*
X102354753Y-95791149D01*
X102309152Y-95760576D01*
X102268259Y-95720486D01*
X102248138Y-95694259D01*
X102236512Y-95664712D01*
X102233603Y-95624995D01*
X102233744Y-95613026D01*
X102237617Y-95580345D01*
X102250001Y-95553819D01*
X102275166Y-95522971D01*
X102296378Y-95500831D01*
X102322774Y-95478285D01*
X102352491Y-95459917D01*
X102388721Y-95444661D01*
X102434653Y-95431449D01*
X102493480Y-95419214D01*
X102568392Y-95406889D01*
X102662581Y-95393406D01*
X102707893Y-95386396D01*
X102775847Y-95371837D01*
X102824983Y-95355337D01*
X102854550Y-95337439D01*
X102863800Y-95318685D01*
X102851984Y-95299615D01*
X102818352Y-95280771D01*
X102815306Y-95279557D01*
X102768947Y-95267479D01*
X102706297Y-95259279D01*
X102632863Y-95255119D01*
X102554153Y-95255161D01*
X102475675Y-95259569D01*
X102402936Y-95268505D01*
X102399009Y-95269154D01*
X102350193Y-95276861D01*
X102317941Y-95280473D01*
X102296944Y-95279876D01*
X102281890Y-95274954D01*
X102267470Y-95265596D01*
X102266300Y-95264725D01*
X102241783Y-95234351D01*
X102236990Y-95198850D01*
X102252796Y-95164269D01*
X102257342Y-95159813D01*
X102286956Y-95144673D01*
X102333938Y-95131550D01*
X102394242Y-95120750D01*
X102463824Y-95112581D01*
X102538639Y-95107351D01*
X102614642Y-95105367D01*
X102687789Y-95106936D01*
G37*
X98835647Y-90799033D02*
X98931204Y-90816523D01*
X99095494Y-90861564D01*
X99249525Y-90924656D01*
X99395445Y-91006915D01*
X99535402Y-91109457D01*
X99671544Y-91233399D01*
X99715409Y-91278661D01*
X99827694Y-91410865D01*
X99920908Y-91548832D01*
X99997655Y-91696750D01*
X100060539Y-91858803D01*
X100064356Y-91870391D01*
X100114443Y-92056392D01*
X100147835Y-92252521D01*
X100164520Y-92454568D01*
X100164487Y-92658325D01*
X100147727Y-92859581D01*
X100114228Y-93054128D01*
X100063980Y-93237756D01*
X100020126Y-93355053D01*
X99942284Y-93517951D01*
X99848764Y-93671866D01*
X99741758Y-93813671D01*
X99623455Y-93940239D01*
X99496047Y-94048441D01*
X99418542Y-94101120D01*
X99291661Y-94170750D01*
X99154179Y-94229468D01*
X99012652Y-94274587D01*
X98873638Y-94303422D01*
X98859533Y-94305106D01*
X98816089Y-94308434D01*
X98758659Y-94311275D01*
X98693058Y-94313373D01*
X98625103Y-94314468D01*
X98498314Y-94312140D01*
X98350609Y-94299136D01*
X98212715Y-94274133D01*
X98078950Y-94236318D01*
X98055498Y-94227889D01*
X98007548Y-94208408D01*
X97951076Y-94183473D01*
X97889315Y-94154722D01*
X97825499Y-94123790D01*
X97762862Y-94092315D01*
X97704639Y-94061934D01*
X97654063Y-94034283D01*
X97614369Y-94010999D01*
X97588790Y-93993718D01*
X97580561Y-93984079D01*
X97582012Y-93980984D01*
X97593186Y-93961079D01*
X97614070Y-93925420D01*
X97643201Y-93876459D01*
X97679117Y-93816646D01*
X97720356Y-93748433D01*
X97765453Y-93674271D01*
X97946721Y-93377008D01*
X97993251Y-93421539D01*
X98084659Y-93499865D01*
X98198270Y-93574439D01*
X98316058Y-93628474D01*
X98436495Y-93661290D01*
X98558053Y-93672211D01*
X98599521Y-93670868D01*
X98717016Y-93652612D01*
X98827025Y-93613617D01*
X98928366Y-93554670D01*
X99019857Y-93476557D01*
X99100316Y-93380064D01*
X99168563Y-93265978D01*
X99184844Y-93231724D01*
X99230918Y-93108240D01*
X99266042Y-92969918D01*
X99290133Y-92820561D01*
X99303109Y-92663973D01*
X99304885Y-92503956D01*
X99295379Y-92344314D01*
X99274508Y-92188850D01*
X99242188Y-92041366D01*
X99198335Y-91905667D01*
X99160918Y-91819076D01*
X99096121Y-91705688D01*
X99020708Y-91612070D01*
X98934354Y-91537959D01*
X98836731Y-91483094D01*
X98727513Y-91447212D01*
X98606375Y-91430051D01*
X98536974Y-91428880D01*
X98414104Y-91443141D01*
X98298600Y-91478241D01*
X98191889Y-91533682D01*
X98095400Y-91608964D01*
X98079656Y-91623440D01*
X98049086Y-91649962D01*
X98026745Y-91667138D01*
X98016627Y-91671787D01*
X98014642Y-91669597D01*
X98000177Y-91650721D01*
X97976336Y-91617397D01*
X97944965Y-91572380D01*
X97907910Y-91518425D01*
X97867019Y-91458285D01*
X97824138Y-91394718D01*
X97781114Y-91330476D01*
X97739793Y-91268315D01*
X97702022Y-91210991D01*
X97669648Y-91161257D01*
X97644518Y-91121868D01*
X97628478Y-91095580D01*
X97623375Y-91085147D01*
X97627986Y-91080941D01*
X97647203Y-91075933D01*
X97656774Y-91073386D01*
X97684745Y-91062249D01*
X97726384Y-91043802D01*
X97777931Y-91019725D01*
X97835626Y-90991699D01*
X97846893Y-90986154D01*
X98024623Y-90906889D01*
X98194426Y-90847385D01*
X98358366Y-90807245D01*
X98518507Y-90786071D01*
X98676913Y-90783466D01*
X98835647Y-90799033D01*
G36*
X98835647Y-90799033D02*
G01*
X98931204Y-90816523D01*
X99095494Y-90861564D01*
X99249525Y-90924656D01*
X99395445Y-91006915D01*
X99535402Y-91109457D01*
X99671544Y-91233399D01*
X99715409Y-91278661D01*
X99827694Y-91410865D01*
X99920908Y-91548832D01*
X99997655Y-91696750D01*
X100060539Y-91858803D01*
X100064356Y-91870391D01*
X100114443Y-92056392D01*
X100147835Y-92252521D01*
X100164520Y-92454568D01*
X100164487Y-92658325D01*
X100147727Y-92859581D01*
X100114228Y-93054128D01*
X100063980Y-93237756D01*
X100020126Y-93355053D01*
X99942284Y-93517951D01*
X99848764Y-93671866D01*
X99741758Y-93813671D01*
X99623455Y-93940239D01*
X99496047Y-94048441D01*
X99418542Y-94101120D01*
X99291661Y-94170750D01*
X99154179Y-94229468D01*
X99012652Y-94274587D01*
X98873638Y-94303422D01*
X98859533Y-94305106D01*
X98816089Y-94308434D01*
X98758659Y-94311275D01*
X98693058Y-94313373D01*
X98625103Y-94314468D01*
X98498314Y-94312140D01*
X98350609Y-94299136D01*
X98212715Y-94274133D01*
X98078950Y-94236318D01*
X98055498Y-94227889D01*
X98007548Y-94208408D01*
X97951076Y-94183473D01*
X97889315Y-94154722D01*
X97825499Y-94123790D01*
X97762862Y-94092315D01*
X97704639Y-94061934D01*
X97654063Y-94034283D01*
X97614369Y-94010999D01*
X97588790Y-93993718D01*
X97580561Y-93984079D01*
X97582012Y-93980984D01*
X97593186Y-93961079D01*
X97614070Y-93925420D01*
X97643201Y-93876459D01*
X97679117Y-93816646D01*
X97720356Y-93748433D01*
X97765453Y-93674271D01*
X97946721Y-93377008D01*
X97993251Y-93421539D01*
X98084659Y-93499865D01*
X98198270Y-93574439D01*
X98316058Y-93628474D01*
X98436495Y-93661290D01*
X98558053Y-93672211D01*
X98599521Y-93670868D01*
X98717016Y-93652612D01*
X98827025Y-93613617D01*
X98928366Y-93554670D01*
X99019857Y-93476557D01*
X99100316Y-93380064D01*
X99168563Y-93265978D01*
X99184844Y-93231724D01*
X99230918Y-93108240D01*
X99266042Y-92969918D01*
X99290133Y-92820561D01*
X99303109Y-92663973D01*
X99304885Y-92503956D01*
X99295379Y-92344314D01*
X99274508Y-92188850D01*
X99242188Y-92041366D01*
X99198335Y-91905667D01*
X99160918Y-91819076D01*
X99096121Y-91705688D01*
X99020708Y-91612070D01*
X98934354Y-91537959D01*
X98836731Y-91483094D01*
X98727513Y-91447212D01*
X98606375Y-91430051D01*
X98536974Y-91428880D01*
X98414104Y-91443141D01*
X98298600Y-91478241D01*
X98191889Y-91533682D01*
X98095400Y-91608964D01*
X98079656Y-91623440D01*
X98049086Y-91649962D01*
X98026745Y-91667138D01*
X98016627Y-91671787D01*
X98014642Y-91669597D01*
X98000177Y-91650721D01*
X97976336Y-91617397D01*
X97944965Y-91572380D01*
X97907910Y-91518425D01*
X97867019Y-91458285D01*
X97824138Y-91394718D01*
X97781114Y-91330476D01*
X97739793Y-91268315D01*
X97702022Y-91210991D01*
X97669648Y-91161257D01*
X97644518Y-91121868D01*
X97628478Y-91095580D01*
X97623375Y-91085147D01*
X97627986Y-91080941D01*
X97647203Y-91075933D01*
X97656774Y-91073386D01*
X97684745Y-91062249D01*
X97726384Y-91043802D01*
X97777931Y-91019725D01*
X97835626Y-90991699D01*
X97846893Y-90986154D01*
X98024623Y-90906889D01*
X98194426Y-90847385D01*
X98358366Y-90807245D01*
X98518507Y-90786071D01*
X98676913Y-90783466D01*
X98835647Y-90799033D01*
G37*
X95032930Y-93079711D02*
X95032204Y-93157158D01*
X95023625Y-93308594D01*
X95004769Y-93445283D01*
X94974773Y-93571276D01*
X94932772Y-93690625D01*
X94877905Y-93807381D01*
X94811103Y-93918179D01*
X94720299Y-94031739D01*
X94616644Y-94127211D01*
X94500823Y-94204073D01*
X94373522Y-94261797D01*
X94235425Y-94299858D01*
X94197729Y-94305666D01*
X94118688Y-94311396D01*
X94030565Y-94311583D01*
X93941172Y-94306539D01*
X93858320Y-94296578D01*
X93789823Y-94282012D01*
X93758971Y-94272364D01*
X93681666Y-94242123D01*
X93604615Y-94204617D01*
X93535136Y-94163614D01*
X93480551Y-94122879D01*
X93457852Y-94103505D01*
X93435137Y-94085662D01*
X93423715Y-94078778D01*
X93422473Y-94080424D01*
X93419664Y-94098205D01*
X93417712Y-94131370D01*
X93416981Y-94174733D01*
X93416981Y-94270689D01*
X92558832Y-94270689D01*
X92593097Y-94209974D01*
X92598291Y-94200868D01*
X92606651Y-94186249D01*
X92614224Y-94172173D01*
X92621048Y-94157540D01*
X92627163Y-94141249D01*
X92632609Y-94122198D01*
X92637423Y-94099286D01*
X92641644Y-94071413D01*
X92645313Y-94037478D01*
X92648467Y-93996379D01*
X92651147Y-93947015D01*
X92653390Y-93888286D01*
X92655235Y-93819090D01*
X92656723Y-93738326D01*
X92657891Y-93644894D01*
X92658780Y-93537692D01*
X92659427Y-93415620D01*
X92659872Y-93277576D01*
X92660154Y-93122459D01*
X92660311Y-92949168D01*
X92660384Y-92756603D01*
X92660410Y-92543662D01*
X92660421Y-92407530D01*
X93462136Y-92407530D01*
X93462136Y-93557721D01*
X93532692Y-93604089D01*
X93573353Y-93627791D01*
X93627482Y-93653639D01*
X93676625Y-93671829D01*
X93740101Y-93687551D01*
X93836267Y-93698541D01*
X93920836Y-93690365D01*
X93994155Y-93662805D01*
X94056573Y-93615642D01*
X94108438Y-93548658D01*
X94150096Y-93461633D01*
X94181898Y-93354350D01*
X94184481Y-93342009D01*
X94192936Y-93280772D01*
X94198599Y-93203692D01*
X94201512Y-93116002D01*
X94201719Y-93022934D01*
X94199266Y-92929720D01*
X94194197Y-92841594D01*
X94186555Y-92763788D01*
X94176384Y-92701533D01*
X94175103Y-92695666D01*
X94146062Y-92585121D01*
X94111546Y-92494575D01*
X94070392Y-92421953D01*
X94021435Y-92365181D01*
X93963510Y-92322184D01*
X93931556Y-92306615D01*
X93858720Y-92287722D01*
X93777379Y-92284465D01*
X93692255Y-92296389D01*
X93608069Y-92323040D01*
X93529544Y-92363962D01*
X93462136Y-92407530D01*
X92660421Y-92407530D01*
X92660429Y-92309245D01*
X92660625Y-90624378D01*
X93565953Y-90624378D01*
X93541521Y-90661067D01*
X93535254Y-90670647D01*
X93509144Y-90716981D01*
X93491405Y-90764102D01*
X93479844Y-90819251D01*
X93472267Y-90889667D01*
X93471775Y-90896650D01*
X93469998Y-90934641D01*
X93468380Y-90988576D01*
X93466935Y-91055703D01*
X93465676Y-91133271D01*
X93464616Y-91218528D01*
X93463765Y-91308724D01*
X93463139Y-91401107D01*
X93462748Y-91492925D01*
X93462606Y-91581427D01*
X93462726Y-91663862D01*
X93463119Y-91737479D01*
X93463798Y-91799526D01*
X93464777Y-91847251D01*
X93466068Y-91877904D01*
X93467683Y-91888733D01*
X93475893Y-91884333D01*
X93497583Y-91869362D01*
X93526950Y-91847448D01*
X93575815Y-91813236D01*
X93664061Y-91766714D01*
X93762852Y-91733046D01*
X93875446Y-91711231D01*
X94005100Y-91700265D01*
X94097606Y-91699219D01*
X94218947Y-91709014D01*
X94329035Y-91733174D01*
X94432325Y-91772785D01*
X94533274Y-91828932D01*
X94578439Y-91859883D01*
X94683847Y-91951115D01*
X94775474Y-92060106D01*
X94853268Y-92186726D01*
X94917177Y-92330845D01*
X94967150Y-92492332D01*
X95003134Y-92671059D01*
X95025079Y-92866895D01*
X95030836Y-93022934D01*
X95032930Y-93079711D01*
G36*
X95032930Y-93079711D02*
G01*
X95032204Y-93157158D01*
X95023625Y-93308594D01*
X95004769Y-93445283D01*
X94974773Y-93571276D01*
X94932772Y-93690625D01*
X94877905Y-93807381D01*
X94811103Y-93918179D01*
X94720299Y-94031739D01*
X94616644Y-94127211D01*
X94500823Y-94204073D01*
X94373522Y-94261797D01*
X94235425Y-94299858D01*
X94197729Y-94305666D01*
X94118688Y-94311396D01*
X94030565Y-94311583D01*
X93941172Y-94306539D01*
X93858320Y-94296578D01*
X93789823Y-94282012D01*
X93758971Y-94272364D01*
X93681666Y-94242123D01*
X93604615Y-94204617D01*
X93535136Y-94163614D01*
X93480551Y-94122879D01*
X93457852Y-94103505D01*
X93435137Y-94085662D01*
X93423715Y-94078778D01*
X93422473Y-94080424D01*
X93419664Y-94098205D01*
X93417712Y-94131370D01*
X93416981Y-94174733D01*
X93416981Y-94270689D01*
X92558832Y-94270689D01*
X92593097Y-94209974D01*
X92598291Y-94200868D01*
X92606651Y-94186249D01*
X92614224Y-94172173D01*
X92621048Y-94157540D01*
X92627163Y-94141249D01*
X92632609Y-94122198D01*
X92637423Y-94099286D01*
X92641644Y-94071413D01*
X92645313Y-94037478D01*
X92648467Y-93996379D01*
X92651147Y-93947015D01*
X92653390Y-93888286D01*
X92655235Y-93819090D01*
X92656723Y-93738326D01*
X92657891Y-93644894D01*
X92658780Y-93537692D01*
X92659427Y-93415620D01*
X92659872Y-93277576D01*
X92660154Y-93122459D01*
X92660311Y-92949168D01*
X92660384Y-92756603D01*
X92660410Y-92543662D01*
X92660421Y-92407530D01*
X93462136Y-92407530D01*
X93462136Y-93557721D01*
X93532692Y-93604089D01*
X93573353Y-93627791D01*
X93627482Y-93653639D01*
X93676625Y-93671829D01*
X93740101Y-93687551D01*
X93836267Y-93698541D01*
X93920836Y-93690365D01*
X93994155Y-93662805D01*
X94056573Y-93615642D01*
X94108438Y-93548658D01*
X94150096Y-93461633D01*
X94181898Y-93354350D01*
X94184481Y-93342009D01*
X94192936Y-93280772D01*
X94198599Y-93203692D01*
X94201512Y-93116002D01*
X94201719Y-93022934D01*
X94199266Y-92929720D01*
X94194197Y-92841594D01*
X94186555Y-92763788D01*
X94176384Y-92701533D01*
X94175103Y-92695666D01*
X94146062Y-92585121D01*
X94111546Y-92494575D01*
X94070392Y-92421953D01*
X94021435Y-92365181D01*
X93963510Y-92322184D01*
X93931556Y-92306615D01*
X93858720Y-92287722D01*
X93777379Y-92284465D01*
X93692255Y-92296389D01*
X93608069Y-92323040D01*
X93529544Y-92363962D01*
X93462136Y-92407530D01*
X92660421Y-92407530D01*
X92660429Y-92309245D01*
X92660625Y-90624378D01*
X93565953Y-90624378D01*
X93541521Y-90661067D01*
X93535254Y-90670647D01*
X93509144Y-90716981D01*
X93491405Y-90764102D01*
X93479844Y-90819251D01*
X93472267Y-90889667D01*
X93471775Y-90896650D01*
X93469998Y-90934641D01*
X93468380Y-90988576D01*
X93466935Y-91055703D01*
X93465676Y-91133271D01*
X93464616Y-91218528D01*
X93463765Y-91308724D01*
X93463139Y-91401107D01*
X93462748Y-91492925D01*
X93462606Y-91581427D01*
X93462726Y-91663862D01*
X93463119Y-91737479D01*
X93463798Y-91799526D01*
X93464777Y-91847251D01*
X93466068Y-91877904D01*
X93467683Y-91888733D01*
X93475893Y-91884333D01*
X93497583Y-91869362D01*
X93526950Y-91847448D01*
X93575815Y-91813236D01*
X93664061Y-91766714D01*
X93762852Y-91733046D01*
X93875446Y-91711231D01*
X94005100Y-91700265D01*
X94097606Y-91699219D01*
X94218947Y-91709014D01*
X94329035Y-91733174D01*
X94432325Y-91772785D01*
X94533274Y-91828932D01*
X94578439Y-91859883D01*
X94683847Y-91951115D01*
X94775474Y-92060106D01*
X94853268Y-92186726D01*
X94917177Y-92330845D01*
X94967150Y-92492332D01*
X95003134Y-92671059D01*
X95025079Y-92866895D01*
X95030836Y-93022934D01*
X95032930Y-93079711D01*
G37*
X97574691Y-93480467D02*
X97574197Y-93514363D01*
X97570568Y-93589202D01*
X97562958Y-93651401D01*
X97550624Y-93707984D01*
X97506249Y-93834076D01*
X97443336Y-93948679D01*
X97363174Y-94049568D01*
X97266676Y-94135924D01*
X97154758Y-94206932D01*
X97028333Y-94261776D01*
X96888314Y-94299638D01*
X96852085Y-94305351D01*
X96773091Y-94311313D01*
X96684777Y-94311646D01*
X96595011Y-94306659D01*
X96511658Y-94296666D01*
X96442587Y-94281978D01*
X96356123Y-94251749D01*
X96246222Y-94197057D01*
X96148892Y-94129543D01*
X96086803Y-94078556D01*
X96083541Y-94174622D01*
X96080279Y-94270689D01*
X95657386Y-94270689D01*
X95646479Y-94270686D01*
X95551992Y-94270380D01*
X95465267Y-94269616D01*
X95388773Y-94268451D01*
X95324979Y-94266942D01*
X95276354Y-94265147D01*
X95245369Y-94263121D01*
X95234492Y-94260922D01*
X95234514Y-94260463D01*
X95241550Y-94244910D01*
X95257370Y-94222071D01*
X95261670Y-94216638D01*
X95272713Y-94202606D01*
X95282247Y-94189186D01*
X95290397Y-94174722D01*
X95297288Y-94157556D01*
X95303047Y-94136034D01*
X95307798Y-94108498D01*
X95311667Y-94073292D01*
X95314780Y-94028760D01*
X95317261Y-93973246D01*
X95319236Y-93905093D01*
X95320830Y-93822645D01*
X95322170Y-93724246D01*
X95323380Y-93608239D01*
X95324585Y-93472968D01*
X95325531Y-93361586D01*
X96126314Y-93361586D01*
X96126314Y-93557462D01*
X96170984Y-93613973D01*
X96183721Y-93629212D01*
X96230540Y-93671844D01*
X96291191Y-93707672D01*
X96301833Y-93712850D01*
X96340612Y-93729745D01*
X96375628Y-93739909D01*
X96415658Y-93745325D01*
X96469477Y-93747978D01*
X96487584Y-93748383D01*
X96562947Y-93745540D01*
X96623679Y-93733620D01*
X96675388Y-93711037D01*
X96723682Y-93676211D01*
X96728739Y-93671798D01*
X96777208Y-93616160D01*
X96805395Y-93552333D01*
X96814688Y-93477282D01*
X96807456Y-93405693D01*
X96782732Y-93342645D01*
X96738185Y-93284758D01*
X96683255Y-93237808D01*
X96610830Y-93197961D01*
X96524276Y-93170263D01*
X96421606Y-93154096D01*
X96300830Y-93148842D01*
X96291943Y-93148857D01*
X96236596Y-93149655D01*
X96189672Y-93151488D01*
X96155889Y-93154111D01*
X96139964Y-93157274D01*
X96135879Y-93163741D01*
X96131508Y-93185875D01*
X96128540Y-93224988D01*
X96126850Y-93282939D01*
X96126314Y-93361586D01*
X95325531Y-93361586D01*
X95325911Y-93316778D01*
X95327164Y-93174012D01*
X95328587Y-93028942D01*
X95330112Y-92903027D01*
X95331869Y-92794436D01*
X95333987Y-92701334D01*
X95336596Y-92621891D01*
X95339826Y-92554273D01*
X95343805Y-92496649D01*
X95348664Y-92447185D01*
X95354533Y-92404050D01*
X95361540Y-92365410D01*
X95369816Y-92329434D01*
X95379490Y-92294289D01*
X95390692Y-92258142D01*
X95403552Y-92219161D01*
X95419026Y-92176091D01*
X95461930Y-92083871D01*
X95515671Y-92004099D01*
X95584512Y-91929965D01*
X95662121Y-91866405D01*
X95766697Y-91804725D01*
X95886180Y-91757202D01*
X96021444Y-91723567D01*
X96173362Y-91703552D01*
X96342808Y-91696889D01*
X96400826Y-91697287D01*
X96466334Y-91699335D01*
X96527629Y-91703704D01*
X96589033Y-91711035D01*
X96654868Y-91721969D01*
X96729456Y-91737147D01*
X96817120Y-91757209D01*
X96922181Y-91782797D01*
X96950742Y-91789820D01*
X97025990Y-91807776D01*
X97096324Y-91823820D01*
X97157503Y-91837028D01*
X97205290Y-91846474D01*
X97235447Y-91851231D01*
X97263719Y-91854910D01*
X97289996Y-91860187D01*
X97299995Y-91864942D01*
X97296888Y-91873781D01*
X97286130Y-91901072D01*
X97268800Y-91943906D01*
X97246062Y-91999425D01*
X97219083Y-92064772D01*
X97189026Y-92137089D01*
X97182429Y-92152879D01*
X97143843Y-92243484D01*
X97112704Y-92313217D01*
X97088853Y-92362405D01*
X97072134Y-92391374D01*
X97062390Y-92400452D01*
X97054702Y-92398405D01*
X97028351Y-92388760D01*
X96989918Y-92373190D01*
X96944758Y-92353815D01*
X96850229Y-92315814D01*
X96713416Y-92274780D01*
X96572225Y-92249612D01*
X96534250Y-92245611D01*
X96430995Y-92243447D01*
X96343888Y-92256622D01*
X96272065Y-92285756D01*
X96214667Y-92331466D01*
X96170832Y-92394372D01*
X96139698Y-92475092D01*
X96120406Y-92574245D01*
X96112986Y-92633224D01*
X96274872Y-92626445D01*
X96401431Y-92624813D01*
X96552887Y-92631194D01*
X96701332Y-92645777D01*
X96837514Y-92667882D01*
X96902181Y-92682821D01*
X97034426Y-92725741D01*
X97156698Y-92782340D01*
X97266621Y-92851017D01*
X97361819Y-92930170D01*
X97439916Y-93018196D01*
X97498535Y-93113493D01*
X97522531Y-93165864D01*
X97548168Y-93236590D01*
X97564414Y-93307812D01*
X97572758Y-93386712D01*
X97574626Y-93477282D01*
X97574691Y-93480467D01*
G36*
X97574691Y-93480467D02*
G01*
X97574197Y-93514363D01*
X97570568Y-93589202D01*
X97562958Y-93651401D01*
X97550624Y-93707984D01*
X97506249Y-93834076D01*
X97443336Y-93948679D01*
X97363174Y-94049568D01*
X97266676Y-94135924D01*
X97154758Y-94206932D01*
X97028333Y-94261776D01*
X96888314Y-94299638D01*
X96852085Y-94305351D01*
X96773091Y-94311313D01*
X96684777Y-94311646D01*
X96595011Y-94306659D01*
X96511658Y-94296666D01*
X96442587Y-94281978D01*
X96356123Y-94251749D01*
X96246222Y-94197057D01*
X96148892Y-94129543D01*
X96086803Y-94078556D01*
X96083541Y-94174622D01*
X96080279Y-94270689D01*
X95657386Y-94270689D01*
X95646479Y-94270686D01*
X95551992Y-94270380D01*
X95465267Y-94269616D01*
X95388773Y-94268451D01*
X95324979Y-94266942D01*
X95276354Y-94265147D01*
X95245369Y-94263121D01*
X95234492Y-94260922D01*
X95234514Y-94260463D01*
X95241550Y-94244910D01*
X95257370Y-94222071D01*
X95261670Y-94216638D01*
X95272713Y-94202606D01*
X95282247Y-94189186D01*
X95290397Y-94174722D01*
X95297288Y-94157556D01*
X95303047Y-94136034D01*
X95307798Y-94108498D01*
X95311667Y-94073292D01*
X95314780Y-94028760D01*
X95317261Y-93973246D01*
X95319236Y-93905093D01*
X95320830Y-93822645D01*
X95322170Y-93724246D01*
X95323380Y-93608239D01*
X95324585Y-93472968D01*
X95325531Y-93361586D01*
X96126314Y-93361586D01*
X96126314Y-93557462D01*
X96170984Y-93613973D01*
X96183721Y-93629212D01*
X96230540Y-93671844D01*
X96291191Y-93707672D01*
X96301833Y-93712850D01*
X96340612Y-93729745D01*
X96375628Y-93739909D01*
X96415658Y-93745325D01*
X96469477Y-93747978D01*
X96487584Y-93748383D01*
X96562947Y-93745540D01*
X96623679Y-93733620D01*
X96675388Y-93711037D01*
X96723682Y-93676211D01*
X96728739Y-93671798D01*
X96777208Y-93616160D01*
X96805395Y-93552333D01*
X96814688Y-93477282D01*
X96807456Y-93405693D01*
X96782732Y-93342645D01*
X96738185Y-93284758D01*
X96683255Y-93237808D01*
X96610830Y-93197961D01*
X96524276Y-93170263D01*
X96421606Y-93154096D01*
X96300830Y-93148842D01*
X96291943Y-93148857D01*
X96236596Y-93149655D01*
X96189672Y-93151488D01*
X96155889Y-93154111D01*
X96139964Y-93157274D01*
X96135879Y-93163741D01*
X96131508Y-93185875D01*
X96128540Y-93224988D01*
X96126850Y-93282939D01*
X96126314Y-93361586D01*
X95325531Y-93361586D01*
X95325911Y-93316778D01*
X95327164Y-93174012D01*
X95328587Y-93028942D01*
X95330112Y-92903027D01*
X95331869Y-92794436D01*
X95333987Y-92701334D01*
X95336596Y-92621891D01*
X95339826Y-92554273D01*
X95343805Y-92496649D01*
X95348664Y-92447185D01*
X95354533Y-92404050D01*
X95361540Y-92365410D01*
X95369816Y-92329434D01*
X95379490Y-92294289D01*
X95390692Y-92258142D01*
X95403552Y-92219161D01*
X95419026Y-92176091D01*
X95461930Y-92083871D01*
X95515671Y-92004099D01*
X95584512Y-91929965D01*
X95662121Y-91866405D01*
X95766697Y-91804725D01*
X95886180Y-91757202D01*
X96021444Y-91723567D01*
X96173362Y-91703552D01*
X96342808Y-91696889D01*
X96400826Y-91697287D01*
X96466334Y-91699335D01*
X96527629Y-91703704D01*
X96589033Y-91711035D01*
X96654868Y-91721969D01*
X96729456Y-91737147D01*
X96817120Y-91757209D01*
X96922181Y-91782797D01*
X96950742Y-91789820D01*
X97025990Y-91807776D01*
X97096324Y-91823820D01*
X97157503Y-91837028D01*
X97205290Y-91846474D01*
X97235447Y-91851231D01*
X97263719Y-91854910D01*
X97289996Y-91860187D01*
X97299995Y-91864942D01*
X97296888Y-91873781D01*
X97286130Y-91901072D01*
X97268800Y-91943906D01*
X97246062Y-91999425D01*
X97219083Y-92064772D01*
X97189026Y-92137089D01*
X97182429Y-92152879D01*
X97143843Y-92243484D01*
X97112704Y-92313217D01*
X97088853Y-92362405D01*
X97072134Y-92391374D01*
X97062390Y-92400452D01*
X97054702Y-92398405D01*
X97028351Y-92388760D01*
X96989918Y-92373190D01*
X96944758Y-92353815D01*
X96850229Y-92315814D01*
X96713416Y-92274780D01*
X96572225Y-92249612D01*
X96534250Y-92245611D01*
X96430995Y-92243447D01*
X96343888Y-92256622D01*
X96272065Y-92285756D01*
X96214667Y-92331466D01*
X96170832Y-92394372D01*
X96139698Y-92475092D01*
X96120406Y-92574245D01*
X96112986Y-92633224D01*
X96274872Y-92626445D01*
X96401431Y-92624813D01*
X96552887Y-92631194D01*
X96701332Y-92645777D01*
X96837514Y-92667882D01*
X96902181Y-92682821D01*
X97034426Y-92725741D01*
X97156698Y-92782340D01*
X97266621Y-92851017D01*
X97361819Y-92930170D01*
X97439916Y-93018196D01*
X97498535Y-93113493D01*
X97522531Y-93165864D01*
X97548168Y-93236590D01*
X97564414Y-93307812D01*
X97572758Y-93386712D01*
X97574626Y-93477282D01*
X97574691Y-93480467D01*
G37*
X105122550Y-90948792D02*
X105122995Y-91080011D01*
X105123298Y-91227216D01*
X105123484Y-91391349D01*
X105123578Y-91573352D01*
X105123607Y-91774165D01*
X105123597Y-91994732D01*
X105123572Y-92235992D01*
X105123558Y-92498889D01*
X105123558Y-92541040D01*
X105123582Y-92801668D01*
X105123621Y-93040796D01*
X105123644Y-93259360D01*
X105123623Y-93458295D01*
X105123529Y-93638535D01*
X105123331Y-93801015D01*
X105122999Y-93946670D01*
X105122505Y-94076434D01*
X105121819Y-94191243D01*
X105120912Y-94292030D01*
X105119753Y-94379730D01*
X105118314Y-94455279D01*
X105116565Y-94519611D01*
X105114476Y-94573661D01*
X105112019Y-94618363D01*
X105109163Y-94654652D01*
X105105879Y-94683463D01*
X105102138Y-94705731D01*
X105097910Y-94722390D01*
X105093165Y-94734375D01*
X105087875Y-94742621D01*
X105082009Y-94748062D01*
X105075538Y-94751634D01*
X105068433Y-94754270D01*
X105060664Y-94756906D01*
X105052202Y-94760477D01*
X105047844Y-94762145D01*
X105039331Y-94764111D01*
X105026630Y-94765911D01*
X105008821Y-94767555D01*
X104984985Y-94769047D01*
X104954202Y-94770397D01*
X104915553Y-94771611D01*
X104868118Y-94772697D01*
X104810979Y-94773661D01*
X104743215Y-94774511D01*
X104663907Y-94775253D01*
X104572135Y-94775897D01*
X104466980Y-94776447D01*
X104347523Y-94776913D01*
X104212844Y-94777300D01*
X104062024Y-94777616D01*
X103894142Y-94777869D01*
X103708281Y-94778066D01*
X103503519Y-94778213D01*
X103278938Y-94778318D01*
X103033618Y-94778389D01*
X102766640Y-94778432D01*
X102728257Y-94778437D01*
X102462858Y-94778480D01*
X102218986Y-94778525D01*
X101995719Y-94778548D01*
X101792132Y-94778524D01*
X101607303Y-94778430D01*
X101440309Y-94778243D01*
X101290226Y-94777939D01*
X101156132Y-94777494D01*
X101037102Y-94776885D01*
X100932215Y-94776089D01*
X100840546Y-94775080D01*
X100761173Y-94773837D01*
X100693173Y-94772335D01*
X100635622Y-94770551D01*
X100587598Y-94768461D01*
X100548176Y-94766042D01*
X100516435Y-94763270D01*
X100491450Y-94760121D01*
X100472300Y-94756572D01*
X100458059Y-94752598D01*
X100447807Y-94748178D01*
X100440618Y-94743286D01*
X100435571Y-94737900D01*
X100431741Y-94731996D01*
X100428207Y-94725549D01*
X100424044Y-94718537D01*
X100422961Y-94716687D01*
X100420749Y-94711180D01*
X100418722Y-94702868D01*
X100416874Y-94690809D01*
X100415197Y-94674063D01*
X100413681Y-94651687D01*
X100412319Y-94622740D01*
X100411103Y-94586280D01*
X100410025Y-94541367D01*
X100409076Y-94487057D01*
X100408248Y-94422410D01*
X100407533Y-94346484D01*
X100406923Y-94258338D01*
X100406878Y-94249493D01*
X100698314Y-94249493D01*
X100702196Y-94250765D01*
X100725456Y-94252791D01*
X100767810Y-94254626D01*
X100827068Y-94256227D01*
X100901043Y-94257549D01*
X100987546Y-94258548D01*
X101084388Y-94259180D01*
X101189381Y-94259400D01*
X101887587Y-94259400D01*
X103042026Y-94259400D01*
X103041392Y-94183200D01*
X103042510Y-94141160D01*
X103048240Y-94105334D01*
X103060826Y-94067772D01*
X103082504Y-94019577D01*
X103085725Y-94012897D01*
X103111124Y-93963359D01*
X103137932Y-93915369D01*
X103160853Y-93878466D01*
X103165421Y-93871834D01*
X103187452Y-93840593D01*
X103219629Y-93795654D01*
X103260393Y-93739147D01*
X103308181Y-93673204D01*
X103361434Y-93599957D01*
X103418591Y-93521536D01*
X103478091Y-93440072D01*
X103538373Y-93357698D01*
X103597876Y-93276544D01*
X103655041Y-93198742D01*
X103708306Y-93126423D01*
X103756110Y-93061718D01*
X103796893Y-93006759D01*
X103829094Y-92963676D01*
X103851152Y-92934602D01*
X103861507Y-92921667D01*
X103865980Y-92917351D01*
X103870172Y-92915312D01*
X103873579Y-92917926D01*
X103876261Y-92926986D01*
X103878277Y-92944285D01*
X103879684Y-92971614D01*
X103880541Y-93010765D01*
X103880906Y-93063533D01*
X103880839Y-93131707D01*
X103880396Y-93217082D01*
X103879638Y-93321449D01*
X103878621Y-93446600D01*
X103878244Y-93491300D01*
X103877105Y-93612395D01*
X103875908Y-93713688D01*
X103874572Y-93797262D01*
X103873013Y-93865204D01*
X103871151Y-93919599D01*
X103868902Y-93962532D01*
X103866184Y-93996089D01*
X103862915Y-94022355D01*
X103859014Y-94043416D01*
X103854397Y-94061357D01*
X103846128Y-94087770D01*
X103822519Y-94149772D01*
X103796621Y-94202573D01*
X103771471Y-94239645D01*
X103770275Y-94241075D01*
X103768104Y-94245424D01*
X103770264Y-94249026D01*
X103778580Y-94251951D01*
X103794876Y-94254269D01*
X103820977Y-94256051D01*
X103858707Y-94257367D01*
X103909892Y-94258286D01*
X103976356Y-94258878D01*
X104059923Y-94259215D01*
X104162419Y-94259365D01*
X104285668Y-94259400D01*
X104817232Y-94259400D01*
X104778459Y-94201783D01*
X104772368Y-94192893D01*
X104761912Y-94178069D01*
X104752515Y-94164422D01*
X104744119Y-94150765D01*
X104736669Y-94135911D01*
X104730109Y-94118670D01*
X104724382Y-94097855D01*
X104719431Y-94072280D01*
X104715202Y-94040755D01*
X104711637Y-94002093D01*
X104708680Y-93955107D01*
X104706276Y-93898608D01*
X104704367Y-93831409D01*
X104702898Y-93752322D01*
X104701812Y-93660160D01*
X104701054Y-93553734D01*
X104700566Y-93431857D01*
X104700294Y-93293341D01*
X104700179Y-93136999D01*
X104700167Y-92961642D01*
X104700201Y-92766082D01*
X104700225Y-92549133D01*
X104700216Y-92426513D01*
X104700179Y-92221447D01*
X104700163Y-92037116D01*
X104700224Y-91872334D01*
X104700420Y-91725916D01*
X104700806Y-91596674D01*
X104701441Y-91483422D01*
X104702380Y-91384975D01*
X104703681Y-91300144D01*
X104705400Y-91227744D01*
X104707595Y-91166589D01*
X104710321Y-91115492D01*
X104713637Y-91073267D01*
X104717598Y-91038727D01*
X104722261Y-91010686D01*
X104727683Y-90987958D01*
X104733922Y-90969356D01*
X104741033Y-90953693D01*
X104749074Y-90939784D01*
X104758102Y-90926441D01*
X104768172Y-90912479D01*
X104779343Y-90896711D01*
X104819133Y-90838867D01*
X103759250Y-90838867D01*
X103797247Y-90901966D01*
X103811929Y-90927005D01*
X103826467Y-90954586D01*
X103838563Y-90982700D01*
X103848468Y-91013551D01*
X103856430Y-91049344D01*
X103862697Y-91092283D01*
X103867518Y-91144574D01*
X103871142Y-91208419D01*
X103873817Y-91286025D01*
X103875793Y-91379594D01*
X103877318Y-91491333D01*
X103878640Y-91623445D01*
X103879549Y-91743434D01*
X103879956Y-91860063D01*
X103879703Y-91955531D01*
X103878793Y-92029556D01*
X103877229Y-92081855D01*
X103875015Y-92112149D01*
X103872156Y-92120156D01*
X103869097Y-92116858D01*
X103850942Y-92095408D01*
X103821211Y-92058889D01*
X103781575Y-92009442D01*
X103733707Y-91949207D01*
X103679279Y-91880327D01*
X103619963Y-91804943D01*
X103557431Y-91725196D01*
X103493357Y-91643228D01*
X103429411Y-91561180D01*
X103367267Y-91481194D01*
X103308597Y-91405411D01*
X103255073Y-91335973D01*
X103208366Y-91275021D01*
X103170150Y-91224696D01*
X103142097Y-91187140D01*
X103125879Y-91164495D01*
X103080571Y-91092212D01*
X103040597Y-91012463D01*
X103019066Y-90944188D01*
X103015763Y-90886844D01*
X103021052Y-90838867D01*
X101889292Y-90839117D01*
X101928803Y-90869722D01*
X101938184Y-90877089D01*
X102001119Y-90931438D01*
X102069933Y-90999259D01*
X102146532Y-91082516D01*
X102232824Y-91183178D01*
X102249988Y-91203847D01*
X102290769Y-91253409D01*
X102340524Y-91314326D01*
X102397891Y-91384898D01*
X102461505Y-91463424D01*
X102530005Y-91548204D01*
X102602026Y-91637537D01*
X102676206Y-91729722D01*
X102691453Y-91748702D01*
X102751182Y-91823060D01*
X102825589Y-91915848D01*
X102898067Y-92006388D01*
X102967250Y-92092978D01*
X103031777Y-92173918D01*
X103090283Y-92247506D01*
X103141406Y-92312044D01*
X103183783Y-92365829D01*
X103216051Y-92407162D01*
X103236846Y-92434342D01*
X103244805Y-92445668D01*
X103243047Y-92449771D01*
X103230166Y-92470334D01*
X103205821Y-92506561D01*
X103171183Y-92556824D01*
X103127422Y-92619492D01*
X103075711Y-92692936D01*
X103017220Y-92775527D01*
X102953120Y-92865636D01*
X102884582Y-92961631D01*
X102812779Y-93061885D01*
X102738880Y-93164768D01*
X102664057Y-93268650D01*
X102589481Y-93371901D01*
X102516323Y-93472892D01*
X102445755Y-93569994D01*
X102378947Y-93661577D01*
X102317071Y-93746011D01*
X102261297Y-93821667D01*
X102212798Y-93886916D01*
X102172743Y-93940128D01*
X102142305Y-93979673D01*
X102121880Y-94005026D01*
X102075835Y-94059295D01*
X102025548Y-94115775D01*
X101978751Y-94165669D01*
X101887587Y-94259400D01*
X101189381Y-94259400D01*
X101258292Y-94259349D01*
X101356543Y-94259091D01*
X101445966Y-94258637D01*
X101524269Y-94258010D01*
X101589159Y-94257235D01*
X101638347Y-94256335D01*
X101669540Y-94255334D01*
X101680447Y-94254257D01*
X101679258Y-94251037D01*
X101669112Y-94233452D01*
X101651976Y-94207158D01*
X101643476Y-94194691D01*
X101634265Y-94180622D01*
X101626169Y-94166351D01*
X101619121Y-94150479D01*
X101613053Y-94131609D01*
X101607897Y-94108341D01*
X101603587Y-94079278D01*
X101600055Y-94043021D01*
X101597233Y-93998170D01*
X101595054Y-93943328D01*
X101593450Y-93877097D01*
X101592355Y-93798077D01*
X101591701Y-93704871D01*
X101591420Y-93596079D01*
X101591445Y-93470303D01*
X101591708Y-93326145D01*
X101592142Y-93162207D01*
X101592681Y-92977089D01*
X101593215Y-92798232D01*
X101593741Y-92639374D01*
X101594286Y-92500316D01*
X101594881Y-92379665D01*
X101595555Y-92276028D01*
X101596339Y-92188011D01*
X101597262Y-92114223D01*
X101598355Y-92053269D01*
X101599648Y-92003757D01*
X101601171Y-91964293D01*
X101602955Y-91933484D01*
X101605028Y-91909938D01*
X101607422Y-91892260D01*
X101610166Y-91879059D01*
X101613292Y-91868940D01*
X101616828Y-91860511D01*
X101620727Y-91852375D01*
X101640374Y-91815544D01*
X101659161Y-91785391D01*
X101660208Y-91783908D01*
X101674538Y-91761659D01*
X101680447Y-91748702D01*
X101679440Y-91748249D01*
X101662241Y-91746803D01*
X101625592Y-91745480D01*
X101571898Y-91744316D01*
X101503566Y-91743347D01*
X101423000Y-91742611D01*
X101332606Y-91742142D01*
X101234789Y-91741978D01*
X100789131Y-91741978D01*
X100786056Y-92918845D01*
X100782981Y-94095711D01*
X100756343Y-94154622D01*
X100744421Y-94179183D01*
X100727182Y-94209434D01*
X100714010Y-94226560D01*
X100706012Y-94234591D01*
X100698314Y-94249493D01*
X100406878Y-94249493D01*
X100406410Y-94157029D01*
X100405986Y-94041617D01*
X100405642Y-93911160D01*
X100405370Y-93764716D01*
X100405163Y-93601344D01*
X100405012Y-93420101D01*
X100404908Y-93220048D01*
X100404844Y-93000241D01*
X100404812Y-92759739D01*
X100404803Y-92497602D01*
X100404803Y-90306031D01*
X100443185Y-90267649D01*
X100470291Y-90243911D01*
X100497189Y-90232111D01*
X100533496Y-90229267D01*
X100585425Y-90229267D01*
X100585425Y-90317206D01*
X100587363Y-90367102D01*
X100606135Y-90477523D01*
X100643153Y-90578987D01*
X100696305Y-90670152D01*
X100763482Y-90749673D01*
X100842574Y-90816205D01*
X100931470Y-90868406D01*
X101028061Y-90904930D01*
X101130236Y-90924434D01*
X101235886Y-90925573D01*
X101342900Y-90907005D01*
X101449168Y-90867384D01*
X101546155Y-90809516D01*
X101631229Y-90734684D01*
X101699951Y-90646615D01*
X101750854Y-90547616D01*
X101782471Y-90439993D01*
X101793336Y-90326054D01*
X101793336Y-90229267D01*
X103413689Y-90229267D01*
X103624833Y-90229280D01*
X103828956Y-90229330D01*
X104012622Y-90229430D01*
X104176927Y-90229592D01*
X104322965Y-90229829D01*
X104451830Y-90230153D01*
X104564619Y-90230575D01*
X104662424Y-90231109D01*
X104746340Y-90231767D01*
X104817463Y-90232561D01*
X104876886Y-90233504D01*
X104925704Y-90234608D01*
X104965013Y-90235884D01*
X104995905Y-90237347D01*
X105019477Y-90239007D01*
X105036822Y-90240878D01*
X105049035Y-90242972D01*
X105057211Y-90245300D01*
X105062444Y-90247876D01*
X105068440Y-90251445D01*
X105075215Y-90254978D01*
X105081414Y-90258488D01*
X105087062Y-90262918D01*
X105092183Y-90269208D01*
X105096805Y-90278301D01*
X105100951Y-90291139D01*
X105104649Y-90308662D01*
X105107923Y-90331813D01*
X105110799Y-90361534D01*
X105113303Y-90398765D01*
X105115460Y-90444449D01*
X105117296Y-90499527D01*
X105118836Y-90564941D01*
X105120106Y-90641633D01*
X105121131Y-90730544D01*
X105121937Y-90832617D01*
X105121970Y-90838867D01*
X105122550Y-90948792D01*
G36*
X105122550Y-90948792D02*
G01*
X105122995Y-91080011D01*
X105123298Y-91227216D01*
X105123484Y-91391349D01*
X105123578Y-91573352D01*
X105123607Y-91774165D01*
X105123597Y-91994732D01*
X105123572Y-92235992D01*
X105123558Y-92498889D01*
X105123558Y-92541040D01*
X105123582Y-92801668D01*
X105123621Y-93040796D01*
X105123644Y-93259360D01*
X105123623Y-93458295D01*
X105123529Y-93638535D01*
X105123331Y-93801015D01*
X105122999Y-93946670D01*
X105122505Y-94076434D01*
X105121819Y-94191243D01*
X105120912Y-94292030D01*
X105119753Y-94379730D01*
X105118314Y-94455279D01*
X105116565Y-94519611D01*
X105114476Y-94573661D01*
X105112019Y-94618363D01*
X105109163Y-94654652D01*
X105105879Y-94683463D01*
X105102138Y-94705731D01*
X105097910Y-94722390D01*
X105093165Y-94734375D01*
X105087875Y-94742621D01*
X105082009Y-94748062D01*
X105075538Y-94751634D01*
X105068433Y-94754270D01*
X105060664Y-94756906D01*
X105052202Y-94760477D01*
X105047844Y-94762145D01*
X105039331Y-94764111D01*
X105026630Y-94765911D01*
X105008821Y-94767555D01*
X104984985Y-94769047D01*
X104954202Y-94770397D01*
X104915553Y-94771611D01*
X104868118Y-94772697D01*
X104810979Y-94773661D01*
X104743215Y-94774511D01*
X104663907Y-94775253D01*
X104572135Y-94775897D01*
X104466980Y-94776447D01*
X104347523Y-94776913D01*
X104212844Y-94777300D01*
X104062024Y-94777616D01*
X103894142Y-94777869D01*
X103708281Y-94778066D01*
X103503519Y-94778213D01*
X103278938Y-94778318D01*
X103033618Y-94778389D01*
X102766640Y-94778432D01*
X102728257Y-94778437D01*
X102462858Y-94778480D01*
X102218986Y-94778525D01*
X101995719Y-94778548D01*
X101792132Y-94778524D01*
X101607303Y-94778430D01*
X101440309Y-94778243D01*
X101290226Y-94777939D01*
X101156132Y-94777494D01*
X101037102Y-94776885D01*
X100932215Y-94776089D01*
X100840546Y-94775080D01*
X100761173Y-94773837D01*
X100693173Y-94772335D01*
X100635622Y-94770551D01*
X100587598Y-94768461D01*
X100548176Y-94766042D01*
X100516435Y-94763270D01*
X100491450Y-94760121D01*
X100472300Y-94756572D01*
X100458059Y-94752598D01*
X100447807Y-94748178D01*
X100440618Y-94743286D01*
X100435571Y-94737900D01*
X100431741Y-94731996D01*
X100428207Y-94725549D01*
X100424044Y-94718537D01*
X100422961Y-94716687D01*
X100420749Y-94711180D01*
X100418722Y-94702868D01*
X100416874Y-94690809D01*
X100415197Y-94674063D01*
X100413681Y-94651687D01*
X100412319Y-94622740D01*
X100411103Y-94586280D01*
X100410025Y-94541367D01*
X100409076Y-94487057D01*
X100408248Y-94422410D01*
X100407533Y-94346484D01*
X100406923Y-94258338D01*
X100406878Y-94249493D01*
X100698314Y-94249493D01*
X100702196Y-94250765D01*
X100725456Y-94252791D01*
X100767810Y-94254626D01*
X100827068Y-94256227D01*
X100901043Y-94257549D01*
X100987546Y-94258548D01*
X101084388Y-94259180D01*
X101189381Y-94259400D01*
X101887587Y-94259400D01*
X103042026Y-94259400D01*
X103041392Y-94183200D01*
X103042510Y-94141160D01*
X103048240Y-94105334D01*
X103060826Y-94067772D01*
X103082504Y-94019577D01*
X103085725Y-94012897D01*
X103111124Y-93963359D01*
X103137932Y-93915369D01*
X103160853Y-93878466D01*
X103165421Y-93871834D01*
X103187452Y-93840593D01*
X103219629Y-93795654D01*
X103260393Y-93739147D01*
X103308181Y-93673204D01*
X103361434Y-93599957D01*
X103418591Y-93521536D01*
X103478091Y-93440072D01*
X103538373Y-93357698D01*
X103597876Y-93276544D01*
X103655041Y-93198742D01*
X103708306Y-93126423D01*
X103756110Y-93061718D01*
X103796893Y-93006759D01*
X103829094Y-92963676D01*
X103851152Y-92934602D01*
X103861507Y-92921667D01*
X103865980Y-92917351D01*
X103870172Y-92915312D01*
X103873579Y-92917926D01*
X103876261Y-92926986D01*
X103878277Y-92944285D01*
X103879684Y-92971614D01*
X103880541Y-93010765D01*
X103880906Y-93063533D01*
X103880839Y-93131707D01*
X103880396Y-93217082D01*
X103879638Y-93321449D01*
X103878621Y-93446600D01*
X103878244Y-93491300D01*
X103877105Y-93612395D01*
X103875908Y-93713688D01*
X103874572Y-93797262D01*
X103873013Y-93865204D01*
X103871151Y-93919599D01*
X103868902Y-93962532D01*
X103866184Y-93996089D01*
X103862915Y-94022355D01*
X103859014Y-94043416D01*
X103854397Y-94061357D01*
X103846128Y-94087770D01*
X103822519Y-94149772D01*
X103796621Y-94202573D01*
X103771471Y-94239645D01*
X103770275Y-94241075D01*
X103768104Y-94245424D01*
X103770264Y-94249026D01*
X103778580Y-94251951D01*
X103794876Y-94254269D01*
X103820977Y-94256051D01*
X103858707Y-94257367D01*
X103909892Y-94258286D01*
X103976356Y-94258878D01*
X104059923Y-94259215D01*
X104162419Y-94259365D01*
X104285668Y-94259400D01*
X104817232Y-94259400D01*
X104778459Y-94201783D01*
X104772368Y-94192893D01*
X104761912Y-94178069D01*
X104752515Y-94164422D01*
X104744119Y-94150765D01*
X104736669Y-94135911D01*
X104730109Y-94118670D01*
X104724382Y-94097855D01*
X104719431Y-94072280D01*
X104715202Y-94040755D01*
X104711637Y-94002093D01*
X104708680Y-93955107D01*
X104706276Y-93898608D01*
X104704367Y-93831409D01*
X104702898Y-93752322D01*
X104701812Y-93660160D01*
X104701054Y-93553734D01*
X104700566Y-93431857D01*
X104700294Y-93293341D01*
X104700179Y-93136999D01*
X104700167Y-92961642D01*
X104700201Y-92766082D01*
X104700225Y-92549133D01*
X104700216Y-92426513D01*
X104700179Y-92221447D01*
X104700163Y-92037116D01*
X104700224Y-91872334D01*
X104700420Y-91725916D01*
X104700806Y-91596674D01*
X104701441Y-91483422D01*
X104702380Y-91384975D01*
X104703681Y-91300144D01*
X104705400Y-91227744D01*
X104707595Y-91166589D01*
X104710321Y-91115492D01*
X104713637Y-91073267D01*
X104717598Y-91038727D01*
X104722261Y-91010686D01*
X104727683Y-90987958D01*
X104733922Y-90969356D01*
X104741033Y-90953693D01*
X104749074Y-90939784D01*
X104758102Y-90926441D01*
X104768172Y-90912479D01*
X104779343Y-90896711D01*
X104819133Y-90838867D01*
X103759250Y-90838867D01*
X103797247Y-90901966D01*
X103811929Y-90927005D01*
X103826467Y-90954586D01*
X103838563Y-90982700D01*
X103848468Y-91013551D01*
X103856430Y-91049344D01*
X103862697Y-91092283D01*
X103867518Y-91144574D01*
X103871142Y-91208419D01*
X103873817Y-91286025D01*
X103875793Y-91379594D01*
X103877318Y-91491333D01*
X103878640Y-91623445D01*
X103879549Y-91743434D01*
X103879956Y-91860063D01*
X103879703Y-91955531D01*
X103878793Y-92029556D01*
X103877229Y-92081855D01*
X103875015Y-92112149D01*
X103872156Y-92120156D01*
X103869097Y-92116858D01*
X103850942Y-92095408D01*
X103821211Y-92058889D01*
X103781575Y-92009442D01*
X103733707Y-91949207D01*
X103679279Y-91880327D01*
X103619963Y-91804943D01*
X103557431Y-91725196D01*
X103493357Y-91643228D01*
X103429411Y-91561180D01*
X103367267Y-91481194D01*
X103308597Y-91405411D01*
X103255073Y-91335973D01*
X103208366Y-91275021D01*
X103170150Y-91224696D01*
X103142097Y-91187140D01*
X103125879Y-91164495D01*
X103080571Y-91092212D01*
X103040597Y-91012463D01*
X103019066Y-90944188D01*
X103015763Y-90886844D01*
X103021052Y-90838867D01*
X101889292Y-90839117D01*
X101928803Y-90869722D01*
X101938184Y-90877089D01*
X102001119Y-90931438D01*
X102069933Y-90999259D01*
X102146532Y-91082516D01*
X102232824Y-91183178D01*
X102249988Y-91203847D01*
X102290769Y-91253409D01*
X102340524Y-91314326D01*
X102397891Y-91384898D01*
X102461505Y-91463424D01*
X102530005Y-91548204D01*
X102602026Y-91637537D01*
X102676206Y-91729722D01*
X102691453Y-91748702D01*
X102751182Y-91823060D01*
X102825589Y-91915848D01*
X102898067Y-92006388D01*
X102967250Y-92092978D01*
X103031777Y-92173918D01*
X103090283Y-92247506D01*
X103141406Y-92312044D01*
X103183783Y-92365829D01*
X103216051Y-92407162D01*
X103236846Y-92434342D01*
X103244805Y-92445668D01*
X103243047Y-92449771D01*
X103230166Y-92470334D01*
X103205821Y-92506561D01*
X103171183Y-92556824D01*
X103127422Y-92619492D01*
X103075711Y-92692936D01*
X103017220Y-92775527D01*
X102953120Y-92865636D01*
X102884582Y-92961631D01*
X102812779Y-93061885D01*
X102738880Y-93164768D01*
X102664057Y-93268650D01*
X102589481Y-93371901D01*
X102516323Y-93472892D01*
X102445755Y-93569994D01*
X102378947Y-93661577D01*
X102317071Y-93746011D01*
X102261297Y-93821667D01*
X102212798Y-93886916D01*
X102172743Y-93940128D01*
X102142305Y-93979673D01*
X102121880Y-94005026D01*
X102075835Y-94059295D01*
X102025548Y-94115775D01*
X101978751Y-94165669D01*
X101887587Y-94259400D01*
X101189381Y-94259400D01*
X101258292Y-94259349D01*
X101356543Y-94259091D01*
X101445966Y-94258637D01*
X101524269Y-94258010D01*
X101589159Y-94257235D01*
X101638347Y-94256335D01*
X101669540Y-94255334D01*
X101680447Y-94254257D01*
X101679258Y-94251037D01*
X101669112Y-94233452D01*
X101651976Y-94207158D01*
X101643476Y-94194691D01*
X101634265Y-94180622D01*
X101626169Y-94166351D01*
X101619121Y-94150479D01*
X101613053Y-94131609D01*
X101607897Y-94108341D01*
X101603587Y-94079278D01*
X101600055Y-94043021D01*
X101597233Y-93998170D01*
X101595054Y-93943328D01*
X101593450Y-93877097D01*
X101592355Y-93798077D01*
X101591701Y-93704871D01*
X101591420Y-93596079D01*
X101591445Y-93470303D01*
X101591708Y-93326145D01*
X101592142Y-93162207D01*
X101592681Y-92977089D01*
X101593215Y-92798232D01*
X101593741Y-92639374D01*
X101594286Y-92500316D01*
X101594881Y-92379665D01*
X101595555Y-92276028D01*
X101596339Y-92188011D01*
X101597262Y-92114223D01*
X101598355Y-92053269D01*
X101599648Y-92003757D01*
X101601171Y-91964293D01*
X101602955Y-91933484D01*
X101605028Y-91909938D01*
X101607422Y-91892260D01*
X101610166Y-91879059D01*
X101613292Y-91868940D01*
X101616828Y-91860511D01*
X101620727Y-91852375D01*
X101640374Y-91815544D01*
X101659161Y-91785391D01*
X101660208Y-91783908D01*
X101674538Y-91761659D01*
X101680447Y-91748702D01*
X101679440Y-91748249D01*
X101662241Y-91746803D01*
X101625592Y-91745480D01*
X101571898Y-91744316D01*
X101503566Y-91743347D01*
X101423000Y-91742611D01*
X101332606Y-91742142D01*
X101234789Y-91741978D01*
X100789131Y-91741978D01*
X100786056Y-92918845D01*
X100782981Y-94095711D01*
X100756343Y-94154622D01*
X100744421Y-94179183D01*
X100727182Y-94209434D01*
X100714010Y-94226560D01*
X100706012Y-94234591D01*
X100698314Y-94249493D01*
X100406878Y-94249493D01*
X100406410Y-94157029D01*
X100405986Y-94041617D01*
X100405642Y-93911160D01*
X100405370Y-93764716D01*
X100405163Y-93601344D01*
X100405012Y-93420101D01*
X100404908Y-93220048D01*
X100404844Y-93000241D01*
X100404812Y-92759739D01*
X100404803Y-92497602D01*
X100404803Y-90306031D01*
X100443185Y-90267649D01*
X100470291Y-90243911D01*
X100497189Y-90232111D01*
X100533496Y-90229267D01*
X100585425Y-90229267D01*
X100585425Y-90317206D01*
X100587363Y-90367102D01*
X100606135Y-90477523D01*
X100643153Y-90578987D01*
X100696305Y-90670152D01*
X100763482Y-90749673D01*
X100842574Y-90816205D01*
X100931470Y-90868406D01*
X101028061Y-90904930D01*
X101130236Y-90924434D01*
X101235886Y-90925573D01*
X101342900Y-90907005D01*
X101449168Y-90867384D01*
X101546155Y-90809516D01*
X101631229Y-90734684D01*
X101699951Y-90646615D01*
X101750854Y-90547616D01*
X101782471Y-90439993D01*
X101793336Y-90326054D01*
X101793336Y-90229267D01*
X103413689Y-90229267D01*
X103624833Y-90229280D01*
X103828956Y-90229330D01*
X104012622Y-90229430D01*
X104176927Y-90229592D01*
X104322965Y-90229829D01*
X104451830Y-90230153D01*
X104564619Y-90230575D01*
X104662424Y-90231109D01*
X104746340Y-90231767D01*
X104817463Y-90232561D01*
X104876886Y-90233504D01*
X104925704Y-90234608D01*
X104965013Y-90235884D01*
X104995905Y-90237347D01*
X105019477Y-90239007D01*
X105036822Y-90240878D01*
X105049035Y-90242972D01*
X105057211Y-90245300D01*
X105062444Y-90247876D01*
X105068440Y-90251445D01*
X105075215Y-90254978D01*
X105081414Y-90258488D01*
X105087062Y-90262918D01*
X105092183Y-90269208D01*
X105096805Y-90278301D01*
X105100951Y-90291139D01*
X105104649Y-90308662D01*
X105107923Y-90331813D01*
X105110799Y-90361534D01*
X105113303Y-90398765D01*
X105115460Y-90444449D01*
X105117296Y-90499527D01*
X105118836Y-90564941D01*
X105120106Y-90641633D01*
X105121131Y-90730544D01*
X105121937Y-90832617D01*
X105121970Y-90838867D01*
X105122550Y-90948792D01*
G37*
D12*
%TO.C,G\u002A\u002A\u002A*%
G36*
X94613432Y-98359490D02*
G01*
X94622966Y-98442402D01*
X93427498Y-98434549D01*
X92232031Y-98426697D01*
X92232031Y-98351638D01*
X92232031Y-98276579D01*
X93417965Y-98276579D01*
X94603899Y-98276579D01*
X94613432Y-98359490D01*
G37*
G36*
X94889123Y-97841236D02*
G01*
X94889123Y-98171496D01*
X94799052Y-98171496D01*
X94708981Y-98171496D01*
X94708981Y-97841236D01*
X94708981Y-97510976D01*
X94799052Y-97510976D01*
X94889123Y-97510976D01*
X94889123Y-97841236D01*
G37*
G36*
X99903071Y-99971346D02*
G01*
X99903071Y-100753529D01*
X99737434Y-100753529D01*
X99571797Y-100753529D01*
X99579810Y-99980421D01*
X99587823Y-99207312D01*
X99745447Y-99198237D01*
X99903071Y-99189162D01*
X99903071Y-99971346D01*
G37*
G36*
X100353426Y-99971346D02*
G01*
X100353426Y-100753529D01*
X100187789Y-100753529D01*
X100022152Y-100753529D01*
X100030165Y-99980421D01*
X100038177Y-99207312D01*
X100195802Y-99198237D01*
X100353426Y-99189162D01*
X100353426Y-99971346D01*
G37*
G36*
X94838220Y-97272580D02*
G01*
X94879429Y-97292204D01*
X94889123Y-97345846D01*
X94886972Y-97378486D01*
X94863423Y-97412827D01*
X94799052Y-97420905D01*
X94759884Y-97419113D01*
X94718675Y-97399489D01*
X94708981Y-97345846D01*
X94711132Y-97313206D01*
X94734681Y-97278866D01*
X94799052Y-97270787D01*
X94838220Y-97272580D01*
G37*
G36*
X97801416Y-100032962D02*
G01*
X97801416Y-100753529D01*
X97276003Y-100753529D01*
X96750589Y-100753529D01*
X96750589Y-100588399D01*
X96750589Y-100423269D01*
X97095861Y-100423269D01*
X97441133Y-100423269D01*
X97441133Y-99867832D01*
X97441133Y-99312395D01*
X97621274Y-99312395D01*
X97801416Y-99312395D01*
X97801416Y-100032962D01*
G37*
G36*
X98642078Y-97375870D02*
G01*
X98642078Y-97541000D01*
X98476948Y-97541000D01*
X98311818Y-97541000D01*
X98311818Y-98156484D01*
X98311818Y-98771969D01*
X98146688Y-98771969D01*
X97981558Y-98771969D01*
X97981558Y-97991354D01*
X97981558Y-97210740D01*
X98311818Y-97210740D01*
X98642078Y-97210740D01*
X98642078Y-97375870D01*
G37*
G36*
X105247279Y-96549881D02*
G01*
X105247279Y-96640291D01*
X100141896Y-96640291D01*
X95036512Y-96640291D01*
X94962817Y-96713985D01*
X94934969Y-96744798D01*
X94905912Y-96797622D01*
X94892424Y-96870846D01*
X94889123Y-96984198D01*
X94889123Y-97180716D01*
X94799052Y-97180716D01*
X94708981Y-97180716D01*
X94708981Y-96999610D01*
X94710153Y-96944363D01*
X94734989Y-96774367D01*
X94794820Y-96644907D01*
X94893232Y-96547177D01*
X94994206Y-96475161D01*
X100120742Y-96467316D01*
X105247279Y-96459471D01*
X105247279Y-96549881D01*
G37*
G36*
X100353426Y-98051402D02*
G01*
X100353426Y-98771969D01*
X99841455Y-98771969D01*
X99329484Y-98771969D01*
X99338559Y-98614345D01*
X99347634Y-98456721D01*
X99685400Y-98448232D01*
X100023166Y-98439742D01*
X100023166Y-98320631D01*
X100023166Y-98201520D01*
X99737941Y-98201520D01*
X99452716Y-98201520D01*
X99452716Y-98052528D01*
X99452716Y-97903537D01*
X99730435Y-97894904D01*
X100008154Y-97886272D01*
X100008154Y-97766177D01*
X100008154Y-97646083D01*
X99670388Y-97637593D01*
X99332622Y-97629104D01*
X99332622Y-97479969D01*
X99332622Y-97330834D01*
X99843024Y-97330834D01*
X100353426Y-97330834D01*
X100353426Y-98051402D01*
G37*
G36*
X102575175Y-98051402D02*
G01*
X102575175Y-98771969D01*
X102064773Y-98771969D01*
X101554371Y-98771969D01*
X101554371Y-98606839D01*
X101554371Y-98441709D01*
X101884631Y-98441709D01*
X102214891Y-98441709D01*
X102214891Y-98321614D01*
X102214891Y-98201520D01*
X101929667Y-98201520D01*
X101644442Y-98201520D01*
X101644442Y-98052528D01*
X101644442Y-97903537D01*
X101922161Y-97894904D01*
X102199880Y-97886272D01*
X102209112Y-97758671D01*
X102218344Y-97631071D01*
X101886358Y-97631071D01*
X101554371Y-97631071D01*
X101554371Y-97480953D01*
X101554371Y-97330834D01*
X102064773Y-97330834D01*
X102575175Y-97330834D01*
X102575175Y-98051402D01*
G37*
G36*
X94284855Y-97311634D02*
G01*
X94409050Y-97368364D01*
X94533933Y-97474916D01*
X94606072Y-97593224D01*
X94628918Y-97730870D01*
X94627651Y-97763928D01*
X94591459Y-97910684D01*
X94512650Y-98035706D01*
X94401052Y-98122118D01*
X94311506Y-98155057D01*
X94158240Y-98166489D01*
X94013912Y-98124120D01*
X93922297Y-98076745D01*
X93989522Y-98005187D01*
X94014971Y-97979884D01*
X94064651Y-97951792D01*
X94115448Y-97965045D01*
X94186094Y-97983004D01*
X94286457Y-97963190D01*
X94379485Y-97900520D01*
X94384060Y-97895713D01*
X94427633Y-97809891D01*
X94437005Y-97702761D01*
X94409379Y-97602231D01*
X94389572Y-97575591D01*
X94312746Y-97525433D01*
X94215775Y-97500683D01*
X94125739Y-97510133D01*
X94101130Y-97517911D01*
X94045883Y-97513226D01*
X93986964Y-97464397D01*
X93918783Y-97391822D01*
X94027693Y-97346316D01*
X94151570Y-97308783D01*
X94284855Y-97311634D01*
G37*
G36*
X94446274Y-99588544D02*
G01*
X94603899Y-99597619D01*
X94618910Y-99968167D01*
X94623192Y-100068103D01*
X94630509Y-100194000D01*
X94640021Y-100278242D01*
X94654034Y-100332324D01*
X94674859Y-100367746D01*
X94704801Y-100396004D01*
X94808648Y-100445906D01*
X94921707Y-100440956D01*
X95030061Y-100380902D01*
X95062291Y-100351526D01*
X95087528Y-100318135D01*
X95103765Y-100272681D01*
X95113590Y-100203171D01*
X95119591Y-100097615D01*
X95124356Y-99944018D01*
X95134412Y-99579526D01*
X95274474Y-99588572D01*
X95414537Y-99597619D01*
X95423461Y-99897856D01*
X95424639Y-99949539D01*
X95417919Y-100180539D01*
X95388088Y-100363338D01*
X95332592Y-100504949D01*
X95248880Y-100612391D01*
X95134402Y-100692678D01*
X94996125Y-100740706D01*
X94844089Y-100747257D01*
X94707490Y-100707723D01*
X94653536Y-100681930D01*
X94624933Y-100679672D01*
X94618910Y-100707723D01*
X94618904Y-100708528D01*
X94604073Y-100735687D01*
X94552922Y-100749609D01*
X94453780Y-100753529D01*
X94288650Y-100753529D01*
X94288650Y-100166499D01*
X94288650Y-99579469D01*
X94446274Y-99588544D01*
G37*
G36*
X95819856Y-97751165D02*
G01*
X95819856Y-98171496D01*
X95714773Y-98171496D01*
X95709526Y-98171490D01*
X95641814Y-98166034D01*
X95614659Y-98138413D01*
X95609690Y-98071067D01*
X95597319Y-97993314D01*
X95553484Y-97919771D01*
X95543030Y-97910567D01*
X95512658Y-97892771D01*
X95480592Y-97900747D01*
X95434299Y-97941041D01*
X95361250Y-98020201D01*
X95348041Y-98034848D01*
X95275833Y-98110142D01*
X95220018Y-98151121D01*
X95161442Y-98168126D01*
X95080945Y-98171496D01*
X94936668Y-98171496D01*
X95055984Y-98043896D01*
X95102060Y-97994393D01*
X95190325Y-97898638D01*
X95263472Y-97818231D01*
X95351646Y-97720167D01*
X95180432Y-97547148D01*
X95156336Y-97522583D01*
X95081364Y-97443017D01*
X95028945Y-97382473D01*
X95009218Y-97352481D01*
X95013544Y-97346882D01*
X95058307Y-97335403D01*
X95135948Y-97330834D01*
X95159411Y-97331150D01*
X95222600Y-97339009D01*
X95279337Y-97364213D01*
X95345305Y-97415731D01*
X95436184Y-97502530D01*
X95609690Y-97674227D01*
X95609690Y-97502530D01*
X95609690Y-97330834D01*
X95714773Y-97330834D01*
X95819856Y-97330834D01*
X95819856Y-97751165D01*
G37*
G36*
X103866192Y-99972761D02*
G01*
X103864522Y-100131129D01*
X103857382Y-100281117D01*
X103844033Y-100384119D01*
X103823837Y-100447278D01*
X103813936Y-100465001D01*
X103735394Y-100567885D01*
X103634954Y-100660204D01*
X103535932Y-100719881D01*
X103428702Y-100746074D01*
X103287690Y-100744925D01*
X103164710Y-100708309D01*
X103130089Y-100690421D01*
X103078668Y-100668000D01*
X103058829Y-100674015D01*
X103055553Y-100708494D01*
X103045947Y-100732016D01*
X102999839Y-100748708D01*
X102905435Y-100753529D01*
X102755317Y-100753529D01*
X102755317Y-100168068D01*
X102755317Y-99582607D01*
X102902273Y-99582607D01*
X103049229Y-99582607D01*
X103059897Y-99940479D01*
X103062231Y-100014284D01*
X103068176Y-100146083D01*
X103076876Y-100235697D01*
X103090715Y-100295567D01*
X103112079Y-100338129D01*
X103143352Y-100375822D01*
X103161111Y-100392935D01*
X103262210Y-100445554D01*
X103374628Y-100446943D01*
X103480064Y-100396004D01*
X103499194Y-100379322D01*
X103523407Y-100348163D01*
X103539881Y-100302965D01*
X103550925Y-100232232D01*
X103558847Y-100124465D01*
X103565955Y-99968167D01*
X103580967Y-99597619D01*
X103723579Y-99588468D01*
X103866192Y-99579317D01*
X103866192Y-99972761D01*
G37*
G36*
X97208427Y-97287517D02*
G01*
X97308989Y-97298260D01*
X97390779Y-97323628D01*
X97477645Y-97369033D01*
X97631268Y-97485573D01*
X97754890Y-97641714D01*
X97830876Y-97818619D01*
X97857974Y-98006839D01*
X97834934Y-98196926D01*
X97760502Y-98379433D01*
X97633428Y-98544910D01*
X97571106Y-98600519D01*
X97467159Y-98674488D01*
X97373777Y-98721996D01*
X97201719Y-98759780D01*
X97010430Y-98758121D01*
X96829001Y-98715785D01*
X96676565Y-98635155D01*
X96647942Y-98611026D01*
X96639734Y-98584376D01*
X96664631Y-98545950D01*
X96727605Y-98480706D01*
X96768662Y-98440668D01*
X96822623Y-98398311D01*
X96865402Y-98389277D01*
X96915630Y-98406182D01*
X96961372Y-98422746D01*
X97090953Y-98440435D01*
X97223842Y-98427278D01*
X97331808Y-98384728D01*
X97438131Y-98286775D01*
X97507520Y-98159371D01*
X97532795Y-98020008D01*
X97513773Y-97881657D01*
X97450269Y-97757290D01*
X97342098Y-97659879D01*
X97313975Y-97644871D01*
X97185030Y-97608386D01*
X97042516Y-97604952D01*
X96916380Y-97636232D01*
X96894915Y-97645329D01*
X96848406Y-97652846D01*
X96801707Y-97630255D01*
X96734826Y-97570295D01*
X96700432Y-97535915D01*
X96650231Y-97480555D01*
X96630494Y-97450568D01*
X96638138Y-97439862D01*
X96684202Y-97404663D01*
X96758095Y-97358881D01*
X96797289Y-97337785D01*
X96880425Y-97305732D01*
X96977299Y-97289989D01*
X97110873Y-97285799D01*
X97208427Y-97287517D01*
G37*
G36*
X96717007Y-100216640D02*
G01*
X96707380Y-100319006D01*
X96691809Y-100369399D01*
X96630694Y-100477011D01*
X96542240Y-100583710D01*
X96442816Y-100671147D01*
X96348791Y-100720972D01*
X96239263Y-100743712D01*
X96085539Y-100744981D01*
X95959036Y-100708309D01*
X95924415Y-100690421D01*
X95872994Y-100668000D01*
X95853155Y-100674015D01*
X95849880Y-100708494D01*
X95840273Y-100732016D01*
X95794165Y-100748708D01*
X95699761Y-100753529D01*
X95549643Y-100753529D01*
X95549643Y-100168068D01*
X95549643Y-100150714D01*
X95877333Y-100150714D01*
X95896619Y-100260413D01*
X95967665Y-100365532D01*
X95998541Y-100393427D01*
X96104675Y-100447264D01*
X96215011Y-100441324D01*
X96327954Y-100375565D01*
X96365311Y-100341148D01*
X96409102Y-100272050D01*
X96420329Y-100179047D01*
X96414648Y-100115100D01*
X96367616Y-100006384D01*
X96277593Y-99937155D01*
X96150116Y-99912867D01*
X96079162Y-99920350D01*
X95973692Y-99968061D01*
X95904719Y-100049057D01*
X95877333Y-100150714D01*
X95549643Y-100150714D01*
X95549643Y-99582607D01*
X95699761Y-99582607D01*
X95736306Y-99582891D01*
X95809278Y-99588804D01*
X95842198Y-99606982D01*
X95849880Y-99643426D01*
X95849952Y-99654813D01*
X95856012Y-99685717D01*
X95883216Y-99684815D01*
X95947436Y-99653795D01*
X96004444Y-99629395D01*
X96156677Y-99604817D01*
X96310956Y-99628334D01*
X96455488Y-99693472D01*
X96578481Y-99793758D01*
X96668143Y-99922718D01*
X96712682Y-100073879D01*
X96715104Y-100100189D01*
X96716393Y-100179047D01*
X96717007Y-100216640D01*
G37*
G36*
X105187232Y-100032962D02*
G01*
X105187232Y-100753529D01*
X105007090Y-100753529D01*
X104826948Y-100753529D01*
X104826948Y-100528352D01*
X104826948Y-100303175D01*
X104744383Y-100303563D01*
X104734559Y-100303868D01*
X104690085Y-100315265D01*
X104645258Y-100350150D01*
X104590333Y-100418113D01*
X104515567Y-100528740D01*
X104369316Y-100753529D01*
X104177801Y-100753529D01*
X104085148Y-100751682D01*
X104013654Y-100746376D01*
X103986286Y-100738825D01*
X103988096Y-100733603D01*
X104012519Y-100689218D01*
X104059497Y-100611548D01*
X104121393Y-100513340D01*
X104143425Y-100478770D01*
X104201152Y-100386037D01*
X104241389Y-100318123D01*
X104256499Y-100287778D01*
X104247964Y-100274520D01*
X104205831Y-100229811D01*
X104140318Y-100168032D01*
X104052533Y-100066466D01*
X103985809Y-99920294D01*
X103977297Y-99844417D01*
X104293692Y-99844417D01*
X104341428Y-99923226D01*
X104392349Y-99951701D01*
X104478718Y-99968004D01*
X104611641Y-99972915D01*
X104826948Y-99972915D01*
X104826948Y-99792773D01*
X104826948Y-99612631D01*
X104616783Y-99612631D01*
X104555860Y-99613276D01*
X104456489Y-99620613D01*
X104392359Y-99639162D01*
X104346570Y-99672678D01*
X104296876Y-99753299D01*
X104293692Y-99844417D01*
X103977297Y-99844417D01*
X103968501Y-99766014D01*
X103999668Y-99615401D01*
X104078375Y-99480231D01*
X104203683Y-99372280D01*
X104234375Y-99355286D01*
X104283641Y-99336619D01*
X104348053Y-99324248D01*
X104438833Y-99316933D01*
X104567203Y-99313433D01*
X104744383Y-99312507D01*
X105187232Y-99312395D01*
X105187232Y-99792773D01*
X105187232Y-100032962D01*
G37*
G36*
X94201084Y-100213053D02*
G01*
X94170567Y-100372944D01*
X94121223Y-100461250D01*
X94038015Y-100563654D01*
X93942377Y-100654107D01*
X93853866Y-100711689D01*
X93824768Y-100722899D01*
X93676971Y-100749661D01*
X93518519Y-100740620D01*
X93379277Y-100696719D01*
X93340218Y-100677002D01*
X93289991Y-100655876D01*
X93270877Y-100662448D01*
X93267846Y-100696719D01*
X93266455Y-100713808D01*
X93248481Y-100739083D01*
X93198563Y-100750720D01*
X93102716Y-100753529D01*
X92937586Y-100753529D01*
X92937586Y-100183080D01*
X93357917Y-100183080D01*
X93357995Y-100192767D01*
X93375725Y-100298258D01*
X93431612Y-100379599D01*
X93481241Y-100419068D01*
X93590198Y-100454950D01*
X93704332Y-100436943D01*
X93810582Y-100365532D01*
X93855107Y-100310423D01*
X93895642Y-100202169D01*
X93886989Y-100095785D01*
X93834485Y-100003869D01*
X93743463Y-99939016D01*
X93619260Y-99913822D01*
X93557135Y-99919129D01*
X93450674Y-99966107D01*
X93382160Y-100056263D01*
X93357917Y-100183080D01*
X92937586Y-100183080D01*
X92937586Y-99972915D01*
X92937586Y-99192300D01*
X93102716Y-99192300D01*
X93267846Y-99192300D01*
X93267846Y-99447501D01*
X93268236Y-99494711D01*
X93272412Y-99600878D01*
X93280193Y-99674423D01*
X93290364Y-99701638D01*
X93326139Y-99689257D01*
X93387941Y-99657667D01*
X93426258Y-99642131D01*
X93521149Y-99622017D01*
X93629758Y-99613695D01*
X93723933Y-99617571D01*
X93826843Y-99642520D01*
X93933174Y-99699297D01*
X94008751Y-99757709D01*
X94114846Y-99890310D01*
X94180734Y-100047133D01*
X94199749Y-100202169D01*
X94201084Y-100213053D01*
G37*
G36*
X92847516Y-100190723D02*
G01*
X92840757Y-100278514D01*
X92787110Y-100445777D01*
X92685748Y-100586211D01*
X92543636Y-100688410D01*
X92378395Y-100742283D01*
X92195279Y-100745375D01*
X92018820Y-100692008D01*
X91992569Y-100678200D01*
X91910724Y-100621287D01*
X91845576Y-100557129D01*
X91808606Y-100498633D01*
X91811294Y-100458703D01*
X91816896Y-100454506D01*
X91867166Y-100431728D01*
X91944847Y-100405595D01*
X91982269Y-100395539D01*
X92062774Y-100388006D01*
X92130502Y-100411528D01*
X92243298Y-100448046D01*
X92358148Y-100441359D01*
X92451547Y-100392076D01*
X92468376Y-100376058D01*
X92505533Y-100333632D01*
X92511409Y-100304702D01*
X92480290Y-100287571D01*
X92406468Y-100280543D01*
X92284229Y-100281923D01*
X92107865Y-100290014D01*
X91698474Y-100311709D01*
X91712372Y-100144119D01*
X91733550Y-100034664D01*
X92036877Y-100034664D01*
X92039292Y-100038672D01*
X92081537Y-100051063D01*
X92165530Y-100059726D01*
X92277066Y-100062986D01*
X92311054Y-100062701D01*
X92416141Y-100057720D01*
X92489609Y-100047816D01*
X92517255Y-100034664D01*
X92504917Y-100004330D01*
X92449388Y-99960157D01*
X92366891Y-99926350D01*
X92277066Y-99912867D01*
X92217245Y-99919124D01*
X92130134Y-99947282D01*
X92063465Y-99989115D01*
X92036877Y-100034664D01*
X91733550Y-100034664D01*
X91741111Y-99995586D01*
X91819431Y-99836623D01*
X91938915Y-99715996D01*
X92093486Y-99639426D01*
X92277066Y-99612631D01*
X92292724Y-99612801D01*
X92476882Y-99643306D01*
X92630278Y-99722267D01*
X92747074Y-99843767D01*
X92821432Y-100001891D01*
X92825959Y-100034664D01*
X92847516Y-100190723D01*
G37*
G36*
X101584395Y-100190723D02*
G01*
X101577636Y-100278514D01*
X101523989Y-100445777D01*
X101422628Y-100586211D01*
X101280516Y-100688410D01*
X101115274Y-100742283D01*
X100932158Y-100745375D01*
X100755699Y-100692008D01*
X100729449Y-100678200D01*
X100647603Y-100621287D01*
X100582455Y-100557129D01*
X100545485Y-100498633D01*
X100548173Y-100458703D01*
X100553775Y-100454506D01*
X100604046Y-100431728D01*
X100681726Y-100405595D01*
X100719149Y-100395539D01*
X100799654Y-100388006D01*
X100867381Y-100411528D01*
X100980178Y-100448046D01*
X101095027Y-100441359D01*
X101188426Y-100392076D01*
X101205255Y-100376058D01*
X101242413Y-100333632D01*
X101248288Y-100304702D01*
X101217170Y-100287571D01*
X101143347Y-100280543D01*
X101021109Y-100281923D01*
X100844744Y-100290014D01*
X100435353Y-100311709D01*
X100449251Y-100144119D01*
X100470430Y-100034664D01*
X100773757Y-100034664D01*
X100776171Y-100038672D01*
X100818417Y-100051063D01*
X100902410Y-100059726D01*
X101013946Y-100062986D01*
X101047933Y-100062701D01*
X101153020Y-100057720D01*
X101226489Y-100047816D01*
X101254135Y-100034664D01*
X101241797Y-100004330D01*
X101186268Y-99960157D01*
X101103771Y-99926350D01*
X101013946Y-99912867D01*
X100954125Y-99919124D01*
X100867014Y-99947282D01*
X100800344Y-99989115D01*
X100773757Y-100034664D01*
X100470430Y-100034664D01*
X100477991Y-99995586D01*
X100556311Y-99836623D01*
X100675795Y-99715996D01*
X100830365Y-99639426D01*
X101013946Y-99612631D01*
X101029603Y-99612801D01*
X101213761Y-99643306D01*
X101367157Y-99722267D01*
X101483953Y-99843767D01*
X101558312Y-100001891D01*
X101562839Y-100034664D01*
X101584395Y-100190723D01*
G37*
G36*
X99511937Y-100153057D02*
G01*
X99501711Y-100263776D01*
X99441328Y-100435034D01*
X99333598Y-100583126D01*
X99186375Y-100694982D01*
X99185335Y-100695545D01*
X99045532Y-100741605D01*
X98886196Y-100748870D01*
X98730358Y-100718971D01*
X98601050Y-100653539D01*
X98574032Y-100631947D01*
X98504772Y-100567464D01*
X98462724Y-100514811D01*
X98456352Y-100501665D01*
X98454624Y-100469412D01*
X98489124Y-100442877D01*
X98570789Y-100411618D01*
X98599421Y-100402046D01*
X98676219Y-100381686D01*
X98726312Y-100384080D01*
X98772239Y-100408926D01*
X98840526Y-100439063D01*
X98929934Y-100453293D01*
X98934259Y-100453224D01*
X99012322Y-100435880D01*
X99093292Y-100396422D01*
X99156807Y-100347173D01*
X99182504Y-100300455D01*
X99182218Y-100299263D01*
X99148107Y-100288849D01*
X99062709Y-100281927D01*
X98933930Y-100278886D01*
X98769679Y-100280117D01*
X98718111Y-100281108D01*
X98568690Y-100283339D01*
X98467075Y-100282525D01*
X98403711Y-100277372D01*
X98369041Y-100266586D01*
X98353511Y-100248872D01*
X98347564Y-100222935D01*
X98349948Y-100119973D01*
X98368115Y-100061088D01*
X98657090Y-100061088D01*
X98925030Y-100062037D01*
X99192971Y-100062986D01*
X99122456Y-99987927D01*
X99073751Y-99948185D01*
X98965849Y-99912279D01*
X98849325Y-99925196D01*
X98741329Y-99986978D01*
X98657090Y-100061088D01*
X98368115Y-100061088D01*
X98393251Y-99979617D01*
X98471829Y-99843599D01*
X98575276Y-99729074D01*
X98693186Y-99653194D01*
X98730557Y-99640051D01*
X98867865Y-99616475D01*
X99016202Y-99617771D01*
X99143020Y-99644565D01*
X99202853Y-99673859D01*
X99318161Y-99766209D01*
X99416699Y-99888695D01*
X99485584Y-100023563D01*
X99493607Y-100062986D01*
X99511937Y-100153057D01*
G37*
G36*
X102225545Y-99585658D02*
G01*
X102389902Y-99620015D01*
X102508738Y-99691826D01*
X102580890Y-99800175D01*
X102605199Y-99944144D01*
X102604286Y-99977130D01*
X102582214Y-100071084D01*
X102520268Y-100152536D01*
X102514532Y-100158104D01*
X102408310Y-100230202D01*
X102275086Y-100282584D01*
X102145364Y-100303007D01*
X102084058Y-100311149D01*
X102018056Y-100343384D01*
X101982903Y-100388720D01*
X101986652Y-100434766D01*
X102037360Y-100469133D01*
X102101250Y-100481002D01*
X102199922Y-100471876D01*
X102280523Y-100435022D01*
X102322987Y-100376919D01*
X102324566Y-100370849D01*
X102345485Y-100327154D01*
X102388862Y-100307645D01*
X102473347Y-100303175D01*
X102512727Y-100303499D01*
X102575028Y-100310471D01*
X102600350Y-100334460D01*
X102605087Y-100385740D01*
X102604616Y-100399935D01*
X102571351Y-100516631D01*
X102495592Y-100624317D01*
X102391386Y-100702192D01*
X102360646Y-100715788D01*
X102220686Y-100749003D01*
X102070612Y-100748413D01*
X101926998Y-100717176D01*
X101806421Y-100658447D01*
X101725457Y-100575384D01*
X101693489Y-100509083D01*
X101672897Y-100381498D01*
X101706739Y-100264640D01*
X101791316Y-100163904D01*
X101922928Y-100084686D01*
X102097875Y-100032378D01*
X102189371Y-100010076D01*
X102281417Y-99971043D01*
X102325283Y-99929490D01*
X102319137Y-99891775D01*
X102261147Y-99864253D01*
X102149483Y-99853280D01*
X102132412Y-99853744D01*
X102040324Y-99874644D01*
X101971642Y-99918712D01*
X101944679Y-99975059D01*
X101938484Y-99983388D01*
X101890152Y-99997400D01*
X101809572Y-100002938D01*
X101798745Y-100002872D01*
X101713874Y-99992810D01*
X101676064Y-99960070D01*
X101682240Y-99896669D01*
X101729327Y-99794624D01*
X101737409Y-99780303D01*
X101835294Y-99672078D01*
X101973688Y-99605377D01*
X102147834Y-99582607D01*
X102225545Y-99585658D01*
G37*
G36*
X105127185Y-98053468D02*
G01*
X105127185Y-98336626D01*
X105127185Y-98776101D01*
X104651862Y-98766529D01*
X104516634Y-98763652D01*
X104374152Y-98759333D01*
X104273157Y-98753072D01*
X104202887Y-98743175D01*
X104152584Y-98727947D01*
X104111487Y-98705695D01*
X104068839Y-98674724D01*
X104011495Y-98621935D01*
X103933626Y-98494914D01*
X103905826Y-98352284D01*
X104196452Y-98352284D01*
X104206415Y-98412739D01*
X104254525Y-98470676D01*
X104258078Y-98472393D01*
X104320735Y-98487252D01*
X104421298Y-98497767D01*
X104539750Y-98501756D01*
X104766901Y-98501756D01*
X104766901Y-98336626D01*
X104766901Y-98171496D01*
X104548404Y-98171496D01*
X104520724Y-98171689D01*
X104369722Y-98183332D01*
X104269402Y-98215227D01*
X104213675Y-98270502D01*
X104196452Y-98352284D01*
X103905826Y-98352284D01*
X103905011Y-98348102D01*
X103926873Y-98192852D01*
X104000437Y-98040515D01*
X104044980Y-97955377D01*
X104043361Y-97897502D01*
X104023392Y-97832216D01*
X104020116Y-97767462D01*
X104297030Y-97767462D01*
X104328797Y-97826224D01*
X104357355Y-97862943D01*
X104398233Y-97887835D01*
X104464098Y-97898819D01*
X104572439Y-97901284D01*
X104766901Y-97901284D01*
X104766901Y-97751165D01*
X104766901Y-97601047D01*
X104572439Y-97601047D01*
X104476171Y-97602784D01*
X104405468Y-97612267D01*
X104362173Y-97634911D01*
X104328797Y-97676106D01*
X104302168Y-97721258D01*
X104297030Y-97767462D01*
X104020116Y-97767462D01*
X104018325Y-97732047D01*
X104029052Y-97626359D01*
X104054719Y-97541901D01*
X104061037Y-97530742D01*
X104117746Y-97462676D01*
X104193823Y-97399289D01*
X104232505Y-97375276D01*
X104279269Y-97355098D01*
X104338682Y-97342132D01*
X104422592Y-97334810D01*
X104542847Y-97331567D01*
X104711294Y-97330834D01*
X105127185Y-97330834D01*
X105127185Y-97751165D01*
X105127185Y-98053468D01*
G37*
G36*
X103422884Y-97269134D02*
G01*
X103432906Y-97271271D01*
X103607339Y-97332107D01*
X103733596Y-97426853D01*
X103810296Y-97554026D01*
X103836056Y-97712145D01*
X103820319Y-97830315D01*
X103757669Y-97950442D01*
X103645044Y-98046197D01*
X103480083Y-98119465D01*
X103260426Y-98172132D01*
X103124316Y-98206560D01*
X103026180Y-98254336D01*
X102974918Y-98308613D01*
X102973234Y-98363602D01*
X103023833Y-98413516D01*
X103129419Y-98452564D01*
X103233959Y-98464727D01*
X103357773Y-98446773D01*
X103457022Y-98396512D01*
X103515944Y-98319375D01*
X103527931Y-98290171D01*
X103556687Y-98251283D01*
X103606409Y-98234899D01*
X103696585Y-98231544D01*
X103844074Y-98231544D01*
X103828155Y-98350232D01*
X103791818Y-98478925D01*
X103700202Y-98609705D01*
X103558742Y-98708616D01*
X103443177Y-98748013D01*
X103280678Y-98770631D01*
X103111710Y-98767674D01*
X102962457Y-98737860D01*
X102869620Y-98696821D01*
X102751151Y-98602266D01*
X102676095Y-98482600D01*
X102647954Y-98348492D01*
X102670230Y-98210611D01*
X102746425Y-98079628D01*
X102799131Y-98023646D01*
X102891642Y-97956676D01*
X103010244Y-97908866D01*
X103171887Y-97871942D01*
X103217205Y-97863437D01*
X103355759Y-97831172D01*
X103444618Y-97796336D01*
X103491946Y-97754783D01*
X103505908Y-97702367D01*
X103505902Y-97701131D01*
X103478668Y-97629306D01*
X103399324Y-97585708D01*
X103269105Y-97571023D01*
X103253856Y-97571191D01*
X103119677Y-97590398D01*
X103024285Y-97638505D01*
X102976520Y-97711277D01*
X102968223Y-97737223D01*
X102943240Y-97765843D01*
X102890966Y-97778401D01*
X102795074Y-97781189D01*
X102741617Y-97780672D01*
X102672886Y-97774858D01*
X102645432Y-97758989D01*
X102646785Y-97728648D01*
X102661421Y-97675573D01*
X102681907Y-97594257D01*
X102693790Y-97563393D01*
X102744319Y-97486119D01*
X102815386Y-97409445D01*
X102860623Y-97372512D01*
X103025634Y-97286925D01*
X103215832Y-97251824D01*
X103422884Y-97269134D01*
G37*
G36*
X93021448Y-97751165D02*
G01*
X93030251Y-98156484D01*
X93172243Y-97888727D01*
X93417965Y-97888727D01*
X93429142Y-97896001D01*
X93478012Y-97901284D01*
X93519463Y-97894238D01*
X93535052Y-97862969D01*
X93496530Y-97814123D01*
X93461731Y-97796688D01*
X93436483Y-97827914D01*
X93427313Y-97853467D01*
X93417965Y-97888727D01*
X93172243Y-97888727D01*
X93241212Y-97758671D01*
X93278581Y-97688847D01*
X93349964Y-97559211D01*
X93409955Y-97455174D01*
X93453144Y-97385977D01*
X93474121Y-97360858D01*
X93484676Y-97367724D01*
X93518525Y-97413636D01*
X93560508Y-97488458D01*
X93582172Y-97530608D01*
X93636913Y-97634577D01*
X93704974Y-97761831D01*
X93759759Y-97862969D01*
X93776448Y-97893778D01*
X93927950Y-98171496D01*
X93809120Y-98171496D01*
X93779919Y-98170825D01*
X93701453Y-98154587D01*
X93658154Y-98111449D01*
X93630605Y-98077812D01*
X93575095Y-98057018D01*
X93478012Y-98051402D01*
X93393030Y-98055275D01*
X93332140Y-98073281D01*
X93297870Y-98111449D01*
X93291785Y-98121888D01*
X93270075Y-98144346D01*
X93232482Y-98158795D01*
X93167965Y-98166956D01*
X93065488Y-98170550D01*
X92914012Y-98171298D01*
X92795105Y-98170495D01*
X92670861Y-98166105D01*
X92584821Y-98156413D01*
X92524263Y-98139766D01*
X92476462Y-98114515D01*
X92423846Y-98074425D01*
X92328174Y-97956254D01*
X92281306Y-97819219D01*
X92284020Y-97737096D01*
X92489436Y-97737096D01*
X92497523Y-97835229D01*
X92541743Y-97911285D01*
X92591452Y-97943959D01*
X92671067Y-97973918D01*
X92747041Y-97985793D01*
X92795183Y-97973632D01*
X92795193Y-97973622D01*
X92806425Y-97934246D01*
X92814436Y-97852533D01*
X92817492Y-97746161D01*
X92817492Y-97541000D01*
X92712409Y-97541000D01*
X92633869Y-97552308D01*
X92547279Y-97601047D01*
X92517029Y-97642423D01*
X92489436Y-97737096D01*
X92284020Y-97737096D01*
X92286050Y-97675665D01*
X92345218Y-97537934D01*
X92384781Y-97485681D01*
X92494839Y-97395307D01*
X92636124Y-97347239D01*
X92817492Y-97337722D01*
X93012646Y-97345846D01*
X93021339Y-97746161D01*
X93021448Y-97751165D01*
G37*
G36*
X100781263Y-97366638D02*
G01*
X100794902Y-97367675D01*
X100869972Y-97379048D01*
X100905127Y-97404745D01*
X100918171Y-97456445D01*
X100943796Y-97515347D01*
X101007302Y-97557468D01*
X101086682Y-97564155D01*
X101160684Y-97529047D01*
X101166674Y-97523701D01*
X101203192Y-97501043D01*
X101238919Y-97513126D01*
X101293774Y-97565391D01*
X101325652Y-97599717D01*
X101365645Y-97656807D01*
X101364929Y-97701901D01*
X101326801Y-97753810D01*
X101310162Y-97777879D01*
X101303096Y-97846148D01*
X101342415Y-97908836D01*
X101420132Y-97949219D01*
X101426655Y-97950920D01*
X101470390Y-97971886D01*
X101489876Y-98015249D01*
X101494324Y-98099692D01*
X101494189Y-98123961D01*
X101488442Y-98194459D01*
X101467932Y-98224955D01*
X101424084Y-98231544D01*
X101368107Y-98247413D01*
X101318111Y-98301662D01*
X101301359Y-98373418D01*
X101328064Y-98440460D01*
X101333996Y-98447104D01*
X101368484Y-98499880D01*
X101360921Y-98547915D01*
X101308949Y-98612410D01*
X101308877Y-98612486D01*
X101244506Y-98668605D01*
X101192133Y-98675611D01*
X101133097Y-98636009D01*
X101082485Y-98609410D01*
X101008920Y-98613995D01*
X100948774Y-98656058D01*
X100923875Y-98726191D01*
X100923341Y-98747151D01*
X100911603Y-98783643D01*
X100872115Y-98798911D01*
X100788768Y-98801993D01*
X100783588Y-98801986D01*
X100701350Y-98797485D01*
X100663070Y-98780211D01*
X100653662Y-98743648D01*
X100636981Y-98693592D01*
X100586468Y-98638239D01*
X100569696Y-98625867D01*
X100537742Y-98585032D01*
X100552326Y-98538959D01*
X100576952Y-98513058D01*
X100633719Y-98495519D01*
X100732109Y-98495599D01*
X100794580Y-98495468D01*
X100940513Y-98461507D01*
X101059426Y-98386954D01*
X101144843Y-98281687D01*
X101190288Y-98155586D01*
X101189286Y-98018529D01*
X101135361Y-97880397D01*
X101124119Y-97862575D01*
X101029159Y-97755686D01*
X100910640Y-97697829D01*
X100756467Y-97682694D01*
X100742032Y-97682927D01*
X100625086Y-97673688D01*
X100558820Y-97645046D01*
X100545921Y-97599310D01*
X100589073Y-97538787D01*
X100632665Y-97482193D01*
X100653662Y-97418009D01*
X100653707Y-97413495D01*
X100663275Y-97378016D01*
X100700517Y-97364521D01*
X100781263Y-97366638D01*
G37*
G36*
X95843331Y-98814645D02*
G01*
X95687971Y-98892064D01*
X94290261Y-98892253D01*
X92892551Y-98892443D01*
X92840754Y-98983461D01*
X92840325Y-98984210D01*
X92774883Y-99060856D01*
X92690636Y-99117884D01*
X92593243Y-99144800D01*
X92476636Y-99134529D01*
X92376793Y-99082914D01*
X92300119Y-99000372D01*
X92253023Y-98897323D01*
X92245185Y-98817515D01*
X92407839Y-98817515D01*
X92438630Y-98905846D01*
X92452214Y-98924187D01*
X92522726Y-98974051D01*
X92599096Y-98978308D01*
X92663496Y-98939968D01*
X92698102Y-98862040D01*
X92702781Y-98805948D01*
X92685857Y-98727798D01*
X92630964Y-98685412D01*
X92568569Y-98671842D01*
X92483525Y-98688231D01*
X92426376Y-98740882D01*
X92407839Y-98817515D01*
X92245185Y-98817515D01*
X92241911Y-98784183D01*
X92273192Y-98671373D01*
X92353271Y-98569310D01*
X92415035Y-98528392D01*
X92533500Y-98498808D01*
X92655646Y-98515817D01*
X92765143Y-98575896D01*
X92845663Y-98675523D01*
X92880862Y-98744207D01*
X94267794Y-98735570D01*
X95654726Y-98726934D01*
X95791939Y-98646267D01*
X95832152Y-98619851D01*
X95934919Y-98532910D01*
X96016643Y-98439352D01*
X96017219Y-98438520D01*
X96052485Y-98384453D01*
X96077338Y-98333156D01*
X96094254Y-98272073D01*
X96105713Y-98188647D01*
X96114191Y-98070319D01*
X96122167Y-97904534D01*
X96131548Y-97740320D01*
X96151057Y-97558645D01*
X96181722Y-97416401D01*
X96227349Y-97301770D01*
X96291746Y-97202933D01*
X96378719Y-97108071D01*
X96402397Y-97083702D01*
X96426241Y-97056879D01*
X96447744Y-97032715D01*
X96469878Y-97011065D01*
X96495613Y-96991789D01*
X96527921Y-96974742D01*
X96569772Y-96959782D01*
X96624137Y-96946766D01*
X96693987Y-96935550D01*
X96782292Y-96925993D01*
X96892023Y-96917950D01*
X97026151Y-96911280D01*
X97187647Y-96905839D01*
X97379481Y-96901484D01*
X97604625Y-96898072D01*
X97866049Y-96895460D01*
X98166724Y-96893506D01*
X98509620Y-96892067D01*
X98897709Y-96890999D01*
X99333961Y-96890159D01*
X99821347Y-96889406D01*
X100362838Y-96888595D01*
X100961404Y-96887583D01*
X105247279Y-96879675D01*
X105247279Y-96955137D01*
X105247279Y-97030598D01*
X101105495Y-97030598D01*
X101001061Y-97030603D01*
X100340349Y-97030873D01*
X99738820Y-97031563D01*
X99195725Y-97032678D01*
X98710313Y-97034224D01*
X98281834Y-97036207D01*
X97909540Y-97038632D01*
X97592679Y-97041505D01*
X97330502Y-97044831D01*
X97122259Y-97048616D01*
X96967200Y-97052867D01*
X96864575Y-97057587D01*
X96813634Y-97062783D01*
X96772609Y-97073457D01*
X96650999Y-97120451D01*
X96547020Y-97179389D01*
X96472737Y-97240329D01*
X96409392Y-97315998D01*
X96363973Y-97409366D01*
X96332852Y-97530993D01*
X96312398Y-97691445D01*
X96298983Y-97901284D01*
X96288283Y-98087045D01*
X96272990Y-98231347D01*
X96249188Y-98343425D01*
X96212734Y-98437348D01*
X96159485Y-98527183D01*
X96085301Y-98626997D01*
X96045970Y-98669672D01*
X95949041Y-98749574D01*
X95857460Y-98805948D01*
X95843331Y-98814645D01*
G37*
%TD*%
M02*
