%TF.GenerationSoftware,KiCad,Pcbnew,9.0.4*%
%TF.CreationDate,2025-09-30T16:41:53+08:00*%
%TF.ProjectId,KiCAD_Proj (MCU datalogger),4b694341-445f-4507-926f-6a20284d4355,rev?*%
%TF.SameCoordinates,Original*%
%TF.FileFunction,Copper,L1,Top*%
%TF.FilePolarity,Positive*%
%FSLAX46Y46*%
G04 Gerber Fmt 4.6, Leading zero omitted, Abs format (unit mm)*
G04 Created by KiCad (PCBNEW 9.0.4) date 2025-09-30 16:41:53*
%MOMM*%
%LPD*%
G01*
G04 APERTURE LIST*
G04 Aperture macros list*
%AMRoundRect*
0 Rectangle with rounded corners*
0 $1 Rounding radius*
0 $2 $3 $4 $5 $6 $7 $8 $9 X,Y pos of 4 corners*
0 Add a 4 corners polygon primitive as box body*
4,1,4,$2,$3,$4,$5,$6,$7,$8,$9,$2,$3,0*
0 Add four circle primitives for the rounded corners*
1,1,$1+$1,$2,$3*
1,1,$1+$1,$4,$5*
1,1,$1+$1,$6,$7*
1,1,$1+$1,$8,$9*
0 Add four rect primitives between the rounded corners*
20,1,$1+$1,$2,$3,$4,$5,0*
20,1,$1+$1,$4,$5,$6,$7,0*
20,1,$1+$1,$6,$7,$8,$9,0*
20,1,$1+$1,$8,$9,$2,$3,0*%
G04 Aperture macros list end*
%TA.AperFunction,SMDPad,CuDef*%
%ADD10RoundRect,0.250000X0.262500X0.450000X-0.262500X0.450000X-0.262500X-0.450000X0.262500X-0.450000X0*%
%TD*%
%TA.AperFunction,SMDPad,CuDef*%
%ADD11RoundRect,0.243750X-0.243750X-0.456250X0.243750X-0.456250X0.243750X0.456250X-0.243750X0.456250X0*%
%TD*%
%TA.AperFunction,ComponentPad*%
%ADD12R,1.700000X1.700000*%
%TD*%
%TA.AperFunction,ComponentPad*%
%ADD13C,1.700000*%
%TD*%
%TA.AperFunction,SMDPad,CuDef*%
%ADD14RoundRect,0.250000X0.250000X0.475000X-0.250000X0.475000X-0.250000X-0.475000X0.250000X-0.475000X0*%
%TD*%
%TA.AperFunction,SMDPad,CuDef*%
%ADD15RoundRect,0.250000X-0.250000X-0.475000X0.250000X-0.475000X0.250000X0.475000X-0.250000X0.475000X0*%
%TD*%
%TA.AperFunction,SMDPad,CuDef*%
%ADD16RoundRect,0.076250X-0.768750X-0.228750X0.768750X-0.228750X0.768750X0.228750X-0.768750X0.228750X0*%
%TD*%
%TA.AperFunction,SMDPad,CuDef*%
%ADD17RoundRect,0.250000X-0.262500X-0.450000X0.262500X-0.450000X0.262500X0.450000X-0.262500X0.450000X0*%
%TD*%
%TA.AperFunction,SMDPad,CuDef*%
%ADD18RoundRect,0.250001X0.949999X-1.499999X0.949999X1.499999X-0.949999X1.499999X-0.949999X-1.499999X0*%
%TD*%
%TA.AperFunction,SMDPad,CuDef*%
%ADD19RoundRect,0.068750X-0.666250X-0.206250X0.666250X-0.206250X0.666250X0.206250X-0.666250X0.206250X0*%
%TD*%
%TA.AperFunction,SMDPad,CuDef*%
%ADD20RoundRect,0.068750X-0.206250X-0.666250X0.206250X-0.666250X0.206250X0.666250X-0.206250X0.666250X0*%
%TD*%
%TA.AperFunction,SMDPad,CuDef*%
%ADD21RoundRect,0.250001X1.499999X0.949999X-1.499999X0.949999X-1.499999X-0.949999X1.499999X-0.949999X0*%
%TD*%
%TA.AperFunction,SMDPad,CuDef*%
%ADD22RoundRect,0.073750X-0.911250X-0.221250X0.911250X-0.221250X0.911250X0.221250X-0.911250X0.221250X0*%
%TD*%
%TA.AperFunction,ViaPad*%
%ADD23C,0.600000*%
%TD*%
%TA.AperFunction,Conductor*%
%ADD24C,0.350000*%
%TD*%
%TA.AperFunction,Conductor*%
%ADD25C,0.200000*%
%TD*%
G04 APERTURE END LIST*
D10*
%TO.P,R3,1*%
%TO.N,/Vcc*%
X121984436Y-101432064D03*
%TO.P,R3,2*%
%TO.N,/SCL*%
X120159436Y-101432064D03*
%TD*%
D11*
%TO.P,D1,1,K*%
%TO.N,Net-(D1-K)*%
X124579436Y-90002064D03*
%TO.P,D1,2,A*%
%TO.N,/SCK*%
X126454436Y-90002064D03*
%TD*%
D10*
%TO.P,R2,1*%
%TO.N,/Vcc*%
X101941936Y-110322064D03*
%TO.P,R2,2*%
%TO.N,Net-(U2-SQW{slash}~INT)*%
X100116936Y-110322064D03*
%TD*%
D12*
%TO.P,J4,1,Pin_1*%
%TO.N,/MISO*%
X129961936Y-94447064D03*
D13*
%TO.P,J4,2,Pin_2*%
%TO.N,/Vcc*%
X132501936Y-94447064D03*
%TO.P,J4,3,Pin_3*%
%TO.N,/SCK*%
X129961936Y-96987064D03*
%TO.P,J4,4,Pin_4*%
%TO.N,/MOSI*%
X132501936Y-96987064D03*
%TO.P,J4,5,Pin_5*%
%TO.N,/RESET*%
X129961936Y-99527064D03*
%TO.P,J4,6,Pin_6*%
%TO.N,GND*%
X132501936Y-99527064D03*
%TD*%
D14*
%TO.P,C2,1*%
%TO.N,GND*%
X122021936Y-105242064D03*
%TO.P,C2,2*%
%TO.N,Net-(U4-PB6)*%
X120121936Y-105242064D03*
%TD*%
%TO.P,C4,1*%
%TO.N,GND*%
X122021936Y-109052064D03*
%TO.P,C4,2*%
%TO.N,Net-(U4-AREF)*%
X120121936Y-109052064D03*
%TD*%
D15*
%TO.P,C3,1*%
%TO.N,GND*%
X109961936Y-90002064D03*
%TO.P,C3,2*%
%TO.N,Net-(U4-PB7)*%
X111861936Y-90002064D03*
%TD*%
D10*
%TO.P,R5,1*%
%TO.N,GND*%
X126429436Y-93812064D03*
%TO.P,R5,2*%
%TO.N,Net-(D1-K)*%
X124604436Y-93812064D03*
%TD*%
D16*
%TO.P,U1,1,A0*%
%TO.N,/Vcc*%
X95206936Y-96987064D03*
%TO.P,U1,2,A1*%
X95206936Y-98257064D03*
%TO.P,U1,3,A2*%
X95206936Y-99527064D03*
%TO.P,U1,4,GND*%
%TO.N,GND*%
X95206936Y-100797064D03*
%TO.P,U1,5,SDA*%
%TO.N,/SDA*%
X102486936Y-100797064D03*
%TO.P,U1,6,SCL*%
%TO.N,/SCL*%
X102486936Y-99527064D03*
%TO.P,U1,7,WP*%
%TO.N,GND*%
X102486936Y-98257064D03*
%TO.P,U1,8,VCC*%
%TO.N,/Vcc*%
X102486936Y-96987064D03*
%TD*%
D17*
%TO.P,R7,1*%
%TO.N,Net-(D2-K)*%
X120159436Y-93812064D03*
%TO.P,R7,2*%
%TO.N,GND*%
X121984436Y-93812064D03*
%TD*%
D11*
%TO.P,D2,1,K*%
%TO.N,Net-(D2-K)*%
X120134436Y-90002064D03*
%TO.P,D2,2,A*%
%TO.N,/Vcc*%
X122009436Y-90002064D03*
%TD*%
D18*
%TO.P,Y1,1,1*%
%TO.N,Net-(U2-X2)*%
X91226936Y-109747064D03*
%TO.P,Y1,2,2*%
%TO.N,Net-(U2-X1)*%
X91226936Y-104547064D03*
%TD*%
D12*
%TO.P,J3,1,Pin_1*%
%TO.N,GND*%
X119801936Y-114767064D03*
D13*
%TO.P,J3,2,Pin_2*%
%TO.N,/Vcc*%
X122341936Y-114767064D03*
%TO.P,J3,3,Pin_3*%
%TO.N,/RX*%
X124881936Y-114767064D03*
%TO.P,J3,4,Pin_4*%
%TO.N,/TX*%
X127421936Y-114767064D03*
%TD*%
D15*
%TO.P,C5,1*%
%TO.N,/Vcc*%
X115041936Y-90002064D03*
%TO.P,C5,2*%
%TO.N,GND*%
X116941936Y-90002064D03*
%TD*%
D19*
%TO.P,U4,1,PD3*%
%TO.N,/D3*%
X107376936Y-96727064D03*
%TO.P,U4,2,PD4*%
%TO.N,/D4*%
X107376936Y-97527064D03*
%TO.P,U4,3,GND*%
%TO.N,GND*%
X107376936Y-98327064D03*
%TO.P,U4,4,VCC*%
%TO.N,/Vcc*%
X107376936Y-99127064D03*
%TO.P,U4,5,GND*%
%TO.N,GND*%
X107376936Y-99927064D03*
%TO.P,U4,6,VCC*%
%TO.N,unconnected-(U4-VCC-Pad6)*%
X107376936Y-100727064D03*
%TO.P,U4,7,PB6*%
%TO.N,Net-(U4-PB6)*%
X107376936Y-101527064D03*
%TO.P,U4,8,PB7*%
%TO.N,Net-(U4-PB7)*%
X107376936Y-102327064D03*
D20*
%TO.P,U4,9,PD5*%
%TO.N,/D5*%
X108746936Y-103697064D03*
%TO.P,U4,10,PD6*%
%TO.N,/D6*%
X109546936Y-103697064D03*
%TO.P,U4,11,PD7*%
%TO.N,/D7*%
X110346936Y-103697064D03*
%TO.P,U4,12,PB0*%
%TO.N,/D8*%
X111146936Y-103697064D03*
%TO.P,U4,13,PB1*%
%TO.N,unconnected-(U4-PB1-Pad13)*%
X111946936Y-103697064D03*
%TO.P,U4,14,PB2*%
%TO.N,unconnected-(U4-PB2-Pad14)*%
X112746936Y-103697064D03*
%TO.P,U4,15,PB3*%
%TO.N,/MOSI*%
X113546936Y-103697064D03*
%TO.P,U4,16,PB4*%
%TO.N,/MISO*%
X114346936Y-103697064D03*
D19*
%TO.P,U4,17,PB5*%
%TO.N,/SCK*%
X115716936Y-102327064D03*
%TO.P,U4,18,AVCC*%
%TO.N,/Vcc*%
X115716936Y-101527064D03*
%TO.P,U4,19,ADC6*%
%TO.N,unconnected-(U4-ADC6-Pad19)*%
X115716936Y-100727064D03*
%TO.P,U4,20,AREF*%
%TO.N,Net-(U4-AREF)*%
X115716936Y-99927064D03*
%TO.P,U4,21,GND*%
%TO.N,GND*%
X115716936Y-99127064D03*
%TO.P,U4,22,ADC7*%
%TO.N,unconnected-(U4-ADC7-Pad22)*%
X115716936Y-98327064D03*
%TO.P,U4,23,PC0*%
%TO.N,unconnected-(U4-PC0-Pad23)*%
X115716936Y-97527064D03*
%TO.P,U4,24,PC1*%
%TO.N,unconnected-(U4-PC1-Pad24)*%
X115716936Y-96727064D03*
D20*
%TO.P,U4,25,PC2*%
%TO.N,unconnected-(U4-PC2-Pad25)*%
X114346936Y-95357064D03*
%TO.P,U4,26,PC3*%
%TO.N,unconnected-(U4-PC3-Pad26)*%
X113546936Y-95357064D03*
%TO.P,U4,27,PC4*%
%TO.N,/SDA*%
X112746936Y-95357064D03*
%TO.P,U4,28,PC5*%
%TO.N,/SCL*%
X111946936Y-95357064D03*
%TO.P,U4,29,PC6/~{RESET}*%
%TO.N,/RESET*%
X111146936Y-95357064D03*
%TO.P,U4,30,PD0*%
%TO.N,/RX*%
X110346936Y-95357064D03*
%TO.P,U4,31,PD1*%
%TO.N,/TX*%
X109546936Y-95357064D03*
%TO.P,U4,32,PD2*%
%TO.N,/D2*%
X108746936Y-95357064D03*
%TD*%
D10*
%TO.P,R4,1*%
%TO.N,/Vcc*%
X121984436Y-97622064D03*
%TO.P,R4,2*%
%TO.N,/SDA*%
X120159436Y-97622064D03*
%TD*%
D12*
%TO.P,J1,1,Pin_1*%
%TO.N,GND*%
X132501936Y-103337064D03*
D13*
%TO.P,J1,2,Pin_2*%
%TO.N,/Vcc*%
X132501936Y-105877064D03*
%TO.P,J1,3,Pin_3*%
%TO.N,/SDA*%
X132501936Y-108417064D03*
%TO.P,J1,4,Pin_4*%
%TO.N,/SCL*%
X132501936Y-110957064D03*
%TD*%
D21*
%TO.P,Y2,1,1*%
%TO.N,Net-(U4-PB7)*%
X113511936Y-108417064D03*
%TO.P,Y2,2,2*%
%TO.N,Net-(U4-PB6)*%
X108311936Y-108417064D03*
%TD*%
D15*
%TO.P,C1,1*%
%TO.N,/Vcc*%
X105516936Y-90002064D03*
%TO.P,C1,2*%
%TO.N,GND*%
X107416936Y-90002064D03*
%TD*%
D12*
%TO.P,BT1,1,+*%
%TO.N,/Vcc*%
X90845936Y-96352064D03*
D13*
%TO.P,BT1,2,-*%
%TO.N,GND*%
X90845936Y-98892064D03*
%TD*%
D12*
%TO.P,J2,1,Pin_1*%
%TO.N,/D2*%
X94401936Y-114767064D03*
D13*
%TO.P,J2,2,Pin_2*%
%TO.N,/D3*%
X96941936Y-114767064D03*
%TO.P,J2,3,Pin_3*%
%TO.N,/D4*%
X99481936Y-114767064D03*
%TO.P,J2,4,Pin_4*%
%TO.N,/D5*%
X102021936Y-114767064D03*
%TO.P,J2,5,Pin_5*%
%TO.N,/D6*%
X104561936Y-114767064D03*
%TO.P,J2,6,Pin_6*%
%TO.N,/D7*%
X107101936Y-114767064D03*
%TO.P,J2,7,Pin_7*%
%TO.N,/D8*%
X109641936Y-114767064D03*
%TO.P,J2,8,Pin_8*%
%TO.N,GND*%
X112181936Y-114767064D03*
%TO.P,J2,9,Pin_9*%
%TO.N,/Vcc*%
X114721936Y-114767064D03*
%TD*%
D17*
%TO.P,R1,1*%
%TO.N,/Vcc*%
X96306936Y-110322064D03*
%TO.P,R1,2*%
%TO.N,Net-(U2-~{INTA})*%
X98131936Y-110322064D03*
%TD*%
D16*
%TO.P,U3,1,A0*%
%TO.N,/Vcc*%
X95206936Y-90002064D03*
%TO.P,U3,2,A1*%
%TO.N,GND*%
X95206936Y-91272064D03*
%TO.P,U3,3,A2*%
%TO.N,/Vcc*%
X95206936Y-92542064D03*
%TO.P,U3,4,GND*%
%TO.N,GND*%
X95206936Y-93812064D03*
%TO.P,U3,5,SDA*%
%TO.N,/SDA*%
X102486936Y-93812064D03*
%TO.P,U3,6,SCL*%
%TO.N,/SCL*%
X102486936Y-92542064D03*
%TO.P,U3,7,WP*%
%TO.N,GND*%
X102486936Y-91272064D03*
%TO.P,U3,8,VCC*%
%TO.N,/Vcc*%
X102486936Y-90002064D03*
%TD*%
D17*
%TO.P,R6,1*%
%TO.N,/Vcc*%
X124604436Y-97622064D03*
%TO.P,R6,2*%
%TO.N,/RESET*%
X126429436Y-97622064D03*
%TD*%
D22*
%TO.P,U2,1,X1*%
%TO.N,Net-(U2-X1)*%
X96371936Y-103972064D03*
%TO.P,U2,2,X2*%
%TO.N,Net-(U2-X2)*%
X96371936Y-105242064D03*
%TO.P,U2,3,~{INTA}*%
%TO.N,Net-(U2-~{INTA})*%
X96371936Y-106512064D03*
%TO.P,U2,4,GND*%
%TO.N,GND*%
X96371936Y-107782064D03*
%TO.P,U2,5,SDA*%
%TO.N,/SDA*%
X101321936Y-107782064D03*
%TO.P,U2,6,SCL*%
%TO.N,/SCL*%
X101321936Y-106512064D03*
%TO.P,U2,7,SQW/~INT*%
%TO.N,Net-(U2-SQW{slash}~INT)*%
X101321936Y-105242064D03*
%TO.P,U2,8,VCC*%
%TO.N,/Vcc*%
X101321936Y-103972064D03*
%TD*%
D23*
%TO.N,/Vcc*%
X123230936Y-90002064D03*
X98846936Y-103972064D03*
X100878936Y-96987064D03*
X113657556Y-100718444D03*
X123357936Y-101813064D03*
X94909936Y-110322064D03*
X100751936Y-90002064D03*
X92115936Y-91526064D03*
X96941936Y-98257064D03*
X124627936Y-99639064D03*
X103164936Y-110322064D03*
X113705936Y-90002064D03*
X109260936Y-99146064D03*
%TO.N,GND*%
X123230936Y-107147064D03*
X113705936Y-98384064D03*
X126429436Y-92311564D03*
X110206936Y-98327064D03*
X100878936Y-98257064D03*
X98211936Y-91780064D03*
X94528936Y-107782064D03*
X93512936Y-100797064D03*
X121984436Y-92311564D03*
X101005936Y-91272064D03*
X118277936Y-90002064D03*
%TO.N,Net-(U4-PB6)*%
X110530936Y-109306064D03*
X118978936Y-106385064D03*
X106085936Y-101751064D03*
%TO.N,Net-(U4-PB7)*%
X109133936Y-101813064D03*
X110149936Y-91714064D03*
X110530936Y-106258064D03*
%TO.N,Net-(U4-AREF)*%
X113578936Y-99527064D03*
X120436936Y-107655064D03*
%TO.N,/SCK*%
X125984000Y-100965000D03*
X116599936Y-103210064D03*
X118770936Y-102616000D03*
%TO.N,/SDA*%
X103651436Y-94976564D03*
X112746936Y-97114064D03*
X119928936Y-96225064D03*
X130469936Y-106893064D03*
X121706936Y-99146064D03*
%TO.N,/RESET*%
X126151936Y-96225064D03*
X111146936Y-97095064D03*
%TO.N,/MOSI*%
X119293936Y-103845064D03*
X112900671Y-101729329D03*
%TO.N,/MISO*%
X115483936Y-104099064D03*
%TO.N,/SCL*%
X111946936Y-99127064D03*
X99862936Y-99527064D03*
X125984000Y-104445064D03*
X118491000Y-97917000D03*
X120685000Y-102778000D03*
%TD*%
D24*
%TO.N,/Vcc*%
X93004936Y-91526064D02*
X93004936Y-91907064D01*
X124604436Y-99615564D02*
X124627936Y-99639064D01*
X113657556Y-100748684D02*
X114435936Y-101527064D01*
X100878936Y-96987064D02*
X102486936Y-96987064D01*
X113705936Y-90002064D02*
X115041936Y-90002064D01*
X109241936Y-99127064D02*
X109260936Y-99146064D01*
X113657556Y-100718444D02*
X113657556Y-100748684D01*
X95206936Y-98257064D02*
X96941936Y-98257064D01*
X95206936Y-96987064D02*
X95206936Y-98257064D01*
X114435936Y-101527064D02*
X115716936Y-101527064D01*
X95206936Y-98257064D02*
X95206936Y-99527064D01*
X102486936Y-90002064D02*
X100751936Y-90002064D01*
X93004936Y-91907064D02*
X93639936Y-92542064D01*
X103164936Y-110322064D02*
X101941936Y-110322064D01*
X92115936Y-91526064D02*
X93004936Y-91526064D01*
X122976936Y-101432064D02*
X123357936Y-101813064D01*
X93639936Y-92542064D02*
X95206936Y-92542064D01*
X121984436Y-101432064D02*
X122976936Y-101432064D01*
X93004936Y-90256064D02*
X93004936Y-91526064D01*
X124604436Y-97622064D02*
X124604436Y-99615564D01*
X95206936Y-90002064D02*
X93258936Y-90002064D01*
X94909936Y-110322064D02*
X96306936Y-110322064D01*
X105516936Y-90002064D02*
X102486936Y-90002064D01*
X123230936Y-90002064D02*
X122009436Y-90002064D01*
X93258936Y-90002064D02*
X93004936Y-90256064D01*
X121984436Y-97622064D02*
X124604436Y-97622064D01*
X101321936Y-103972064D02*
X98846936Y-103972064D01*
X107376936Y-99127064D02*
X109241936Y-99127064D01*
%TO.N,GND*%
X100878936Y-98257064D02*
X102486936Y-98257064D01*
X122021936Y-107147064D02*
X123230936Y-107147064D01*
X102486936Y-91272064D02*
X101005936Y-91272064D01*
X107376936Y-98327064D02*
X110206936Y-98327064D01*
X114321936Y-99127064D02*
X115716936Y-99127064D01*
X113705936Y-98384064D02*
X113705936Y-98511064D01*
X94528936Y-107782064D02*
X96371936Y-107782064D01*
X97703936Y-92288064D02*
X98211936Y-91780064D01*
X97195936Y-93050064D02*
X96433936Y-93812064D01*
X122021936Y-105242064D02*
X122021936Y-107147064D01*
X108537936Y-100074064D02*
X108537936Y-100670064D01*
X122021936Y-107147064D02*
X122021936Y-109052064D01*
X110657936Y-100670064D02*
X110657936Y-98778064D01*
X121984436Y-93812064D02*
X121984436Y-92311564D01*
X102486936Y-91272064D02*
X103025936Y-91811064D01*
X126429436Y-93812064D02*
X126429436Y-92311564D01*
X96433936Y-93812064D02*
X95206936Y-93812064D01*
X97195936Y-92034064D02*
X97195936Y-92288064D01*
X118277936Y-90002064D02*
X116941936Y-90002064D01*
X96433936Y-91272064D02*
X97195936Y-92034064D01*
X103025936Y-91811064D02*
X106689936Y-91811064D01*
X107376936Y-99927064D02*
X108390936Y-99927064D01*
X108390936Y-99927064D02*
X108537936Y-100074064D01*
X107416936Y-90002064D02*
X109961936Y-90002064D01*
X95206936Y-91272064D02*
X96433936Y-91272064D01*
X110657936Y-98778064D02*
X110206936Y-98327064D01*
X113705936Y-98511064D02*
X114321936Y-99127064D01*
X93512936Y-100797064D02*
X95206936Y-100797064D01*
X108537936Y-100670064D02*
X110657936Y-100670064D01*
X107416936Y-91084064D02*
X107416936Y-90002064D01*
X97195936Y-92288064D02*
X97703936Y-92288064D01*
X106689936Y-91811064D02*
X107416936Y-91084064D01*
X97195936Y-92288064D02*
X97195936Y-93050064D01*
D25*
%TO.N,Net-(U4-PB6)*%
X107152936Y-101751064D02*
X107376936Y-101527064D01*
X118978936Y-106385064D02*
X120121936Y-105242064D01*
X109200936Y-109306064D02*
X110530936Y-109306064D01*
X108311936Y-108417064D02*
X109200936Y-109306064D01*
X106085936Y-101751064D02*
X107152936Y-101751064D01*
%TO.N,Net-(U4-PB7)*%
X112689936Y-108417064D02*
X112054936Y-107782064D01*
X108619936Y-102327064D02*
X109133936Y-101813064D01*
X112054936Y-107782064D02*
X110530936Y-106258064D01*
X107376936Y-102327064D02*
X108619936Y-102327064D01*
X111861936Y-90002064D02*
X110149936Y-91714064D01*
X113511936Y-108417064D02*
X112689936Y-108417064D01*
%TO.N,Net-(U4-AREF)*%
X120121936Y-107970064D02*
X120436936Y-107655064D01*
X115716936Y-99927064D02*
X113978936Y-99927064D01*
X113978936Y-99927064D02*
X113578936Y-99527064D01*
X120121936Y-109052064D02*
X120121936Y-107970064D01*
%TO.N,Net-(D1-K)*%
X124579436Y-93787064D02*
X124604436Y-93812064D01*
X124579436Y-90002064D02*
X124579436Y-93787064D01*
%TO.N,/SCK*%
X128056936Y-91604564D02*
X126454436Y-90002064D01*
X124968000Y-103378000D02*
X119676815Y-103378000D01*
X129961936Y-97368064D02*
X129961936Y-96987064D01*
X115716936Y-102327064D02*
X116599936Y-103210064D01*
X129961936Y-96987064D02*
X128056936Y-95082064D01*
X128056936Y-95082064D02*
X128056936Y-91604564D01*
X125984000Y-100965000D02*
X125984000Y-102362000D01*
X118914815Y-102616000D02*
X118770936Y-102616000D01*
X119676815Y-103378000D02*
X118914815Y-102616000D01*
X125984000Y-102362000D02*
X124968000Y-103378000D01*
%TO.N,Net-(D2-K)*%
X120134436Y-93787064D02*
X120159436Y-93812064D01*
X120134436Y-90002064D02*
X120134436Y-93787064D01*
%TO.N,/SDA*%
X101321936Y-107782064D02*
X102306936Y-107782064D01*
X102306936Y-107782064D02*
X103164936Y-106924064D01*
X120159436Y-97622064D02*
X120182936Y-97622064D01*
X102486936Y-100797064D02*
X103331935Y-100797064D01*
X120159436Y-97622064D02*
X120159436Y-96455564D01*
X103331935Y-100797064D02*
X103682936Y-100446063D01*
X103651436Y-94976564D02*
X102486936Y-93812064D01*
X120182936Y-97622064D02*
X121706936Y-99146064D01*
X103164936Y-101475064D02*
X102486936Y-100797064D01*
X130977936Y-106893064D02*
X132501936Y-108417064D01*
X103682936Y-100446063D02*
X103682936Y-95008064D01*
X130469936Y-106893064D02*
X130977936Y-106893064D01*
X112746936Y-95357064D02*
X112746936Y-97114064D01*
X103164936Y-106924064D02*
X103164936Y-101475064D01*
X120159436Y-96455564D02*
X119928936Y-96225064D01*
X103682936Y-95008064D02*
X103651436Y-94976564D01*
%TO.N,/D4*%
X103243136Y-113410064D02*
X104738486Y-111914714D01*
X105196936Y-103836264D02*
X105196936Y-97701164D01*
X104738486Y-111914714D02*
X104738486Y-104294714D01*
X99481936Y-114767064D02*
X100838936Y-113410064D01*
X105196936Y-97701164D02*
X105371036Y-97527064D01*
X105371036Y-97527064D02*
X107376936Y-97527064D01*
X104738486Y-104294714D02*
X105196936Y-103836264D01*
X100838936Y-113410064D02*
X103243136Y-113410064D01*
%TO.N,/D5*%
X105139486Y-112080814D02*
X102453236Y-114767064D01*
X102453236Y-114767064D02*
X102021936Y-114767064D01*
X108746936Y-103697064D02*
X105922486Y-103697064D01*
X105922486Y-103697064D02*
X105139486Y-104480064D01*
X105139486Y-104480064D02*
X105139486Y-112080814D01*
%TO.N,/D8*%
X115102936Y-111973064D02*
X116753936Y-110322064D01*
X116753936Y-106893064D02*
X115737936Y-105877064D01*
X111419936Y-105877064D02*
X111146936Y-105604064D01*
X112435936Y-111973064D02*
X115102936Y-111973064D01*
X116753936Y-110322064D02*
X116753936Y-106893064D01*
X111146936Y-105604064D02*
X111146936Y-103697064D01*
X109641936Y-114767064D02*
X112435936Y-111973064D01*
X115737936Y-105877064D02*
X111419936Y-105877064D01*
%TO.N,/D3*%
X103077036Y-113009064D02*
X104337486Y-111748614D01*
X104337486Y-111748614D02*
X104337486Y-104128614D01*
X104795936Y-103670164D02*
X104795936Y-97535064D01*
X104337486Y-104128614D02*
X104795936Y-103670164D01*
X104795936Y-97535064D02*
X105603936Y-96727064D01*
X96941936Y-114767064D02*
X98699936Y-113009064D01*
X98699936Y-113009064D02*
X103077036Y-113009064D01*
X105603936Y-96727064D02*
X107376936Y-96727064D01*
%TO.N,/D2*%
X104394936Y-96265064D02*
X104394936Y-103504064D01*
X96560936Y-112608064D02*
X94401936Y-114767064D01*
X103926936Y-103972064D02*
X103926936Y-111592064D01*
X105302936Y-95357064D02*
X104394936Y-96265064D01*
X108746936Y-95357064D02*
X105302936Y-95357064D01*
X102910936Y-112608064D02*
X96560936Y-112608064D01*
X104394936Y-103504064D02*
X103926936Y-103972064D01*
X103926936Y-111592064D02*
X102910936Y-112608064D01*
%TO.N,/D7*%
X105978936Y-105789164D02*
X105978936Y-113644064D01*
X110346936Y-104509476D02*
X109467348Y-105389064D01*
X106379036Y-105389064D02*
X105978936Y-105789164D01*
X110346936Y-103697064D02*
X110346936Y-104509476D01*
X109467348Y-105389064D02*
X106379036Y-105389064D01*
X105978936Y-113644064D02*
X107101936Y-114767064D01*
%TO.N,/D6*%
X105577936Y-112209464D02*
X105577936Y-105623064D01*
X105577936Y-105623064D02*
X106212936Y-104988064D01*
X106212936Y-104988064D02*
X109301248Y-104988064D01*
X104561936Y-114767064D02*
X104561936Y-113225464D01*
X104561936Y-113225464D02*
X105577936Y-112209464D01*
X109301248Y-104988064D02*
X109546936Y-104742376D01*
X109546936Y-104742376D02*
X109546936Y-103697064D01*
%TO.N,/RX*%
X117221000Y-94406128D02*
X116921872Y-94107000D01*
X120055936Y-111465064D02*
X117221000Y-108630128D01*
X117221000Y-108630128D02*
X117221000Y-94406128D01*
X123738936Y-113624064D02*
X123738936Y-113370064D01*
X116921872Y-94107000D02*
X110862000Y-94107000D01*
X121833936Y-111465064D02*
X120055936Y-111465064D01*
X123738936Y-113370064D02*
X121833936Y-111465064D01*
X110346936Y-94622064D02*
X110346936Y-95357064D01*
X110862000Y-94107000D02*
X110346936Y-94622064D01*
X124881936Y-114767064D02*
X123738936Y-113624064D01*
%TO.N,/TX*%
X120222036Y-111064064D02*
X117622000Y-108464028D01*
X127421936Y-114767064D02*
X126024936Y-113370064D01*
X117622000Y-108464028D02*
X117622000Y-94240028D01*
X124373936Y-113370064D02*
X122067936Y-111064064D01*
X122067936Y-111064064D02*
X120222036Y-111064064D01*
X116980972Y-93599000D02*
X110570000Y-93599000D01*
X110570000Y-93599000D02*
X109546936Y-94622064D01*
X126024936Y-113370064D02*
X124373936Y-113370064D01*
X109546936Y-94622064D02*
X109546936Y-95357064D01*
X117622000Y-94240028D02*
X116980972Y-93599000D01*
%TO.N,/RESET*%
X126429436Y-97622064D02*
X126429436Y-96502564D01*
X126429436Y-96502564D02*
X126151936Y-96225064D01*
X128334436Y-99527064D02*
X126429436Y-97622064D01*
X129961936Y-99527064D02*
X128334436Y-99527064D01*
X111146936Y-95357064D02*
X111146936Y-97095064D01*
%TO.N,/MOSI*%
X127480407Y-103845064D02*
X131300936Y-100024535D01*
X113546936Y-102375594D02*
X113546936Y-103697064D01*
X119293936Y-103845064D02*
X127480407Y-103845064D01*
X131300936Y-100024535D02*
X131300936Y-98188064D01*
X131300936Y-98188064D02*
X132501936Y-96987064D01*
X112900671Y-101729329D02*
X113546936Y-102375594D01*
%TO.N,/MISO*%
X115081936Y-103697064D02*
X115483936Y-104099064D01*
X114346936Y-103697064D02*
X115081936Y-103697064D01*
%TO.N,Net-(U2-~{INTA})*%
X97356936Y-106512064D02*
X98131936Y-107287064D01*
X98131936Y-107287064D02*
X98131936Y-110322064D01*
X96371936Y-106512064D02*
X97356936Y-106512064D01*
%TO.N,Net-(U2-SQW{slash}~INT)*%
X99735936Y-105242064D02*
X101321936Y-105242064D01*
X100116936Y-110322064D02*
X99481936Y-109687064D01*
X99481936Y-109687064D02*
X99481936Y-105496064D01*
X99481936Y-105496064D02*
X99735936Y-105242064D01*
%TO.N,Net-(U2-X2)*%
X91226936Y-109747064D02*
X94147936Y-106826064D01*
X95417936Y-105242064D02*
X96371936Y-105242064D01*
X94147936Y-106512064D02*
X95417936Y-105242064D01*
X94147936Y-106826064D02*
X94147936Y-106512064D01*
%TO.N,Net-(U2-X1)*%
X91226936Y-104547064D02*
X93699936Y-104547064D01*
X94274936Y-103972064D02*
X96371936Y-103972064D01*
X93699936Y-104547064D02*
X94274936Y-103972064D01*
%TO.N,/SCL*%
X102486936Y-99527064D02*
X99862936Y-99527064D01*
X118023000Y-98639000D02*
X118023000Y-100751000D01*
X126192872Y-104648000D02*
X132501936Y-110957064D01*
X120159436Y-101432064D02*
X120159436Y-102252436D01*
X118491000Y-98171000D02*
X118023000Y-98639000D01*
X102763936Y-106055064D02*
X102306936Y-106512064D01*
X125984000Y-104445064D02*
X126186936Y-104648000D01*
X99862936Y-94321065D02*
X101641937Y-92542064D01*
X118704064Y-101432064D02*
X120159436Y-101432064D01*
X118491000Y-97917000D02*
X118491000Y-98171000D01*
X101641937Y-92542064D02*
X102486936Y-92542064D01*
X118023000Y-100751000D02*
X118704064Y-101432064D01*
X99862936Y-99527064D02*
X99862936Y-94321065D01*
X120159436Y-102252436D02*
X120685000Y-102778000D01*
X99862936Y-99527064D02*
X99862936Y-99908064D01*
X102763936Y-102809064D02*
X102763936Y-106055064D01*
X99862936Y-99908064D02*
X102763936Y-102809064D01*
X126186936Y-104648000D02*
X126192872Y-104648000D01*
X102306936Y-106512064D02*
X101321936Y-106512064D01*
X111946936Y-95357064D02*
X111946936Y-99127064D01*
%TD*%
M02*
