%TF.GenerationSoftware,KiCad,Pcbnew,9.0.4*%
%TF.CreationDate,2025-09-30T16:41:58+08:00*%
%TF.ProjectId,KiCAD_Proj (MCU datalogger),4b694341-445f-4507-926f-6a20284d4355,rev?*%
%TF.SameCoordinates,Original*%
%TF.FileFunction,Plated,1,4,PTH,Drill*%
%TF.FilePolarity,Positive*%
%FSLAX46Y46*%
G04 Gerber Fmt 4.6, Leading zero omitted, Abs format (unit mm)*
G04 Created by KiCad (PCBNEW 9.0.4) date 2025-09-30 16:41:58*
%MOMM*%
%LPD*%
G01*
G04 APERTURE LIST*
%TA.AperFunction,ViaDrill*%
%ADD10C,0.300000*%
%TD*%
%TA.AperFunction,ComponentDrill*%
%ADD11C,1.000000*%
%TD*%
G04 APERTURE END LIST*
D10*
X92115936Y-91526064D03*
X93512936Y-100797064D03*
X94528936Y-107782064D03*
X94909936Y-110322064D03*
X96941936Y-98257064D03*
X98211936Y-91780064D03*
X98846936Y-103972064D03*
X99862936Y-99527064D03*
X100751936Y-90002064D03*
X100878936Y-96987064D03*
X100878936Y-98257064D03*
X101005936Y-91272064D03*
X103164936Y-110322064D03*
X103651436Y-94976564D03*
X106085936Y-101751064D03*
X109133936Y-101813064D03*
X109260936Y-99146064D03*
X110149936Y-91714064D03*
X110206936Y-98327064D03*
X110530936Y-106258064D03*
X110530936Y-109306064D03*
X111146936Y-97095064D03*
X111946936Y-99127064D03*
X112746936Y-97114064D03*
X112900671Y-101729329D03*
X113578936Y-99527064D03*
X113657556Y-100718444D03*
X113705936Y-90002064D03*
X113705936Y-98384064D03*
X115483936Y-104099064D03*
X116599936Y-103210064D03*
X118277936Y-90002064D03*
X118491000Y-97917000D03*
X118770936Y-102616000D03*
X118978936Y-106385064D03*
X119293936Y-103845064D03*
X119928936Y-96225064D03*
X120436936Y-107655064D03*
X120685000Y-102778000D03*
X121706936Y-99146064D03*
X121984436Y-92311564D03*
X123230936Y-90002064D03*
X123230936Y-107147064D03*
X123357936Y-101813064D03*
X124627936Y-99639064D03*
X125984000Y-100965000D03*
X125984000Y-104445064D03*
X126151936Y-96225064D03*
X126429436Y-92311564D03*
X130469936Y-106893064D03*
D11*
%TO.C,BT1*%
X90845936Y-96352064D03*
X90845936Y-98892064D03*
%TO.C,J2*%
X94401936Y-114767064D03*
X96941936Y-114767064D03*
X99481936Y-114767064D03*
X102021936Y-114767064D03*
X104561936Y-114767064D03*
X107101936Y-114767064D03*
X109641936Y-114767064D03*
X112181936Y-114767064D03*
X114721936Y-114767064D03*
%TO.C,J3*%
X119801936Y-114767064D03*
X122341936Y-114767064D03*
X124881936Y-114767064D03*
X127421936Y-114767064D03*
%TO.C,J4*%
X129961936Y-94447064D03*
X129961936Y-96987064D03*
X129961936Y-99527064D03*
X132501936Y-94447064D03*
X132501936Y-96987064D03*
X132501936Y-99527064D03*
%TO.C,J1*%
X132501936Y-103337064D03*
X132501936Y-105877064D03*
X132501936Y-108417064D03*
X132501936Y-110957064D03*
M02*
