%TF.GenerationSoftware,KiCad,Pcbnew,9.0.4*%
%TF.CreationDate,2025-09-27T01:32:14+08:00*%
%TF.ProjectId,KiCAD_Proj (MCU datalogger),4b694341-445f-4507-926f-6a20284d4355,rev?*%
%TF.SameCoordinates,Original*%
%TF.FileFunction,Copper,L2,Bot*%
%TF.FilePolarity,Positive*%
%FSLAX46Y46*%
G04 Gerber Fmt 4.6, Leading zero omitted, Abs format (unit mm)*
G04 Created by KiCad (PCBNEW 9.0.4) date 2025-09-27 01:32:14*
%MOMM*%
%LPD*%
G01*
G04 APERTURE LIST*
%TA.AperFunction,ComponentPad*%
%ADD10R,1.700000X1.700000*%
%TD*%
%TA.AperFunction,ComponentPad*%
%ADD11C,1.700000*%
%TD*%
%TA.AperFunction,ViaPad*%
%ADD12C,0.600000*%
%TD*%
%TA.AperFunction,Conductor*%
%ADD13C,0.350000*%
%TD*%
%TA.AperFunction,Conductor*%
%ADD14C,0.200000*%
%TD*%
G04 APERTURE END LIST*
D10*
%TO.P,J4,1,Pin_1*%
%TO.N,/MISO*%
X132715000Y-83185000D03*
D11*
%TO.P,J4,2,Pin_2*%
%TO.N,/Vcc*%
X135255000Y-83185000D03*
%TO.P,J4,3,Pin_3*%
%TO.N,/SCK*%
X132715000Y-85725000D03*
%TO.P,J4,4,Pin_4*%
%TO.N,/MOSI*%
X135255000Y-85725000D03*
%TO.P,J4,5,Pin_5*%
%TO.N,/RESET*%
X132715000Y-88265000D03*
%TO.P,J4,6,Pin_6*%
%TO.N,GND*%
X135255000Y-88265000D03*
%TD*%
D10*
%TO.P,J3,1,Pin_1*%
%TO.N,GND*%
X122555000Y-103505000D03*
D11*
%TO.P,J3,2,Pin_2*%
%TO.N,/Vcc*%
X125095000Y-103505000D03*
%TO.P,J3,3,Pin_3*%
%TO.N,/RX*%
X127635000Y-103505000D03*
%TO.P,J3,4,Pin_4*%
%TO.N,/TX*%
X130175000Y-103505000D03*
%TD*%
D10*
%TO.P,J1,1,Pin_1*%
%TO.N,GND*%
X135255000Y-92075000D03*
D11*
%TO.P,J1,2,Pin_2*%
%TO.N,/Vcc*%
X135255000Y-94615000D03*
%TO.P,J1,3,Pin_3*%
%TO.N,/SDA*%
X135255000Y-97155000D03*
%TO.P,J1,4,Pin_4*%
%TO.N,/SCK*%
X135255000Y-99695000D03*
%TD*%
D10*
%TO.P,BT1,1,+*%
%TO.N,/Vcc*%
X93599000Y-85090000D03*
D11*
%TO.P,BT1,2,-*%
%TO.N,GND*%
X93599000Y-87630000D03*
%TD*%
D10*
%TO.P,J2,1,Pin_1*%
%TO.N,/D2*%
X97155000Y-103505000D03*
D11*
%TO.P,J2,2,Pin_2*%
%TO.N,/D3*%
X99695000Y-103505000D03*
%TO.P,J2,3,Pin_3*%
%TO.N,/D4*%
X102235000Y-103505000D03*
%TO.P,J2,4,Pin_4*%
%TO.N,/D5*%
X104775000Y-103505000D03*
%TO.P,J2,5,Pin_5*%
%TO.N,/D6*%
X107315000Y-103505000D03*
%TO.P,J2,6,Pin_6*%
%TO.N,/D7*%
X109855000Y-103505000D03*
%TO.P,J2,7,Pin_7*%
%TO.N,/D8*%
X112395000Y-103505000D03*
%TO.P,J2,8,Pin_8*%
%TO.N,GND*%
X114935000Y-103505000D03*
%TO.P,J2,9,Pin_9*%
%TO.N,/Vcc*%
X117475000Y-103505000D03*
%TD*%
D12*
%TO.N,/Vcc*%
X126365000Y-88900000D03*
X111633000Y-87865000D03*
X116840000Y-78740000D03*
X99695000Y-81153000D03*
X101727000Y-82042000D03*
X125730000Y-80010000D03*
X120650000Y-89535000D03*
X101981000Y-92710000D03*
X105537000Y-97536000D03*
X116840000Y-89535000D03*
%TO.N,GND*%
X119634000Y-95885000D03*
X116459000Y-86868000D03*
X126365000Y-97790000D03*
X124737500Y-81026000D03*
X120650000Y-80010000D03*
X103505000Y-87630000D03*
X100965000Y-95885000D03*
X128905000Y-80645000D03*
X115824000Y-90678000D03*
X118618000Y-99045000D03*
X108822606Y-88037411D03*
X129286000Y-84455000D03*
%TO.N,Net-(U4-PB7)*%
X114300000Y-80645000D03*
X111760000Y-90805000D03*
%TO.N,Net-(U4-AREF)*%
X115570000Y-88265000D03*
X121285000Y-97790000D03*
%TO.N,/SCK*%
X130175000Y-88900000D03*
X107315000Y-88900000D03*
X102870000Y-88900000D03*
%TO.N,/SDA*%
X127635000Y-92964000D03*
X122912500Y-87987500D03*
%TO.N,/D4*%
X108204000Y-86233000D03*
X107950000Y-90805000D03*
%TO.N,/D5*%
X110490000Y-92710000D03*
%TO.N,/D8*%
X114300000Y-94615000D03*
%TO.N,/D3*%
X107061000Y-90551000D03*
X108204000Y-84836000D03*
%TO.N,/D2*%
X111760000Y-86360000D03*
%TO.N,/D7*%
X113100000Y-94545000D03*
%TO.N,/D6*%
X111125000Y-93980000D03*
%TO.N,/RX*%
X114300000Y-88900000D03*
%TO.N,/TX*%
X113030000Y-88900000D03*
%TO.N,/RESET*%
X121539000Y-85852000D03*
X119380000Y-83820000D03*
X123825000Y-85090000D03*
X113900000Y-85490000D03*
%TO.N,/MISO*%
X118745000Y-92075000D03*
%TD*%
D13*
%TO.N,/Vcc*%
X136611000Y-100143537D02*
X136611000Y-95971000D01*
X136531000Y-88793537D02*
X136525000Y-88799537D01*
X136525000Y-86259537D02*
X136525000Y-87730463D01*
X111633000Y-87865000D02*
X112160000Y-87865000D01*
X105537000Y-96266000D02*
X101981000Y-92710000D01*
X136531000Y-87736463D02*
X136531000Y-88793537D01*
X123825000Y-80010000D02*
X120650000Y-83185000D01*
X136611000Y-95971000D02*
X135255000Y-94615000D01*
X136525000Y-88799537D02*
X136525000Y-90793000D01*
X125095000Y-103505000D02*
X126371000Y-104781000D01*
X136525000Y-87730463D02*
X136531000Y-87736463D01*
X136531000Y-85196463D02*
X136531000Y-86253537D01*
X116840000Y-88265000D02*
X116840000Y-89535000D01*
X116840000Y-78740000D02*
X116205000Y-79375000D01*
X136525000Y-85190463D02*
X136531000Y-85196463D01*
X125730000Y-80010000D02*
X123825000Y-80010000D01*
X120650000Y-83185000D02*
X120650000Y-89535000D01*
X127889000Y-90424000D02*
X126365000Y-88900000D01*
X112522000Y-87503000D02*
X116078000Y-87503000D01*
X120650000Y-83185000D02*
X116840000Y-79375000D01*
X136531000Y-93339000D02*
X136531000Y-90799000D01*
X136531000Y-86253537D02*
X136525000Y-86259537D01*
X112160000Y-87865000D02*
X112522000Y-87503000D01*
X116078000Y-87503000D02*
X116840000Y-88265000D01*
X136525000Y-83185000D02*
X136525000Y-85190463D01*
X135255000Y-83185000D02*
X136525000Y-83185000D01*
X99314000Y-79375000D02*
X93599000Y-85090000D01*
X99695000Y-81153000D02*
X100838000Y-81153000D01*
X126371000Y-104781000D02*
X131973537Y-104781000D01*
X136531000Y-90799000D02*
X136156000Y-90424000D01*
X135255000Y-94615000D02*
X136531000Y-93339000D01*
X116205000Y-79375000D02*
X99314000Y-79375000D01*
X100838000Y-81153000D02*
X101727000Y-82042000D01*
X136156000Y-90424000D02*
X127889000Y-90424000D01*
X131973537Y-104781000D02*
X136611000Y-100143537D01*
X116840000Y-79375000D02*
X116205000Y-79375000D01*
X136525000Y-90793000D02*
X136531000Y-90799000D01*
X105537000Y-97536000D02*
X105537000Y-96266000D01*
%TO.N,GND*%
X126365000Y-97790000D02*
X126492000Y-97790000D01*
X132207000Y-92075000D02*
X135255000Y-92075000D01*
X126492000Y-97790000D02*
X132207000Y-92075000D01*
D14*
%TO.N,Net-(U4-PB7)*%
X111125000Y-86995000D02*
X111974943Y-86995000D01*
X110490000Y-89535000D02*
X110490000Y-87630000D01*
X112395000Y-86574943D02*
X112395000Y-82550000D01*
X112395000Y-82550000D02*
X114300000Y-80645000D01*
X111760000Y-90805000D02*
X110490000Y-89535000D01*
X110490000Y-87630000D02*
X111125000Y-86995000D01*
X111974943Y-86995000D02*
X112395000Y-86574943D01*
%TO.N,Net-(U4-AREF)*%
X115326021Y-88508979D02*
X115336000Y-88518957D01*
X115336000Y-88518957D02*
X115336000Y-89320100D01*
X115570000Y-88265000D02*
X115326021Y-88508979D01*
X120015000Y-97790000D02*
X121285000Y-97790000D01*
X114701000Y-89955100D02*
X114701000Y-92476000D01*
X114701000Y-92476000D02*
X120015000Y-97790000D01*
X115336000Y-89320100D02*
X114701000Y-89955100D01*
%TO.N,/SCK*%
X106680000Y-89535000D02*
X107315000Y-88900000D01*
X102870000Y-88900000D02*
X103505000Y-89535000D01*
X130175000Y-88265000D02*
X130175000Y-88900000D01*
X132715000Y-85725000D02*
X130175000Y-88265000D01*
X103505000Y-89535000D02*
X106680000Y-89535000D01*
%TO.N,/SDA*%
X127635000Y-92710000D02*
X127635000Y-92964000D01*
X122912500Y-87987500D02*
X127635000Y-92710000D01*
%TO.N,/D4*%
X107716000Y-87844900D02*
X108317000Y-88445900D01*
X107716000Y-86467000D02*
X107716000Y-87844900D01*
X108317000Y-90438000D02*
X107950000Y-90805000D01*
X108204000Y-86233000D02*
X107950000Y-86233000D01*
X107950000Y-86233000D02*
X107716000Y-86467000D01*
X108317000Y-88445900D02*
X108317000Y-90438000D01*
%TO.N,/D5*%
X106680000Y-101600000D02*
X104775000Y-103505000D01*
X106680000Y-96520000D02*
X106680000Y-101600000D01*
X110490000Y-92710000D02*
X106680000Y-96520000D01*
%TO.N,/D8*%
X112395000Y-96520000D02*
X112395000Y-103505000D01*
X114300000Y-94615000D02*
X112395000Y-96520000D01*
%TO.N,/D3*%
X107823000Y-84836000D02*
X107315000Y-85344000D01*
X107916000Y-89696000D02*
X107061000Y-90551000D01*
X108204000Y-84836000D02*
X107823000Y-84836000D01*
X107916000Y-88612000D02*
X107916000Y-89696000D01*
X107315000Y-85344000D02*
X107315000Y-88011000D01*
X107315000Y-88011000D02*
X107916000Y-88612000D01*
%TO.N,/D2*%
X106279000Y-100985000D02*
X104910000Y-102354000D01*
X111760000Y-86360000D02*
X111125000Y-86360000D01*
X98306000Y-102354000D02*
X97155000Y-103505000D01*
X104910000Y-102354000D02*
X98306000Y-102354000D01*
X109855000Y-87630000D02*
X109855000Y-92777900D01*
X106279000Y-96353900D02*
X106279000Y-100985000D01*
X109855000Y-92777900D02*
X106279000Y-96353900D01*
X111125000Y-86360000D02*
X109855000Y-87630000D01*
%TO.N,/D7*%
X107482000Y-96988000D02*
X109889000Y-94581000D01*
X113064000Y-94581000D02*
X113100000Y-94545000D01*
X109889000Y-94581000D02*
X113064000Y-94581000D01*
X109855000Y-103505000D02*
X107482000Y-101132000D01*
X107482000Y-101132000D02*
X107482000Y-96988000D01*
%TO.N,/D6*%
X109855000Y-93980000D02*
X107081000Y-96754000D01*
X107081000Y-96754000D02*
X107081000Y-103271000D01*
X111125000Y-93980000D02*
X109855000Y-93980000D01*
X107081000Y-103271000D02*
X107315000Y-103505000D01*
%TO.N,/RX*%
X114300000Y-88900000D02*
X113899000Y-89301000D01*
X125857000Y-101727000D02*
X127635000Y-103505000D01*
X124841000Y-101727000D02*
X125857000Y-101727000D01*
X122174000Y-99060000D02*
X124841000Y-101727000D01*
X120082900Y-99060000D02*
X122174000Y-99060000D01*
X113899000Y-92876100D02*
X120082900Y-99060000D01*
X113899000Y-89301000D02*
X113899000Y-92876100D01*
%TO.N,/TX*%
X125349000Y-101219000D02*
X125984000Y-101219000D01*
X114935000Y-89154000D02*
X114300000Y-89789000D01*
X114935000Y-88685057D02*
X114935000Y-89154000D01*
X128905000Y-102235000D02*
X130175000Y-103505000D01*
X125984000Y-101219000D02*
X127000000Y-102235000D01*
X113665000Y-88265000D02*
X114514943Y-88265000D01*
X114514943Y-88265000D02*
X114935000Y-88685057D01*
X122789000Y-98659000D02*
X125349000Y-101219000D01*
X120249000Y-98659000D02*
X122789000Y-98659000D01*
X114300000Y-89789000D02*
X114300000Y-92710000D01*
X114300000Y-92710000D02*
X120249000Y-98659000D01*
X127000000Y-102235000D02*
X128905000Y-102235000D01*
X113030000Y-88900000D02*
X113665000Y-88265000D01*
%TO.N,/RESET*%
X117475000Y-85725000D02*
X119380000Y-83820000D01*
X121539000Y-85852000D02*
X122301000Y-85090000D01*
X114135000Y-85725000D02*
X117475000Y-85725000D01*
X122301000Y-85090000D02*
X123825000Y-85090000D01*
X113900000Y-85490000D02*
X114135000Y-85725000D01*
%TO.N,/MISO*%
X126865057Y-83185000D02*
X132715000Y-83185000D01*
X121412000Y-90043000D02*
X121412000Y-88638057D01*
X119380000Y-92075000D02*
X121412000Y-90043000D01*
X121412000Y-88638057D02*
X126865057Y-83185000D01*
X118745000Y-92075000D02*
X119380000Y-92075000D01*
%TD*%
%TA.AperFunction,Conductor*%
%TO.N,GND*%
G36*
X94476929Y-77824159D02*
G01*
X94549108Y-77843500D01*
X94549110Y-77843500D01*
X116311080Y-77843500D01*
X116379201Y-77863502D01*
X116425694Y-77917158D01*
X116435798Y-77987432D01*
X116406304Y-78052012D01*
X116381083Y-78074263D01*
X116352729Y-78093209D01*
X116324609Y-78111998D01*
X116324603Y-78112003D01*
X116212003Y-78224603D01*
X116211998Y-78224609D01*
X116123517Y-78357032D01*
X116062569Y-78504171D01*
X116062568Y-78504176D01*
X116058443Y-78524912D01*
X116025535Y-78587821D01*
X116023961Y-78589423D01*
X115958790Y-78654595D01*
X115896478Y-78688620D01*
X115869694Y-78691500D01*
X99246674Y-78691500D01*
X99220416Y-78696723D01*
X99220415Y-78696724D01*
X99149892Y-78710752D01*
X99114630Y-78717766D01*
X99114627Y-78717767D01*
X99041765Y-78747948D01*
X98990241Y-78769290D01*
X98915441Y-78819269D01*
X98915441Y-78819270D01*
X98878785Y-78843762D01*
X98878289Y-78844094D01*
X98878287Y-78844096D01*
X94027790Y-83694595D01*
X93965478Y-83728621D01*
X93938695Y-83731500D01*
X92700350Y-83731500D01*
X92639803Y-83738009D01*
X92639795Y-83738011D01*
X92502797Y-83789110D01*
X92502792Y-83789112D01*
X92385738Y-83876738D01*
X92298112Y-83993792D01*
X92298110Y-83993797D01*
X92247011Y-84130795D01*
X92247009Y-84130803D01*
X92240500Y-84191350D01*
X92240500Y-85988649D01*
X92247009Y-86049196D01*
X92247011Y-86049204D01*
X92298110Y-86186202D01*
X92298112Y-86186207D01*
X92385738Y-86303261D01*
X92502792Y-86390887D01*
X92502794Y-86390888D01*
X92502796Y-86390889D01*
X92561875Y-86412924D01*
X92639795Y-86441988D01*
X92639803Y-86441990D01*
X92700350Y-86448499D01*
X92700355Y-86448499D01*
X92700362Y-86448500D01*
X92700368Y-86448500D01*
X92724519Y-86448500D01*
X92792640Y-86468502D01*
X92813614Y-86485405D01*
X93474051Y-87145842D01*
X93406007Y-87164075D01*
X93291993Y-87229901D01*
X93198901Y-87322993D01*
X93133075Y-87437007D01*
X93114842Y-87505051D01*
X92475622Y-86865831D01*
X92475621Y-86865831D01*
X92437534Y-86918253D01*
X92340493Y-87108707D01*
X92340490Y-87108713D01*
X92274440Y-87311996D01*
X92241000Y-87523126D01*
X92241000Y-87736873D01*
X92274440Y-87948003D01*
X92340490Y-88151286D01*
X92340493Y-88151292D01*
X92437535Y-88341748D01*
X92437536Y-88341750D01*
X92475620Y-88394167D01*
X92475621Y-88394168D01*
X93114841Y-87754947D01*
X93133075Y-87822993D01*
X93198901Y-87937007D01*
X93291993Y-88030099D01*
X93406007Y-88095925D01*
X93474051Y-88114157D01*
X92834831Y-88753378D01*
X92887249Y-88791463D01*
X92887251Y-88791464D01*
X93077707Y-88888506D01*
X93077713Y-88888509D01*
X93280996Y-88954559D01*
X93492126Y-88988000D01*
X93705874Y-88988000D01*
X93917003Y-88954559D01*
X94120286Y-88888509D01*
X94120292Y-88888506D01*
X94310750Y-88791463D01*
X94363167Y-88753378D01*
X94363167Y-88753376D01*
X93723948Y-88114157D01*
X93791993Y-88095925D01*
X93906007Y-88030099D01*
X93999099Y-87937007D01*
X94064925Y-87822993D01*
X94083157Y-87754948D01*
X94722376Y-88394167D01*
X94722378Y-88394167D01*
X94760463Y-88341750D01*
X94857506Y-88151292D01*
X94857509Y-88151286D01*
X94923559Y-87948003D01*
X94957000Y-87736873D01*
X94957000Y-87523126D01*
X94923559Y-87311996D01*
X94857509Y-87108713D01*
X94857506Y-87108707D01*
X94760464Y-86918251D01*
X94760463Y-86918249D01*
X94722378Y-86865831D01*
X94083157Y-87505051D01*
X94064925Y-87437007D01*
X93999099Y-87322993D01*
X93906007Y-87229901D01*
X93791993Y-87164075D01*
X93723947Y-87145841D01*
X94180818Y-86688971D01*
X95780677Y-86688971D01*
X95784723Y-86697748D01*
X95786707Y-86702283D01*
X95801948Y-86739080D01*
X95803751Y-86743689D01*
X95814106Y-86771760D01*
X95815726Y-86776431D01*
X95894088Y-87017602D01*
X95895525Y-87022340D01*
X95903650Y-87051152D01*
X95904899Y-87055938D01*
X95914196Y-87094666D01*
X95915256Y-87099499D01*
X95921092Y-87128841D01*
X95921962Y-87133709D01*
X95935292Y-87217867D01*
X96234867Y-87217867D01*
X97248867Y-87217867D01*
X98774867Y-87217867D01*
X99788867Y-87217867D01*
X101314867Y-87217867D01*
X104868867Y-87217867D01*
X105692500Y-87217867D01*
X105692500Y-85691867D01*
X104868867Y-85691867D01*
X104868867Y-87217867D01*
X101314867Y-87217867D01*
X101314867Y-87092414D01*
X102328867Y-87092414D01*
X102395480Y-86961680D01*
X102405811Y-86944822D01*
X102513689Y-86796341D01*
X102526530Y-86781307D01*
X102656307Y-86651530D01*
X102671341Y-86638689D01*
X102819822Y-86530811D01*
X102836680Y-86520480D01*
X103000208Y-86437158D01*
X103018475Y-86429592D01*
X103193025Y-86372877D01*
X103212251Y-86368261D01*
X103393524Y-86339551D01*
X103413234Y-86338000D01*
X103596766Y-86338000D01*
X103616476Y-86339551D01*
X103797749Y-86368261D01*
X103816975Y-86372877D01*
X103854867Y-86385188D01*
X103854867Y-85691867D01*
X102328867Y-85691867D01*
X102328867Y-87092414D01*
X101314867Y-87092414D01*
X101314867Y-85691867D01*
X99788867Y-85691867D01*
X99788867Y-87217867D01*
X98774867Y-87217867D01*
X98774867Y-85691867D01*
X97248867Y-85691867D01*
X97248867Y-87217867D01*
X96234867Y-87217867D01*
X96234867Y-85691867D01*
X95971500Y-85691867D01*
X95971500Y-86002208D01*
X95971455Y-86005582D01*
X95970909Y-86025966D01*
X95970774Y-86029330D01*
X95969322Y-86056442D01*
X95969096Y-86059809D01*
X95967459Y-86080156D01*
X95967143Y-86083519D01*
X95955792Y-86189106D01*
X95954706Y-86196906D01*
X95946665Y-86243861D01*
X95945095Y-86251572D01*
X95930516Y-86313261D01*
X95928467Y-86320862D01*
X95914645Y-86366421D01*
X95912127Y-86373874D01*
X95837296Y-86574499D01*
X95833856Y-86582804D01*
X95811254Y-86632300D01*
X95807228Y-86640344D01*
X95780677Y-86688971D01*
X94180818Y-86688971D01*
X94384384Y-86485405D01*
X94446697Y-86451380D01*
X94473480Y-86448500D01*
X94497632Y-86448500D01*
X94497638Y-86448500D01*
X94497645Y-86448499D01*
X94497649Y-86448499D01*
X94558196Y-86441990D01*
X94558199Y-86441989D01*
X94558201Y-86441989D01*
X94695204Y-86390889D01*
X94698686Y-86388283D01*
X94812261Y-86303261D01*
X94899887Y-86186207D01*
X94899887Y-86186206D01*
X94899889Y-86186204D01*
X94950989Y-86049201D01*
X94951644Y-86043117D01*
X94957499Y-85988649D01*
X94957500Y-85988632D01*
X94957500Y-84750305D01*
X94977502Y-84682184D01*
X94994405Y-84661210D01*
X95814858Y-83840757D01*
X97248867Y-83840757D01*
X97248867Y-84677867D01*
X98774867Y-84677867D01*
X99788867Y-84677867D01*
X101314867Y-84677867D01*
X101314867Y-83818226D01*
X101268930Y-83809089D01*
X101262895Y-83807734D01*
X101226606Y-83798644D01*
X101220647Y-83796995D01*
X101172998Y-83782541D01*
X101167123Y-83780600D01*
X101131896Y-83767995D01*
X101126128Y-83765770D01*
X101125131Y-83765357D01*
X102328867Y-83765357D01*
X102328867Y-84677867D01*
X103854867Y-84677867D01*
X104868867Y-84677867D01*
X105829745Y-84677867D01*
X105849330Y-84638153D01*
X105853217Y-84630882D01*
X105966530Y-84434618D01*
X105970883Y-84427617D01*
X105998600Y-84386135D01*
X106003404Y-84379432D01*
X106043831Y-84326747D01*
X106049061Y-84320374D01*
X106081956Y-84282864D01*
X106087593Y-84276846D01*
X106394867Y-83969572D01*
X106394867Y-83151867D01*
X104868867Y-83151867D01*
X104868867Y-84677867D01*
X103854867Y-84677867D01*
X103854867Y-83151867D01*
X103176734Y-83151867D01*
X103158457Y-83176513D01*
X103154654Y-83181387D01*
X103123068Y-83219879D01*
X103119026Y-83224565D01*
X103093888Y-83252302D01*
X103089621Y-83256783D01*
X102941783Y-83404621D01*
X102937302Y-83408888D01*
X102909565Y-83434026D01*
X102904879Y-83438068D01*
X102866387Y-83469654D01*
X102861513Y-83473457D01*
X102831479Y-83495730D01*
X102826426Y-83499288D01*
X102652616Y-83615423D01*
X102647395Y-83618730D01*
X102615312Y-83637961D01*
X102609929Y-83641011D01*
X102566017Y-83664483D01*
X102560493Y-83667263D01*
X102526669Y-83683261D01*
X102521014Y-83685768D01*
X102328867Y-83765357D01*
X101125131Y-83765357D01*
X100932986Y-83685768D01*
X100927331Y-83683261D01*
X100893507Y-83667263D01*
X100887983Y-83664483D01*
X100844071Y-83641011D01*
X100838688Y-83637961D01*
X100806605Y-83618730D01*
X100801384Y-83615423D01*
X100627574Y-83499288D01*
X100622521Y-83495730D01*
X100592487Y-83473457D01*
X100587613Y-83469654D01*
X100549121Y-83438068D01*
X100544435Y-83434026D01*
X100516698Y-83408888D01*
X100512217Y-83404621D01*
X100364379Y-83256783D01*
X100360112Y-83252302D01*
X100334974Y-83224565D01*
X100330932Y-83219879D01*
X100299346Y-83181387D01*
X100295543Y-83176513D01*
X100277266Y-83151867D01*
X99788867Y-83151867D01*
X99788867Y-84677867D01*
X98774867Y-84677867D01*
X98774867Y-83151867D01*
X97937757Y-83151867D01*
X97248867Y-83840757D01*
X95814858Y-83840757D01*
X98671405Y-80984210D01*
X98733717Y-80950184D01*
X98804532Y-80955249D01*
X98861368Y-80997796D01*
X98886179Y-81064316D01*
X98886500Y-81073305D01*
X98886500Y-81232632D01*
X98895992Y-81280349D01*
X98917570Y-81388831D01*
X98978517Y-81535968D01*
X99043760Y-81633612D01*
X99066998Y-81668390D01*
X99067003Y-81668396D01*
X99179603Y-81780996D01*
X99179609Y-81781001D01*
X99179611Y-81781003D01*
X99312032Y-81869483D01*
X99459169Y-81930430D01*
X99615370Y-81961500D01*
X99615371Y-81961500D01*
X99774629Y-81961500D01*
X99774630Y-81961500D01*
X99930831Y-81930430D01*
X100077968Y-81869483D01*
X100095550Y-81857734D01*
X100163303Y-81836520D01*
X100165552Y-81836500D01*
X100502695Y-81836500D01*
X100570816Y-81856502D01*
X100591790Y-81873405D01*
X100910959Y-82192574D01*
X100944985Y-82254886D01*
X100945442Y-82257082D01*
X100949569Y-82277827D01*
X100949570Y-82277831D01*
X101010517Y-82424968D01*
X101079206Y-82527769D01*
X101098998Y-82557390D01*
X101099003Y-82557396D01*
X101211603Y-82669996D01*
X101211609Y-82670001D01*
X101211611Y-82670003D01*
X101344032Y-82758483D01*
X101491169Y-82819430D01*
X101647370Y-82850500D01*
X101647371Y-82850500D01*
X101806629Y-82850500D01*
X101806630Y-82850500D01*
X101962831Y-82819430D01*
X102109968Y-82758483D01*
X102242389Y-82670003D01*
X102355003Y-82557389D01*
X102443483Y-82424968D01*
X102504430Y-82277831D01*
X102532270Y-82137867D01*
X104868867Y-82137867D01*
X106394867Y-82137867D01*
X107408867Y-82137867D01*
X108934867Y-82137867D01*
X109948867Y-82137867D01*
X110825695Y-82137867D01*
X110834952Y-82103318D01*
X110857109Y-82020624D01*
X110859502Y-82012735D01*
X110875537Y-81965494D01*
X110878442Y-81957776D01*
X110903856Y-81896419D01*
X110907259Y-81888907D01*
X110929329Y-81844154D01*
X110933216Y-81836883D01*
X111046531Y-81640616D01*
X111050886Y-81633612D01*
X111078603Y-81592132D01*
X111083404Y-81585433D01*
X111123830Y-81532748D01*
X111129061Y-81526374D01*
X111161956Y-81488864D01*
X111167593Y-81482846D01*
X111474867Y-81175572D01*
X111474867Y-81072500D01*
X109948867Y-81072500D01*
X109948867Y-82137867D01*
X108934867Y-82137867D01*
X108934867Y-81072500D01*
X107408867Y-81072500D01*
X107408867Y-82137867D01*
X106394867Y-82137867D01*
X106394867Y-81072500D01*
X104868867Y-81072500D01*
X104868867Y-82137867D01*
X102532270Y-82137867D01*
X102535500Y-82121630D01*
X102535500Y-81962370D01*
X102504430Y-81806169D01*
X102443483Y-81659032D01*
X102355003Y-81526611D01*
X102355001Y-81526609D01*
X102354996Y-81526603D01*
X102242396Y-81414003D01*
X102242390Y-81413998D01*
X102242389Y-81413997D01*
X102109968Y-81325517D01*
X101962831Y-81264570D01*
X101962828Y-81264569D01*
X101962827Y-81264569D01*
X101942082Y-81260442D01*
X101879174Y-81227532D01*
X101877574Y-81225959D01*
X101273708Y-80622093D01*
X101273706Y-80622091D01*
X101216537Y-80583892D01*
X101216535Y-80583890D01*
X101161759Y-80547290D01*
X101095406Y-80519806D01*
X101037372Y-80495767D01*
X101037370Y-80495766D01*
X101037369Y-80495766D01*
X100970897Y-80482544D01*
X100905321Y-80469500D01*
X100905319Y-80469500D01*
X100165552Y-80469500D01*
X100097431Y-80449498D01*
X100095550Y-80448265D01*
X100077968Y-80436517D01*
X99930831Y-80375570D01*
X99852730Y-80360035D01*
X99774632Y-80344500D01*
X99774630Y-80344500D01*
X99615370Y-80344500D01*
X99615305Y-80344500D01*
X99547184Y-80324498D01*
X99500691Y-80270842D01*
X99490587Y-80200568D01*
X99520081Y-80135988D01*
X99526210Y-80129405D01*
X99560210Y-80095405D01*
X99622522Y-80061379D01*
X99649305Y-80058500D01*
X113483783Y-80058500D01*
X113551904Y-80078502D01*
X113598397Y-80132158D01*
X113608501Y-80202432D01*
X113588550Y-80254499D01*
X113583517Y-80262030D01*
X113583517Y-80262031D01*
X113522571Y-80409167D01*
X113522570Y-80409170D01*
X113492107Y-80562314D01*
X113459199Y-80625224D01*
X113457623Y-80626827D01*
X111908083Y-82176366D01*
X111908075Y-82176376D01*
X111827969Y-82315123D01*
X111827967Y-82315128D01*
X111814402Y-82365757D01*
X111814402Y-82365758D01*
X111791696Y-82450500D01*
X111786500Y-82469890D01*
X111786500Y-85426983D01*
X111766498Y-85495104D01*
X111712842Y-85541597D01*
X111685082Y-85550562D01*
X111589223Y-85569630D01*
X111524169Y-85582570D01*
X111377032Y-85643517D01*
X111247202Y-85730265D01*
X111179451Y-85751480D01*
X111177202Y-85751500D01*
X111044888Y-85751500D01*
X110968792Y-85771889D01*
X110968792Y-85771890D01*
X110927896Y-85782848D01*
X110890127Y-85792968D01*
X110890122Y-85792970D01*
X110751375Y-85873076D01*
X110751365Y-85873084D01*
X109368083Y-87256366D01*
X109368075Y-87256376D01*
X109287970Y-87395122D01*
X109287966Y-87395133D01*
X109274880Y-87443966D01*
X109274881Y-87443967D01*
X109246500Y-87549888D01*
X109246500Y-92473661D01*
X109226498Y-92541782D01*
X109209595Y-92562756D01*
X106094078Y-95678273D01*
X106031766Y-95712299D01*
X105960951Y-95707234D01*
X105915888Y-95678273D01*
X103549482Y-93311867D01*
X104983492Y-93311867D01*
X106004983Y-94333358D01*
X106394867Y-93943474D01*
X106394867Y-93311867D01*
X104983492Y-93311867D01*
X103549482Y-93311867D01*
X102797039Y-92559424D01*
X102763013Y-92497112D01*
X102762555Y-92494909D01*
X102758430Y-92474169D01*
X102758428Y-92474166D01*
X102758428Y-92474162D01*
X102697485Y-92327036D01*
X102697483Y-92327032D01*
X102677996Y-92297867D01*
X104868867Y-92297867D01*
X106394867Y-92297867D01*
X106394867Y-92247738D01*
X106266986Y-92194768D01*
X106261331Y-92192261D01*
X106227507Y-92176263D01*
X106221983Y-92173483D01*
X106178071Y-92150011D01*
X106172688Y-92146961D01*
X106140605Y-92127730D01*
X106135384Y-92124423D01*
X105961574Y-92008288D01*
X105956521Y-92004730D01*
X105926487Y-91982457D01*
X105921613Y-91978654D01*
X105883121Y-91947068D01*
X105878435Y-91943026D01*
X105850698Y-91917888D01*
X105846217Y-91913621D01*
X105698379Y-91765783D01*
X105694112Y-91761302D01*
X105668974Y-91733565D01*
X105664932Y-91728879D01*
X105633346Y-91690387D01*
X105629543Y-91685513D01*
X105607270Y-91655479D01*
X105603712Y-91650426D01*
X105487577Y-91476616D01*
X105484270Y-91471395D01*
X105465039Y-91439312D01*
X105461989Y-91433929D01*
X105438517Y-91390017D01*
X105435737Y-91384493D01*
X105419739Y-91350669D01*
X105417232Y-91345014D01*
X105339561Y-91157500D01*
X104868867Y-91157500D01*
X104868867Y-92297867D01*
X102677996Y-92297867D01*
X102660125Y-92271121D01*
X102609003Y-92194611D01*
X102609001Y-92194609D01*
X102608996Y-92194603D01*
X102496396Y-92082003D01*
X102496390Y-92081998D01*
X102496389Y-92081997D01*
X102363968Y-91993517D01*
X102216831Y-91932570D01*
X102121567Y-91913621D01*
X102060632Y-91901500D01*
X102060630Y-91901500D01*
X101901370Y-91901500D01*
X101901367Y-91901500D01*
X101784219Y-91924802D01*
X101745169Y-91932570D01*
X101633914Y-91978654D01*
X101598032Y-91993517D01*
X101465609Y-92081998D01*
X101465603Y-92082003D01*
X101353003Y-92194603D01*
X101352998Y-92194609D01*
X101292727Y-92284812D01*
X101264517Y-92327032D01*
X101203781Y-92473661D01*
X101203571Y-92474167D01*
X101203570Y-92474170D01*
X101172500Y-92630367D01*
X101172500Y-92789632D01*
X101188035Y-92867730D01*
X101203570Y-92945831D01*
X101264517Y-93092968D01*
X101335919Y-93199829D01*
X101352998Y-93225390D01*
X101353003Y-93225396D01*
X101465603Y-93337996D01*
X101465609Y-93338001D01*
X101465611Y-93338003D01*
X101545526Y-93391400D01*
X101598032Y-93426483D01*
X101598036Y-93426485D01*
X101745162Y-93487428D01*
X101745166Y-93487428D01*
X101745169Y-93487430D01*
X101765910Y-93491555D01*
X101828819Y-93524462D01*
X101830424Y-93526039D01*
X104816595Y-96512210D01*
X104850621Y-96574522D01*
X104853500Y-96601305D01*
X104853500Y-97065447D01*
X104833498Y-97133568D01*
X104832266Y-97135448D01*
X104820517Y-97153031D01*
X104799760Y-97203143D01*
X104770158Y-97274609D01*
X104759571Y-97300167D01*
X104759570Y-97300170D01*
X104728500Y-97456367D01*
X104728500Y-97456370D01*
X104728500Y-97615630D01*
X104759570Y-97771831D01*
X104820517Y-97918968D01*
X104908403Y-98050500D01*
X104908998Y-98051390D01*
X104909003Y-98051396D01*
X105021603Y-98163996D01*
X105021609Y-98164001D01*
X105021611Y-98164003D01*
X105154032Y-98252483D01*
X105301169Y-98313430D01*
X105457370Y-98344500D01*
X105457371Y-98344500D01*
X105544500Y-98344500D01*
X105612621Y-98364502D01*
X105659114Y-98418158D01*
X105670500Y-98470500D01*
X105670500Y-100680761D01*
X105650498Y-100748882D01*
X105633595Y-100769856D01*
X104694856Y-101708595D01*
X104632544Y-101742621D01*
X104605761Y-101745500D01*
X98225889Y-101745500D01*
X98074621Y-101786032D01*
X98074614Y-101786034D01*
X98071128Y-101786967D01*
X97932376Y-101867075D01*
X97932370Y-101867080D01*
X97844795Y-101954656D01*
X97689854Y-102109596D01*
X97627544Y-102143620D01*
X97600761Y-102146500D01*
X96256350Y-102146500D01*
X96195803Y-102153009D01*
X96195795Y-102153011D01*
X96058797Y-102204110D01*
X96058792Y-102204112D01*
X95941738Y-102291738D01*
X95854112Y-102408792D01*
X95854110Y-102408797D01*
X95803011Y-102545795D01*
X95803009Y-102545803D01*
X95796500Y-102606350D01*
X95796500Y-104403649D01*
X95803009Y-104464196D01*
X95803011Y-104464204D01*
X95854110Y-104601202D01*
X95854112Y-104601207D01*
X95941738Y-104718261D01*
X96058792Y-104805887D01*
X96058794Y-104805888D01*
X96058796Y-104805889D01*
X96117875Y-104827924D01*
X96195795Y-104856988D01*
X96195803Y-104856990D01*
X96256350Y-104863499D01*
X96256355Y-104863499D01*
X96256362Y-104863500D01*
X96256368Y-104863500D01*
X98053632Y-104863500D01*
X98053638Y-104863500D01*
X98053645Y-104863499D01*
X98053649Y-104863499D01*
X98114196Y-104856990D01*
X98114199Y-104856989D01*
X98114201Y-104856989D01*
X98251204Y-104805889D01*
X98251799Y-104805444D01*
X98368261Y-104718261D01*
X98455887Y-104601207D01*
X98455887Y-104601206D01*
X98455889Y-104601204D01*
X98499869Y-104483288D01*
X98542414Y-104426456D01*
X98608934Y-104401645D01*
X98678308Y-104416736D01*
X98707018Y-104438229D01*
X98809990Y-104541201D01*
X98809993Y-104541203D01*
X98809996Y-104541206D01*
X98982991Y-104666894D01*
X99173517Y-104763972D01*
X99376878Y-104830047D01*
X99376879Y-104830047D01*
X99376884Y-104830049D01*
X99588084Y-104863500D01*
X99588087Y-104863500D01*
X99801913Y-104863500D01*
X99801916Y-104863500D01*
X100013116Y-104830049D01*
X100216483Y-104763972D01*
X100407009Y-104666894D01*
X100580004Y-104541206D01*
X100731206Y-104390004D01*
X100856894Y-104217009D01*
X100856899Y-104216997D01*
X100857561Y-104215920D01*
X100857924Y-104215591D01*
X100859804Y-104213004D01*
X100860347Y-104213398D01*
X100910204Y-104168283D01*
X100980244Y-104156670D01*
X101045445Y-104184766D01*
X101070021Y-104213130D01*
X101070196Y-104213004D01*
X101071668Y-104215030D01*
X101072439Y-104215920D01*
X101073104Y-104217006D01*
X101073106Y-104217009D01*
X101198794Y-104390004D01*
X101198796Y-104390006D01*
X101198798Y-104390009D01*
X101349990Y-104541201D01*
X101349993Y-104541203D01*
X101349996Y-104541206D01*
X101522991Y-104666894D01*
X101713517Y-104763972D01*
X101916878Y-104830047D01*
X101916879Y-104830047D01*
X101916884Y-104830049D01*
X102128084Y-104863500D01*
X102128087Y-104863500D01*
X102341913Y-104863500D01*
X102341916Y-104863500D01*
X102553116Y-104830049D01*
X102756483Y-104763972D01*
X102947009Y-104666894D01*
X103120004Y-104541206D01*
X103271206Y-104390004D01*
X103396894Y-104217009D01*
X103396899Y-104216997D01*
X103397561Y-104215920D01*
X103397924Y-104215591D01*
X103399804Y-104213004D01*
X103400347Y-104213398D01*
X103450204Y-104168283D01*
X103520244Y-104156670D01*
X103585445Y-104184766D01*
X103610021Y-104213130D01*
X103610196Y-104213004D01*
X103611668Y-104215030D01*
X103612439Y-104215920D01*
X103613104Y-104217006D01*
X103613106Y-104217009D01*
X103738794Y-104390004D01*
X103738796Y-104390006D01*
X103738798Y-104390009D01*
X103889990Y-104541201D01*
X103889993Y-104541203D01*
X103889996Y-104541206D01*
X104062991Y-104666894D01*
X104253517Y-104763972D01*
X104456878Y-104830047D01*
X104456879Y-104830047D01*
X104456884Y-104830049D01*
X104668084Y-104863500D01*
X104668087Y-104863500D01*
X104881913Y-104863500D01*
X104881916Y-104863500D01*
X105093116Y-104830049D01*
X105296483Y-104763972D01*
X105487009Y-104666894D01*
X105660004Y-104541206D01*
X105811206Y-104390004D01*
X105936894Y-104217009D01*
X105936899Y-104216997D01*
X105937561Y-104215920D01*
X105937924Y-104215591D01*
X105939804Y-104213004D01*
X105940347Y-104213398D01*
X105990204Y-104168283D01*
X106060244Y-104156670D01*
X106125445Y-104184766D01*
X106150021Y-104213130D01*
X106150196Y-104213004D01*
X106151668Y-104215030D01*
X106152439Y-104215920D01*
X106153104Y-104217006D01*
X106153106Y-104217009D01*
X106278794Y-104390004D01*
X106278796Y-104390006D01*
X106278798Y-104390009D01*
X106429990Y-104541201D01*
X106429993Y-104541203D01*
X106429996Y-104541206D01*
X106602991Y-104666894D01*
X106793517Y-104763972D01*
X106996878Y-104830047D01*
X106996879Y-104830047D01*
X106996884Y-104830049D01*
X107208084Y-104863500D01*
X107208087Y-104863500D01*
X107421913Y-104863500D01*
X107421916Y-104863500D01*
X107633116Y-104830049D01*
X107836483Y-104763972D01*
X108027009Y-104666894D01*
X108200004Y-104541206D01*
X108351206Y-104390004D01*
X108476894Y-104217009D01*
X108476899Y-104216997D01*
X108477561Y-104215920D01*
X108477924Y-104215591D01*
X108479804Y-104213004D01*
X108480347Y-104213398D01*
X108530204Y-104168283D01*
X108600244Y-104156670D01*
X108665445Y-104184766D01*
X108690021Y-104213130D01*
X108690196Y-104213004D01*
X108691668Y-104215030D01*
X108692439Y-104215920D01*
X108693104Y-104217006D01*
X108693106Y-104217009D01*
X108818794Y-104390004D01*
X108818796Y-104390006D01*
X108818798Y-104390009D01*
X108969990Y-104541201D01*
X108969993Y-104541203D01*
X108969996Y-104541206D01*
X109142991Y-104666894D01*
X109333517Y-104763972D01*
X109536878Y-104830047D01*
X109536879Y-104830047D01*
X109536884Y-104830049D01*
X109748084Y-104863500D01*
X109748087Y-104863500D01*
X109961913Y-104863500D01*
X109961916Y-104863500D01*
X110173116Y-104830049D01*
X110376483Y-104763972D01*
X110567009Y-104666894D01*
X110740004Y-104541206D01*
X110891206Y-104390004D01*
X111016894Y-104217009D01*
X111016899Y-104216997D01*
X111017561Y-104215920D01*
X111017924Y-104215591D01*
X111019804Y-104213004D01*
X111020347Y-104213398D01*
X111070204Y-104168283D01*
X111140244Y-104156670D01*
X111205445Y-104184766D01*
X111230021Y-104213130D01*
X111230196Y-104213004D01*
X111231668Y-104215030D01*
X111232439Y-104215920D01*
X111233104Y-104217006D01*
X111233106Y-104217009D01*
X111358794Y-104390004D01*
X111358796Y-104390006D01*
X111358798Y-104390009D01*
X111509990Y-104541201D01*
X111509993Y-104541203D01*
X111509996Y-104541206D01*
X111682991Y-104666894D01*
X111873517Y-104763972D01*
X112076878Y-104830047D01*
X112076879Y-104830047D01*
X112076884Y-104830049D01*
X112288084Y-104863500D01*
X112288087Y-104863500D01*
X112501913Y-104863500D01*
X112501916Y-104863500D01*
X112713116Y-104830049D01*
X112916483Y-104763972D01*
X113107009Y-104666894D01*
X113280004Y-104541206D01*
X113431206Y-104390004D01*
X113556894Y-104217009D01*
X113556902Y-104216992D01*
X113557854Y-104215441D01*
X113558377Y-104214967D01*
X113559804Y-104213004D01*
X113560216Y-104213303D01*
X113610497Y-104167804D01*
X113680537Y-104156189D01*
X113745738Y-104184285D01*
X113770485Y-104212842D01*
X113770624Y-104212742D01*
X113771794Y-104214353D01*
X113772726Y-104215428D01*
X113773536Y-104216750D01*
X113811620Y-104269167D01*
X113811621Y-104269168D01*
X114450841Y-103629947D01*
X114469075Y-103697993D01*
X114534901Y-103812007D01*
X114627993Y-103905099D01*
X114742007Y-103970925D01*
X114810051Y-103989157D01*
X114170831Y-104628378D01*
X114223249Y-104666463D01*
X114223251Y-104666464D01*
X114413707Y-104763506D01*
X114413713Y-104763509D01*
X114616996Y-104829559D01*
X114828126Y-104863000D01*
X115041874Y-104863000D01*
X115253003Y-104829559D01*
X115456286Y-104763509D01*
X115456292Y-104763506D01*
X115646750Y-104666463D01*
X115699167Y-104628378D01*
X115699167Y-104628376D01*
X115059948Y-103989157D01*
X115127993Y-103970925D01*
X115242007Y-103905099D01*
X115335099Y-103812007D01*
X115400925Y-103697993D01*
X115419157Y-103629948D01*
X116058376Y-104269167D01*
X116058378Y-104269167D01*
X116096459Y-104216756D01*
X116097259Y-104215451D01*
X116097694Y-104215057D01*
X116099377Y-104212741D01*
X116099863Y-104213094D01*
X116149897Y-104167809D01*
X116219936Y-104156188D01*
X116285140Y-104184278D01*
X116310097Y-104213075D01*
X116310196Y-104213004D01*
X116311025Y-104214145D01*
X116312136Y-104215427D01*
X116313103Y-104217006D01*
X116388518Y-104320806D01*
X116438794Y-104390004D01*
X116438796Y-104390006D01*
X116438798Y-104390009D01*
X116589990Y-104541201D01*
X116589993Y-104541203D01*
X116589996Y-104541206D01*
X116762991Y-104666894D01*
X116953517Y-104763972D01*
X117156878Y-104830047D01*
X117156879Y-104830047D01*
X117156884Y-104830049D01*
X117368084Y-104863500D01*
X117368087Y-104863500D01*
X117581913Y-104863500D01*
X117581916Y-104863500D01*
X117793116Y-104830049D01*
X117996483Y-104763972D01*
X118187009Y-104666894D01*
X118360004Y-104541206D01*
X118511206Y-104390004D01*
X118636894Y-104217009D01*
X118733972Y-104026483D01*
X118800049Y-103823116D01*
X118833500Y-103611916D01*
X118833500Y-103398084D01*
X118800049Y-103186884D01*
X118733972Y-102983517D01*
X118636894Y-102792991D01*
X118511206Y-102619996D01*
X118511203Y-102619993D01*
X118511201Y-102619990D01*
X118360009Y-102468798D01*
X118360006Y-102468796D01*
X118360004Y-102468794D01*
X118344964Y-102457867D01*
X120108867Y-102457867D01*
X120193126Y-102457867D01*
X120198704Y-102405996D01*
X120199789Y-102398204D01*
X120207824Y-102351274D01*
X120209394Y-102343561D01*
X120223970Y-102281877D01*
X120226019Y-102274276D01*
X120239844Y-102228702D01*
X120242362Y-102221247D01*
X120317144Y-102020747D01*
X120320586Y-102012439D01*
X120343190Y-101962941D01*
X120347214Y-101954900D01*
X120381935Y-101891307D01*
X120386526Y-101883569D01*
X120415961Y-101837766D01*
X120421092Y-101830376D01*
X120552058Y-101655426D01*
X120557702Y-101648422D01*
X120593345Y-101607288D01*
X120599474Y-101600706D01*
X120650706Y-101549474D01*
X120657288Y-101543345D01*
X120698422Y-101507702D01*
X120705426Y-101502058D01*
X120880376Y-101371092D01*
X120887766Y-101365961D01*
X120933569Y-101336526D01*
X120941307Y-101331935D01*
X121004900Y-101297214D01*
X121012941Y-101293190D01*
X121062439Y-101270586D01*
X121070747Y-101267144D01*
X121271247Y-101192362D01*
X121278702Y-101189844D01*
X121324276Y-101176019D01*
X121331877Y-101173970D01*
X121393561Y-101159394D01*
X121401274Y-101157824D01*
X121448204Y-101149789D01*
X121455996Y-101148704D01*
X121561514Y-101137358D01*
X121564878Y-101137042D01*
X121585232Y-101135404D01*
X121588602Y-101135178D01*
X121615718Y-101133726D01*
X121619081Y-101133591D01*
X121634867Y-101133168D01*
X121634867Y-100931867D01*
X120108867Y-100931867D01*
X120108867Y-102457867D01*
X118344964Y-102457867D01*
X118198251Y-102351274D01*
X118187012Y-102343108D01*
X118187011Y-102343107D01*
X118187009Y-102343106D01*
X117996483Y-102246028D01*
X117996480Y-102246027D01*
X117996478Y-102246026D01*
X117793120Y-102179952D01*
X117793123Y-102179952D01*
X117753801Y-102173724D01*
X117581916Y-102146500D01*
X117368084Y-102146500D01*
X117156884Y-102179951D01*
X117156878Y-102179952D01*
X116953521Y-102246026D01*
X116953515Y-102246029D01*
X116762987Y-102343108D01*
X116589993Y-102468796D01*
X116589990Y-102468798D01*
X116438798Y-102619990D01*
X116438796Y-102619993D01*
X116313100Y-102792998D01*
X116312131Y-102794580D01*
X116311606Y-102795054D01*
X116310196Y-102796996D01*
X116309787Y-102796699D01*
X116259479Y-102842206D01*
X116189437Y-102853807D01*
X116124242Y-102825697D01*
X116099514Y-102797157D01*
X116099376Y-102797258D01*
X116098199Y-102795639D01*
X116097270Y-102794566D01*
X116096461Y-102793247D01*
X116058378Y-102740831D01*
X115419157Y-103380051D01*
X115400925Y-103312007D01*
X115335099Y-103197993D01*
X115242007Y-103104901D01*
X115127993Y-103039075D01*
X115059947Y-103020841D01*
X115699168Y-102381621D01*
X115699167Y-102381620D01*
X115646750Y-102343536D01*
X115646748Y-102343535D01*
X115456292Y-102246493D01*
X115456286Y-102246490D01*
X115253003Y-102180440D01*
X115041874Y-102147000D01*
X114828126Y-102147000D01*
X114616996Y-102180440D01*
X114413713Y-102246490D01*
X114413707Y-102246493D01*
X114223253Y-102343534D01*
X114170831Y-102381621D01*
X114170831Y-102381622D01*
X114810051Y-103020842D01*
X114742007Y-103039075D01*
X114627993Y-103104901D01*
X114534901Y-103197993D01*
X114469075Y-103312007D01*
X114450842Y-103380051D01*
X113811622Y-102740831D01*
X113811621Y-102740831D01*
X113773528Y-102793261D01*
X113772724Y-102794574D01*
X113772288Y-102794967D01*
X113770624Y-102797259D01*
X113770142Y-102796909D01*
X113720075Y-102842203D01*
X113650033Y-102853807D01*
X113584836Y-102825702D01*
X113559901Y-102796924D01*
X113559804Y-102796996D01*
X113558975Y-102795855D01*
X113557859Y-102794567D01*
X113556899Y-102793001D01*
X113556894Y-102792991D01*
X113431206Y-102619996D01*
X113431203Y-102619993D01*
X113431201Y-102619990D01*
X113280009Y-102468798D01*
X113280006Y-102468796D01*
X113280004Y-102468794D01*
X113160022Y-102381622D01*
X113107011Y-102343107D01*
X113072295Y-102325418D01*
X113020681Y-102276669D01*
X113003500Y-102213152D01*
X113003500Y-101133000D01*
X115028867Y-101133000D01*
X115061796Y-101133000D01*
X115066746Y-101133097D01*
X115096659Y-101134273D01*
X115101595Y-101134564D01*
X115141300Y-101137689D01*
X115146225Y-101138174D01*
X115175938Y-101141691D01*
X115180838Y-101142369D01*
X115431291Y-101182038D01*
X115436159Y-101182908D01*
X115465501Y-101188744D01*
X115470334Y-101189804D01*
X115509062Y-101199101D01*
X115513848Y-101200350D01*
X115542660Y-101208475D01*
X115547398Y-101209912D01*
X115788569Y-101288274D01*
X115793240Y-101289894D01*
X115821311Y-101300249D01*
X115825920Y-101302052D01*
X115862717Y-101317293D01*
X115867252Y-101319277D01*
X115894438Y-101331810D01*
X115898890Y-101333969D01*
X116124839Y-101449095D01*
X116129205Y-101451429D01*
X116155320Y-101466055D01*
X116159586Y-101468555D01*
X116193548Y-101489367D01*
X116197715Y-101492035D01*
X116204548Y-101496601D01*
X116212043Y-101491594D01*
X116216210Y-101488926D01*
X116250170Y-101468116D01*
X116254440Y-101465614D01*
X116280544Y-101450996D01*
X116284904Y-101448665D01*
X116510917Y-101333505D01*
X116515369Y-101331346D01*
X116542555Y-101318813D01*
X116547091Y-101316829D01*
X116554867Y-101313608D01*
X116554867Y-101132500D01*
X117568867Y-101132500D01*
X117601835Y-101132500D01*
X117606785Y-101132597D01*
X117636698Y-101133773D01*
X117641634Y-101134064D01*
X117681339Y-101137189D01*
X117686264Y-101137674D01*
X117715977Y-101141191D01*
X117720877Y-101141869D01*
X117971402Y-101181549D01*
X117976269Y-101182418D01*
X118005603Y-101188252D01*
X118010434Y-101189312D01*
X118049162Y-101198608D01*
X118053953Y-101199858D01*
X118082774Y-101207986D01*
X118087510Y-101209423D01*
X118328761Y-101287809D01*
X118333436Y-101289430D01*
X118361507Y-101299786D01*
X118366111Y-101301588D01*
X118402909Y-101316829D01*
X118407445Y-101318813D01*
X118434631Y-101331346D01*
X118439083Y-101333505D01*
X118665096Y-101448665D01*
X118669456Y-101450996D01*
X118695560Y-101465614D01*
X118699830Y-101468116D01*
X118733790Y-101488926D01*
X118737957Y-101491594D01*
X118762848Y-101508225D01*
X118766909Y-101511055D01*
X118972125Y-101660154D01*
X118976067Y-101663138D01*
X118999561Y-101681658D01*
X119003386Y-101684796D01*
X119033673Y-101710662D01*
X119037372Y-101713950D01*
X119059357Y-101734272D01*
X119062925Y-101737703D01*
X119094867Y-101769645D01*
X119094867Y-100931867D01*
X117568867Y-100931867D01*
X117568867Y-101132500D01*
X116554867Y-101132500D01*
X116554867Y-100931867D01*
X115028867Y-100931867D01*
X115028867Y-101133000D01*
X113003500Y-101133000D01*
X113003500Y-99917867D01*
X115028867Y-99917867D01*
X116554867Y-99917867D01*
X116554867Y-98391867D01*
X115028867Y-98391867D01*
X115028867Y-99917867D01*
X113003500Y-99917867D01*
X113003500Y-97377867D01*
X115028867Y-97377867D01*
X116106207Y-97377867D01*
X115028867Y-96300526D01*
X115028867Y-97377867D01*
X113003500Y-97377867D01*
X113003500Y-96824239D01*
X113023502Y-96756118D01*
X113040405Y-96735144D01*
X113656755Y-96118794D01*
X114318174Y-95457374D01*
X114380484Y-95423351D01*
X114382672Y-95422894D01*
X114535831Y-95392430D01*
X114682968Y-95331483D01*
X114815389Y-95243003D01*
X114928003Y-95130389D01*
X114988800Y-95039397D01*
X115043274Y-94993873D01*
X115113717Y-94985024D01*
X115177761Y-95015665D01*
X115182658Y-95020307D01*
X119709265Y-99546915D01*
X119709270Y-99546919D01*
X119709272Y-99546921D01*
X119709273Y-99546922D01*
X119709275Y-99546923D01*
X119795612Y-99596770D01*
X119848027Y-99627032D01*
X119925408Y-99647766D01*
X120002789Y-99668500D01*
X120002790Y-99668500D01*
X120163010Y-99668500D01*
X121869761Y-99668500D01*
X121937882Y-99688502D01*
X121958856Y-99705405D01*
X124402392Y-102148942D01*
X124436418Y-102211254D01*
X124431353Y-102282070D01*
X124388806Y-102338905D01*
X124386966Y-102340156D01*
X124386996Y-102340196D01*
X124209995Y-102468794D01*
X124106629Y-102572160D01*
X124044317Y-102606185D01*
X123973501Y-102601119D01*
X123916665Y-102558573D01*
X123899478Y-102527096D01*
X123855444Y-102409034D01*
X123767904Y-102292095D01*
X123650965Y-102204555D01*
X123514093Y-102153505D01*
X123453597Y-102147000D01*
X122809000Y-102147000D01*
X122809000Y-103074297D01*
X122747993Y-103039075D01*
X122620826Y-103005000D01*
X122489174Y-103005000D01*
X122362007Y-103039075D01*
X122301000Y-103074297D01*
X122301000Y-102147000D01*
X121656402Y-102147000D01*
X121595906Y-102153505D01*
X121459035Y-102204555D01*
X121459034Y-102204555D01*
X121342095Y-102292095D01*
X121254555Y-102409034D01*
X121254555Y-102409035D01*
X121203505Y-102545906D01*
X121197000Y-102606402D01*
X121197000Y-103251000D01*
X122124297Y-103251000D01*
X122089075Y-103312007D01*
X122055000Y-103439174D01*
X122055000Y-103570826D01*
X122089075Y-103697993D01*
X122124297Y-103759000D01*
X121197000Y-103759000D01*
X121197000Y-104403597D01*
X121203505Y-104464093D01*
X121254555Y-104600964D01*
X121254555Y-104600965D01*
X121342095Y-104717904D01*
X121459034Y-104805444D01*
X121595906Y-104856494D01*
X121656402Y-104862999D01*
X121656415Y-104863000D01*
X122301000Y-104863000D01*
X122301000Y-103935702D01*
X122362007Y-103970925D01*
X122489174Y-104005000D01*
X122620826Y-104005000D01*
X122747993Y-103970925D01*
X122809000Y-103935702D01*
X122809000Y-104863000D01*
X123453585Y-104863000D01*
X123453597Y-104862999D01*
X123514093Y-104856494D01*
X123650964Y-104805444D01*
X123650965Y-104805444D01*
X123767904Y-104717904D01*
X123855444Y-104600965D01*
X123899478Y-104482903D01*
X123942024Y-104426067D01*
X124008544Y-104401256D01*
X124077918Y-104416347D01*
X124106629Y-104437840D01*
X124209990Y-104541201D01*
X124209993Y-104541203D01*
X124209996Y-104541206D01*
X124382991Y-104666894D01*
X124573517Y-104763972D01*
X124776878Y-104830047D01*
X124776879Y-104830047D01*
X124776884Y-104830049D01*
X124988084Y-104863500D01*
X124988087Y-104863500D01*
X125201912Y-104863500D01*
X125201916Y-104863500D01*
X125384516Y-104834578D01*
X125454922Y-104843677D01*
X125493317Y-104869932D01*
X125571790Y-104948405D01*
X125605816Y-105010717D01*
X125600751Y-105081532D01*
X125558204Y-105138368D01*
X125491684Y-105163179D01*
X125482695Y-105163500D01*
X94549107Y-105163500D01*
X94476932Y-105182839D01*
X94405956Y-105181149D01*
X94355227Y-105150227D01*
X91953772Y-102748772D01*
X91919746Y-102686460D01*
X91921161Y-102627065D01*
X91921868Y-102624430D01*
X91940500Y-102554892D01*
X91940500Y-102423108D01*
X91940500Y-102134470D01*
X92954500Y-102134470D01*
X93277897Y-102457867D01*
X93694867Y-102457867D01*
X94708867Y-102457867D01*
X94792621Y-102457867D01*
X94798208Y-102405894D01*
X94799294Y-102398094D01*
X94807335Y-102351139D01*
X94808905Y-102343428D01*
X94823484Y-102281739D01*
X94825533Y-102274138D01*
X94839355Y-102228579D01*
X94841873Y-102221126D01*
X94916704Y-102020501D01*
X94920144Y-102012196D01*
X94942746Y-101962700D01*
X94946772Y-101954656D01*
X94981493Y-101891065D01*
X94986083Y-101883329D01*
X95015518Y-101837525D01*
X95020649Y-101830134D01*
X95151701Y-101655070D01*
X95157344Y-101648067D01*
X95192987Y-101606932D01*
X95199117Y-101600349D01*
X95250349Y-101549117D01*
X95256932Y-101542987D01*
X95298067Y-101507344D01*
X95305070Y-101501701D01*
X95480134Y-101370649D01*
X95487525Y-101365518D01*
X95533329Y-101336083D01*
X95541065Y-101331493D01*
X95604656Y-101296772D01*
X95612700Y-101292746D01*
X95662196Y-101270144D01*
X95670501Y-101266704D01*
X95871126Y-101191873D01*
X95878579Y-101189355D01*
X95924138Y-101175533D01*
X95931739Y-101173484D01*
X95993428Y-101158905D01*
X96001139Y-101157335D01*
X96048094Y-101149294D01*
X96055894Y-101148208D01*
X96161481Y-101136857D01*
X96164844Y-101136541D01*
X96185191Y-101134904D01*
X96188558Y-101134678D01*
X96215670Y-101133226D01*
X96219034Y-101133091D01*
X96234867Y-101132666D01*
X96234867Y-100931867D01*
X94708867Y-100931867D01*
X94708867Y-102457867D01*
X93694867Y-102457867D01*
X93694867Y-100931867D01*
X92954500Y-100931867D01*
X92954500Y-102134470D01*
X91940500Y-102134470D01*
X91940500Y-99917867D01*
X92954500Y-99917867D01*
X93694867Y-99917867D01*
X94708867Y-99917867D01*
X96234867Y-99917867D01*
X97248867Y-99917867D01*
X98774867Y-99917867D01*
X99788867Y-99917867D01*
X101314867Y-99917867D01*
X102328867Y-99917867D01*
X103854867Y-99917867D01*
X103854867Y-98391867D01*
X102328867Y-98391867D01*
X102328867Y-99917867D01*
X101314867Y-99917867D01*
X101314867Y-98391867D01*
X99788867Y-98391867D01*
X99788867Y-99917867D01*
X98774867Y-99917867D01*
X98774867Y-98391867D01*
X97248867Y-98391867D01*
X97248867Y-99917867D01*
X96234867Y-99917867D01*
X96234867Y-98391867D01*
X94708867Y-98391867D01*
X94708867Y-99917867D01*
X93694867Y-99917867D01*
X93694867Y-98391867D01*
X92954500Y-98391867D01*
X92954500Y-99917867D01*
X91940500Y-99917867D01*
X91940500Y-97377867D01*
X92954500Y-97377867D01*
X93694867Y-97377867D01*
X94708867Y-97377867D01*
X96234867Y-97377867D01*
X97248867Y-97377867D01*
X98774867Y-97377867D01*
X99788867Y-97377867D01*
X101314867Y-97377867D01*
X102328867Y-97377867D01*
X103717325Y-97377867D01*
X103721819Y-97332227D01*
X103722576Y-97326087D01*
X103728067Y-97289066D01*
X103729125Y-97282970D01*
X103769911Y-97077929D01*
X103771266Y-97071895D01*
X103780356Y-97035606D01*
X103782005Y-97029647D01*
X103796459Y-96981998D01*
X103798400Y-96976123D01*
X103811005Y-96940896D01*
X103811079Y-96940704D01*
X102722242Y-95851867D01*
X102328867Y-95851867D01*
X102328867Y-97377867D01*
X101314867Y-97377867D01*
X101314867Y-97129811D01*
X101276975Y-97142123D01*
X101257749Y-97146739D01*
X101076476Y-97175449D01*
X101056766Y-97177000D01*
X100873234Y-97177000D01*
X100853524Y-97175449D01*
X100672251Y-97146739D01*
X100653025Y-97142123D01*
X100478475Y-97085408D01*
X100460208Y-97077842D01*
X100296680Y-96994520D01*
X100279822Y-96984189D01*
X100131341Y-96876311D01*
X100116307Y-96863470D01*
X99986530Y-96733693D01*
X99973689Y-96718659D01*
X99865811Y-96570178D01*
X99855480Y-96553320D01*
X99788867Y-96422585D01*
X99788867Y-97377867D01*
X98774867Y-97377867D01*
X98774867Y-95851867D01*
X97248867Y-95851867D01*
X97248867Y-97377867D01*
X96234867Y-97377867D01*
X96234867Y-95851867D01*
X94708867Y-95851867D01*
X94708867Y-97377867D01*
X93694867Y-97377867D01*
X93694867Y-95851867D01*
X92954500Y-95851867D01*
X92954500Y-97377867D01*
X91940500Y-97377867D01*
X91940500Y-94837867D01*
X92954500Y-94837867D01*
X93694867Y-94837867D01*
X94708867Y-94837867D01*
X96234867Y-94837867D01*
X97248867Y-94837867D01*
X98774867Y-94837867D01*
X99788867Y-94837867D01*
X100208173Y-94837867D01*
X100279822Y-94785811D01*
X100296680Y-94775480D01*
X100460208Y-94692158D01*
X100478475Y-94684592D01*
X100653025Y-94627877D01*
X100672251Y-94623261D01*
X100853524Y-94594551D01*
X100873234Y-94593000D01*
X101056766Y-94593000D01*
X101076476Y-94594551D01*
X101257749Y-94623261D01*
X101276975Y-94627877D01*
X101314867Y-94640188D01*
X101314867Y-94444492D01*
X101250418Y-94380043D01*
X101186982Y-94353767D01*
X101181328Y-94351260D01*
X101147506Y-94335263D01*
X101141981Y-94332482D01*
X101098070Y-94309010D01*
X101092688Y-94305961D01*
X101060605Y-94286730D01*
X101055384Y-94283423D01*
X100881574Y-94167288D01*
X100876521Y-94163730D01*
X100846487Y-94141457D01*
X100841613Y-94137654D01*
X100803121Y-94106068D01*
X100798435Y-94102026D01*
X100770698Y-94076888D01*
X100766217Y-94072621D01*
X100618379Y-93924783D01*
X100614112Y-93920302D01*
X100588974Y-93892565D01*
X100584932Y-93887879D01*
X100553346Y-93849387D01*
X100549543Y-93844513D01*
X100527270Y-93814479D01*
X100523712Y-93809426D01*
X100407577Y-93635616D01*
X100404270Y-93630395D01*
X100385039Y-93598312D01*
X100381989Y-93592929D01*
X100358517Y-93549017D01*
X100355737Y-93543493D01*
X100339739Y-93509669D01*
X100337232Y-93504014D01*
X100257642Y-93311867D01*
X99788867Y-93311867D01*
X99788867Y-94837867D01*
X98774867Y-94837867D01*
X98774867Y-93311867D01*
X97248867Y-93311867D01*
X97248867Y-94837867D01*
X96234867Y-94837867D01*
X96234867Y-93311867D01*
X94708867Y-93311867D01*
X94708867Y-94837867D01*
X93694867Y-94837867D01*
X93694867Y-93311867D01*
X92954500Y-93311867D01*
X92954500Y-94837867D01*
X91940500Y-94837867D01*
X91940500Y-92297867D01*
X92954500Y-92297867D01*
X93694867Y-92297867D01*
X94708867Y-92297867D01*
X96234867Y-92297867D01*
X97248867Y-92297867D01*
X98774867Y-92297867D01*
X99788867Y-92297867D01*
X100204773Y-92297867D01*
X100213911Y-92251929D01*
X100215266Y-92245895D01*
X100224356Y-92209606D01*
X100226005Y-92203647D01*
X100240459Y-92155998D01*
X100242400Y-92150123D01*
X100255005Y-92114896D01*
X100257230Y-92109128D01*
X100337232Y-91915986D01*
X100339739Y-91910331D01*
X100355737Y-91876507D01*
X100358517Y-91870983D01*
X100381989Y-91827071D01*
X100385039Y-91821688D01*
X100404270Y-91789605D01*
X100407577Y-91784384D01*
X100523712Y-91610574D01*
X100527270Y-91605521D01*
X100549543Y-91575487D01*
X100553346Y-91570613D01*
X100584932Y-91532121D01*
X100588974Y-91527435D01*
X100614112Y-91499698D01*
X100618379Y-91495217D01*
X100766217Y-91347379D01*
X100770698Y-91343112D01*
X100798435Y-91317974D01*
X100803121Y-91313932D01*
X100841613Y-91282346D01*
X100846487Y-91278543D01*
X100876521Y-91256270D01*
X100881574Y-91252712D01*
X101055384Y-91136577D01*
X101060605Y-91133270D01*
X101092688Y-91114039D01*
X101098071Y-91110989D01*
X101141983Y-91087517D01*
X101147507Y-91084737D01*
X101181331Y-91068739D01*
X101186986Y-91066232D01*
X101314867Y-91013261D01*
X101314867Y-90920989D01*
X102328867Y-90920989D01*
X102439071Y-90942911D01*
X102445105Y-90944266D01*
X102481394Y-90953356D01*
X102487353Y-90955005D01*
X102535002Y-90969459D01*
X102540877Y-90971400D01*
X102576104Y-90984005D01*
X102581872Y-90986230D01*
X102775014Y-91066232D01*
X102780669Y-91068739D01*
X102814493Y-91084737D01*
X102820017Y-91087517D01*
X102863929Y-91110989D01*
X102869312Y-91114039D01*
X102901395Y-91133270D01*
X102906616Y-91136577D01*
X103080426Y-91252712D01*
X103085479Y-91256270D01*
X103115513Y-91278543D01*
X103120387Y-91282346D01*
X103158879Y-91313932D01*
X103163565Y-91317974D01*
X103191302Y-91343112D01*
X103195783Y-91347379D01*
X103343621Y-91495217D01*
X103347888Y-91499698D01*
X103373026Y-91527435D01*
X103377068Y-91532121D01*
X103408654Y-91570613D01*
X103412457Y-91575487D01*
X103434730Y-91605521D01*
X103438288Y-91610574D01*
X103554423Y-91784384D01*
X103557730Y-91789605D01*
X103576961Y-91821688D01*
X103580010Y-91827070D01*
X103603482Y-91870981D01*
X103606263Y-91876506D01*
X103622260Y-91910328D01*
X103624767Y-91915982D01*
X103651043Y-91979418D01*
X103854867Y-92183242D01*
X103854867Y-91157500D01*
X103391685Y-91157500D01*
X103383444Y-91157230D01*
X103333659Y-91153967D01*
X103325454Y-91153159D01*
X103259614Y-91144491D01*
X103251479Y-91143148D01*
X103202548Y-91133415D01*
X103194517Y-91131543D01*
X102975617Y-91072888D01*
X102967731Y-91070495D01*
X102920498Y-91054463D01*
X102912781Y-91051559D01*
X102851429Y-91026148D01*
X102843916Y-91022744D01*
X102799160Y-91000673D01*
X102791887Y-90996785D01*
X102739726Y-90966669D01*
X102739720Y-90966667D01*
X102595619Y-90883470D01*
X102588618Y-90879117D01*
X102547136Y-90851400D01*
X102540434Y-90846597D01*
X102487748Y-90806170D01*
X102481374Y-90800939D01*
X102448223Y-90771867D01*
X102328867Y-90771867D01*
X102328867Y-90920989D01*
X101314867Y-90920989D01*
X101314867Y-90771867D01*
X99788867Y-90771867D01*
X99788867Y-92297867D01*
X98774867Y-92297867D01*
X98774867Y-90771867D01*
X97248867Y-90771867D01*
X97248867Y-92297867D01*
X96234867Y-92297867D01*
X96234867Y-90771867D01*
X94708867Y-90771867D01*
X94708867Y-92297867D01*
X93694867Y-92297867D01*
X93694867Y-90771867D01*
X92954500Y-90771867D01*
X92954500Y-92297867D01*
X91940500Y-92297867D01*
X91940500Y-89726651D01*
X94708867Y-89726651D01*
X94708867Y-89757867D01*
X96234867Y-89757867D01*
X97248867Y-89757867D01*
X98774867Y-89757867D01*
X99788867Y-89757867D01*
X101257593Y-89757867D01*
X101247517Y-89739017D01*
X101244737Y-89733493D01*
X101228739Y-89699669D01*
X101226232Y-89694014D01*
X101146230Y-89500872D01*
X101144005Y-89495104D01*
X101131400Y-89459877D01*
X101129459Y-89454002D01*
X101115005Y-89406353D01*
X101113356Y-89400394D01*
X101104266Y-89364105D01*
X101102911Y-89358071D01*
X101062125Y-89153030D01*
X101061067Y-89146934D01*
X101055576Y-89109913D01*
X101054819Y-89103773D01*
X101049940Y-89054220D01*
X101049486Y-89048053D01*
X101047652Y-89010699D01*
X101047500Y-89004520D01*
X101047500Y-88820367D01*
X102061500Y-88820367D01*
X102061500Y-88979632D01*
X102072435Y-89034606D01*
X102092570Y-89135831D01*
X102153517Y-89282968D01*
X102241997Y-89415389D01*
X102241998Y-89415390D01*
X102242003Y-89415396D01*
X102354603Y-89527996D01*
X102354609Y-89528001D01*
X102354611Y-89528003D01*
X102487032Y-89616483D01*
X102634169Y-89677430D01*
X102787314Y-89707892D01*
X102850223Y-89740800D01*
X102851772Y-89742321D01*
X103131373Y-90021922D01*
X103131374Y-90021923D01*
X103131376Y-90021924D01*
X103141157Y-90027571D01*
X103246719Y-90088517D01*
X103270128Y-90102032D01*
X103424889Y-90143500D01*
X103424890Y-90143500D01*
X103585111Y-90143500D01*
X106166106Y-90143500D01*
X106234227Y-90163502D01*
X106280720Y-90217158D01*
X106290824Y-90287432D01*
X106284879Y-90309095D01*
X106285368Y-90309244D01*
X106283570Y-90315170D01*
X106252500Y-90471367D01*
X106252500Y-90471370D01*
X106252500Y-90630630D01*
X106283570Y-90786831D01*
X106344517Y-90933968D01*
X106428897Y-91060253D01*
X106432998Y-91066390D01*
X106433003Y-91066396D01*
X106545603Y-91178996D01*
X106545609Y-91179001D01*
X106545611Y-91179003D01*
X106678032Y-91267483D01*
X106825169Y-91328430D01*
X106981370Y-91359500D01*
X106981371Y-91359500D01*
X107140629Y-91359500D01*
X107140630Y-91359500D01*
X107258475Y-91336059D01*
X107329187Y-91342387D01*
X107372150Y-91370543D01*
X107434603Y-91432996D01*
X107434609Y-91433001D01*
X107434611Y-91433003D01*
X107567032Y-91521483D01*
X107714169Y-91582430D01*
X107870370Y-91613500D01*
X107870371Y-91613500D01*
X108029629Y-91613500D01*
X108029630Y-91613500D01*
X108185831Y-91582430D01*
X108332968Y-91521483D01*
X108465389Y-91433003D01*
X108578003Y-91320389D01*
X108666483Y-91187968D01*
X108727430Y-91040831D01*
X108757892Y-90887685D01*
X108790800Y-90824777D01*
X108792323Y-90823225D01*
X108803921Y-90811628D01*
X108845193Y-90740143D01*
X108884032Y-90672872D01*
X108925500Y-90518111D01*
X108925500Y-88365789D01*
X108893369Y-88245873D01*
X108893369Y-88245872D01*
X108893369Y-88245871D01*
X108884033Y-88211029D01*
X108877188Y-88199174D01*
X108834431Y-88125117D01*
X108803923Y-88072275D01*
X108803915Y-88072265D01*
X108361405Y-87629755D01*
X108327379Y-87567443D01*
X108324500Y-87540660D01*
X108324500Y-87136775D01*
X108344502Y-87068654D01*
X108398158Y-87022161D01*
X108425914Y-87013198D01*
X108439831Y-87010430D01*
X108439837Y-87010427D01*
X108439839Y-87010427D01*
X108586963Y-86949485D01*
X108586962Y-86949485D01*
X108586968Y-86949483D01*
X108719389Y-86861003D01*
X108832003Y-86748389D01*
X108920483Y-86615968D01*
X108981430Y-86468831D01*
X109012500Y-86312630D01*
X109012500Y-86153370D01*
X108981430Y-85997169D01*
X108920483Y-85850032D01*
X108832003Y-85717611D01*
X108832001Y-85717609D01*
X108831996Y-85717603D01*
X108737988Y-85623595D01*
X108703962Y-85561283D01*
X108709027Y-85490468D01*
X108737988Y-85445405D01*
X108831996Y-85351396D01*
X108832003Y-85351389D01*
X108920483Y-85218968D01*
X108981430Y-85071831D01*
X109012500Y-84915630D01*
X109012500Y-84756370D01*
X108981430Y-84600169D01*
X108920483Y-84453032D01*
X108832003Y-84320611D01*
X108832001Y-84320609D01*
X108831996Y-84320603D01*
X108807652Y-84296259D01*
X109948867Y-84296259D01*
X109958995Y-84329647D01*
X109960644Y-84335606D01*
X109969734Y-84371895D01*
X109971089Y-84377929D01*
X110011875Y-84582970D01*
X110012933Y-84589066D01*
X110018424Y-84626087D01*
X110019181Y-84632227D01*
X110023675Y-84677867D01*
X110772500Y-84677867D01*
X110772500Y-83151867D01*
X109948867Y-83151867D01*
X109948867Y-84296259D01*
X108807652Y-84296259D01*
X108719396Y-84208003D01*
X108719390Y-84207998D01*
X108719389Y-84207997D01*
X108586968Y-84119517D01*
X108439831Y-84058570D01*
X108361730Y-84043035D01*
X108283632Y-84027500D01*
X108283630Y-84027500D01*
X108124370Y-84027500D01*
X108124367Y-84027500D01*
X108007219Y-84050802D01*
X107968169Y-84058570D01*
X107968167Y-84058571D01*
X107821033Y-84119516D01*
X107688610Y-84207997D01*
X107665974Y-84230633D01*
X107609495Y-84263242D01*
X107588128Y-84268967D01*
X107498680Y-84320611D01*
X107449375Y-84349076D01*
X107449365Y-84349084D01*
X106828083Y-84970366D01*
X106828075Y-84970376D01*
X106747970Y-85109122D01*
X106747968Y-85109127D01*
X106735715Y-85154857D01*
X106709105Y-85254169D01*
X106706500Y-85263890D01*
X106706500Y-88091114D01*
X106715601Y-88125077D01*
X106715601Y-88125079D01*
X106715602Y-88125079D01*
X106735054Y-88197678D01*
X106745574Y-88236938D01*
X106743884Y-88307915D01*
X106712964Y-88358643D01*
X106686997Y-88384610D01*
X106598516Y-88517033D01*
X106537571Y-88664167D01*
X106537570Y-88664170D01*
X106507107Y-88817314D01*
X106474199Y-88880224D01*
X106472629Y-88881822D01*
X106464859Y-88889591D01*
X106402552Y-88923619D01*
X106375761Y-88926500D01*
X103809239Y-88926500D01*
X103741118Y-88906498D01*
X103720144Y-88889595D01*
X103712376Y-88881827D01*
X103678350Y-88819515D01*
X103677892Y-88817314D01*
X103647430Y-88664169D01*
X103586483Y-88517032D01*
X103498003Y-88384611D01*
X103498001Y-88384609D01*
X103497996Y-88384603D01*
X103385396Y-88272003D01*
X103385390Y-88271998D01*
X103385389Y-88271997D01*
X103252968Y-88183517D01*
X103105831Y-88122570D01*
X103027730Y-88107035D01*
X102949632Y-88091500D01*
X102949630Y-88091500D01*
X102790370Y-88091500D01*
X102790367Y-88091500D01*
X102673219Y-88114802D01*
X102634169Y-88122570D01*
X102545878Y-88159142D01*
X102487032Y-88183517D01*
X102354609Y-88271998D01*
X102354603Y-88272003D01*
X102242003Y-88384603D01*
X102241998Y-88384609D01*
X102153999Y-88516311D01*
X102153517Y-88517032D01*
X102112729Y-88615503D01*
X102092571Y-88664167D01*
X102092570Y-88664170D01*
X102061500Y-88820367D01*
X101047500Y-88820367D01*
X101047500Y-88795480D01*
X101047652Y-88789301D01*
X101049486Y-88751947D01*
X101049940Y-88745780D01*
X101054819Y-88696227D01*
X101055576Y-88690087D01*
X101061067Y-88653066D01*
X101062125Y-88646970D01*
X101102911Y-88441929D01*
X101104266Y-88435895D01*
X101113356Y-88399606D01*
X101115005Y-88393647D01*
X101129459Y-88345998D01*
X101131400Y-88340123D01*
X101144005Y-88304896D01*
X101146230Y-88299128D01*
X101174090Y-88231867D01*
X99788867Y-88231867D01*
X99788867Y-89757867D01*
X98774867Y-89757867D01*
X98774867Y-88231867D01*
X97248867Y-88231867D01*
X97248867Y-89757867D01*
X96234867Y-89757867D01*
X96234867Y-88231867D01*
X95897159Y-88231867D01*
X95895525Y-88237660D01*
X95894088Y-88242398D01*
X95815726Y-88483569D01*
X95814106Y-88488240D01*
X95803751Y-88516311D01*
X95801948Y-88520920D01*
X95786707Y-88557717D01*
X95784723Y-88562252D01*
X95772190Y-88589438D01*
X95770031Y-88593890D01*
X95654909Y-88819830D01*
X95652578Y-88824191D01*
X95637963Y-88850289D01*
X95635464Y-88854553D01*
X95614652Y-88888520D01*
X95611980Y-88892695D01*
X95595338Y-88917601D01*
X95592507Y-88921662D01*
X95410288Y-89172450D01*
X95369918Y-89208322D01*
X95246458Y-89277458D01*
X95177322Y-89400918D01*
X95141450Y-89441288D01*
X94890662Y-89623507D01*
X94886601Y-89626338D01*
X94861695Y-89642980D01*
X94857520Y-89645652D01*
X94823553Y-89666464D01*
X94819289Y-89668963D01*
X94793191Y-89683578D01*
X94788829Y-89685909D01*
X94708867Y-89726651D01*
X91940500Y-89726651D01*
X91940500Y-80872530D01*
X92954500Y-80872530D01*
X92954500Y-82137867D01*
X93694867Y-82137867D01*
X93694867Y-81579507D01*
X94708867Y-81579507D01*
X95676507Y-80611867D01*
X94708867Y-80611867D01*
X94708867Y-81579507D01*
X93694867Y-81579507D01*
X93694867Y-80611867D01*
X93215163Y-80611867D01*
X92954500Y-80872530D01*
X91940500Y-80872530D01*
X91940500Y-80452108D01*
X91921160Y-80379929D01*
X91922850Y-80308956D01*
X91953768Y-80258231D01*
X93093836Y-79118163D01*
X94708867Y-79118163D01*
X94708867Y-79597867D01*
X96234867Y-79597867D01*
X96234867Y-78857500D01*
X94969530Y-78857500D01*
X94708867Y-79118163D01*
X93093836Y-79118163D01*
X94355230Y-77856769D01*
X94417538Y-77822746D01*
X94476929Y-77824159D01*
G37*
%TD.AperFunction*%
%TA.AperFunction,Conductor*%
G36*
X131298621Y-83813502D02*
G01*
X131345114Y-83867158D01*
X131356500Y-83919500D01*
X131356500Y-84083649D01*
X131363009Y-84144196D01*
X131363011Y-84144204D01*
X131414110Y-84281202D01*
X131414112Y-84281207D01*
X131501738Y-84398261D01*
X131618791Y-84485886D01*
X131618792Y-84485886D01*
X131618796Y-84485889D01*
X131736711Y-84529869D01*
X131793543Y-84572414D01*
X131818354Y-84638934D01*
X131803263Y-84708308D01*
X131781771Y-84737018D01*
X131678794Y-84839995D01*
X131553108Y-85012987D01*
X131456029Y-85203515D01*
X131456026Y-85203521D01*
X131389952Y-85406878D01*
X131389951Y-85406883D01*
X131389951Y-85406884D01*
X131356500Y-85618084D01*
X131356500Y-85831916D01*
X131381324Y-85988649D01*
X131389951Y-86043117D01*
X131401990Y-86080169D01*
X131404016Y-86151136D01*
X131371251Y-86208198D01*
X129688083Y-87891366D01*
X129688075Y-87891376D01*
X129607970Y-88030122D01*
X129607965Y-88030134D01*
X129596500Y-88072922D01*
X129596501Y-88072923D01*
X129573683Y-88158084D01*
X129566500Y-88184890D01*
X129566500Y-88317201D01*
X129546498Y-88385322D01*
X129545277Y-88387183D01*
X129540612Y-88394167D01*
X129458516Y-88517033D01*
X129397571Y-88664167D01*
X129397570Y-88664170D01*
X129366500Y-88820367D01*
X129366500Y-88979632D01*
X129377435Y-89034606D01*
X129397570Y-89135831D01*
X129458517Y-89282968D01*
X129546997Y-89415389D01*
X129546998Y-89415390D01*
X129547003Y-89415396D01*
X129657012Y-89525405D01*
X129691038Y-89587717D01*
X129685973Y-89658532D01*
X129643426Y-89715368D01*
X129576906Y-89740179D01*
X129567917Y-89740500D01*
X128224305Y-89740500D01*
X128156184Y-89720498D01*
X128135210Y-89703595D01*
X127181039Y-88749424D01*
X127147013Y-88687112D01*
X127146555Y-88684909D01*
X127144286Y-88673500D01*
X127142430Y-88664169D01*
X127142428Y-88664166D01*
X127142428Y-88664162D01*
X127081485Y-88517036D01*
X127081483Y-88517032D01*
X127065427Y-88493003D01*
X126993003Y-88384611D01*
X126993001Y-88384609D01*
X126992996Y-88384603D01*
X126880396Y-88272003D01*
X126880390Y-88271998D01*
X126880389Y-88271997D01*
X126747968Y-88183517D01*
X126600831Y-88122570D01*
X126522730Y-88107035D01*
X126444632Y-88091500D01*
X126444630Y-88091500D01*
X126285370Y-88091500D01*
X126285367Y-88091500D01*
X126168219Y-88114802D01*
X126129169Y-88122570D01*
X126040878Y-88159142D01*
X125982032Y-88183517D01*
X125849609Y-88271998D01*
X125849603Y-88272003D01*
X125737003Y-88384603D01*
X125736998Y-88384609D01*
X125648999Y-88516311D01*
X125648517Y-88517032D01*
X125607729Y-88615503D01*
X125587571Y-88664167D01*
X125587570Y-88664170D01*
X125556500Y-88820367D01*
X125556500Y-88979632D01*
X125567435Y-89034606D01*
X125587570Y-89135831D01*
X125648517Y-89282968D01*
X125736997Y-89415389D01*
X125736998Y-89415390D01*
X125737003Y-89415396D01*
X125849603Y-89527996D01*
X125849609Y-89528001D01*
X125849611Y-89528003D01*
X125952227Y-89596568D01*
X125982032Y-89616483D01*
X125982036Y-89616485D01*
X126129162Y-89677428D01*
X126129166Y-89677428D01*
X126129169Y-89677430D01*
X126149910Y-89681555D01*
X126212819Y-89714462D01*
X126214424Y-89716039D01*
X127358090Y-90859705D01*
X127358091Y-90859706D01*
X127453294Y-90954909D01*
X127565241Y-91029710D01*
X127638106Y-91059891D01*
X127689630Y-91081234D01*
X127756571Y-91094549D01*
X127821675Y-91107499D01*
X127821678Y-91107499D01*
X127821681Y-91107500D01*
X133771000Y-91107500D01*
X133839121Y-91127502D01*
X133885614Y-91181158D01*
X133897000Y-91233500D01*
X133897000Y-91821000D01*
X134824297Y-91821000D01*
X134789075Y-91882007D01*
X134755000Y-92009174D01*
X134755000Y-92140826D01*
X134789075Y-92267993D01*
X134824297Y-92329000D01*
X133897000Y-92329000D01*
X133897000Y-92973597D01*
X133903505Y-93034093D01*
X133954555Y-93170964D01*
X133954555Y-93170965D01*
X134042095Y-93287904D01*
X134159034Y-93375444D01*
X134277096Y-93419478D01*
X134333932Y-93462024D01*
X134358743Y-93528545D01*
X134343652Y-93597919D01*
X134322160Y-93626629D01*
X134218794Y-93729995D01*
X134093108Y-93902987D01*
X133996029Y-94093515D01*
X133996026Y-94093521D01*
X133929952Y-94296878D01*
X133929951Y-94296883D01*
X133929951Y-94296884D01*
X133896500Y-94508084D01*
X133896500Y-94721916D01*
X133914865Y-94837867D01*
X133929952Y-94933121D01*
X133994048Y-95130389D01*
X133996028Y-95136483D01*
X134093106Y-95327009D01*
X134093108Y-95327012D01*
X134124182Y-95369781D01*
X134218794Y-95500004D01*
X134218796Y-95500006D01*
X134218798Y-95500009D01*
X134369990Y-95651201D01*
X134369993Y-95651203D01*
X134369996Y-95651206D01*
X134542991Y-95776894D01*
X134542996Y-95776896D01*
X134544088Y-95777566D01*
X134544418Y-95777931D01*
X134546996Y-95779804D01*
X134546602Y-95780345D01*
X134591721Y-95830213D01*
X134603328Y-95900255D01*
X134575226Y-95965453D01*
X134546870Y-95990023D01*
X134546996Y-95990196D01*
X134544982Y-95991658D01*
X134544088Y-95992434D01*
X134542987Y-95993108D01*
X134369993Y-96118796D01*
X134369990Y-96118798D01*
X134218798Y-96269990D01*
X134218796Y-96269993D01*
X134093108Y-96442987D01*
X133996029Y-96633515D01*
X133996026Y-96633521D01*
X133929952Y-96836878D01*
X133929951Y-96836883D01*
X133929951Y-96836884D01*
X133896500Y-97048084D01*
X133896500Y-97261916D01*
X133927298Y-97456367D01*
X133929952Y-97473121D01*
X133996026Y-97676478D01*
X133996028Y-97676483D01*
X134093106Y-97867009D01*
X134218794Y-98040004D01*
X134218796Y-98040006D01*
X134218798Y-98040009D01*
X134369990Y-98191201D01*
X134369993Y-98191203D01*
X134369996Y-98191206D01*
X134542991Y-98316894D01*
X134542996Y-98316896D01*
X134544088Y-98317566D01*
X134544418Y-98317931D01*
X134546996Y-98319804D01*
X134546602Y-98320345D01*
X134591721Y-98370213D01*
X134603328Y-98440255D01*
X134575226Y-98505453D01*
X134546870Y-98530023D01*
X134546996Y-98530196D01*
X134544982Y-98531658D01*
X134544088Y-98532434D01*
X134542987Y-98533108D01*
X134369993Y-98658796D01*
X134369990Y-98658798D01*
X134218798Y-98809990D01*
X134218796Y-98809993D01*
X134093108Y-98982987D01*
X133996029Y-99173515D01*
X133996026Y-99173521D01*
X133929952Y-99376878D01*
X133929951Y-99376883D01*
X133929951Y-99376884D01*
X133896500Y-99588084D01*
X133896500Y-99801916D01*
X133914865Y-99917867D01*
X133929952Y-100013121D01*
X133996026Y-100216478D01*
X133996028Y-100216483D01*
X134093106Y-100407009D01*
X134218794Y-100580004D01*
X134218796Y-100580006D01*
X134218798Y-100580009D01*
X134369990Y-100731201D01*
X134369993Y-100731203D01*
X134369996Y-100731206D01*
X134542991Y-100856894D01*
X134645528Y-100909139D01*
X134697143Y-100957886D01*
X134714209Y-101026800D01*
X134691309Y-101094002D01*
X134677420Y-101110500D01*
X131727327Y-104060595D01*
X131665015Y-104094620D01*
X131638232Y-104097500D01*
X131584321Y-104097500D01*
X131516200Y-104077498D01*
X131469707Y-104023842D01*
X131459603Y-103953568D01*
X131464488Y-103932564D01*
X131500047Y-103823121D01*
X131500049Y-103823116D01*
X131533500Y-103611916D01*
X131533500Y-103398084D01*
X131500049Y-103186884D01*
X131433972Y-102983517D01*
X131336894Y-102792991D01*
X131211206Y-102619996D01*
X131211203Y-102619993D01*
X131211201Y-102619990D01*
X131060009Y-102468798D01*
X131060006Y-102468796D01*
X131060004Y-102468794D01*
X130898251Y-102351274D01*
X130887012Y-102343108D01*
X130887011Y-102343107D01*
X130887009Y-102343106D01*
X130696483Y-102246028D01*
X130696480Y-102246027D01*
X130696478Y-102246026D01*
X130493120Y-102179952D01*
X130493123Y-102179952D01*
X130453801Y-102173724D01*
X130281916Y-102146500D01*
X130068084Y-102146500D01*
X129856884Y-102179951D01*
X129856882Y-102179951D01*
X129856879Y-102179952D01*
X129819828Y-102191990D01*
X129748860Y-102194016D01*
X129691801Y-102161252D01*
X129278627Y-101748078D01*
X129278625Y-101748077D01*
X129278623Y-101748075D01*
X129139877Y-101667970D01*
X129139875Y-101667969D01*
X129139873Y-101667968D01*
X129061204Y-101646889D01*
X129061203Y-101646888D01*
X129005499Y-101631962D01*
X128985111Y-101626500D01*
X128985110Y-101626500D01*
X127304239Y-101626500D01*
X127236118Y-101606498D01*
X127215148Y-101589599D01*
X126758049Y-101132500D01*
X130268867Y-101132500D01*
X130301835Y-101132500D01*
X130306785Y-101132597D01*
X130336698Y-101133773D01*
X130341634Y-101134064D01*
X130381339Y-101137189D01*
X130386264Y-101137674D01*
X130415977Y-101141191D01*
X130420877Y-101141869D01*
X130671402Y-101181549D01*
X130676269Y-101182418D01*
X130705603Y-101188252D01*
X130710434Y-101189312D01*
X130749162Y-101198608D01*
X130753953Y-101199858D01*
X130782774Y-101207986D01*
X130787510Y-101209423D01*
X131028761Y-101287809D01*
X131033436Y-101289430D01*
X131061507Y-101299786D01*
X131066111Y-101301588D01*
X131102909Y-101316829D01*
X131107445Y-101318813D01*
X131134631Y-101331346D01*
X131139083Y-101333505D01*
X131365096Y-101448665D01*
X131369456Y-101450996D01*
X131395560Y-101465614D01*
X131399830Y-101468116D01*
X131433790Y-101488926D01*
X131437957Y-101491594D01*
X131462848Y-101508225D01*
X131466909Y-101511055D01*
X131672125Y-101660154D01*
X131676067Y-101663138D01*
X131699561Y-101681658D01*
X131703386Y-101684796D01*
X131733673Y-101710662D01*
X131737372Y-101713950D01*
X131759357Y-101734272D01*
X131762925Y-101737703D01*
X131794867Y-101769645D01*
X131794867Y-100931867D01*
X130268867Y-100931867D01*
X130268867Y-101132500D01*
X126758049Y-101132500D01*
X126357627Y-100732078D01*
X126357625Y-100732077D01*
X126357623Y-100732075D01*
X126218877Y-100651970D01*
X126218874Y-100651969D01*
X126218873Y-100651968D01*
X126218871Y-100651967D01*
X126218870Y-100651967D01*
X126141491Y-100631234D01*
X126064111Y-100610500D01*
X126064109Y-100610500D01*
X125653239Y-100610500D01*
X125585118Y-100590498D01*
X125564144Y-100573595D01*
X124908416Y-99917867D01*
X127728867Y-99917867D01*
X129254867Y-99917867D01*
X130268867Y-99917867D01*
X131794867Y-99917867D01*
X131794867Y-98391867D01*
X130268867Y-98391867D01*
X130268867Y-99917867D01*
X129254867Y-99917867D01*
X129254867Y-98391867D01*
X127728867Y-98391867D01*
X127728867Y-99917867D01*
X124908416Y-99917867D01*
X123754856Y-98764306D01*
X125188867Y-98764306D01*
X126021060Y-99596500D01*
X126097317Y-99596500D01*
X126105559Y-99596770D01*
X126155348Y-99600034D01*
X126163553Y-99600842D01*
X126229391Y-99609510D01*
X126237525Y-99610853D01*
X126286451Y-99620585D01*
X126294481Y-99622457D01*
X126403932Y-99651784D01*
X126513389Y-99681113D01*
X126521280Y-99683507D01*
X126568525Y-99699545D01*
X126576241Y-99702449D01*
X126637593Y-99727862D01*
X126645104Y-99731265D01*
X126689847Y-99753330D01*
X126697118Y-99757217D01*
X126714867Y-99767464D01*
X126714867Y-99034811D01*
X126676975Y-99047123D01*
X126657749Y-99051739D01*
X126476476Y-99080449D01*
X126456766Y-99082000D01*
X126273234Y-99082000D01*
X126253524Y-99080449D01*
X126072251Y-99051739D01*
X126053025Y-99047123D01*
X125878475Y-98990408D01*
X125860208Y-98982842D01*
X125696680Y-98899520D01*
X125679822Y-98889189D01*
X125531341Y-98781311D01*
X125516307Y-98768470D01*
X125386530Y-98638693D01*
X125373689Y-98623659D01*
X125265811Y-98475178D01*
X125255480Y-98458320D01*
X125221620Y-98391867D01*
X125188867Y-98391867D01*
X125188867Y-98764306D01*
X123754856Y-98764306D01*
X123162633Y-98172083D01*
X123162623Y-98172075D01*
X123023877Y-98091970D01*
X123023874Y-98091969D01*
X123023873Y-98091968D01*
X123023871Y-98091967D01*
X123023870Y-98091967D01*
X122930350Y-98066909D01*
X122869111Y-98050500D01*
X122869109Y-98050500D01*
X122211054Y-98050500D01*
X122142933Y-98030498D01*
X122096440Y-97976842D01*
X122086336Y-97906568D01*
X122087471Y-97899938D01*
X122093500Y-97869630D01*
X122093500Y-97710370D01*
X122062430Y-97554169D01*
X122001483Y-97407032D01*
X121913003Y-97274611D01*
X121913001Y-97274609D01*
X121912996Y-97274603D01*
X121800396Y-97162003D01*
X121800390Y-97161998D01*
X121799642Y-97161498D01*
X121667968Y-97073517D01*
X121520831Y-97012570D01*
X121430087Y-96994520D01*
X121364632Y-96981500D01*
X121364630Y-96981500D01*
X121205370Y-96981500D01*
X121205367Y-96981500D01*
X121088219Y-97004802D01*
X121049169Y-97012570D01*
X120902032Y-97073517D01*
X120772202Y-97160265D01*
X120704451Y-97181480D01*
X120702202Y-97181500D01*
X120319239Y-97181500D01*
X120251118Y-97161498D01*
X120230144Y-97144595D01*
X119662074Y-96576525D01*
X122648867Y-96576525D01*
X122651888Y-96579698D01*
X122677026Y-96607435D01*
X122681068Y-96612121D01*
X122712654Y-96650613D01*
X122716457Y-96655487D01*
X122738730Y-96685521D01*
X122742288Y-96690574D01*
X122858423Y-96864384D01*
X122861730Y-96869605D01*
X122880961Y-96901688D01*
X122884011Y-96907071D01*
X122907483Y-96950983D01*
X122910263Y-96956507D01*
X122926261Y-96990331D01*
X122928768Y-96995986D01*
X122946641Y-97039135D01*
X122960348Y-97040034D01*
X122968553Y-97040842D01*
X123034390Y-97049510D01*
X123042524Y-97050853D01*
X123091450Y-97060585D01*
X123099479Y-97062457D01*
X123192790Y-97087459D01*
X123192791Y-97087459D01*
X123318389Y-97121113D01*
X123326280Y-97123507D01*
X123373525Y-97139545D01*
X123381241Y-97142449D01*
X123442593Y-97167862D01*
X123450104Y-97171265D01*
X123494847Y-97193330D01*
X123502118Y-97197217D01*
X123698382Y-97310530D01*
X123705383Y-97314883D01*
X123746865Y-97342600D01*
X123753568Y-97347404D01*
X123793268Y-97377867D01*
X124174867Y-97377867D01*
X127728867Y-97377867D01*
X129254867Y-97377867D01*
X130268867Y-97377867D01*
X131794867Y-97377867D01*
X131794867Y-95851867D01*
X130268867Y-95851867D01*
X130268867Y-97377867D01*
X129254867Y-97377867D01*
X129254867Y-95851867D01*
X127728867Y-95851867D01*
X127728867Y-97377867D01*
X124174867Y-97377867D01*
X124174867Y-97252414D01*
X125188867Y-97252414D01*
X125255480Y-97121680D01*
X125265811Y-97104822D01*
X125373689Y-96956341D01*
X125386530Y-96941307D01*
X125516307Y-96811530D01*
X125531341Y-96798689D01*
X125679822Y-96690811D01*
X125696680Y-96680480D01*
X125860208Y-96597158D01*
X125878475Y-96589592D01*
X126053025Y-96532877D01*
X126072251Y-96528261D01*
X126253524Y-96499551D01*
X126273234Y-96498000D01*
X126456766Y-96498000D01*
X126476476Y-96499551D01*
X126657749Y-96528261D01*
X126676975Y-96532877D01*
X126714867Y-96545188D01*
X126714867Y-95851867D01*
X125188867Y-95851867D01*
X125188867Y-97252414D01*
X124174867Y-97252414D01*
X124174867Y-95851867D01*
X122648867Y-95851867D01*
X122648867Y-96576525D01*
X119662074Y-96576525D01*
X116613239Y-93527690D01*
X120108867Y-93527690D01*
X120108867Y-94680804D01*
X120120525Y-94684592D01*
X120138792Y-94692158D01*
X120302320Y-94775480D01*
X120319178Y-94785811D01*
X120390827Y-94837867D01*
X121634867Y-94837867D01*
X122648867Y-94837867D01*
X124174867Y-94837867D01*
X125188867Y-94837867D01*
X126714867Y-94837867D01*
X126714867Y-94786500D01*
X127728867Y-94786500D01*
X127728867Y-94837867D01*
X129254867Y-94837867D01*
X130268867Y-94837867D01*
X131794867Y-94837867D01*
X131794867Y-93311867D01*
X130268867Y-93311867D01*
X130268867Y-94837867D01*
X129254867Y-94837867D01*
X129254867Y-93807911D01*
X129234011Y-93846929D01*
X129230961Y-93852312D01*
X129211730Y-93884395D01*
X129208423Y-93889616D01*
X129092288Y-94063426D01*
X129088730Y-94068479D01*
X129066457Y-94098513D01*
X129062654Y-94103387D01*
X129031068Y-94141879D01*
X129027026Y-94146565D01*
X129001888Y-94174302D01*
X128997621Y-94178783D01*
X128849783Y-94326621D01*
X128845302Y-94330888D01*
X128817565Y-94356026D01*
X128812879Y-94360068D01*
X128774387Y-94391654D01*
X128769513Y-94395457D01*
X128739479Y-94417730D01*
X128734426Y-94421288D01*
X128560616Y-94537423D01*
X128555395Y-94540730D01*
X128523312Y-94559961D01*
X128517929Y-94563011D01*
X128474017Y-94586483D01*
X128468493Y-94589263D01*
X128434669Y-94605261D01*
X128429014Y-94607768D01*
X128235872Y-94687770D01*
X128230104Y-94689995D01*
X128194877Y-94702600D01*
X128189002Y-94704541D01*
X128141353Y-94718995D01*
X128135394Y-94720644D01*
X128099105Y-94729734D01*
X128093071Y-94731089D01*
X127888030Y-94771875D01*
X127881934Y-94772933D01*
X127844913Y-94778424D01*
X127838773Y-94779181D01*
X127789220Y-94784060D01*
X127783053Y-94784514D01*
X127745699Y-94786348D01*
X127739520Y-94786500D01*
X127728867Y-94786500D01*
X126714867Y-94786500D01*
X126714867Y-94540887D01*
X126714605Y-94540730D01*
X126709384Y-94537423D01*
X126535574Y-94421288D01*
X126530521Y-94417730D01*
X126500487Y-94395457D01*
X126495613Y-94391654D01*
X126457121Y-94360068D01*
X126452435Y-94356026D01*
X126424698Y-94330888D01*
X126420217Y-94326621D01*
X126272379Y-94178783D01*
X126268112Y-94174302D01*
X126242974Y-94146565D01*
X126238932Y-94141879D01*
X126207346Y-94103387D01*
X126203543Y-94098513D01*
X126181270Y-94068479D01*
X126177712Y-94063426D01*
X126061577Y-93889616D01*
X126058270Y-93884395D01*
X126039039Y-93852312D01*
X126035989Y-93846929D01*
X126012517Y-93803017D01*
X126009737Y-93797493D01*
X125993739Y-93763669D01*
X125991232Y-93758014D01*
X125911230Y-93564872D01*
X125909005Y-93559104D01*
X125896400Y-93523877D01*
X125894459Y-93518002D01*
X125880005Y-93470353D01*
X125878356Y-93464394D01*
X125869266Y-93428105D01*
X125867911Y-93422071D01*
X125845990Y-93311867D01*
X125188867Y-93311867D01*
X125188867Y-94837867D01*
X124174867Y-94837867D01*
X124174867Y-93311867D01*
X122648867Y-93311867D01*
X122648867Y-94837867D01*
X121634867Y-94837867D01*
X121634867Y-93311867D01*
X120436777Y-93311867D01*
X120403626Y-93340939D01*
X120397253Y-93346169D01*
X120344568Y-93386596D01*
X120337865Y-93391400D01*
X120296383Y-93419117D01*
X120289382Y-93423470D01*
X120108867Y-93527690D01*
X116613239Y-93527690D01*
X115346405Y-92260856D01*
X115312379Y-92198544D01*
X115309500Y-92171761D01*
X115309500Y-90259339D01*
X115329502Y-90191218D01*
X115346400Y-90170248D01*
X115822922Y-89693727D01*
X115822926Y-89693719D01*
X115827949Y-89687175D01*
X115829222Y-89688152D01*
X115873743Y-89645696D01*
X115943456Y-89632256D01*
X116009369Y-89658638D01*
X116050554Y-89716468D01*
X116055064Y-89733099D01*
X116062570Y-89770831D01*
X116123517Y-89917968D01*
X116196750Y-90027570D01*
X116211998Y-90050390D01*
X116212003Y-90050396D01*
X116324603Y-90162996D01*
X116324609Y-90163001D01*
X116324611Y-90163003D01*
X116457032Y-90251483D01*
X116604169Y-90312430D01*
X116760370Y-90343500D01*
X116760371Y-90343500D01*
X116919629Y-90343500D01*
X116919630Y-90343500D01*
X117075831Y-90312430D01*
X117222968Y-90251483D01*
X117355389Y-90163003D01*
X117468003Y-90050389D01*
X117556483Y-89917968D01*
X117617430Y-89770831D01*
X117648500Y-89614630D01*
X117648500Y-89455370D01*
X117617430Y-89299169D01*
X117556483Y-89152032D01*
X117544733Y-89134447D01*
X117523520Y-89066695D01*
X117523500Y-89064447D01*
X117523500Y-88870706D01*
X118537500Y-88870706D01*
X118563770Y-88934128D01*
X118565995Y-88939896D01*
X118578600Y-88975123D01*
X118580541Y-88980998D01*
X118594995Y-89028647D01*
X118596644Y-89034606D01*
X118605734Y-89070895D01*
X118607089Y-89076929D01*
X118647875Y-89281970D01*
X118648933Y-89288066D01*
X118654424Y-89325087D01*
X118655181Y-89331227D01*
X118660060Y-89380780D01*
X118660514Y-89386947D01*
X118662348Y-89424301D01*
X118662500Y-89430480D01*
X118662500Y-89639520D01*
X118662348Y-89645699D01*
X118660514Y-89683053D01*
X118660060Y-89689220D01*
X118655181Y-89738773D01*
X118654424Y-89744913D01*
X118652503Y-89757867D01*
X118837497Y-89757867D01*
X118835576Y-89744913D01*
X118834819Y-89738773D01*
X118829940Y-89689220D01*
X118829486Y-89683053D01*
X118827652Y-89645699D01*
X118827500Y-89639520D01*
X118827500Y-89430480D01*
X118827652Y-89424301D01*
X118829486Y-89386947D01*
X118829940Y-89380780D01*
X118834819Y-89331227D01*
X118835576Y-89325087D01*
X118841067Y-89288066D01*
X118842125Y-89281970D01*
X118882911Y-89076929D01*
X118884266Y-89070895D01*
X118893356Y-89034606D01*
X118895005Y-89028647D01*
X118909459Y-88980998D01*
X118911400Y-88975123D01*
X118924005Y-88939896D01*
X118926230Y-88934128D01*
X118952500Y-88870706D01*
X118952500Y-88231867D01*
X118537500Y-88231867D01*
X118537500Y-88870706D01*
X117523500Y-88870706D01*
X117523500Y-88197682D01*
X117523499Y-88197678D01*
X117520955Y-88184890D01*
X117515624Y-88158084D01*
X117497234Y-88065631D01*
X117448047Y-87946884D01*
X117448045Y-87946879D01*
X117448043Y-87946873D01*
X117445713Y-87941248D01*
X117445712Y-87941246D01*
X117445710Y-87941241D01*
X117370909Y-87829294D01*
X117275706Y-87734091D01*
X116513706Y-86972091D01*
X116470999Y-86943555D01*
X116401759Y-86897290D01*
X116326686Y-86866194D01*
X116314137Y-86860996D01*
X116277372Y-86845767D01*
X116277370Y-86845766D01*
X116277369Y-86845766D01*
X116210897Y-86832544D01*
X116145321Y-86819500D01*
X116145319Y-86819500D01*
X113123643Y-86819500D01*
X113055522Y-86799498D01*
X113009029Y-86745842D01*
X112998925Y-86675568D01*
X113001937Y-86660888D01*
X113003499Y-86655057D01*
X113003500Y-86655052D01*
X113003500Y-86018919D01*
X113023502Y-85950798D01*
X113077158Y-85904305D01*
X113147432Y-85894201D01*
X113212012Y-85923695D01*
X113234260Y-85948911D01*
X113271997Y-86005389D01*
X113272000Y-86005392D01*
X113272003Y-86005396D01*
X113384603Y-86117996D01*
X113384609Y-86118001D01*
X113384611Y-86118003D01*
X113517032Y-86206483D01*
X113664169Y-86267430D01*
X113820370Y-86298500D01*
X113907678Y-86298500D01*
X113940235Y-86302779D01*
X113940850Y-86302943D01*
X113941982Y-86303246D01*
X113942030Y-86303276D01*
X113942035Y-86303261D01*
X114054889Y-86333500D01*
X114054890Y-86333500D01*
X117555109Y-86333500D01*
X117555110Y-86333500D01*
X117555111Y-86333500D01*
X117667965Y-86303261D01*
X117709873Y-86292032D01*
X117848627Y-86211922D01*
X119398175Y-84662373D01*
X119460484Y-84628351D01*
X119462672Y-84627894D01*
X119615831Y-84597430D01*
X119762968Y-84536483D01*
X119770496Y-84531452D01*
X119838248Y-84510236D01*
X119906715Y-84529017D01*
X119954160Y-84581833D01*
X119966500Y-84636216D01*
X119966500Y-89064447D01*
X119946498Y-89132568D01*
X119945266Y-89134448D01*
X119933517Y-89152031D01*
X119900906Y-89230761D01*
X119872570Y-89299169D01*
X119872165Y-89301206D01*
X119841500Y-89455367D01*
X119841500Y-89614632D01*
X119854812Y-89681555D01*
X119872570Y-89770831D01*
X119933517Y-89917968D01*
X120006750Y-90027570D01*
X120021998Y-90050390D01*
X120022003Y-90050396D01*
X120134603Y-90162996D01*
X120134609Y-90163001D01*
X120134611Y-90163003D01*
X120184895Y-90196601D01*
X120230423Y-90251078D01*
X120239271Y-90321521D01*
X120208630Y-90385565D01*
X120203988Y-90390461D01*
X119263842Y-91330607D01*
X119201530Y-91364633D01*
X119130715Y-91359568D01*
X119126529Y-91357921D01*
X118980831Y-91297570D01*
X118885175Y-91278543D01*
X118824632Y-91266500D01*
X118824630Y-91266500D01*
X118665370Y-91266500D01*
X118665367Y-91266500D01*
X118548219Y-91289802D01*
X118509169Y-91297570D01*
X118363471Y-91357921D01*
X118362032Y-91358517D01*
X118229609Y-91446998D01*
X118229603Y-91447003D01*
X118117003Y-91559603D01*
X118116998Y-91559609D01*
X118080990Y-91613500D01*
X118028517Y-91692032D01*
X117967570Y-91839169D01*
X117961904Y-91867654D01*
X117936500Y-91995367D01*
X117936500Y-92154632D01*
X117944484Y-92194768D01*
X117967570Y-92310831D01*
X118028517Y-92457968D01*
X118106715Y-92575000D01*
X118116998Y-92590390D01*
X118117003Y-92590396D01*
X118229603Y-92702996D01*
X118229609Y-92703001D01*
X118229611Y-92703003D01*
X118362032Y-92791483D01*
X118509169Y-92852430D01*
X118665370Y-92883500D01*
X118665371Y-92883500D01*
X118824629Y-92883500D01*
X118824630Y-92883500D01*
X118980831Y-92852430D01*
X119127968Y-92791483D01*
X119257797Y-92704734D01*
X119325549Y-92683520D01*
X119327798Y-92683500D01*
X119460109Y-92683500D01*
X119460110Y-92683500D01*
X119460111Y-92683500D01*
X119564609Y-92655500D01*
X119614873Y-92642032D01*
X119753627Y-92561922D01*
X121215773Y-91099776D01*
X122648867Y-91099776D01*
X122648867Y-92297867D01*
X124174867Y-92297867D01*
X124174867Y-91544426D01*
X123402308Y-90771867D01*
X122864690Y-90771867D01*
X122760470Y-90952382D01*
X122756117Y-90959383D01*
X122728400Y-91000865D01*
X122723596Y-91007568D01*
X122683169Y-91060253D01*
X122677939Y-91066626D01*
X122648867Y-91099776D01*
X121215773Y-91099776D01*
X121898922Y-90416627D01*
X121979032Y-90277873D01*
X122004474Y-90182921D01*
X122020500Y-90123111D01*
X122020500Y-88942296D01*
X122040502Y-88874175D01*
X122057399Y-88853206D01*
X122262846Y-88647759D01*
X122325154Y-88613737D01*
X122395970Y-88618801D01*
X122421933Y-88632088D01*
X122529532Y-88703983D01*
X122676669Y-88764930D01*
X122829814Y-88795392D01*
X122892723Y-88828300D01*
X122894327Y-88829876D01*
X126799171Y-92734720D01*
X126833197Y-92797032D01*
X126833655Y-92848396D01*
X126826500Y-92884364D01*
X126826500Y-93043632D01*
X126836314Y-93092968D01*
X126857570Y-93199831D01*
X126918517Y-93346968D01*
X127006997Y-93479389D01*
X127006998Y-93479390D01*
X127007003Y-93479396D01*
X127119603Y-93591996D01*
X127119609Y-93592001D01*
X127119611Y-93592003D01*
X127252032Y-93680483D01*
X127399169Y-93741430D01*
X127555370Y-93772500D01*
X127555371Y-93772500D01*
X127714629Y-93772500D01*
X127714630Y-93772500D01*
X127870831Y-93741430D01*
X128017968Y-93680483D01*
X128150389Y-93592003D01*
X128263003Y-93479389D01*
X128351483Y-93346968D01*
X128412430Y-93199831D01*
X128443500Y-93043630D01*
X128443500Y-92884370D01*
X128412430Y-92728169D01*
X128351483Y-92581032D01*
X128263003Y-92448611D01*
X128263001Y-92448609D01*
X128262996Y-92448603D01*
X128150396Y-92336003D01*
X128150390Y-92335998D01*
X128139917Y-92329000D01*
X128073781Y-92284809D01*
X128054691Y-92269142D01*
X123754876Y-87969327D01*
X123720850Y-87907015D01*
X123720392Y-87904814D01*
X123689930Y-87751669D01*
X123628983Y-87604532D01*
X123557091Y-87496937D01*
X123535877Y-87429187D01*
X123554660Y-87360720D01*
X123572758Y-87337847D01*
X123754857Y-87155748D01*
X125188867Y-87155748D01*
X125188867Y-87217867D01*
X125663608Y-87217867D01*
X127728867Y-87217867D01*
X128929676Y-87217867D01*
X128941955Y-87203865D01*
X128947592Y-87197846D01*
X129254867Y-86890570D01*
X129254867Y-85747000D01*
X129194234Y-85747000D01*
X129174524Y-85745449D01*
X128993251Y-85716739D01*
X128974025Y-85712123D01*
X128911684Y-85691867D01*
X127728867Y-85691867D01*
X127728867Y-87217867D01*
X125663608Y-87217867D01*
X125764128Y-87176230D01*
X125769896Y-87174005D01*
X125805123Y-87161400D01*
X125810998Y-87159459D01*
X125858647Y-87145005D01*
X125864606Y-87143356D01*
X125900895Y-87134266D01*
X125906929Y-87132911D01*
X126111970Y-87092125D01*
X126118066Y-87091067D01*
X126155087Y-87085576D01*
X126161227Y-87084819D01*
X126210780Y-87079940D01*
X126216947Y-87079486D01*
X126254301Y-87077652D01*
X126260480Y-87077500D01*
X126469520Y-87077500D01*
X126475699Y-87077652D01*
X126513053Y-87079486D01*
X126519220Y-87079940D01*
X126568773Y-87084819D01*
X126574913Y-87085576D01*
X126611934Y-87091067D01*
X126618030Y-87092125D01*
X126714867Y-87111387D01*
X126714867Y-85691867D01*
X126652749Y-85691867D01*
X125188867Y-87155748D01*
X123754857Y-87155748D01*
X127080201Y-83830405D01*
X127142513Y-83796379D01*
X127169296Y-83793500D01*
X131230500Y-83793500D01*
X131298621Y-83813502D01*
G37*
%TD.AperFunction*%
%TA.AperFunction,Conductor*%
G36*
X134789075Y-88457993D02*
G01*
X134854901Y-88572007D01*
X134947993Y-88665099D01*
X135062007Y-88730925D01*
X135130050Y-88749157D01*
X134490830Y-89388377D01*
X134490831Y-89388378D01*
X134543249Y-89426463D01*
X134543251Y-89426464D01*
X134691955Y-89502233D01*
X134743570Y-89550981D01*
X134760636Y-89619896D01*
X134737735Y-89687098D01*
X134682138Y-89731250D01*
X134634752Y-89740500D01*
X133336350Y-89740500D01*
X133268229Y-89720498D01*
X133221736Y-89666842D01*
X133211632Y-89596568D01*
X133241126Y-89531988D01*
X133279144Y-89502234D01*
X133427009Y-89426894D01*
X133600004Y-89301206D01*
X133751206Y-89150004D01*
X133876894Y-88977009D01*
X133876902Y-88976992D01*
X133877854Y-88975441D01*
X133878377Y-88974967D01*
X133879804Y-88973004D01*
X133880216Y-88973303D01*
X133930497Y-88927804D01*
X134000537Y-88916189D01*
X134065738Y-88944285D01*
X134090485Y-88972842D01*
X134090624Y-88972742D01*
X134091794Y-88974353D01*
X134092726Y-88975428D01*
X134093536Y-88976750D01*
X134131620Y-89029167D01*
X134131621Y-89029168D01*
X134770841Y-88389947D01*
X134789075Y-88457993D01*
G37*
%TD.AperFunction*%
%TA.AperFunction,Conductor*%
G36*
X134065445Y-86404766D02*
G01*
X134090021Y-86433130D01*
X134090196Y-86433004D01*
X134091668Y-86435030D01*
X134092439Y-86435920D01*
X134093108Y-86437012D01*
X134116226Y-86468831D01*
X134218794Y-86610004D01*
X134218796Y-86610006D01*
X134218798Y-86610009D01*
X134369990Y-86761201D01*
X134369993Y-86761203D01*
X134369996Y-86761206D01*
X134542991Y-86886894D01*
X134543001Y-86886899D01*
X134544567Y-86887859D01*
X134545042Y-86888384D01*
X134546996Y-86889804D01*
X134546697Y-86890214D01*
X134592200Y-86940505D01*
X134603808Y-87010546D01*
X134575707Y-87075745D01*
X134547157Y-87100484D01*
X134547259Y-87100624D01*
X134545639Y-87101800D01*
X134544574Y-87102724D01*
X134543261Y-87103528D01*
X134490831Y-87141621D01*
X135130052Y-87780841D01*
X135062007Y-87799075D01*
X134947993Y-87864901D01*
X134854901Y-87957993D01*
X134789075Y-88072007D01*
X134770842Y-88140051D01*
X134131622Y-87500831D01*
X134131621Y-87500831D01*
X134093528Y-87553261D01*
X134092724Y-87554574D01*
X134092288Y-87554967D01*
X134090624Y-87557259D01*
X134090142Y-87556909D01*
X134040075Y-87602203D01*
X133970033Y-87613807D01*
X133904836Y-87585702D01*
X133879901Y-87556924D01*
X133879804Y-87556996D01*
X133878975Y-87555855D01*
X133877859Y-87554567D01*
X133876899Y-87553001D01*
X133876894Y-87552991D01*
X133751206Y-87379996D01*
X133751203Y-87379993D01*
X133751201Y-87379990D01*
X133600009Y-87228798D01*
X133600006Y-87228796D01*
X133600004Y-87228794D01*
X133468032Y-87132911D01*
X133427012Y-87103108D01*
X133425920Y-87102439D01*
X133425591Y-87102075D01*
X133423004Y-87100196D01*
X133423398Y-87099652D01*
X133378283Y-87049796D01*
X133366670Y-86979756D01*
X133394766Y-86914555D01*
X133423130Y-86889978D01*
X133423004Y-86889804D01*
X133425030Y-86888331D01*
X133425920Y-86887561D01*
X133426997Y-86886899D01*
X133427009Y-86886894D01*
X133600004Y-86761206D01*
X133751206Y-86610004D01*
X133876894Y-86437009D01*
X133876899Y-86436997D01*
X133877561Y-86435920D01*
X133877924Y-86435591D01*
X133879804Y-86433004D01*
X133880347Y-86433398D01*
X133930204Y-86388283D01*
X134000244Y-86376670D01*
X134065445Y-86404766D01*
G37*
%TD.AperFunction*%
%TA.AperFunction,Conductor*%
G36*
X134448041Y-77825850D02*
G01*
X134498772Y-77856772D01*
X136900227Y-80258227D01*
X136934253Y-80320539D01*
X136932839Y-80379932D01*
X136913500Y-80452107D01*
X136913500Y-82417534D01*
X136893498Y-82485655D01*
X136839842Y-82532148D01*
X136769568Y-82542252D01*
X136739285Y-82533944D01*
X136724377Y-82527769D01*
X136724370Y-82527767D01*
X136592322Y-82501500D01*
X136592319Y-82501500D01*
X136501807Y-82501500D01*
X136433686Y-82481498D01*
X136399871Y-82449561D01*
X136382003Y-82424968D01*
X136291206Y-82299996D01*
X136291203Y-82299993D01*
X136291201Y-82299990D01*
X136140009Y-82148798D01*
X136140006Y-82148796D01*
X136140004Y-82148794D01*
X135967009Y-82023106D01*
X135776483Y-81926028D01*
X135776480Y-81926027D01*
X135776478Y-81926026D01*
X135573120Y-81859952D01*
X135573123Y-81859952D01*
X135533801Y-81853724D01*
X135361916Y-81826500D01*
X135148084Y-81826500D01*
X134937945Y-81859783D01*
X134936878Y-81859952D01*
X134733521Y-81926026D01*
X134733515Y-81926029D01*
X134542987Y-82023108D01*
X134369995Y-82148794D01*
X134267018Y-82251771D01*
X134204706Y-82285796D01*
X134133890Y-82280730D01*
X134077054Y-82238184D01*
X134059871Y-82206715D01*
X134015889Y-82088796D01*
X134015886Y-82088792D01*
X134015886Y-82088791D01*
X133928261Y-81971738D01*
X133811207Y-81884112D01*
X133811202Y-81884110D01*
X133674204Y-81833011D01*
X133674196Y-81833009D01*
X133613649Y-81826500D01*
X133613638Y-81826500D01*
X131816362Y-81826500D01*
X131816350Y-81826500D01*
X131755803Y-81833009D01*
X131755795Y-81833011D01*
X131618797Y-81884110D01*
X131618792Y-81884112D01*
X131501738Y-81971738D01*
X131414112Y-82088792D01*
X131414110Y-82088797D01*
X131363011Y-82225795D01*
X131363009Y-82225803D01*
X131356500Y-82286350D01*
X131356500Y-82450500D01*
X131336498Y-82518621D01*
X131282842Y-82565114D01*
X131230500Y-82576500D01*
X126784946Y-82576500D01*
X126774534Y-82579290D01*
X126630186Y-82617967D01*
X126630179Y-82617970D01*
X126491432Y-82698076D01*
X126491422Y-82698084D01*
X124623044Y-84566462D01*
X124560732Y-84600488D01*
X124489916Y-84595423D01*
X124444855Y-84566463D01*
X124340389Y-84461997D01*
X124207968Y-84373517D01*
X124060831Y-84312570D01*
X123978829Y-84296259D01*
X123904632Y-84281500D01*
X123904630Y-84281500D01*
X123745370Y-84281500D01*
X123745367Y-84281500D01*
X123628219Y-84304802D01*
X123589169Y-84312570D01*
X123442032Y-84373517D01*
X123312202Y-84460265D01*
X123244451Y-84481480D01*
X123242202Y-84481500D01*
X122220889Y-84481500D01*
X122103467Y-84512963D01*
X122103466Y-84512962D01*
X122066134Y-84522966D01*
X122066129Y-84522967D01*
X122066128Y-84522968D01*
X122066127Y-84522968D01*
X122066123Y-84522970D01*
X121927376Y-84603075D01*
X121927366Y-84603083D01*
X121548595Y-84981855D01*
X121486283Y-85015881D01*
X121415468Y-85010816D01*
X121358632Y-84968269D01*
X121333821Y-84901749D01*
X121333500Y-84892760D01*
X121333500Y-83520305D01*
X121353502Y-83452184D01*
X121370405Y-83431210D01*
X123239115Y-81562500D01*
X130268867Y-81562500D01*
X130546616Y-81562500D01*
X130575518Y-81517525D01*
X130580649Y-81510134D01*
X130711701Y-81335070D01*
X130717344Y-81328067D01*
X130752987Y-81286932D01*
X130759117Y-81280349D01*
X130810349Y-81229117D01*
X130816932Y-81222987D01*
X130858067Y-81187344D01*
X130865070Y-81181701D01*
X131040134Y-81050649D01*
X131047525Y-81045518D01*
X131093329Y-81016083D01*
X131101065Y-81011493D01*
X131164656Y-80976772D01*
X131172700Y-80972746D01*
X131222196Y-80950144D01*
X131230501Y-80946704D01*
X131431126Y-80871873D01*
X131438579Y-80869355D01*
X131484138Y-80855533D01*
X131491739Y-80853484D01*
X131553428Y-80838905D01*
X131561139Y-80837335D01*
X131608094Y-80829294D01*
X131615894Y-80828208D01*
X131721481Y-80816857D01*
X131724844Y-80816541D01*
X131745191Y-80814904D01*
X131748558Y-80814678D01*
X131775670Y-80813226D01*
X131779034Y-80813091D01*
X131794867Y-80812666D01*
X131794867Y-80611867D01*
X130268867Y-80611867D01*
X130268867Y-81562500D01*
X123239115Y-81562500D01*
X124071210Y-80730405D01*
X124133522Y-80696379D01*
X124160305Y-80693500D01*
X125259448Y-80693500D01*
X125327569Y-80713502D01*
X125329434Y-80714725D01*
X125347032Y-80726483D01*
X125494169Y-80787430D01*
X125650370Y-80818500D01*
X125650371Y-80818500D01*
X125809629Y-80818500D01*
X125809630Y-80818500D01*
X125965831Y-80787430D01*
X126112968Y-80726483D01*
X126245389Y-80638003D01*
X126358003Y-80525389D01*
X126446483Y-80392968D01*
X126507430Y-80245831D01*
X126538500Y-80089630D01*
X126538500Y-79930370D01*
X126507430Y-79774169D01*
X126446483Y-79627032D01*
X126426996Y-79597867D01*
X127728867Y-79597867D01*
X128148173Y-79597867D01*
X130268867Y-79597867D01*
X131794867Y-79597867D01*
X132808867Y-79597867D01*
X134334867Y-79597867D01*
X134334867Y-79307897D01*
X133884470Y-78857500D01*
X132808867Y-78857500D01*
X132808867Y-79597867D01*
X131794867Y-79597867D01*
X131794867Y-78857500D01*
X130268867Y-78857500D01*
X130268867Y-79597867D01*
X128148173Y-79597867D01*
X128219822Y-79545811D01*
X128236680Y-79535480D01*
X128400208Y-79452158D01*
X128418475Y-79444592D01*
X128593025Y-79387877D01*
X128612251Y-79383261D01*
X128793524Y-79354551D01*
X128813234Y-79353000D01*
X128996766Y-79353000D01*
X129016476Y-79354551D01*
X129197749Y-79383261D01*
X129216975Y-79387877D01*
X129254867Y-79400188D01*
X129254867Y-78857500D01*
X127728867Y-78857500D01*
X127728867Y-79597867D01*
X126426996Y-79597867D01*
X126358003Y-79494611D01*
X126358001Y-79494609D01*
X126357996Y-79494603D01*
X126245396Y-79382003D01*
X126245390Y-79381998D01*
X126237470Y-79376706D01*
X126112968Y-79293517D01*
X125965831Y-79232570D01*
X125887730Y-79217035D01*
X125809632Y-79201500D01*
X125809630Y-79201500D01*
X125650370Y-79201500D01*
X125650367Y-79201500D01*
X125533219Y-79224802D01*
X125494169Y-79232570D01*
X125494167Y-79232571D01*
X125347032Y-79293517D01*
X125329450Y-79305265D01*
X125261697Y-79326480D01*
X125259448Y-79326500D01*
X123757678Y-79326500D01*
X123659314Y-79346065D01*
X123625630Y-79352766D01*
X123625629Y-79352766D01*
X123625626Y-79352767D01*
X123537674Y-79389199D01*
X123537674Y-79389198D01*
X123501246Y-79404287D01*
X123501241Y-79404289D01*
X123444327Y-79442319D01*
X123389294Y-79479090D01*
X123389288Y-79479095D01*
X120739094Y-82129289D01*
X120676782Y-82163315D01*
X120605966Y-82158250D01*
X120560904Y-82129289D01*
X117615458Y-79183843D01*
X117581432Y-79121531D01*
X117586497Y-79050716D01*
X117588135Y-79046554D01*
X117617430Y-78975831D01*
X117648500Y-78819630D01*
X117648500Y-78660370D01*
X117617430Y-78504169D01*
X117556483Y-78357032D01*
X117468003Y-78224611D01*
X117468001Y-78224609D01*
X117467996Y-78224603D01*
X117355396Y-78112003D01*
X117355390Y-78111998D01*
X117355389Y-78111997D01*
X117298917Y-78074264D01*
X117253390Y-78019788D01*
X117244542Y-77949345D01*
X117275183Y-77885301D01*
X117335585Y-77847990D01*
X117368920Y-77843500D01*
X134304891Y-77843500D01*
X134304892Y-77843500D01*
X134377066Y-77824161D01*
X134448041Y-77825850D01*
G37*
%TD.AperFunction*%
%TD*%
M02*
