%TF.GenerationSoftware,KiCad,Pcbnew,9.0.4*%
%TF.CreationDate,2025-09-27T01:26:14+08:00*%
%TF.ProjectId,KiCAD_Proj (MCU datalogger),4b694341-445f-4507-926f-6a20284d4355,rev?*%
%TF.SameCoordinates,Original*%
%TF.FileFunction,Plated,1,2,PTH,Drill*%
%TF.FilePolarity,Positive*%
%FSLAX46Y46*%
G04 Gerber Fmt 4.6, Leading zero omitted, Abs format (unit mm)*
G04 Created by KiCad (PCBNEW 9.0.4) date 2025-09-27 01:26:14*
%MOMM*%
%LPD*%
G01*
G04 APERTURE LIST*
%TA.AperFunction,ViaDrill*%
%ADD10C,0.300000*%
%TD*%
%TA.AperFunction,ComponentDrill*%
%ADD11C,1.000000*%
%TD*%
G04 APERTURE END LIST*
D10*
X99695000Y-81153000D03*
X100965000Y-95885000D03*
X101727000Y-82042000D03*
X101981000Y-92710000D03*
X102870000Y-88900000D03*
X103505000Y-87630000D03*
X105537000Y-97536000D03*
X107061000Y-90551000D03*
X107315000Y-88900000D03*
X107950000Y-90805000D03*
X108204000Y-84836000D03*
X108204000Y-86233000D03*
X108822606Y-88037411D03*
X110490000Y-92710000D03*
X111125000Y-93980000D03*
X111633000Y-87865000D03*
X111760000Y-86360000D03*
X111760000Y-90805000D03*
X113030000Y-88900000D03*
X113100000Y-94545000D03*
X113900000Y-85490000D03*
X114300000Y-80645000D03*
X114300000Y-88900000D03*
X114300000Y-94615000D03*
X115570000Y-88265000D03*
X115824000Y-90678000D03*
X116459000Y-86868000D03*
X116840000Y-78740000D03*
X116840000Y-89535000D03*
X118618000Y-99045000D03*
X118745000Y-92075000D03*
X119380000Y-83820000D03*
X119634000Y-95885000D03*
X120650000Y-80010000D03*
X120650000Y-89535000D03*
X121285000Y-97790000D03*
X121539000Y-85852000D03*
X122912500Y-87987500D03*
X123825000Y-85090000D03*
X124737500Y-81026000D03*
X125730000Y-80010000D03*
X126365000Y-88900000D03*
X126365000Y-97790000D03*
X127635000Y-92964000D03*
X128905000Y-80645000D03*
X129286000Y-84455000D03*
X130175000Y-88900000D03*
D11*
%TO.C,BT1*%
X93599000Y-85090000D03*
X93599000Y-87630000D03*
%TO.C,J2*%
X97155000Y-103505000D03*
X99695000Y-103505000D03*
X102235000Y-103505000D03*
X104775000Y-103505000D03*
X107315000Y-103505000D03*
X109855000Y-103505000D03*
X112395000Y-103505000D03*
X114935000Y-103505000D03*
X117475000Y-103505000D03*
%TO.C,J3*%
X122555000Y-103505000D03*
X125095000Y-103505000D03*
X127635000Y-103505000D03*
X130175000Y-103505000D03*
%TO.C,J4*%
X132715000Y-83185000D03*
X132715000Y-85725000D03*
X132715000Y-88265000D03*
X135255000Y-83185000D03*
X135255000Y-85725000D03*
X135255000Y-88265000D03*
%TO.C,J1*%
X135255000Y-92075000D03*
X135255000Y-94615000D03*
X135255000Y-97155000D03*
X135255000Y-99695000D03*
M02*
